<?xml version="1.0" standalone="no"?>
<!DOCTYPE svg PUBLIC "-//W3C//DTD SVG 20010904//EN"
 "http://www.w3.org/TR/2001/REC-SVG-20010904/DTD/svg10.dtd">
<svg version="1.0" xmlns="http://www.w3.org/2000/svg"
 width="1000.000000pt" height="1000.000000pt" viewBox="0 0 1000.000000 1000.000000"
 preserveAspectRatio="xMidYMid meet">
<metadata>
Created by potrace 1.16, written by Peter Selinger 2001-2019
</metadata>
<g transform="translate(0.000000,1000.000000) scale(0.100000,-0.100000)"
fill="#0f2949" stroke="none">
<path d="M4628 9551 c-48 -3 -89 -9 -91 -11 -3 -4 29 -505 32 -505 20 -4 245
18 269 26 47 15 111 75 133 124 23 50 25 155 3 217 -18 53 -73 114 -120 134
-43 18 -120 23 -226 15z m209 -87 c15 -11 38 -40 51 -65 19 -37 23 -56 20
-116 -5 -116 -54 -162 -187 -173 -42 -4 -77 -6 -79 -5 -1 1 -7 84 -14 184 -10
157 -10 184 3 192 8 5 51 8 96 7 63 -2 88 -8 110 -24z"/>
<path d="M5390 9538 c0 -25 -28 -395 -34 -450 -4 -35 -2 -36 31 -43 19 -3 37
-4 40 -2 5 5 45 499 41 502 -2 1 -20 5 -40 9 -35 6 -38 5 -38 -16z"/>
<path d="M4032 9463 c-16 -3 -21 -10 -18 -21 19 -61 76 -318 76 -342 0 -20
-11 -42 -33 -66 -28 -30 -42 -37 -83 -41 -43 -4 -54 -2 -81 21 -39 32 -52 66
-94 239 l-34 139 -34 -6 c-18 -3 -35 -7 -38 -9 -6 -7 76 -326 92 -356 18 -35
64 -77 98 -90 43 -17 127 -13 172 8 67 30 115 104 115 176 0 11 -18 95 -41
188 -43 177 -40 171 -97 160z"/>
<path d="M5897 9240 c-81 -121 -145 -225 -142 -230 3 -6 22 -10 40 -10 31 0
38 6 70 55 19 30 39 55 44 55 6 0 55 -10 110 -21 l99 -21 7 -62 c8 -75 13 -84
53 -92 27 -5 32 -3 32 12 0 20 -82 516 -86 522 -1 2 -20 6 -41 8 l-38 5 -148
-221z m188 24 c24 -143 28 -135 -60 -115 -41 9 -75 20 -75 24 -2 9 113 187
118 183 1 -2 9 -43 17 -92z"/>
<path d="M6601 9049 c-57 -139 -90 -234 -85 -239 5 -5 20 -11 33 -12 22 -3 29
10 90 159 36 90 69 163 72 163 3 0 32 -97 64 -215 32 -117 61 -219 65 -224 3
-6 17 -12 30 -13 23 -3 30 11 118 226 88 215 93 231 76 243 -39 29 -47 18
-118 -158 l-69 -172 -62 228 c-89 323 -89 323 -214 14z"/>
<path d="M3180 9193 c-250 -109 -231 -97 -219 -132 6 -17 12 -31 14 -31 2 0
35 14 75 31 40 17 74 29 75 27 2 -2 40 -89 85 -193 45 -105 85 -193 89 -198 8
-8 71 11 71 23 0 4 -36 90 -80 190 -44 101 -82 191 -85 200 -4 14 9 23 65 46
38 16 70 32 70 36 0 16 -20 58 -27 57 -5 0 -64 -25 -133 -56z"/>
<path d="M7417 8913 c-9 -21 -9 -28 3 -35 8 -5 39 -24 67 -42 l53 -32 -111
-179 c-61 -98 -113 -184 -116 -191 -6 -15 56 -49 67 -37 4 4 56 87 115 183 59
96 109 176 110 178 2 2 33 -16 71 -38 l67 -42 19 24 c9 12 18 26 18 29 0 8
-325 209 -339 209 -6 0 -17 -12 -24 -27z"/>
<path d="M2570 8870 c-140 -25 -203 -159 -119 -255 39 -44 76 -51 162 -31 93
22 112 20 136 -10 30 -38 26 -71 -13 -110 -33 -33 -43 -36 -116 -38 -32 -1
-35 -4 -38 -32 -3 -27 1 -33 23 -38 60 -15 165 27 204 83 43 60 39 140 -10
195 -40 46 -67 50 -177 30 l-94 -18 -24 27 c-30 35 -30 47 -2 82 25 32 74 55
118 55 28 0 31 3 28 26 -4 32 -29 43 -78 34z"/>
<path d="M1920 8420 c-63 -54 -115 -103 -115 -109 0 -13 313 -381 324 -381 4
0 60 45 125 100 l116 101 -17 24 c-10 13 -20 24 -23 25 -3 0 -45 -34 -94 -76
l-90 -76 -52 58 -53 59 47 40 c26 22 59 51 75 65 l28 25 -23 23 -24 22 -72
-61 -73 -62 -37 43 c-69 80 -71 68 29 151 49 41 89 77 89 80 0 3 -10 15 -22
27 l-23 21 -115 -99z"/>
<path d="M7935 8310 c-88 -104 -160 -193 -160 -199 0 -11 219 -201 233 -201 5
0 17 9 27 20 22 24 30 13 -92 119 l-73 63 51 59 52 59 49 -43 c97 -82 96 -82
118 -62 11 10 20 21 20 25 0 4 -32 34 -70 66 -39 32 -69 62 -68 66 2 4 23 31
48 61 l45 54 91 -78 91 -78 24 25 c20 21 21 26 8 38 -32 30 -215 183 -224 188
-5 3 -82 -79 -170 -182z"/>
<path d="M7516 7539 c-85 -21 -173 -104 -202 -191 -21 -65 -15 -167 14 -223
27 -54 97 -119 152 -144 61 -28 178 -28 237 -2 227 103 239 429 20 535 -59 29
-161 40 -221 25z m156 -39 c100 -28 178 -135 178 -244 0 -147 -109 -256 -255
-256 -82 0 -126 21 -188 89 -169 189 18 479 265 411z"/>
<path d="M3109 7426 c-102 -27 -188 -101 -238 -206 -22 -47 -26 -68 -26 -150
0 -82 4 -103 27 -152 35 -76 107 -151 177 -185 50 -25 67 -28 156 -28 87 0
107 3 157 27 79 37 142 98 181 177 29 60 32 74 32 161 0 82 -4 103 -26 150
-54 114 -147 188 -263 209 -75 14 -118 13 -177 -3z m260 -71 c102 -56 164
-162 165 -280 0 -152 -76 -261 -220 -315 -83 -31 -166 -27 -241 10 -114 57
-183 157 -191 276 -9 134 60 253 180 314 60 30 67 31 158 28 82 -3 102 -8 149
-33z"/>
<path d="M4473 7344 c-94 -20 -150 -54 -240 -145 -79 -78 -142 -177 -141 -219
0 -8 -5 -48 -12 -87 -18 -115 8 -245 74 -357 51 -87 169 -185 277 -229 53 -22
62 -22 689 -27 l635 -5 3 -43 c3 -44 -21 -154 -38 -175 -29 -34 -60 -90 -60
-107 0 -26 13 -25 101 5 135 45 206 119 238 246 17 69 21 74 47 77 101 10 211
68 299 155 113 113 155 219 155 386 -1 95 -19 181 -53 248 -30 58 -101 145
-128 155 -10 4 -23 16 -28 27 -15 27 -143 89 -210 101 -88 16 -1531 11 -1608
-6z m1660 -52 c130 -53 233 -152 292 -282 40 -90 48 -235 17 -337 -58 -188
-215 -324 -409 -351 l-47 -7 -13 -64 c-16 -78 -48 -135 -104 -185 -34 -31
-118 -80 -125 -73 -1 1 8 34 22 72 26 79 34 221 12 243 -9 9 -164 12 -635 12
-601 0 -626 1 -684 20 -153 52 -278 179 -326 332 -26 82 -23 236 7 313 68 176
197 287 375 325 22 4 382 7 800 7 l760 -2 58 -23z"/>
<path d="M4754 6901 c-66 -40 -66 -129 0 -171 44 -27 78 -25 115 6 58 49 50
143 -15 170 -44 19 -63 18 -100 -5z"/>
<path d="M7260 6713 c-14 -3 -27 -8 -30 -12 -3 -3 -36 -22 -73 -41 -112 -55
-184 -154 -207 -281 -20 -107 4 -231 60 -319 30 -46 99 -110 120 -110 11 0 3
-81 -10 -90 -4 -3 -10 -18 -13 -35 -10 -50 -35 -102 -68 -140 -41 -46 -34 -68
18 -59 65 11 171 51 221 83 48 30 147 124 164 155 8 14 55 16 486 16 399 0
488 3 537 15 114 30 214 117 266 230 56 124 55 298 -2 369 -5 6 -26 34 -47 61
-44 57 -96 99 -150 122 -20 8 -40 20 -44 27 -5 8 -170 11 -605 12 -329 1 -609
0 -623 -3z m1252 -71 c76 -37 151 -113 189 -189 21 -41 24 -62 24 -153 0 -99
-2 -110 -33 -172 -36 -74 -89 -127 -173 -173 l-54 -30 -511 -3 -511 -3 -58
-66 c-63 -71 -163 -141 -235 -166 -25 -8 -46 -14 -48 -13 -1 2 8 27 22 57 23
53 42 131 48 196 2 28 -5 39 -59 88 -80 72 -121 153 -130 251 -16 189 116 366
301 404 23 5 293 8 601 7 l560 -2 67 -33z"/>
<path d="M1521 6549 c-24 -4 -62 -18 -85 -29 -47 -22 -126 -86 -126 -101 0
-10 -48 -78 -61 -89 -4 -3 -14 -28 -23 -55 -25 -76 -10 -223 33 -309 39 -79
110 -147 199 -189 l67 -32 484 -3 484 -3 71 -72 c42 -43 96 -85 133 -105 70
-37 189 -82 216 -82 33 0 30 29 -8 71 -43 48 -59 84 -80 174 l-16 66 61 56
c37 34 74 81 93 117 31 59 32 65 32 186 0 110 -3 130 -22 167 -45 83 -83 129
-135 165 -110 76 -78 73 -708 75 -311 0 -585 -3 -609 -8z m1160 -43 c74 -17
137 -55 187 -111 64 -73 85 -126 90 -230 6 -130 -17 -187 -114 -281 l-72 -71
14 -84 c8 -46 26 -108 39 -136 14 -32 19 -53 13 -53 -6 0 -48 18 -93 39 -65
32 -96 55 -155 118 l-75 78 -495 5 -495 5 -57 27 c-74 34 -152 112 -186 186
-23 48 -27 71 -27 147 0 80 3 97 31 155 52 107 144 184 251 209 21 5 274 9
563 10 404 0 538 -2 581 -13z"/>
<path d="M1710 6200 c-30 -30 -27 -83 6 -109 15 -12 34 -21 44 -21 10 0 29 9
44 21 52 41 23 129 -44 129 -17 0 -39 -9 -50 -20z"/>
<path d="M6583 6073 c-44 -8 -63 -49 -63 -130 0 -77 16 -125 45 -137 27 -10
35 -7 35 12 0 9 5 34 11 55 l10 37 45 -26 c24 -14 51 -24 58 -21 9 4 22 -5 32
-21 10 -15 26 -33 36 -40 10 -7 18 -24 18 -38 0 -32 18 -31 30 2 7 16 16 24
28 22 25 -5 26 -43 3 -89 -22 -41 -20 -89 3 -89 14 0 69 107 85 165 32 115 -7
203 -104 239 -22 8 -67 26 -100 40 -57 24 -113 30 -172 19z"/>
<path d="M5217 6010 c-16 -5 -48 -26 -72 -47 -23 -21 -53 -45 -64 -53 -19 -13
-21 -21 -15 -64 5 -35 12 -50 25 -53 10 -3 21 -14 24 -24 4 -10 10 -19 15 -19
9 0 30 62 30 89 0 8 6 11 16 7 11 -4 18 1 21 14 5 18 7 18 34 5 33 -18 63 -19
90 -4 16 8 27 4 62 -26 23 -20 45 -46 49 -58 l6 -22 7 22 c5 16 14 21 33 20
26 -2 27 1 30 48 6 104 -61 163 -191 171 -39 2 -85 -1 -100 -6z"/>
<path d="M3231 5987 c-102 -32 -198 -204 -217 -387 l-6 -55 56 -27 c31 -16 63
-28 71 -28 19 0 58 21 68 38 4 6 17 12 28 12 19 0 20 5 15 78 -2 42 -6 91 -8
107 -2 24 1 31 17 33 15 2 25 -7 38 -33 23 -49 54 -48 62 3 10 57 11 59 45 66
47 9 83 7 120 -5 l32 -12 -4 -109 c-5 -128 -10 -136 -95 -153 l-58 -12 3 -34
c5 -50 18 -59 82 -59 l57 0 21 73 c47 161 51 301 12 391 -38 89 -105 126 -225
125 -44 -1 -95 -6 -114 -12z"/>
<path d="M4189 5534 c-18 -19 -45 -41 -58 -47 -47 -23 -47 -39 0 -103 24 -32
50 -65 57 -74 29 -33 202 -281 202 -288 0 -4 12 -22 28 -40 l27 -32 95 35 c52
20 105 43 118 51 15 10 57 18 106 22 75 5 80 4 67 -11 -7 -10 -25 -17 -40 -18
-22 -1 -21 -2 9 -9 21 -5 36 -5 38 1 5 14 32 11 32 -4 0 -8 21 -20 48 -28 66
-20 65 -46 -3 -73 -27 -11 -51 -21 -53 -22 -3 -2 -72 -722 -72 -756 0 -14 9
-18 40 -18 22 0 40 -2 40 -4 0 -7 -109 -532 -126 -606 -9 -41 -20 -77 -23 -80
-4 -3 -22 -72 -40 -155 -32 -144 -35 -173 -66 -690 -17 -297 -30 -559 -27
-581 l4 -41 151 4 c84 3 153 6 155 8 4 4 15 68 58 330 21 127 41 232 45 235 3
3 23 111 43 240 37 228 51 299 116 595 17 77 41 187 53 245 12 60 24 94 26 80
1 -14 6 -27 10 -30 4 -3 35 -143 70 -312 55 -269 69 -368 121 -820 33 -282 62
-530 66 -550 5 -36 25 -50 39 -28 3 6 50 10 106 10 59 0 99 -4 99 -10 0 -5 23
-10 51 -10 l52 0 -7 188 c-3 103 -8 340 -11 527 -6 369 -22 698 -35 730 -7 17
-51 623 -50 698 0 18 5 27 15 27 13 0 15 10 10 58 -7 75 -52 602 -61 716 l-7
88 34 -7 c19 -4 91 -25 160 -47 l126 -40 -13 -57 c-19 -79 -18 -173 3 -216 30
-63 153 -123 226 -110 17 3 82 -1 142 -10 70 -10 209 -18 385 -21 278 -5 325
-8 316 -22 -6 -10 147 8 154 18 3 4 17 10 32 14 15 3 40 17 55 30 l28 24 -3
124 c-7 332 -82 660 -171 749 -34 34 -42 37 -115 44 -102 10 -461 0 -506 -14
-46 -15 -123 -14 -156 1 -24 11 -28 10 -46 -15 -11 -15 -25 -27 -33 -27 -21 0
-89 -81 -135 -161 -24 -41 -44 -76 -46 -77 -6 -9 -393 147 -412 165 -7 7 -18
13 -23 13 -6 0 -38 14 -72 31 -78 40 -212 52 -265 25 -51 -26 -128 -21 -201
15 -59 29 -70 31 -135 26 -57 -5 -90 -16 -173 -56 -57 -28 -109 -55 -115 -61
-7 -7 -56 -31 -108 -55 l-95 -43 -50 53 c-27 29 -96 108 -153 174 -56 67 -106
121 -110 121 -5 0 -24 -16 -43 -36z m2132 -465 c52 -18 55 -24 30 -78 l-24
-49 34 -31 c19 -17 114 -102 212 -188 156 -138 198 -183 168 -183 -8 0 -22 12
-106 89 -22 20 -87 77 -145 126 -147 126 -203 182 -195 194 11 19 -46 13 -91
-9 -53 -26 -114 -37 -114 -21 0 17 26 66 44 80 8 7 13 18 10 25 -7 18 65 56
107 56 20 0 51 -5 70 -11z m221 -83 c131 -56 270 -117 328 -145 l46 -21 39 20
c23 12 59 20 86 20 41 0 51 -4 77 -35 61 -69 48 -147 -19 -123 -15 5 -33 16
-40 24 -6 8 -16 14 -22 14 -11 0 -275 112 -404 171 -49 23 -116 52 -150 66
-35 14 -63 31 -63 39 0 21 9 18 122 -30z"/>
<path d="M2599 4600 c-75 -22 -109 -75 -109 -169 0 -38 -4 -61 -11 -61 -6 0
-34 11 -61 25 -28 14 -52 24 -54 22 -2 -2 -11 -46 -20 -97 -27 -159 -9 -354
50 -515 25 -68 26 -99 9 -205 l-5 -35 -25 50 c-14 28 -29 52 -33 55 -3 3 -32
48 -62 100 -92 156 -329 460 -359 460 -5 0 -12 -7 -15 -15 -4 -10 12 -35 43
-68 54 -58 151 -176 205 -252 63 -88 158 -248 158 -267 0 -10 4 -18 9 -18 16
0 71 -136 71 -176 l0 -39 -20 32 c-11 18 -39 54 -62 79 -132 144 -195 186
-359 240 -77 26 -97 28 -239 29 -139 0 -155 -2 -158 -17 -3 -16 6 -18 82 -18
115 0 225 -16 321 -46 140 -45 210 -92 298 -203 33 -42 63 -78 68 -81 4 -3 15
-21 23 -40 12 -31 12 -38 -1 -64 -9 -17 -21 -36 -29 -43 -15 -15 -40 -131 -49
-225 -4 -45 -11 -68 -19 -68 -7 0 -24 38 -39 88 -22 70 -28 112 -31 217 -3
125 -18 216 -39 243 -5 6 -30 12 -56 12 -26 0 -51 4 -57 9 -5 5 -48 12 -96 15
-78 6 -88 5 -88 -10 0 -27 60 -197 85 -239 23 -41 113 -135 127 -135 5 0 26
-11 47 -24 33 -21 42 -34 60 -94 11 -39 21 -73 21 -76 0 -3 -19 -6 -43 -6 -73
0 -83 -28 -42 -110 14 -27 25 -54 25 -60 0 -6 -29 -24 -66 -40 -77 -35 -170
-104 -216 -161 -18 -22 -45 -55 -61 -72 -43 -49 -105 -184 -122 -265 -20 -95
-19 -287 1 -372 8 -35 34 -105 58 -155 35 -74 58 -106 132 -181 49 -50 100
-99 113 -108 25 -15 25 -16 8 -51 l-17 -35 -173 0 c-96 0 -309 -3 -475 -7
-284 -6 -302 -7 -302 -25 0 -17 123 -18 3980 -18 3857 0 3980 1 3980 18 0 18
-18 19 -307 25 -170 4 -386 7 -481 7 -183 0 -195 3 -177 48 5 11 9 13 12 5 5
-15 33 -18 33 -4 0 5 -5 11 -11 13 -6 2 14 21 43 42 30 22 69 61 87 87 23 33
37 46 48 42 13 -5 15 -2 11 15 -3 12 0 26 7 32 8 6 26 50 41 98 49 154 36 336
-33 465 -15 26 -30 47 -35 47 -5 0 -12 10 -17 23 -27 69 -164 180 -264 213
-29 9 -55 18 -59 21 -4 2 0 22 8 45 22 63 5 87 -61 88 -17 0 -22 10 -31 54
-15 85 12 125 199 293 19 17 53 41 76 52 l40 21 50 -20 c28 -11 86 -38 130
-60 87 -43 111 -49 111 -25 0 14 -97 65 -215 115 l-30 12 45 20 c25 11 84 31
132 44 l86 25 72 -30 c40 -17 81 -31 91 -31 38 0 18 27 -38 50 l-58 24 55 14
c31 7 126 15 215 16 160 4 199 14 139 36 -37 14 -210 11 -320 -6 -134 -20
-131 -21 -90 30 38 45 45 66 23 66 -16 0 -43 -29 -85 -91 -25 -37 -39 -48 -69
-54 -21 -4 -77 -21 -125 -39 -49 -18 -88 -32 -88 -31 0 12 38 88 61 122 30 43
36 67 20 78 -13 8 -66 -71 -106 -160 -26 -57 -42 -78 -67 -91 -18 -9 -49 -30
-69 -45 -20 -16 -41 -29 -47 -29 -14 0 -152 -147 -161 -172 -6 -18 -11 -13
-34 35 l-28 55 26 119 c37 174 101 362 169 498 61 120 61 120 106 132 25 6 89
12 143 12 92 1 97 2 97 22 0 21 -3 21 -120 17 -66 -2 -120 -2 -120 0 0 2 30
41 66 87 l66 83 77 7 c42 3 87 7 101 8 15 1 25 8 25 17 0 12 -15 15 -79 15
l-79 0 109 103 c76 72 105 105 97 113 -11 11 -81 -43 -181 -140 l-52 -51 0 37
c0 21 -4 44 -9 52 -18 27 -31 -1 -31 -66 0 -63 -2 -68 -43 -117 -24 -28 -54
-66 -67 -85 -26 -37 -33 -32 -44 34 -14 82 -18 95 -32 95 -18 0 -18 -36 1
-138 l15 -80 -51 -83 c-28 -46 -62 -105 -75 -130 -36 -72 -111 -303 -130 -404
-10 -49 -21 -93 -26 -96 -5 -3 -42 27 -83 67 -41 40 -80 76 -87 81 -7 4 -21
33 -32 63 -25 74 -85 180 -101 180 -28 0 -25 -21 9 -82 19 -35 39 -75 45 -89
l10 -27 -64 33 c-35 19 -89 42 -120 51 -38 12 -60 25 -65 39 -4 11 -11 108
-14 215 -4 107 -11 197 -15 200 -10 6 -35 423 -27 447 6 17 -27 269 -36 278
-2 2 -105 5 -229 6 -200 1 -399 14 -545 34 l-51 7 -11 -153 c-7 -87 -8 -155
-4 -157 5 -1 17 -9 27 -16 18 -13 18 -19 2 -147 -41 -318 -79 -644 -107 -914
-72 -694 -94 -890 -100 -895 -4 -3 -21 -149 -38 -324 -24 -248 -29 -323 -20
-334 10 -12 44 -13 193 -9 176 5 180 6 192 29 7 13 13 33 13 45 0 12 11 107
25 210 14 103 48 361 75 573 28 212 62 477 77 590 15 113 30 207 35 208 4 2 8
30 8 63 l0 59 39 0 c38 0 39 -1 45 -42 7 -44 46 -381 112 -978 21 -184 41
-337 44 -340 7 -5 13 -55 25 -210 3 -36 8 -76 11 -88 3 -13 -1 -31 -7 -39 -9
-11 -10 -16 -1 -22 6 -3 15 -17 20 -30 9 -24 10 -24 177 -27 162 -3 169 -4
194 -27 14 -14 51 -42 82 -64 49 -34 55 -42 48 -61 -12 -33 -49 -28 -179 24
l-115 46 -52 -26 c-38 -18 -53 -32 -53 -46 0 -20 -6 -20 -335 -20 -331 0 -335
0 -335 21 0 15 -14 26 -55 44 -53 24 -55 24 -102 8 -26 -9 -76 -29 -109 -45
-50 -23 -76 -28 -137 -28 l-74 0 -50 50 c-46 46 -54 50 -97 50 -40 0 -48 -4
-58 -25 -14 -31 -22 -31 -42 -3 -15 22 -16 21 -16 -25 l0 -47 -355 0 -355 0 0
28 c0 36 -8 44 -32 31 -15 -8 -26 -4 -57 20 l-39 31 -66 -25 c-37 -14 -73 -25
-82 -25 -8 0 -27 -13 -41 -30 l-25 -30 -201 0 c-165 0 -211 3 -249 17 -27 9
-48 23 -48 31 0 10 -7 13 -21 9 -11 -3 -46 4 -76 15 l-55 21 -54 -26 c-46 -23
-54 -31 -49 -47 6 -20 1 -20 -249 -20 l-255 0 -3 22 c-2 16 -18 29 -60 47 -65
27 -55 29 -198 -37 -30 -14 -81 -27 -112 -30 -57 -4 -57 -4 -72 29 -14 33 -13
34 17 58 66 51 173 170 207 229 l35 62 145 0 145 0 -3 267 c-1 148 1 531 5
853 l8 584 64 -414 c36 -228 72 -464 82 -525 83 -541 103 -661 110 -665 4 -3
9 -26 11 -50 l3 -45 168 -3 167 -2 0 32 c0 56 -63 603 -70 608 -4 3 -12 55
-18 115 -6 61 -50 452 -97 870 -47 418 -87 783 -89 810 l-3 50 -94 6 c-186 13
-672 22 -666 13 3 -5 -5 -54 -19 -109 -13 -54 -28 -131 -33 -169 -8 -68 -8
-66 -10 59 -1 72 -5 136 -10 144 -7 11 -16 8 -47 -13 -79 -53 -184 -212 -239
-361 -11 -27 -23 -53 -27 -56 -11 -7 -34 -177 -25 -185 3 -4 18 7 32 24 39 47
266 192 300 192 3 0 5 -16 5 -36 0 -32 -4 -37 -47 -55 -113 -49 -312 -152
-355 -185 -57 -42 -54 -50 -37 122 10 97 14 112 39 141 39 44 76 109 91 161 7
23 16 42 20 42 20 0 53 260 42 343 l-6 47 -51 0 c-29 0 -57 5 -64 12 -7 7 -12
37 -12 68 0 90 47 146 130 157 22 3 43 10 46 14 6 11 -51 10 -87 -1z m4475
-502 c7 -83 30 -420 61 -913 14 -220 34 -535 45 -700 11 -165 27 -406 35 -535
9 -129 17 -269 18 -310 l2 -75 -155 0 -155 0 -17 145 c-9 80 -39 343 -67 585
-90 777 -173 1460 -177 1464 -13 13 -23 -27 -38 -144 -9 -71 -30 -227 -46
-345 -16 -118 -43 -318 -60 -445 -17 -126 -42 -306 -55 -400 -13 -93 -45 -323
-70 -509 -25 -187 -48 -343 -51 -348 -3 -4 -77 -8 -165 -8 l-159 0 0 28 c0 38
33 359 80 792 22 201 49 448 61 550 50 464 143 1208 152 1216 3 3 29 -2 58
-10 29 -9 104 -21 166 -28 128 -13 292 -1 423 31 113 28 108 30 114 -41z
m-4184 -748 c5 -162 17 -374 25 -470 8 -96 15 -187 15 -202 l0 -27 -67 45
c-38 24 -92 56 -120 70 -29 15 -53 30 -53 36 0 5 11 31 25 58 45 88 32 110
-66 110 l-66 0 5 53 c2 28 8 57 12 62 4 6 11 43 15 84 7 72 9 76 56 124 27 27
49 53 49 58 0 4 16 35 36 69 20 33 35 63 32 65 -2 3 -51 5 -107 6 -56 1 -99 5
-94 10 13 12 285 151 289 147 2 -2 8 -136 14 -298z m-333 -201 l-13 -124 -14
90 c-7 50 -25 136 -40 192 l-28 102 42 35 41 34 13 -103 c10 -84 10 -124 -1
-226z m4717 35 c47 -20 88 -40 91 -44 3 -5 -19 -16 -49 -24 -30 -9 -75 -25
-100 -36 l-46 -19 0 27 c0 15 -3 51 -6 80 -8 64 -6 65 110 16z m262 -180 l97
-96 -7 -51 c-3 -29 -6 -89 -6 -134 l0 -83 -38 0 c-21 0 -47 -6 -58 -14 -17
-13 -18 -18 -6 -48 26 -64 26 -69 1 -75 -67 -18 -198 -95 -245 -145 l-50 -53
-19 275 c-10 151 -20 310 -23 352 l-4 77 52 26 c42 21 170 62 202 64 5 1 51
-42 104 -95z m-4843 -80 c3 -4 -10 -38 -29 -76 -19 -39 -34 -71 -32 -73 2 -2
33 -16 70 -33 80 -36 138 -75 199 -134 l46 -43 12 -135 c10 -117 28 -249 83
-611 l12 -77 -35 -57 c-42 -70 -138 -170 -201 -210 -44 -28 -46 -30 -33 -55 7
-14 16 -35 19 -47 l7 -23 -405 0 c-435 0 -421 -2 -391 50 8 14 14 30 15 36 0
6 -31 34 -69 62 -87 63 -150 142 -206 255 -61 124 -79 209 -73 360 4 105 9
134 36 205 53 142 128 248 234 330 56 43 166 104 206 114 l23 6 -35 71 c-20
39 -36 75 -36 81 0 11 572 15 583 4z m5122 -386 l-24 -53 57 -15 c174 -48 326
-195 382 -369 20 -62 22 -85 18 -188 -4 -97 -9 -129 -30 -179 -51 -122 -142
-230 -245 -291 -42 -24 -43 -25 -28 -53 8 -16 15 -31 15 -35 0 -3 -119 -5
-265 -5 -146 0 -265 3 -265 8 0 4 7 18 16 30 12 18 13 26 4 37 -7 8 -17 15
-22 15 -14 0 -112 75 -139 108 -24 28 -26 39 -38 238 -7 115 -16 260 -22 323
-11 134 -7 144 92 236 68 62 126 95 214 120 33 10 61 19 63 20 2 2 -3 16 -11
32 -8 15 -18 38 -21 51 l-7 22 140 0 140 0 -24 -52z"/>
<path d="M4122 1173 c-14 -26 -182 -630 -182 -652 0 -38 40 -34 170 15 114 42
195 88 198 112 6 38 -25 36 -119 -7 -100 -47 -169 -73 -169 -65 0 4 36 137 80
296 63 226 78 293 69 304 -16 19 -36 18 -47 -3z"/>
<path d="M5816 933 c-3 -27 -22 -97 -41 -158 -39 -122 -42 -153 -19 -162 23
-9 38 13 69 102 31 92 69 153 108 175 24 13 29 13 37 0 13 -19 4 -68 -27 -155
-14 -38 -26 -83 -27 -100 -1 -25 3 -30 23 -30 21 0 29 10 49 60 61 151 68 254
18 287 -16 11 -84 10 -106 -2 -15 -8 -20 -6 -25 10 -4 12 -15 20 -29 20 -20 0
-24 -6 -30 -47z"/>
<path d="M5224 957 c-3 -9 -22 -12 -67 -9 -55 3 -67 0 -109 -27 -65 -42 -101
-99 -106 -169 -7 -103 55 -156 145 -126 l38 13 -40 -31 c-73 -58 -151 -142
-174 -191 -53 -109 -31 -187 51 -187 34 0 46 6 74 35 43 46 88 139 116 242
l23 82 85 49 c47 28 100 57 118 67 25 12 32 22 30 38 -5 36 -42 32 -127 -16
l-79 -45 13 42 c7 22 25 74 39 114 14 41 26 87 26 103 0 24 -4 29 -25 29 -14
0 -28 -6 -31 -13z m-37 -78 c33 -33 -81 -199 -136 -199 -69 0 -48 135 29 188
35 23 89 29 107 11z"/>
<path d="M4562 943 c-61 -30 -112 -118 -112 -194 0 -78 49 -139 112 -139 36 1
101 34 129 67 22 27 33 31 89 35 53 4 67 9 86 31 13 15 21 34 18 42 -7 17 -49
20 -59 5 -3 -5 -21 -10 -38 -10 -31 0 -32 1 -33 44 -2 103 -101 164 -192 119z
m61 -171 c34 -35 34 -45 1 -71 -40 -32 -80 -28 -100 10 -21 41 -12 85 29 140
l32 44 5 -47 c4 -33 14 -56 33 -76z"/>
<path d="M5530 918 c-22 -36 -70 -178 -70 -208 0 -55 43 -92 96 -82 41 7 174
143 174 177 0 21 -5 25 -27 25 -21 -1 -36 -12 -62 -46 -46 -61 -100 -102 -111
-85 -10 17 1 60 34 140 30 74 32 96 10 105 -23 9 -22 9 -44 -26z"/>
</g>
</svg>
