<?xml version="1.0" standalone="no"?>
<!DOCTYPE svg PUBLIC "-//W3C//DTD SVG 20010904//EN"
 "http://www.w3.org/TR/2001/REC-SVG-20010904/DTD/svg10.dtd">
<svg version="1.0" xmlns="http://www.w3.org/2000/svg"
 width="1000.000000pt" height="1000.000000pt" viewBox="0 0 1000.000000 1000.000000"
 preserveAspectRatio="xMidYMid meet">
<metadata>
Created by potrace 1.16, written by Peter Selinger 2001-2019
</metadata>
<g transform="translate(0.000000,1000.000000) scale(0.100000,-0.100000)"
fill="#0f2949" stroke="none">
<path d="M5046 9508 c-3 -29 -8 -111 -11 -183 -3 -71 -8 -163 -11 -202 l-6
-73 35 0 35 0 6 78 c3 42 8 127 12 187 l7 110 76 -155 c103 -210 99 -210 217
-19 49 78 90 137 92 131 1 -5 -1 -86 -7 -178 -5 -92 -8 -171 -5 -176 3 -4 18
-8 34 -8 27 0 28 1 34 68 3 37 8 130 11 207 3 77 8 162 11 188 l6 48 -43 -3
-43 -3 -100 -160 -100 -160 -88 178 -88 177 -34 0 c-34 0 -35 0 -40 -52z"/>
<path d="M4372 9508 l-83 -10 6 -32 c2 -17 16 -130 30 -251 14 -120 27 -221
29 -222 7 -7 192 18 243 33 108 30 162 109 163 234 0 91 -29 161 -84 207 -65
53 -125 61 -304 41z m190 -58 c23 0 75 -46 95 -84 65 -124 12 -261 -109 -284
-86 -17 -128 -21 -128 -14 0 4 -9 87 -21 185 -12 98 -19 181 -16 184 9 8 118
21 142 17 11 -2 28 -4 37 -4z"/>
<path d="M5902 9432 c-29 -140 -84 -453 -81 -456 2 -2 20 -6 39 -8 l35 -3 46
250 c26 138 46 250 45 251 0 1 -18 4 -38 7 l-37 6 -9 -47z"/>
<path d="M3773 9383 c-25 -5 -24 5 -58 -300 -31 -276 -31 -257 2 -248 43 10
53 24 53 71 0 79 8 88 107 114 48 12 93 25 99 27 6 2 30 -22 54 -53 40 -53 44
-56 77 -51 20 4 38 8 40 11 9 9 -319 431 -335 432 -10 1 -27 0 -39 -3z m120
-204 l56 -77 -62 -16 c-34 -10 -70 -20 -81 -23 -17 -5 -18 0 -11 83 3 49 9
100 12 112 7 29 9 27 86 -79z"/>
<path d="M6238 9148 c-42 -133 -75 -244 -73 -246 2 -2 18 -5 36 -5 l32 -2 49
160 c28 88 53 164 57 168 4 4 43 -90 86 -209 67 -186 82 -217 103 -225 14 -5
27 -8 29 -5 5 4 152 467 153 478 0 6 -61 30 -65 26 -2 -2 -26 -81 -56 -176
-29 -95 -56 -169 -59 -165 -4 5 -40 99 -80 210 -40 111 -76 206 -79 211 -3 6
-18 13 -32 17 -25 6 -25 5 -101 -237z"/>
<path d="M7011 9122 c-21 -39 -201 -445 -199 -447 2 -1 18 -10 36 -19 l33 -17
21 48 c11 26 59 131 105 232 46 102 80 187 76 191 -5 3 -20 11 -35 18 -23 10
-29 9 -37 -6z"/>
<path d="M2758 8974 c-16 -8 -28 -17 -28 -20 0 -3 52 -106 116 -230 l116 -224
129 67 c71 38 129 73 129 79 0 5 -6 19 -14 30 -14 18 -17 18 -110 -28 l-95
-47 -101 194 c-56 107 -105 195 -108 195 -4 -1 -19 -8 -34 -16z"/>
<path d="M7365 8910 c-41 -17 -77 -67 -82 -114 -6 -50 0 -63 74 -154 24 -29
43 -63 43 -77 0 -25 -51 -75 -77 -75 -34 0 -92 44 -115 87 -25 46 -29 49 -59
33 -25 -14 -24 -33 3 -81 33 -60 88 -93 162 -97 71 -4 113 17 146 70 37 61 25
111 -50 200 -34 41 -50 69 -50 88 0 34 31 60 72 60 30 0 93 -49 103 -81 11
-34 65 -17 65 21 0 26 -61 92 -104 111 -43 20 -97 23 -131 9z"/>
<path d="M2291 8687 c-17 -12 -29 -26 -27 -32 1 -5 29 -126 62 -267 32 -142
61 -258 64 -258 3 0 18 10 33 23 l29 22 -16 62 c-9 33 -16 65 -16 71 0 5 40
37 88 70 l89 61 58 -39 c55 -37 60 -38 86 -24 53 27 69 14 -277 240 l-142 92
-31 -21z m181 -165 l67 -45 -22 -17 c-12 -9 -43 -31 -68 -48 l-47 -31 -26 104
c-14 57 -26 107 -26 111 0 7 9 1 122 -74z"/>
<path d="M7825 8648 c-15 -22 -14 -24 12 -48 16 -14 44 -37 63 -51 l35 -26
-105 -137 c-58 -76 -118 -155 -134 -176 l-29 -39 24 -20 c13 -11 29 -20 34
-21 8 0 163 195 261 328 10 14 20 9 75 -31 l63 -47 25 25 c14 13 23 26 20 28
-171 133 -312 237 -319 237 -5 0 -16 -10 -25 -22z"/>
<path d="M1850 8345 l-23 -24 129 -137 c113 -121 125 -137 99 -132 -16 4 -122
21 -234 38 l-203 32 -21 -21 -21 -21 75 -77 c40 -43 120 -126 175 -184 l102
-107 28 23 28 22 -127 134 c-69 73 -125 134 -123 136 2 2 106 -13 231 -33
l228 -36 20 21 20 20 -177 185 c-98 103 -179 186 -180 186 -2 0 -13 -11 -26
-25z"/>
<path d="M8195 8060 l-180 -180 28 -27 27 -28 75 75 c73 73 75 73 95 55 24
-22 25 -41 3 -178 l-17 -108 27 -26 c14 -15 29 -24 33 -20 4 4 15 62 26 129
10 67 20 123 21 125 2 1 19 -3 39 -9 52 -16 103 -3 142 37 72 72 58 142 -51
256 -42 43 -78 79 -82 79 -3 0 -87 -81 -186 -180z m245 29 c48 -61 51 -95 14
-133 -42 -41 -85 -36 -142 19 l-47 44 60 61 c33 33 63 60 67 60 4 0 26 -23 48
-51z"/>
<path d="M1340 7751 c-111 -36 -183 -134 -183 -246 0 -106 58 -190 168 -241
119 -56 250 -10 323 114 22 39 27 59 27 117 0 58 -5 78 -27 116 -50 84 -135
139 -227 145 -31 2 -67 0 -81 -5z m146 -94 c42 -22 99 -87 113 -130 24 -73
-24 -163 -107 -199 -46 -21 -82 -18 -137 9 -39 20 -93 71 -111 105 -33 63 -5
165 57 209 56 40 116 42 185 6z"/>
<path d="M8641 7576 l-264 -72 29 -32 29 -32 67 19 67 19 42 -56 c24 -31 53
-71 65 -87 l23 -30 -35 -55 c-19 -30 -34 -61 -34 -70 1 -16 38 -66 44 -59 16
17 276 456 276 466 0 6 -10 23 -22 36 l-23 25 -264 -72z m166 -98 c-30 -46
-58 -91 -63 -100 -8 -15 -17 -8 -61 51 l-51 68 106 31 c59 17 110 31 114 31 4
1 -16 -36 -45 -81z"/>
<path d="M9168 7224 c-16 -8 -28 -17 -28 -20 0 -2 17 -35 38 -72 l39 -68 -106
-58 c-58 -33 -145 -81 -193 -108 l-88 -49 16 -32 c9 -18 18 -33 19 -35 2 -2
89 45 196 104 155 87 194 105 201 93 5 -8 22 -38 39 -66 31 -56 42 -61 73 -38
17 13 13 23 -79 189 -53 97 -98 176 -99 176 0 -1 -13 -8 -28 -16z"/>
<path d="M881 7145 c-81 -73 -93 -182 -27 -242 68 -63 125 -57 216 22 60 52
75 60 110 56 23 -3 60 -49 60 -75 0 -34 -40 -88 -83 -111 -37 -20 -46 -45 -28
-74 15 -23 76 5 120 55 75 85 75 181 1 248 -34 31 -47 36 -89 36 -51 0 -62 -6
-150 -82 -49 -42 -81 -48 -111 -18 -37 37 -27 78 32 133 42 40 50 52 41 65
-18 30 -49 25 -92 -13z"/>
<path d="M616 6587 c-45 -47 -117 -210 -100 -226 5 -4 111 -49 235 -98 l227
-90 16 35 c9 19 16 35 14 36 -2 1 -45 20 -95 41 -51 21 -93 43 -93 50 0 34 38
55 150 83 113 27 115 28 134 65 10 21 16 40 14 42 -3 4 -188 -41 -250 -61 -15
-4 -18 1 -18 33 0 77 -63 133 -151 133 -37 0 -48 -5 -83 -43z m152 -60 c29
-23 34 -58 16 -114 -9 -30 -20 -56 -25 -59 -8 -5 -137 43 -153 57 -10 9 18 86
42 113 33 36 79 37 120 3z"/>
<path d="M9270 6534 c-124 -53 -226 -97 -228 -99 -2 -2 4 -19 12 -39 l15 -36
83 36 c46 20 148 63 228 96 80 34 148 64 152 67 8 7 -18 71 -29 71 -4 -1 -109
-44 -233 -96z"/>
<path d="M9425 6144 c-116 -92 -212 -169 -214 -170 -2 -2 0 -18 5 -36 l10 -33
204 -21 c113 -11 236 -24 274 -28 l69 -7 -7 33 c-3 18 -10 36 -14 40 -4 4 -97
15 -207 24 -110 10 -203 20 -206 23 -4 3 67 64 157 134 90 71 164 134 164 140
-1 7 -6 25 -13 40 l-12 29 -210 -168z"/>
<path d="M407 6063 c-8 -13 -79 -295 -75 -298 5 -6 490 -126 493 -123 1 2 19
70 40 151 32 125 36 150 24 158 -8 5 -23 8 -33 7 -16 -3 -25 -23 -47 -111 -15
-60 -29 -110 -31 -112 -5 -6 -131 26 -142 36 -5 4 1 45 13 95 23 91 21 103
-21 104 -17 0 -21 -11 -49 -125 -7 -27 -13 -52 -15 -54 -1 -1 -36 5 -77 14
l-74 18 29 115 c16 63 28 116 26 117 -9 9 -57 15 -61 8z"/>
<path d="M9550 5570 c-66 -14 -130 -58 -165 -114 -27 -44 -30 -58 -30 -130 0
-112 39 -180 130 -229 58 -31 181 -30 248 2 95 47 145 138 134 249 -14 161
-150 256 -317 222z m176 -101 c44 -27 74 -85 74 -144 0 -79 -45 -137 -124
-160 -107 -32 -193 -4 -234 75 -29 56 -26 136 5 178 58 77 196 103 279 51z"/>
<path d="M6095 5508 c-16 -6 -36 -12 -43 -14 -8 -2 -16 -13 -19 -24 -3 -13
-14 -20 -29 -20 -17 0 -24 -6 -24 -18 0 -11 -11 -24 -25 -30 -25 -11 -34 -45
-16 -57 6 -3 6 -18 0 -37 -6 -21 -5 -45 2 -68 32 -102 57 -112 74 -28 6 32 14
60 17 63 3 3 21 -3 40 -15 20 -11 43 -18 52 -14 10 4 16 1 16 -8 0 -8 11 -25
25 -38 14 -13 25 -32 25 -42 0 -25 14 -23 33 5 12 18 18 20 28 9 11 -10 11
-18 0 -45 -33 -79 -20 -125 18 -62 17 29 26 35 54 35 26 0 36 6 45 25 6 14 18
25 27 25 8 0 15 8 15 19 0 10 9 21 20 24 20 5 21 12 17 101 -4 132 -9 138
-185 219 -19 9 -30 8 -51 -4 -24 -14 -30 -14 -46 -3 -21 16 -28 16 -70 2z"/>
<path d="M330 5438 c-19 -13 -43 -40 -54 -61 -19 -39 -49 -227 -37 -238 6 -6
446 -59 482 -59 21 0 35 60 17 71 -6 4 -48 11 -93 14 l-80 7 4 75 c4 98 -10
145 -55 180 -52 39 -135 44 -184 11z m136 -73 c34 -23 47 -68 39 -131 -5 -39
-10 -54 -20 -51 -7 3 -49 9 -94 12 l-81 8 0 39 c0 45 23 108 47 126 23 16 84
15 109 -3z"/>
<path d="M7747 5414 c-4 -4 -7 -15 -7 -24 0 -9 -13 -26 -30 -38 -25 -19 -30
-29 -30 -67 0 -55 11 -62 39 -25 19 26 28 30 71 30 40 0 52 -4 69 -26 11 -14
24 -48 27 -75 7 -54 19 -62 34 -24 6 17 14 23 26 18 16 -6 16 -38 0 -88 -4
-12 -1 -28 8 -40 14 -19 16 -17 42 40 34 77 43 142 20 151 -11 4 -16 18 -16
43 0 41 -29 81 -58 81 -9 0 -36 9 -59 20 -48 21 -124 35 -136 24z"/>
<path d="M3186 5251 c-3 -5 -1 -84 4 -177 5 -93 21 -423 35 -734 15 -311 28
-571 30 -577 5 -17 1855 -19 1855 -3 0 6 -316 11 -912 12 l-913 3 -3 52 -3 53
913 3 913 2 -911 3 -912 2 -6 23 c-3 12 -6 57 -6 99 l0 77 58 4 57 3 -56 2
-56 2 -7 38 c-3 20 -6 65 -6 100 l0 62 148 2 147 2 -150 6 -150 5 -3 98 -3 97
458 2 458 3 -454 2 c-349 3 -457 6 -463 16 -4 6 -8 51 -8 100 l0 87 718 2 717
3 -720 5 -720 5 -3 98 -3 97 828 2 828 3 -830 5 -830 5 -3 98 -3 97 888 2 888
3 -890 5 -890 5 -3 53 c-3 48 -13 65 -26 43z"/>
<path d="M1723 5221 c-59 -17 -133 -62 -133 -81 0 -5 -7 -16 -16 -25 -12 -12
-19 -44 -24 -118 -4 -63 -14 -117 -25 -142 -10 -22 -21 -58 -24 -80 -5 -34
-10 -40 -33 -43 -16 -2 -28 -7 -28 -11 0 -5 -19 -16 -43 -25 -29 -11 -69 -43
-119 -94 -103 -106 -168 -178 -168 -186 0 -5 -25 -35 -55 -69 -51 -56 -55 -64
-55 -109 0 -41 5 -54 29 -79 25 -24 38 -29 80 -29 27 0 52 4 55 8 3 5 38 21
78 37 40 15 93 37 117 47 24 10 45 17 47 16 1 -2 17 -109 35 -238 18 -129 36
-239 40 -244 6 -6 598 21 605 28 1 0 11 147 22 324 11 178 22 326 25 328 7 7
272 -29 275 -38 5 -12 122 -10 122 2 0 6 8 10 18 10 39 1 102 42 183 122 107
105 249 265 249 281 0 7 -20 34 -45 61 l-45 49 -37 -27 c-21 -15 -74 -51 -118
-81 -44 -29 -98 -70 -119 -90 -70 -66 -66 -65 -211 -44 -71 10 -192 21 -269
25 l-138 7 6 39 c8 48 -11 92 -58 137 -20 19 -36 41 -36 48 0 7 -5 13 -11 13
-7 0 -9 -11 -6 -27 7 -36 -6 -57 -43 -73 -16 -7 -30 -18 -30 -25 0 -13 -141
-32 -158 -21 -5 3 -6 27 -2 53 6 35 4 54 -6 68 -19 26 -18 75 1 75 8 0 19 -9
25 -20 13 -25 30 -18 23 9 -3 13 2 23 15 30 12 6 24 20 27 32 4 13 12 18 22
15 9 -4 31 3 51 14 19 12 36 19 39 17 2 -3 9 -32 15 -66 12 -64 28 -82 28 -31
0 22 7 33 29 44 35 19 41 33 41 102 0 79 -19 94 -112 93 -40 0 -101 -8 -135
-18z m247 -492 c17 -31 -5 -468 -24 -487 -10 -11 -54 -14 -182 -15 l-169 -2
-3 51 -3 51 -42 -12 c-23 -6 -56 -18 -74 -28 -18 -9 -37 -17 -43 -17 -6 0 -10
28 -10 69 0 68 0 70 29 76 34 7 61 35 90 92 12 23 29 47 40 52 14 8 19 26 24
88 4 57 10 81 23 90 13 9 63 13 176 13 149 0 158 -1 168 -21z"/>
<path d="M6045 4889 c-197 -12 -244 -26 -315 -100 -109 -112 -234 -445 -213
-572 9 -56 75 -122 138 -138 38 -9 49 -9 55 1 6 10 22 10 81 1 41 -7 197 -15
347 -18 194 -4 277 -9 285 -18 14 -14 110 -5 173 15 62 21 74 41 74 129 0 93
-29 325 -41 329 -5 2 -9 13 -9 25 -1 37 -46 200 -68 243 -11 22 -35 54 -53 72
-31 30 -38 32 -103 32 -39 0 -100 2 -136 4 -36 2 -132 0 -215 -5z m-245 -334
c17 -9 30 -17 30 -20 0 -2 -10 -20 -22 -41 l-22 -37 40 -36 c81 -73 280 -249
304 -269 18 -15 22 -24 14 -32 -8 -8 -48 22 -150 111 -197 173 -234 208 -234
224 0 21 -30 19 -81 -5 -48 -21 -89 -26 -89 -10 0 23 51 105 72 117 32 17 103
16 138 -2z m213 -82 c246 -109 282 -121 308 -107 13 7 45 13 70 14 51 0 80
-22 100 -78 9 -26 8 -34 -6 -49 -16 -16 -20 -16 -59 4 -22 11 -88 41 -146 66
-58 25 -163 70 -233 101 -70 31 -131 56 -135 56 -16 0 -52 32 -46 41 7 12 21
8 147 -48z"/>
<path d="M8007 4864 c-22 -12 -35 -13 -59 -5 -17 6 -42 11 -56 11 l-25 0 7
-352 c3 -194 9 -422 12 -505 l7 -153 112 0 c91 0 114 3 119 15 4 11 20 15 57
15 l52 0 -6 372 c-4 227 -3 368 3 362 5 -5 10 -38 12 -74 l3 -65 14 40 c15 43
27 62 36 53 7 -7 -24 -88 -42 -110 -9 -9 -13 -32 -11 -54 3 -33 12 -44 80
-100 42 -35 73 -64 69 -66 -5 -2 -20 -37 -34 -78 -14 -41 -38 -106 -52 -145
l-27 -70 24 -18 c13 -10 37 -32 55 -48 17 -16 38 -29 46 -29 8 0 49 53 90 118
41 64 96 149 121 188 61 95 62 132 6 203 -22 28 -40 53 -40 57 0 10 -163 218
-182 232 -10 7 -29 33 -44 57 -71 123 -253 200 -347 149z"/>
<path d="M7618 4851 c-53 -21 -132 -86 -159 -131 -10 -16 -66 -90 -124 -164
-58 -74 -105 -139 -105 -145 0 -5 -10 -17 -21 -25 -77 -54 -79 -145 -3 -224
11 -12 27 -35 35 -50 31 -61 163 -252 174 -252 6 0 27 14 46 31 19 17 44 38
57 46 16 12 21 21 16 37 -4 11 -10 23 -15 26 -5 3 -26 55 -48 115 -21 61 -42
117 -45 126 -5 10 9 28 43 57 27 23 54 42 59 42 5 0 17 9 27 20 18 19 17 22
-7 68 -29 54 -43 102 -29 102 5 0 15 -16 21 -36 18 -55 20 -37 4 51 -7 44 -14
81 -14 83 0 1 4 2 9 2 4 0 16 -39 26 -87 15 -74 17 -135 16 -373 l-2 -285 49
3 c35 3 53 -1 65 -12 12 -12 36 -16 98 -16 l82 0 -7 153 c-3 83 -9 311 -12
505 l-7 352 -91 0 c-64 -1 -105 -6 -138 -19z"/>
<path d="M3848 4093 c226 -2 598 -2 825 0 226 1 41 2 -413 2 -454 0 -639 -1
-412 -2z"/>
<path d="M5706 3968 c-11 -157 -10 -167 20 -178 20 -8 25 -15 21 -33 -3 -12
-9 -51 -13 -87 -4 -36 -10 -67 -14 -70 -11 -8 -212 -1810 -224 -2010 l-1 -25
167 -3 167 -2 5 32 c3 18 26 191 52 383 25 193 63 483 84 645 21 162 44 339
51 393 7 53 16 97 19 97 4 0 11 36 14 81 4 44 10 78 13 75 4 -3 19 -115 34
-248 67 -593 91 -807 115 -1008 13 -118 29 -257 35 -309 17 -152 3 -141 179
-141 116 0 152 3 156 13 3 8 0 76 -6 153 -5 76 -21 308 -35 514 -65 994 -86
1336 -90 1465 -5 158 -23 306 -39 317 -6 4 -103 8 -216 8 -113 0 -268 7 -345
15 -77 8 -140 15 -141 15 -1 0 -4 -41 -8 -92z m732 -525 c12 -192 31 -478 42
-638 23 -333 80 -1193 80 -1206 0 -5 -58 -9 -130 -9 -126 0 -130 1 -134 23 -3
12 -30 238 -61 502 -31 264 -79 665 -106 890 -27 226 -49 418 -49 428 0 9 -6
17 -13 17 -10 0 -17 -29 -26 -97 -18 -144 -64 -482 -131 -968 -32 -236 -68
-500 -80 -585 -11 -85 -23 -167 -26 -182 l-6 -28 -133 0 c-74 0 -136 3 -138 8
-10 19 234 2162 248 2180 2 2 31 -5 66 -15 95 -26 365 -23 469 5 41 11 82 20
90 21 13 1 19 -50 38 -346z"/>
<path d="M7680 3844 c0 -3 10 -14 23 -25 27 -23 3 -26 -27 -4 -11 8 -34 15
-50 15 l-31 -1 50 -44 c51 -47 48 -57 -11 -29 -39 18 -60 10 -30 -11 10 -8 24
-16 30 -18 25 -9 -3 -16 -32 -8 -19 6 -32 6 -32 0 0 -5 11 -11 25 -15 36 -9
31 -27 -5 -19 -30 7 -30 6 -30 -37 0 -24 -9 -189 -20 -368 -10 -179 -22 -405
-26 -502 -4 -98 -10 -178 -14 -178 -4 0 -12 -134 -19 -297 -17 -418 -29 -674
-33 -703 l-3 -25 105 3 c58 2 106 5 108 7 2 2 36 259 75 572 39 312 74 570 77
573 4 3 24 146 45 318 21 171 42 312 45 312 4 0 12 -48 18 -107 6 -60 30 -261
52 -448 60 -506 78 -654 97 -820 9 -82 20 -152 23 -155 4 -3 13 -61 21 -129
l14 -124 109 -2 108 -2 -7 136 c-3 75 -26 546 -49 1047 -24 501 -46 916 -50
922 -4 6 -13 9 -21 5 -8 -3 -15 0 -15 6 0 6 6 11 14 11 8 0 18 5 22 12 5 8 -2
9 -24 5 -39 -8 -40 -1 -7 25 42 32 28 40 -24 13 -62 -31 -74 -18 -21 21 22 16
42 35 44 42 7 17 -29 15 -65 -4 -39 -20 -49 -11 -18 15 l24 20 -232 1 c-128 0
-233 -3 -233 -6z"/>
<path d="M3174 3312 c-6 -4 -29 -171 -54 -392 l-43 -385 18 -195 c9 -107 18
-196 19 -197 1 -2 8 75 15 170 14 205 28 306 47 363 8 24 28 166 44 316 16
150 32 285 35 301 4 25 2 27 -33 27 -20 0 -42 -4 -48 -8z"/>
<path d="M3983 3287 c-4 -71 -37 -302 -43 -307 -4 -3 -12 -50 -18 -105 -6 -55
-27 -223 -47 -374 -20 -150 -34 -275 -33 -277 2 -1 24 11 48 27 47 31 57 52
59 122 0 20 5 37 9 37 5 0 16 62 25 138 9 75 35 277 57 447 22 171 40 313 40
318 0 4 -21 7 -47 7 -47 0 -48 -1 -50 -33z"/>
<path d="M5005 3309 c-9 -14 116 -1273 127 -1277 4 -2 8 -19 8 -37 0 -35 46
-482 56 -547 l6 -38 -238 0 -237 0 6 323 c6 316 22 543 53 722 20 120 55 269
64 275 11 7 18 70 8 70 -5 0 -12 -8 -15 -17 -4 -10 -10 -20 -14 -23 -5 -3 -10
-21 -12 -40 -2 -20 -9 -45 -15 -57 -6 -11 -14 -47 -18 -79 -3 -33 -10 -70 -15
-84 -11 -32 -36 -263 -54 -505 -5 -64 -15 -467 -15 -562 l0 -23 -435 0 c-465
0 -472 1 -401 47 30 19 36 20 46 8 19 -23 33 -18 27 10 -4 22 1 29 32 44 92
47 295 90 305 64 8 -19 24 -16 37 8 9 17 7 25 -11 44 -32 34 -108 72 -170 84
-60 12 -160 11 -160 -1 0 -4 -8 -8 -18 -8 -10 0 -27 -7 -38 -15 -12 -8 -24
-12 -26 -9 -9 9 -117 -116 -169 -196 l-52 -80 -60 0 c-59 0 -59 0 -53 26 4 15
32 85 62 156 29 71 54 132 54 135 0 3 -6 0 -14 -6 -7 -6 -42 -79 -77 -161
l-64 -150 -57 0 c-47 0 -58 3 -58 17 0 23 83 228 141 345 43 89 54 128 30 113
-15 -8 -133 -275 -166 -373 -28 -81 -37 -98 -56 -100 -22 -4 -22 -3 -16 90 3
51 20 160 37 242 36 172 126 541 135 556 3 5 1 10 -5 10 -6 0 -9 4 -6 9 3 5
15 62 26 127 11 65 36 184 55 266 34 143 42 209 29 242 -8 21 -53 21 -82 0
-53 -37 -111 -205 -148 -424 -10 -58 -21 -107 -25 -110 -8 -6 -49 -364 -49
-425 0 -23 -4 -45 -8 -50 -5 -6 -5 -86 -1 -180 18 -396 25 -355 -61 -355 -68
0 -70 1 -70 25 0 22 -11 228 -26 483 -3 57 -10 100 -14 95 -7 -7 -1 -216 14
-493 l5 -95 -23 85 c-28 105 -47 165 -97 300 -35 95 -42 134 -78 410 -30 225
-45 316 -61 347 -11 23 -20 46 -20 51 0 4 -16 27 -35 50 -25 29 -47 43 -72 48
-49 9 -67 -14 -58 -76 8 -57 56 -223 67 -231 5 -3 23 -66 42 -140 27 -110 46
-159 104 -274 90 -177 140 -309 186 -491 24 -93 23 -94 -31 -94 l-48 0 -23 77
c-39 129 -132 322 -132 275 0 -6 16 -46 35 -87 34 -75 95 -238 95 -256 0 -5
-33 -9 -72 -9 l-73 0 -43 84 c-100 197 -191 272 -342 283 -61 4 -86 1 -135
-16 -33 -12 -68 -30 -78 -40 -19 -18 -17 -19 64 -46 138 -45 268 -126 364
-224 l39 -41 -176 0 c-169 0 -179 1 -237 26 -34 15 -61 33 -61 40 0 20 -66 12
-117 -15 -29 -14 -41 -26 -37 -36 5 -13 -26 -15 -241 -15 l-248 0 -38 35 c-23
21 -49 35 -65 35 -38 0 -84 -27 -84 -50 0 -19 -7 -20 -107 -20 -108 0 -142 -8
-129 -29 5 -8 1059 -11 3917 -11 3719 0 3910 1 3907 18 -3 15 -26 17 -258 22
l-255 5 -93 39 -94 39 -49 -23 c-32 -16 -49 -30 -49 -42 0 -17 -15 -18 -280
-18 -229 0 -278 2 -274 13 6 16 -7 27 -63 51 l-42 19 -96 -42 -96 -41 -246 0
c-204 0 -244 2 -240 14 3 7 22 100 43 205 36 181 39 191 61 191 14 0 23 6 23
15 0 9 -9 15 -21 15 -18 0 -20 4 -14 28 17 66 72 385 80 462 3 30 8 69 11 85
26 144 41 595 19 595 -5 0 -9 -31 -8 -73 2 -111 -15 -355 -37 -532 -19 -148
-33 -233 -75 -470 -9 -49 -20 -112 -25 -140 -5 -27 -18 -93 -30 -145 -11 -52
-23 -110 -27 -128 -3 -19 -12 -36 -19 -39 -10 -4 -12 -16 -8 -44 l7 -39 -94 0
c-87 0 -101 3 -196 42 l-103 41 -49 -22 c-38 -18 -47 -27 -44 -42 5 -18 -5
-19 -281 -19 -278 0 -286 1 -286 20 0 47 -151 79 -182 38 -29 -38 -104 -58
-218 -58 l-108 0 -6 38 c-9 61 -9 105 -1 136 5 19 4 31 -5 36 -8 5 -14 35 -16
80 -4 111 -97 1034 -104 1040 -3 3 -16 111 -29 240 -12 129 -25 259 -28 288
l-6 52 -38 0 c-21 0 -41 -5 -44 -11z"/>
<path d="M4122 1173 c-14 -26 -182 -630 -182 -652 0 -38 40 -34 170 15 114 42
195 88 198 112 6 38 -25 36 -119 -7 -100 -47 -169 -73 -169 -65 0 4 36 137 80
296 63 226 78 293 69 304 -16 19 -36 18 -47 -3z"/>
<path d="M5816 933 c-3 -27 -22 -97 -41 -158 -39 -122 -42 -153 -19 -162 23
-9 38 13 69 102 31 92 69 153 108 175 24 13 29 13 37 0 13 -19 4 -68 -27 -155
-14 -38 -26 -83 -27 -100 -1 -25 3 -30 23 -30 21 0 29 10 49 60 61 151 68 254
18 287 -16 11 -84 10 -106 -2 -15 -8 -20 -6 -25 10 -4 12 -15 20 -29 20 -20 0
-24 -6 -30 -47z"/>
<path d="M5224 957 c-3 -9 -22 -12 -67 -9 -55 3 -67 0 -109 -27 -65 -42 -101
-99 -106 -169 -7 -103 55 -156 145 -126 l38 13 -40 -31 c-73 -58 -151 -142
-174 -191 -53 -109 -31 -187 51 -187 34 0 46 6 74 35 43 46 88 139 116 242
l23 82 85 49 c47 28 100 57 118 67 25 12 32 22 30 38 -5 36 -42 32 -127 -16
l-79 -45 13 42 c7 22 25 74 39 114 14 41 26 87 26 103 0 24 -4 29 -25 29 -14
0 -28 -6 -31 -13z m-37 -78 c33 -33 -81 -199 -136 -199 -69 0 -48 135 29 188
35 23 89 29 107 11z"/>
<path d="M4562 943 c-61 -30 -112 -118 -112 -194 0 -78 49 -139 112 -139 36 1
101 34 129 67 22 27 33 31 89 35 53 4 67 9 86 31 13 15 21 34 18 42 -7 17 -49
20 -59 5 -3 -5 -21 -10 -38 -10 -31 0 -32 1 -33 44 -2 103 -101 164 -192 119z
m61 -171 c34 -35 34 -45 1 -71 -40 -32 -80 -28 -100 10 -21 41 -12 85 29 140
l32 44 5 -47 c4 -33 14 -56 33 -76z"/>
<path d="M5530 918 c-22 -36 -70 -178 -70 -208 0 -55 43 -92 96 -82 41 7 174
143 174 177 0 21 -5 25 -27 25 -21 -1 -36 -12 -62 -46 -46 -61 -100 -102 -111
-85 -10 17 1 60 34 140 30 74 32 96 10 105 -23 9 -22 9 -44 -26z"/>
</g>
</svg>
