<?xml version="1.0" standalone="no"?>
<!DOCTYPE svg PUBLIC "-//W3C//DTD SVG 20010904//EN"
 "http://www.w3.org/TR/2001/REC-SVG-20010904/DTD/svg10.dtd">
<svg version="1.0" xmlns="http://www.w3.org/2000/svg"
 width="1000.000000pt" height="1000.000000pt" viewBox="0 0 1000.000000 1000.000000"
 preserveAspectRatio="xMidYMid meet">
<metadata>
Created by potrace 1.16, written by Peter Selinger 2001-2019
</metadata>
<g transform="translate(0.000000,1000.000000) scale(0.100000,-0.100000)"
fill="#0f2949" stroke="none">
<path d="M4763 9563 c-22 -4 -23 -9 -23 -101 0 -53 3 -168 7 -255 l6 -158 36
3 36 3 -4 103 -3 103 38 -3 c36 -3 44 -10 113 -100 74 -98 74 -98 117 -98 24
0 44 2 44 5 0 2 -36 51 -80 109 l-80 104 34 20 c51 30 70 66 70 128 0 69 -24
103 -90 126 -46 16 -164 22 -221 11z m212 -88 c68 -67 -4 -154 -127 -155 l-28
0 0 90 0 90 65 0 c57 0 69 -3 90 -25z"/>
<path d="M5390 9538 c0 -7 -9 -107 -20 -223 -11 -115 -20 -225 -20 -243 0 -32
1 -33 38 -30 l37 3 22 245 c12 134 19 248 17 252 -9 13 -74 9 -74 -4z"/>
<path d="M4202 9505 c-46 -7 -86 -16 -89 -19 -3 -3 10 -113 31 -243 20 -131
36 -241 36 -245 0 -5 18 -8 40 -8 45 0 44 -6 26 105 -8 44 -13 81 -11 83 1 1
28 7 61 13 121 22 174 72 174 164 0 131 -86 179 -268 150z m163 -80 c36 -35
37 -95 3 -132 -23 -25 -32 -29 -100 -41 l-46 -9 -12 81 c-6 45 -13 89 -16 98
-5 18 15 24 99 27 39 1 53 -4 72 -24z"/>
<path d="M5748 9263 c-58 -258 -59 -263 -11 -263 25 0 22 -9 68 195 20 88 37
161 39 162 1 1 24 -73 51 -165 66 -220 61 -219 211 -49 60 69 110 123 112 122
2 -2 -13 -77 -34 -167 -20 -89 -37 -169 -38 -177 -1 -9 12 -18 32 -22 28 -6
33 -3 37 15 59 252 104 469 100 476 -4 6 -21 10 -40 10 -31 0 -45 -12 -156
-137 -68 -76 -125 -137 -128 -136 -5 2 -64 193 -101 325 -7 24 -18 39 -33 43
-12 4 -29 9 -38 11 -13 3 -25 -40 -71 -243z"/>
<path d="M3765 9438 c-62 -176 -8 -421 125 -570 41 -46 49 -51 64 -39 24 20
20 34 -32 103 -58 77 -89 147 -109 247 -14 64 -14 89 -4 163 7 48 10 92 6 98
-9 14 -45 13 -50 -2z"/>
<path d="M6551 9044 c-51 -129 -91 -237 -90 -239 5 -4 246 -100 275 -109 18
-5 24 -1 32 24 12 34 20 29 -128 85 -41 15 -77 29 -79 31 -2 2 9 37 24 77 l28
74 84 -33 c45 -19 87 -34 91 -34 8 0 36 50 30 55 -2 1 -41 17 -88 35 -47 18
-86 34 -88 35 -2 2 46 133 53 142 1 2 51 -17 111 -41 l109 -45 14 30 c8 16 13
31 10 33 -3 3 -287 116 -292 116 -1 0 -44 -106 -96 -236z"/>
<path d="M2919 9107 c-106 -55 -115 -202 -16 -254 25 -12 49 -14 120 -9 99 8
129 -3 141 -48 17 -66 -37 -111 -134 -111 l-65 0 -3 -32 c-3 -29 0 -32 33 -39
136 -25 258 73 240 194 -8 57 -58 112 -101 113 -16 0 -69 1 -119 2 -86 2 -90
3 -102 29 -28 57 26 109 116 112 44 1 46 2 49 34 l3 32 -59 0 c-42 0 -72 -7
-103 -23z"/>
<path d="M7095 8814 c-66 -119 -121 -220 -123 -224 -2 -5 11 -16 29 -26 38
-19 38 -20 97 89 20 37 41 67 47 67 6 0 20 -7 31 -15 18 -12 23 -32 34 -127
14 -129 19 -142 60 -163 29 -15 30 -15 30 9 0 24 -15 149 -26 214 l-5 32 50 0
c39 0 56 6 81 26 76 65 80 156 8 220 -21 19 -179 114 -189 114 -2 0 -58 -97
-124 -216z m198 100 c55 -28 87 -64 87 -99 0 -45 -39 -85 -82 -85 -40 0 -124
43 -120 62 5 18 73 138 78 138 3 0 19 -7 37 -16z"/>
<path d="M2410 8824 c-63 -41 -121 -78 -128 -83 -10 -6 22 -63 123 -222 76
-118 138 -215 139 -216 4 -5 260 164 263 173 2 6 -4 21 -14 32 l-18 22 -100
-65 -99 -64 -43 67 -42 67 77 49 c42 26 79 50 81 52 6 5 -20 54 -29 54 -3 0
-41 -23 -85 -50 l-79 -50 -38 60 c-21 32 -38 63 -38 67 0 4 43 35 95 68 52 33
95 64 95 70 -1 14 -26 45 -36 44 -5 0 -61 -34 -124 -75z"/>
<path d="M1882 8440 l-152 -129 23 -26 23 -27 62 52 c35 29 64 51 66 49 44
-57 271 -325 277 -327 10 -4 58 30 59 41 0 4 -63 83 -139 175 l-140 167 37 30
c93 76 88 69 66 98 -10 15 -21 26 -24 26 -3 0 -74 -58 -158 -129z"/>
<path d="M7913 8264 l-163 -195 31 -27 c31 -26 32 -26 48 -6 9 11 83 99 164
197 l149 176 -29 25 c-15 14 -30 25 -33 25 -3 0 -78 -88 -167 -195z"/>
<path d="M8203 8013 c-98 -92 -180 -171 -182 -176 -4 -10 28 -47 42 -47 5 0
69 57 143 126 115 108 133 122 129 98 -4 -16 -21 -120 -39 -232 -28 -175 -31
-205 -19 -222 8 -11 19 -20 25 -20 5 0 83 68 172 152 88 83 170 159 181 170
19 18 19 18 -6 44 l-26 26 -134 -126 c-73 -68 -134 -124 -135 -123 -1 1 15
105 37 232 35 212 37 231 22 247 -9 10 -20 18 -24 18 -4 0 -88 -75 -186 -167z"/>
<path d="M4645 8163 c-153 -18 -330 -61 -345 -82 -3 -4 -35 -19 -71 -33 -119
-45 -275 -146 -374 -240 -49 -47 -102 -95 -116 -107 -29 -23 -152 -199 -195
-281 -16 -30 -31 -57 -35 -60 -3 -3 -19 -39 -36 -80 -31 -74 -60 -181 -84
-310 -18 -98 -16 -376 5 -490 19 -104 90 -332 109 -352 7 -7 28 -40 46 -73 19
-33 43 -76 54 -95 26 -47 71 -106 123 -160 112 -117 198 -233 234 -317 12 -29
26 -53 30 -53 12 0 49 -98 66 -171 23 -100 60 -152 133 -186 l61 -28 0 -156
c0 -179 11 -162 -107 -175 -45 -5 -63 -11 -63 -21 0 -12 14 -14 85 -8 l85 7 0
-120 c0 -137 9 -125 -107 -138 -45 -5 -63 -11 -63 -21 0 -12 14 -14 85 -8 l85
7 0 -55 c0 -63 26 -105 80 -127 29 -12 30 -15 30 -76 0 -75 20 -131 58 -159
26 -19 43 -20 383 -20 l355 0 37 25 c47 32 57 57 57 143 l0 73 43 19 c65 30
77 64 77 213 l0 122 25 0 c14 0 25 5 25 10 0 6 13 10 29 10 51 0 91 12 91 27
0 11 -9 13 -37 9 -21 -3 -59 -8 -85 -12 l-48 -6 0 125 0 125 48 6 c113 15 122
18 122 33 0 11 -8 14 -37 9 -21 -3 -59 -8 -85 -12 l-48 -6 0 84 0 85 38 12
c74 23 122 85 153 196 52 191 135 332 298 511 100 109 121 132 121 138 0 3 21
37 46 76 158 245 239 598 205 897 -21 183 -69 348 -144 500 -132 267 -390 519
-650 635 -62 28 -114 54 -117 58 -12 18 -201 65 -320 80 -72 9 -292 11 -355 3z
m455 -47 c120 -29 141 -37 134 -48 -5 -7 0 -9 16 -5 27 7 200 -74 330 -154
123 -76 327 -282 405 -409 107 -174 169 -327 201 -499 9 -46 13 -97 10 -112
-3 -16 -1 -31 4 -34 13 -8 13 -202 1 -209 -5 -3 -7 -23 -4 -44 7 -51 -21 -193
-59 -300 -62 -175 -175 -372 -279 -482 -28 -30 -67 -74 -86 -97 -20 -24 -42
-43 -50 -43 -8 0 -13 -5 -11 -12 2 -6 -15 -41 -39 -77 -62 -94 -110 -198 -140
-307 -20 -70 -30 -91 -39 -83 -8 7 -14 7 -19 -1 -9 -14 4 -32 18 -23 6 3 0 -8
-13 -26 -39 -56 -87 -71 -226 -71 -66 0 -123 2 -125 5 -5 4 6 82 81 600 17
116 55 381 85 590 30 209 57 390 60 402 4 19 12 21 96 25 90 3 92 3 120 38 60
72 22 188 -63 191 -114 4 -140 -20 -153 -143 l-7 -68 -538 0 c-504 0 -539 1
-544 18 -3 9 -8 42 -11 73 -12 96 -65 135 -160 118 -54 -10 -85 -49 -85 -109
0 -85 48 -120 164 -120 70 0 76 -2 81 -22 2 -13 18 -117 35 -233 17 -115 39
-266 50 -335 42 -268 149 -1024 146 -1027 -5 -6 -254 -4 -271 3 -68 25 -111
84 -139 191 -43 166 -136 325 -291 498 -210 235 -323 462 -371 749 -24 143
-15 383 19 529 134 561 583 979 1157 1076 86 15 433 6 510 -13z m-902 -1221
c31 -26 35 -38 47 -127 l6 -48 -80 0 c-74 0 -83 2 -112 28 -99 88 38 232 139
147z m1365 -15 c37 -41 35 -80 -4 -125 -31 -35 -31 -35 -115 -35 -46 0 -84 1
-84 3 0 9 22 124 26 140 3 10 20 27 37 38 46 29 103 20 140 -21z m-223 -190
c0 -6 -14 -100 -30 -208 -36 -229 -99 -667 -136 -932 -31 -230 -31 -230 -50
-230 -9 0 -14 -6 -11 -12 2 -7 10 -12 16 -10 8 1 9 -10 5 -35 -3 -21 -11 -69
-17 -108 l-12 -70 -299 0 -300 0 -52 360 c-28 198 -59 410 -69 470 -23 151
-72 488 -90 615 -8 58 -17 120 -20 138 l-6 32 536 0 c366 0 535 -3 535 -10z
m-1 -1645 c2 -3 7 -43 9 -89 l4 -83 -78 -11 c-501 -70 -600 -84 -603 -88 -8
-7 24 -4 205 21 98 13 199 26 224 29 25 2 87 12 138 20 51 9 97 14 102 11 6
-4 10 -63 10 -135 l0 -128 -87 -12 c-120 -17 -232 -38 -208 -39 11 0 79 8 150
18 72 10 133 17 138 14 11 -7 8 -216 -4 -251 -6 -17 -26 -41 -44 -52 -31 -19
-48 -20 -490 -20 -403 0 -460 2 -484 16 -38 23 -52 48 -56 105 -3 38 0 51 13
59 16 9 16 9 0 10 -15 0 -17 14 -16 129 1 122 3 130 22 135 20 5 15 21 -7 21
-9 0 -12 44 -13 154 -1 85 0 160 2 165 4 11 1062 11 1073 1z"/>
<path d="M1501 8086 l-22 -24 48 -44 c26 -25 88 -80 136 -123 48 -43 86 -79
84 -81 -1 -2 -81 3 -177 11 -248 21 -297 20 -310 -5 -9 -17 10 -38 171 -182
100 -90 185 -165 191 -167 12 -4 48 29 47 43 0 6 -61 65 -135 130 -74 65 -133
120 -132 121 2 1 106 -6 233 -16 212 -17 230 -17 247 -2 10 9 18 20 18 24 0 8
-364 339 -372 339 -3 0 -15 -11 -27 -24z"/>
<path d="M8755 7541 c-92 -24 -183 -106 -205 -186 -34 -120 39 -274 155 -329
l34 -17 80 53 c44 29 81 58 81 64 0 5 -20 38 -43 72 -42 59 -45 61 -65 46 -27
-19 -27 -28 -1 -66 12 -16 20 -30 18 -32 -2 -1 -21 -15 -42 -31 l-38 -28 -36
30 c-47 38 -83 105 -83 155 0 78 67 159 157 189 103 34 214 -47 231 -169 7
-44 9 -47 40 -50 31 -3 32 -2 32 36 0 90 -69 200 -150 242 -43 22 -122 32
-165 21z"/>
<path d="M941 7381 l-21 -29 157 -226 c157 -226 158 -226 175 -204 26 33 22
55 -18 110 -19 28 -33 56 -30 64 3 8 29 49 57 91 29 43 52 79 53 80 1 1 32 -6
70 -14 l70 -16 23 29 c12 16 23 31 23 34 0 5 -504 110 -527 110 -6 0 -21 -13
-32 -29z m204 -76 c44 -9 86 -18 93 -21 8 -2 -3 -27 -34 -74 l-47 -69 -63 89
c-35 49 -64 91 -64 95 0 3 8 4 18 1 9 -2 53 -12 97 -21z"/>
<path d="M9050 6886 c-113 -56 -212 -105 -220 -108 -13 -4 -13 -9 2 -41 l17
-36 93 43 c51 24 96 42 99 40 4 -2 10 -16 14 -31 5 -22 -5 -50 -52 -139 l-58
-112 18 -37 c10 -22 22 -34 26 -29 5 5 36 59 68 121 l59 112 22 -21 c15 -16
37 -23 79 -26 49 -3 64 0 93 20 47 32 62 63 57 123 -5 58 -78 225 -99 224 -7
0 -105 -46 -218 -103z m229 -45 c11 -27 21 -61 21 -76 0 -36 -42 -75 -80 -75
-46 0 -67 15 -100 73 l-30 52 73 37 c39 20 77 37 83 38 6 0 21 -22 33 -49z"/>
<path d="M716 6900 c-16 -5 -40 -19 -53 -32 -26 -23 -113 -187 -113 -211 0 -9
355 -187 449 -225 4 -1 15 14 24 33 l17 36 -95 45 -95 45 15 30 c9 16 17 29
18 29 256 49 240 44 260 78 10 17 17 36 15 40 -1 5 -55 -1 -118 -14 -147 -29
-140 -30 -140 7 0 92 -97 165 -184 139z m74 -85 c33 -17 50 -43 50 -75 0 -20
-38 -120 -46 -120 -1 0 -37 16 -79 35 -69 31 -76 37 -70 57 18 58 70 118 103
118 7 0 26 -7 42 -15z"/>
<path d="M9290 6313 c-124 -42 -227 -77 -229 -79 -1 -1 19 -69 47 -151 46
-138 51 -148 73 -145 13 1 27 6 31 10 4 4 -8 56 -28 116 -20 59 -32 111 -28
116 11 9 136 51 141 46 2 -1 16 -41 32 -87 27 -79 30 -84 56 -82 15 1 29 4 31
6 2 2 -10 43 -26 92 -17 49 -27 92 -23 96 9 7 135 50 138 46 1 -1 19 -52 39
-114 l37 -112 30 11 c16 5 29 13 29 16 0 4 -21 71 -47 149 -34 103 -52 143
-63 142 -8 0 -116 -35 -240 -76z"/>
<path d="M410 6305 c-7 -20 -10 -38 -8 -39 14 -13 474 -164 480 -158 4 4 10
21 14 37 l6 30 -229 79 c-125 43 -233 81 -239 83 -7 2 -17 -12 -24 -32z"/>
<path d="M352 5940 c-18 -11 -41 -34 -52 -52 -17 -29 -60 -184 -60 -220 0 -11
63 -29 243 -70 133 -31 245 -53 248 -50 4 4 10 21 14 39 l6 31 -79 17 c-105
23 -106 24 -93 71 17 59 13 135 -7 174 -37 70 -152 101 -220 60z m128 -75 c40
-21 52 -65 37 -136 l-12 -56 -90 20 c-49 11 -92 22 -94 24 -2 1 1 27 8 57 21
95 78 129 151 91z"/>
<path d="M9541 5777 c-41 -21 -60 -58 -72 -140 -7 -47 -19 -87 -31 -102 -26
-33 -71 -33 -103 -1 -41 41 -43 74 -8 178 3 12 -3 21 -22 30 -24 11 -29 10
-41 -7 -59 -81 -28 -237 56 -280 37 -19 113 -19 150 0 39 20 55 54 69 144 14
88 24 109 56 117 75 19 112 -55 79 -163 -5 -18 -1 -25 21 -33 35 -13 42 -8 56
43 21 77 -9 172 -66 207 -37 23 -107 26 -144 7z"/>
<path d="M6665 5320 c-23 -24 -30 -41 -33 -87 -4 -53 -1 -61 26 -92 30 -35 52
-35 52 0 0 11 5 29 11 40 10 19 10 19 36 -1 14 -11 35 -20 45 -20 28 0 87 -66
81 -91 -3 -11 0 -19 7 -19 6 0 14 9 17 20 3 11 14 20 24 20 24 0 25 -30 3 -72
-16 -31 -12 -78 7 -78 17 0 70 126 76 182 7 67 -15 122 -57 146 -16 9 -30 20
-30 25 0 4 -6 7 -14 7 -8 0 -38 11 -68 25 -34 16 -71 25 -104 25 -43 0 -54 -4
-79 -30z"/>
<path d="M212 5318 c-29 -32 -43 -75 -44 -133 -1 -92 55 -155 137 -155 65 0
102 30 140 115 41 88 67 110 114 94 65 -23 76 -96 26 -171 -30 -46 -31 -64 -4
-78 71 -38 134 176 77 260 -49 71 -150 92 -208 44 -17 -15 -46 -56 -64 -93
-45 -89 -66 -107 -105 -91 -41 16 -57 60 -42 109 6 21 18 44 26 51 20 17 19
33 -3 53 -24 22 -24 21 -50 -5z"/>
<path d="M2658 5303 c-16 -2 -28 -8 -28 -12 0 -5 -21 -14 -47 -21 -100 -28
-144 -105 -141 -245 2 -59 -2 -78 -25 -122 -15 -29 -27 -66 -27 -84 0 -23 -4
-30 -14 -26 -8 3 -34 11 -57 17 -23 6 -46 16 -53 21 -6 5 -38 28 -71 51 -33
23 -88 61 -122 84 l-61 44 -91 -176 c-50 -97 -98 -182 -106 -191 -21 -21 -19
-32 9 -43 13 -5 25 -13 27 -18 2 -5 56 -37 119 -72 219 -121 202 -108 198
-143 -34 -258 -104 -723 -109 -727 -8 -7 -172 -1153 -167 -1176 2 -14 23 -22
88 -35 47 -10 112 -20 145 -23 34 -3 68 -8 76 -11 18 -7 26 33 59 290 12 88
25 187 30 220 5 33 21 150 35 260 40 309 65 489 70 493 2 2 49 -3 105 -12 55
-9 147 -16 204 -16 l104 0 6 -57 c3 -32 13 -238 22 -458 28 -718 26 -690 49
-688 11 2 58 5 105 8 47 2 127 9 178 16 l92 11 0 37 c0 20 -9 113 -19 208
l-19 171 -41 41 c-25 25 -42 53 -46 75 -8 42 9 100 38 127 l21 19 -52 508
c-76 733 -72 684 -56 699 7 8 117 66 244 129 126 63 230 119 230 124 0 13 -23
64 -32 70 -10 8 -108 265 -108 284 0 8 -4 18 -10 21 -14 8 -303 -101 -435
-164 l-60 -29 -3 49 c-3 43 -9 55 -52 101 -46 49 -50 57 -50 105 0 43 3 53 20
58 62 20 66 165 6 207 -11 8 -130 8 -178 1z m110 -190 c38 -178 38 -174 10
-197 -14 -12 -33 -26 -43 -31 -16 -10 -16 -13 -1 -49 9 -21 16 -40 16 -42 0
-2 -49 -4 -110 -4 -60 0 -110 1 -110 3 0 1 7 35 15 75 14 67 14 77 -2 122 -14
41 -15 52 -4 62 10 11 16 9 28 -9 19 -28 33 -30 33 -4 0 26 53 81 78 81 11 0
30 9 43 20 13 10 27 19 31 20 3 0 11 -21 16 -47z m2 -415 c0 -29 9 -262 20
-518 11 -256 20 -480 20 -499 l0 -34 -117 6 c-108 6 -279 30 -290 41 -7 6 10
142 51 426 19 135 44 317 56 405 11 88 23 175 26 193 l6 32 114 0 114 0 0 -52z"/>
<path d="M9454 5196 c-91 -42 -134 -117 -134 -233 0 -176 163 -283 348 -228
126 38 195 167 162 304 -28 116 -117 181 -249 181 -59 0 -88 -6 -127 -24z
m226 -74 c63 -31 100 -112 86 -187 -21 -109 -174 -169 -286 -112 -63 31 -90
76 -90 147 0 69 26 114 85 147 51 29 153 32 205 5z"/>
<path d="M7570 5080 c0 -6 -26 -10 -57 -10 l-58 0 0 -108 c0 -83 -3 -112 -15
-123 -16 -16 -322 -55 -350 -45 -35 13 -370 26 -392 15 -16 -7 -438 -50 -438
-44 0 4 41 145 45 156 5 13 -5 21 -42 35 -26 9 -55 23 -64 31 -8 7 -27 13 -40
13 -21 0 -34 -18 -97 -139 -80 -155 -89 -199 -53 -267 35 -65 38 -66 310 -89
96 -9 177 -18 180 -21 12 -11 19 -195 20 -486 1 -208 4 -297 12 -300 13 -4 2
-218 -12 -218 -4 0 -5 -23 -2 -51 6 -49 5 -51 -15 -44 -14 4 -22 2 -22 -5 0
-7 9 -14 20 -17 11 -3 20 -14 20 -25 0 -25 -19 -298 -25 -363 -2 -27 -5 -54
-5 -59 0 -5 -3 -6 -7 -3 -3 4 -16 -10 -28 -30 l-23 -36 -18 76 c-19 81 -29
105 -39 95 -4 -3 1 -30 9 -59 9 -29 16 -54 16 -56 0 -2 -18 6 -40 17 -22 11
-40 16 -40 10 0 -5 18 -19 39 -30 22 -11 43 -25 46 -30 4 -6 20 -59 36 -118
39 -145 40 -246 2 -328 -14 -33 -29 -61 -32 -64 -11 -9 -38 -74 -45 -108 -4
-17 -11 -32 -15 -32 -3 0 -12 29 -19 65 -7 36 -31 104 -53 152 -44 93 -48 113
-36 181 9 52 -8 56 -20 5 l-9 -38 -18 48 c-10 26 -23 47 -27 47 -12 0 -11 -17
1 -39 5 -10 19 -42 30 -71 l21 -53 -25 17 c-14 9 -30 16 -36 16 -21 0 -9 -16
33 -42 39 -24 47 -37 76 -114 47 -124 64 -230 46 -286 -21 -68 -82 -306 -95
-378 -7 -36 -16 -68 -20 -73 -3 -4 -24 5 -46 19 -21 15 -73 43 -114 63 -72 34
-80 36 -185 36 -116 0 -199 -19 -240 -55 -11 -10 -25 -16 -31 -13 -6 2 -44
-38 -84 -90 l-73 -93 -101 30 c-55 17 -103 32 -106 34 -3 2 17 43 43 92 48 89
55 110 37 110 -5 0 -33 -45 -60 -101 -35 -68 -55 -99 -65 -96 -7 3 -40 11 -74
18 -37 7 -61 17 -61 24 0 18 88 222 144 333 26 52 79 145 118 208 39 63 67
118 63 122 -4 4 -15 -4 -24 -17 -9 -14 -24 -34 -34 -45 -23 -26 15 34 53 84
16 20 41 81 60 145 18 61 35 112 39 115 21 14 131 348 131 398 0 66 -43 90
-100 57 -14 -8 -32 -17 -40 -20 -17 -7 -80 -100 -105 -155 -8 -19 -20 -42 -25
-50 -6 -8 -44 -201 -85 -427 -72 -397 -76 -416 -116 -495 -23 -46 -56 -121
-75 -168 -33 -84 -33 -85 -65 -82 -18 1 -35 4 -37 7 -2 2 6 110 17 241 19 215
20 256 7 243 -2 -2 -11 -85 -20 -184 -9 -99 -19 -207 -22 -241 l-6 -60 -92 4
c-50 2 -96 5 -101 7 -7 2 -6 63 5 191 9 104 15 191 13 193 -8 11 -14 -13 -23
-105 -18 -184 -22 -219 -24 -221 -1 -1 -25 53 -54 120 -61 140 -74 195 -172
766 -21 123 -43 227 -47 230 -4 3 -18 26 -30 51 -64 128 -106 170 -172 170
-49 0 -61 -14 -61 -72 0 -43 60 -247 80 -273 12 -15 67 -176 85 -248 9 -34 25
-77 36 -96 11 -18 17 -41 14 -51 -4 -12 13 -46 46 -97 75 -115 281 -545 267
-558 -3 -3 -141 -25 -155 -25 -5 0 -27 36 -48 80 -21 44 -45 80 -53 80 -8 0 1
-27 29 -81 34 -66 40 -82 28 -90 -8 -5 -21 -9 -29 -9 -8 0 -46 -12 -85 -25
-38 -14 -75 -25 -81 -25 -7 0 -38 34 -69 75 -33 43 -65 75 -75 75 -10 0 -23 6
-29 14 -23 27 -111 57 -189 63 l-77 6 -22 86 c-43 162 -53 195 -62 200 -23 15
-33 87 -22 161 7 41 15 77 20 80 4 3 13 28 21 55 26 99 40 123 86 150 49 29
52 55 3 30 l-29 -15 20 51 c12 29 26 61 31 71 6 11 8 23 4 26 -8 9 -34 -26
-42 -55 -7 -32 -19 -29 -26 7 -4 17 -12 30 -18 30 -6 0 -9 -6 -6 -14 3 -7 8
-34 12 -58 6 -39 1 -60 -31 -139 -21 -52 -41 -96 -45 -99 -4 -3 -12 -34 -18
-69 -6 -35 -12 -65 -14 -67 -2 -2 -10 15 -17 38 -7 24 -33 86 -58 138 -42 88
-46 101 -46 175 0 55 9 116 28 193 27 111 29 114 69 140 23 14 44 27 46 29 2
2 2 6 -1 9 -4 3 -20 -2 -37 -10 -16 -9 -32 -16 -35 -16 -2 0 2 23 10 52 7 29
11 54 9 56 -11 11 -24 -15 -40 -83 -9 -41 -21 -75 -25 -75 -4 0 -13 14 -20 30
-7 17 -16 30 -21 30 -13 0 -12 -4 13 -54 21 -44 21 -45 3 -121 -10 -43 -21
-103 -24 -134 -6 -54 -7 -55 -20 -31 -8 14 -20 30 -28 35 -20 15 -71 175 -90
280 -10 61 -13 119 -10 180 7 101 9 112 33 190 17 51 23 59 66 81 56 28 65 52
12 29 -41 -17 -41 -15 -10 59 11 24 13 37 6 34 -7 -2 -26 -36 -43 -75 -17 -40
-34 -70 -38 -68 -3 3 -9 18 -12 35 -4 16 -11 30 -17 30 -14 0 -13 -20 5 -69
12 -36 12 -46 -2 -83 -30 -83 -29 -293 3 -448 l6 -25 -19 21 c-10 12 -44 53
-76 92 -56 69 -57 73 -57 132 0 42 -3 59 -11 54 -7 -4 -9 -23 -6 -48 l5 -41
-21 29 c-39 53 -66 81 -67 70 0 -6 24 -45 54 -86 l54 -76 -40 6 c-27 3 -39 1
-35 -5 4 -6 26 -14 49 -17 35 -5 48 -13 68 -44 13 -20 38 -55 55 -77 17 -22
51 -74 75 -115 25 -41 50 -79 57 -85 11 -9 153 -307 153 -321 0 -3 -7 1 -15
10 -8 8 -51 40 -96 72 -60 42 -86 67 -102 100 -31 65 -49 57 -22 -10 7 -16 2
-15 -38 8 -25 15 -48 23 -51 18 -3 -6 28 -29 69 -52 74 -43 85 -60 40 -60 -13
0 -27 -5 -31 -12 -5 -8 7 -9 47 -5 42 5 60 3 80 -11 35 -23 89 -69 89 -76 0
-3 15 -26 34 -50 19 -25 42 -66 52 -93 10 -26 21 -50 24 -53 9 -7 81 -252 76
-257 -2 -2 -32 -11 -65 -19 -67 -15 -128 -43 -179 -82 -53 -41 -40 -54 73 -73
131 -23 212 -48 221 -68 3 -9 10 -31 14 -48 7 -29 6 -33 -14 -33 -28 0 -155
25 -231 45 -101 27 -254 45 -380 45 -129 0 -291 -14 -340 -30 -16 -5 -55 -12
-85 -15 -99 -11 -383 -97 -497 -152 -45 -22 -63 -26 -63 -16 0 7 -20 23 -45
35 -40 20 -49 21 -78 9 -17 -7 -52 -20 -77 -29 -25 -9 -46 -20 -48 -24 -12
-26 -33 7 -75 115 -26 68 -47 129 -47 135 0 7 -4 12 -9 12 -5 0 -12 15 -16 33
-9 45 -37 131 -44 137 -5 4 -68 187 -101 296 -22 69 -69 244 -85 314 -9 41
-20 84 -25 95 -5 11 -11 51 -15 90 -3 38 -10 72 -16 76 -5 3 -13 54 -16 112
-3 59 -10 107 -14 107 -12 0 -21 -38 -14 -60 4 -12 8 -49 10 -83 3 -71 15
-128 85 -412 62 -250 86 -338 107 -384 9 -20 17 -44 18 -53 2 -19 19 -63 46
-123 10 -22 36 -92 58 -155 21 -63 53 -148 70 -189 17 -41 31 -78 31 -82 0 -5
-164 -9 -365 -9 -318 0 -365 -2 -365 -15 0 -13 193 -15 1675 -15 999 0 1675 4
1675 9 0 12 523 12 530 0 6 -9 270 -10 2323 -9 1137 0 1287 2 1287 15 0 13
-32 15 -229 15 l-229 0 -35 48 c-47 62 -89 102 -162 148 -33 22 -63 42 -67 45
-9 6 34 106 98 232 19 37 35 70 36 75 0 4 14 36 30 70 15 35 28 67 28 71 0 4
16 47 36 97 20 49 51 132 69 184 18 52 40 108 49 125 8 16 18 50 21 75 4 25
13 61 20 81 18 49 47 217 40 230 -11 17 -25 -1 -25 -32 0 -50 -65 -317 -81
-329 -8 -7 -42 -109 -45 -138 -1 -13 -7 -28 -12 -35 -5 -7 -24 -52 -41 -102
-41 -113 -130 -327 -142 -340 -5 -5 -9 -16 -9 -24 0 -8 -6 -22 -14 -30 -7 -9
-26 -47 -41 -86 -32 -83 -43 -99 -59 -86 -6 5 -30 16 -54 24 -24 8 -60 27 -81
41 -49 34 -182 80 -301 104 l-95 19 -6 39 c-4 21 -15 120 -25 219 -10 99 -21
182 -24 185 -4 3 -10 41 -14 85 -12 138 -101 932 -137 1215 -19 155 -20 165
-3 177 9 7 22 14 27 16 8 2 2 113 -16 348 -15 189 -27 371 -27 405 l0 61 98
21 c53 12 105 22 115 22 9 0 17 4 17 9 0 4 28 14 63 21 141 29 194 80 184 176
-8 77 -60 298 -72 306 -15 11 -55 10 -55 -2z m-646 -1827 c6 -61 66 -529 142
-1112 24 -189 42 -346 40 -348 -3 -3 -65 -11 -138 -19 -73 -7 -155 -18 -182
-24 -27 -6 -51 -8 -54 -5 -5 4 3 71 94 860 24 215 52 461 61 548 9 86 20 157
23 157 4 0 10 -26 14 -57z m-491 -1299 c-9 -153 -21 -280 -25 -282 -4 -2 -8
-14 -8 -27 0 -16 -11 -30 -34 -45 -19 -11 -36 -24 -38 -28 -3 -7 -68 -51 -105
-71 -22 -11 -22 -10 -17 21 34 210 126 565 161 625 24 41 73 96 80 90 2 -2 -4
-130 -14 -283z m-246 -396 c-6 -35 -17 -69 -24 -77 -19 -19 -119 -48 -190 -56
-54 -7 -262 17 -286 32 -11 6 171 92 196 93 9 0 17 4 17 9 0 12 144 42 286 60
7 1 8 -17 1 -61z"/>
<path d="M397 4697 l-248 -111 3 -39 3 -39 249 -89 c138 -49 254 -89 258 -89
5 0 8 17 6 38 -3 36 -5 38 -70 60 l-66 24 -7 105 c-4 57 -4 108 1 112 5 5 35
19 67 31 l57 24 0 43 c0 24 -1 43 -2 42 -2 0 -115 -51 -251 -112z m67 -103 c8
-64 8 -114 -2 -114 -7 0 -158 49 -202 66 -9 3 25 23 85 49 55 24 103 44 106
44 4 1 9 -20 13 -45z"/>
<path d="M9232 4498 c-21 -21 -13 -32 41 -65 158 -95 375 -109 540 -36 58 26
68 41 42 63 -12 10 -30 7 -98 -15 -146 -49 -302 -36 -436 36 -61 32 -72 34
-89 17z"/>
<path d="M4073 1188 c-17 -21 -185 -634 -181 -659 2 -20 8 -24 36 -21 83 6
336 120 330 149 -7 38 -34 38 -110 0 -71 -34 -173 -77 -184 -77 -3 0 -3 3 -1
8 15 23 157 560 155 581 -3 28 -29 39 -45 19z"/>
<path d="M5767 983 c-4 -3 -7 -22 -7 -41 0 -19 -18 -93 -41 -165 -36 -114 -39
-131 -26 -144 21 -22 54 -1 62 39 15 72 67 178 102 208 19 17 40 29 46 27 24
-7 18 -73 -14 -169 -33 -100 -33 -128 -1 -128 22 0 61 82 87 179 21 81 19 123
-6 156 -19 24 -27 26 -68 23 -25 -3 -54 -8 -63 -12 -14 -6 -18 -3 -18 13 0 15
-6 21 -23 21 -13 0 -27 -3 -30 -7z"/>
<path d="M5173 960 c-4 -16 -8 -18 -19 -9 -9 7 -37 10 -73 7 -105 -7 -182 -90
-189 -203 -4 -57 -2 -65 24 -94 23 -26 37 -32 70 -33 23 0 52 5 65 12 15 7 11
1 -11 -16 -133 -107 -210 -215 -210 -294 0 -89 86 -122 150 -57 43 43 93 145
121 245 l22 82 66 39 c36 21 90 51 119 65 43 22 53 31 50 49 -5 36 -42 32
-124 -13 -42 -23 -77 -40 -79 -38 -1 2 6 28 17 58 42 119 61 188 55 204 -9 23
-48 20 -54 -4z m-36 -75 c18 -48 -88 -195 -141 -195 -27 0 -36 16 -36 66 0 73
65 144 133 144 25 0 40 -5 44 -15z"/>
<path d="M4499 947 c-19 -12 -49 -47 -66 -77 -54 -90 -42 -199 27 -235 16 -8
39 -15 51 -15 35 0 108 39 131 71 19 25 28 29 72 29 65 0 119 30 114 63 -3 23
-12 25 -90 11 l-38 -6 0 43 c0 110 -113 175 -201 116z m39 -82 c0 -36 22 -80
51 -102 14 -10 13 -15 -13 -42 -73 -76 -150 3 -100 102 14 27 52 77 60 77 1 0
2 -16 2 -35z"/>
<path d="M5480 928 c-22 -36 -70 -178 -70 -208 0 -55 43 -92 96 -82 41 7 174
143 174 177 0 21 -5 25 -27 25 -21 -1 -36 -12 -62 -46 -46 -61 -100 -102 -111
-85 -10 17 1 60 34 140 30 74 32 96 10 105 -23 9 -22 9 -44 -26z"/>
</g>
</svg>
