<?xml version="1.0" standalone="no"?>
<!DOCTYPE svg PUBLIC "-//W3C//DTD SVG 20010904//EN"
 "http://www.w3.org/TR/2001/REC-SVG-20010904/DTD/svg10.dtd">
<svg version="1.0" xmlns="http://www.w3.org/2000/svg"
 width="500.000000pt" height="500.000000pt" viewBox="0 0 500.000000 500.000000"
 preserveAspectRatio="xMidYMid meet">

<g transform="translate(0.000000,500.000000) scale(0.100000,-0.100000)"
fill="#FFFFFF" stroke="none">
<path d="M2325 3649 c-44 -11 -303 -72 -575 -135 -272 -63 -498 -120 -502
-127 -10 -15 -10 -29 0 -44 6 -9 89 -34 325 -94 l37 -10 0 -329 0 -330 -207
-2 c-182 -3 -208 -5 -211 -19 -2 -10 15 -28 47 -49 91 -58 135 -128 134 -215
0 -89 -56 -184 -139 -235 -56 -35 -39 -58 39 -52 24 2 22 -4 -16 -48 -49 -57
-70 -126 -65 -213 5 -115 58 -198 153 -243 l50 -24 1147 0 c878 0 1149 3 1154
12 5 7 -4 20 -22 32 -53 38 -106 99 -130 150 -53 115 -12 229 112 312 30 19
53 41 51 47 -2 7 -25 13 -50 15 -52 3 -57 10 -26 38 27 25 65 100 74 147 7 36
9 37 51 37 23 0 45 4 48 9 3 5 -15 55 -40 112 -84 190 -104 243 -96 248 17 11
32 50 32 81 0 38 -24 77 -61 96 l-29 15 0 249 c0 155 4 251 10 255 12 8 13 52
1 59 -17 11 -1163 276 -1189 275 -15 0 -63 -9 -107 -20z m261 -53 c82 -19 228
-53 324 -76 295 -70 410 -97 534 -126 86 -20 114 -30 100 -35 -10 -5 -263 -71
-560 -148 l-541 -141 -329 85 c-181 47 -426 110 -544 140 -118 31 -224 59
-235 64 -15 6 1 13 70 29 585 136 836 195 920 216 55 13 103 25 106 25 3 1 73
-14 155 -33z m984 -525 c0 -240 -1 -250 -20 -256 -52 -16 -76 -101 -43 -155
14 -24 14 -32 3 -60 -10 -25 -17 -30 -34 -26 -12 3 -63 6 -113 6 l-93 0 0 330
c0 256 3 332 13 335 18 5 271 72 280 74 4 0 7 -111 7 -248z m-340 -165 c0
-290 -2 -325 -16 -330 -9 -4 -365 -6 -790 -6 l-774 1 0 324 c0 275 2 325 14
325 8 0 135 -31 283 -70 147 -38 318 -82 380 -98 l112 -29 318 83 c175 46 347
92 383 102 36 11 71 20 78 21 9 1 12 -70 12 -323z m410 -146 c11 -11 20 -29
20 -40 0 -24 -42 -70 -63 -70 -24 0 -67 40 -67 64 0 59 68 88 110 46z m46
-299 c35 -79 63 -146 61 -148 -3 -2 -74 -2 -160 -1 l-156 3 58 130 c31 72 60
138 64 148 5 13 15 17 38 15 30 -3 34 -9 95 -147z m-223 34 c-9 -20 -19 -34
-22 -32 -77 44 -14 42 -1113 47 -564 3 -1030 8 -1034 13 -4 4 486 7 1089 7
l1097 0 -17 -35z m-85 -48 c44 -24 47 -37 23 -93 -33 -73 -29 -84 24 -84 53 0
59 -17 23 -70 -32 -46 -68 -71 -119 -81 -54 -10 -1972 -12 -1967 -1 46 89 52
111 53 177 0 54 -5 80 -22 113 -13 23 -23 47 -23 53 0 6 339 9 988 7 929 -3
989 -4 1020 -21z m282 -206 c-1 -62 -72 -157 -137 -182 -34 -13 -2226 -12
-2218 1 4 7 348 10 1000 10 695 0 1010 3 1046 11 41 9 62 21 99 58 26 26 50
60 54 76 12 48 23 54 92 53 62 -1 64 -2 64 -27z m-60 -240 c0 -5 -7 -12 -16
-15 -9 -3 -471 -6 -1027 -6 -960 0 -1014 -1 -1052 -19 -166 -75 -165 -316 0
-392 38 -18 88 -19 1056 -19 891 0 1018 -2 1029 -15 11 -13 -110 -15 -1076
-15 -767 0 -1101 3 -1129 11 -23 7 -57 28 -82 53 -110 110 -88 324 42 399 15
9 301 13 1085 17 586 3 1089 6 1118 8 28 1 52 -2 52 -7z m-72 -68 c-37 -73
-43 -93 -43 -163 0 -61 5 -85 26 -128 l26 -52 -88 0 -88 0 -3 98 -3 97 -220 0
-220 0 -3 -97 -3 -98 -670 0 c-713 0 -709 0 -762 48 -29 26 -57 87 -57 124 0
39 29 106 56 130 57 50 6 48 1067 48 544 0 987 -3 985 -7z m-208 -248 c0 -36
-4 -65 -10 -65 -5 0 -47 18 -93 41 l-84 41 -81 -41 c-45 -23 -86 -41 -92 -41
-6 0 -10 27 -10 65 l0 65 185 0 185 0 0 -65z m-120 -65 l55 -29 -120 0 -120 0
55 29 c30 16 60 29 65 29 6 0 35 -13 65 -29z"/>
<path d="M1537 2394 c-4 -4 -7 -54 -7 -111 0 -86 3 -105 16 -110 10 -3 58 14
115 43 l99 48 95 -47 c53 -26 102 -47 110 -47 13 0 15 17 13 113 l-3 112 -216
3 c-118 1 -218 -1 -222 -4z m403 -104 l0 -69 -92 46 -92 45 -83 -41 c-46 -22
-86 -42 -90 -43 -8 -3 -13 112 -6 125 2 4 85 7 184 7 l179 0 0 -70z"/>
<path d="M3546 1358 c-8 -18 -24 -66 -37 -105 l-23 -73 -43 0 c-36 0 -43 -3
-43 -20 0 -16 7 -20 36 -20 30 0 35 -3 31 -17 -3 -10 -21 -74 -42 -143 -40
-137 -43 -204 -10 -240 34 -38 129 -16 181 42 36 38 104 140 104 155 0 34 -39
7 -89 -60 -50 -69 -103 -117 -128 -117 -22 0 -43 32 -43 65 0 35 56 268 71
298 8 14 24 17 89 17 73 0 80 2 80 20 0 18 -7 20 -76 20 -62 0 -75 3 -71 14
37 95 58 168 54 181 -10 25 -27 17 -41 -17z"/>
<path d="M925 1220 c-47 -19 -128 -142 -175 -265 -5 -14 -20 -27 -35 -31 -27
-7 -35 -41 -11 -50 11 -4 11 -13 -1 -54 -18 -63 -14 -144 8 -148 12 -2 18 8
23 40 4 24 16 75 28 115 l21 72 51 11 c83 18 136 23 136 14 0 -5 -16 -67 -35
-139 -41 -153 -44 -185 -15 -185 14 0 21 9 26 38 15 87 75 296 86 304 7 4 24
8 38 8 35 0 54 15 46 35 -5 13 -14 15 -45 10 l-38 -6 5 75 c5 89 -8 130 -49
151 -31 17 -36 17 -64 5z m56 -56 c9 -11 13 -39 11 -82 -3 -97 -3 -98 -80
-111 -37 -7 -75 -14 -84 -17 -10 -3 -18 0 -18 7 0 24 70 157 99 188 32 35 52
39 72 15z"/>
<path d="M2045 1150 c-4 -7 -3 -16 3 -22 14 -14 45 -2 40 15 -6 16 -34 21 -43
7z"/>
<path d="M1582 1073 c-22 -43 -162 -503 -162 -533 0 -29 29 -25 41 6 5 15 35
111 66 213 51 165 61 190 94 224 40 40 77 48 103 21 27 -26 18 -43 -26 -55
-49 -13 -138 -94 -138 -126 0 -40 25 -57 79 -54 28 1 131 101 131 126 0 19 40
20 66 0 23 -17 50 -19 60 -3 9 14 -41 55 -76 63 -17 4 -30 18 -42 46 -25 59
-99 83 -145 47 -8 -6 -12 -2 -15 13 -4 29 -24 35 -36 12z m138 -172 c0 -11
-89 -91 -101 -91 -11 0 -11 21 -1 36 9 14 82 64 93 64 5 0 9 -4 9 -9z"/>
<path d="M2287 1083 c-8 -12 -97 -284 -97 -295 0 -4 8 -8 18 -8 14 0 27 18 47
65 52 123 110 180 178 173 26 -2 32 1 32 17 0 29 -74 33 -120 7 l-33 -20 2 30
c1 29 -16 49 -27 31z"/>
<path d="M3079 1088 c0 -2 -2 -19 -4 -38 -2 -19 -20 -84 -39 -145 -21 -64 -31
-114 -26 -119 16 -16 36 2 50 45 27 87 58 145 89 172 77 64 88 6 30 -157 -19
-53 -21 -68 -11 -78 19 -18 35 7 67 101 30 92 33 161 7 184 -21 19 -73 22
-102 7 -14 -7 -19 -5 -23 10 -3 11 -12 20 -21 20 -9 0 -16 -1 -17 -2z"/>
<path d="M2820 1060 c-9 -16 -15 -18 -36 -10 -78 30 -204 -70 -204 -162 0 -93
99 -123 164 -49 l20 22 12 -31 c15 -36 52 -55 89 -46 29 7 101 77 111 108 3
11 1 25 -5 31 -8 8 -24 -3 -59 -41 -52 -56 -62 -60 -86 -36 -23 22 -20 66 10
140 25 62 26 94 5 94 -6 0 -15 -9 -21 -20z m-30 -55 c0 -36 -101 -165 -128
-165 -33 0 -43 70 -16 109 24 33 74 61 112 61 17 0 32 -2 32 -5z"/>
<path d="M3840 1058 c-45 -31 -79 -100 -80 -161 0 -90 77 -133 166 -91 38 18
124 108 124 129 0 34 -26 24 -76 -29 -74 -77 -117 -93 -154 -56 -33 33 -26 54
23 67 61 17 107 62 107 105 0 19 -5 39 -12 46 -19 19 -62 14 -98 -10z m65 -28
c10 -15 -13 -49 -45 -65 -51 -27 -55 -13 -9 40 32 36 44 42 54 25z"/>
<path d="M2022 1048 c-21 -26 -62 -152 -62 -192 0 -51 13 -66 59 -66 30 0 44
9 98 64 59 60 81 106 51 106 -7 0 -37 -27 -68 -60 -37 -40 -63 -60 -79 -60
-21 0 -23 3 -16 37 4 21 18 65 31 98 23 57 25 85 6 85 -5 0 -14 -6 -20 -12z"/>
<path d="M1231 1036 c-47 -26 -61 -84 -42 -168 8 -34 6 -39 -26 -70 -20 -18
-44 -51 -54 -73 -35 -76 -18 -125 45 -125 59 0 95 63 96 167 0 48 1 49 173 87
31 7 40 46 10 46 -23 0 -157 -35 -173 -45 -7 -4 -16 -2 -21 6 -13 21 -11 113
3 127 20 20 48 14 58 -14 13 -33 44 -29 48 7 2 19 -5 33 -24 48 -30 24 -58 26
-93 7z m-41 -366 c-6 -11 -20 -20 -30 -20 -31 0 -26 55 8 99 l27 36 3 -47 c2
-26 -2 -56 -8 -68z"/>
<path d="M4173 1040 c-43 -18 -56 -54 -50 -136 l7 -75 -36 -36 c-58 -58 -81
-136 -51 -177 9 -13 23 -17 52 -14 57 4 85 49 85 135 0 63 0 64 34 78 19 8 56
19 83 25 26 6 58 12 71 15 25 6 30 33 8 41 -13 5 -144 -24 -187 -41 -13 -5
-17 3 -22 45 -8 70 5 102 41 98 19 -2 28 -9 30 -25 4 -29 38 -31 47 -3 8 26
-11 59 -41 70 -30 12 -42 12 -71 0z m-44 -361 c-7 -17 -19 -29 -30 -29 -30 0
-25 61 9 101 l27 33 3 -38 c2 -21 -2 -51 -9 -67z"/>
</g>
</svg>
