<?xml version="1.0" standalone="no"?>
<!DOCTYPE svg PUBLIC "-//W3C//DTD SVG 20010904//EN"
 "http://www.w3.org/TR/2001/REC-SVG-20010904/DTD/svg10.dtd">
<svg version="1.0" xmlns="http://www.w3.org/2000/svg"
 width="1000.000000pt" height="1000.000000pt" viewBox="0 0 1000.000000 1000.000000"
 preserveAspectRatio="xMidYMid meet">
<metadata>
Created by potrace 1.16, written by Peter Selinger 2001-2019
</metadata>
<g transform="translate(0.000000,1000.000000) scale(0.100000,-0.100000)"
fill="#ffffff" stroke="none">
<path d="M3765 8575 c-316 -72 -545 -270 -669 -575 -54 -132 -71 -231 -70
-400 0 -80 6 -172 13 -205 95 -453 390 -834 870 -1124 69 -42 159 -92 199
-111 81 -38 78 -29 59 -160 l-13 -85 -129 -2 c-495 -8 -1093 -62 -1308 -118
-198 -52 -241 -142 -267 -555 -5 -91 -17 -235 -25 -320 -23 -237 -43 -546 -56
-850 -12 -287 -6 -739 10 -822 30 -143 89 -178 336 -198 61 -5 206 -18 324
-30 411 -39 1307 -83 2036 -100 560 -14 1484 1 1615 25 157 29 191 47 229 123
42 85 101 581 135 1147 48 786 45 1181 -10 1347 -33 102 -143 185 -282 213
-244 50 -771 95 -1120 95 -91 0 -103 2 -100 17 2 13 49 25 233 60 736 139
1126 303 1439 603 176 169 294 350 360 550 47 142 59 214 59 355 2 415 -231
753 -638 929 -185 80 -376 116 -612 116 -203 0 -339 -18 -643 -86 -203 -45
-331 -64 -445 -64 -202 0 -319 22 -702 130 -300 85 -394 102 -593 106 -124 2
-193 -1 -235 -11z m297 -195 c137 -13 264 -41 509 -111 303 -86 394 -106 548
-124 192 -23 306 -12 634 61 392 86 653 107 877 70 369 -60 651 -276 757 -581
26 -74 27 -91 27 -235 0 -139 -3 -164 -27 -243 -57 -185 -162 -354 -316 -507
-196 -195 -467 -335 -851 -441 -137 -37 -205 -52 -550 -118 l-145 -27 -21 67
c-36 115 -75 151 -194 179 -70 17 -193 18 -550 3 -291 -12 -373 -24 -448 -62
l-37 -19 -105 60 c-247 142 -394 251 -550 408 -274 276 -401 563 -387 880 7
151 23 214 88 346 106 217 287 353 517 389 109 16 107 16 224 5z m837 -2175
c55 -28 66 -126 18 -160 -33 -23 -99 -20 -124 8 -47 51 -36 114 26 147 44 23
45 23 80 5z m-856 -1036 c42 -21 57 -51 57 -111 l0 -58 63 -1 c88 -1 109 -9
129 -49 17 -32 18 -81 17 -600 -1 -311 -4 -576 -8 -589 -3 -13 -18 -33 -33
-44 l-27 -20 -590 34 c-685 40 -632 28 -639 144 l-4 65 -50 0 c-68 0 -117 25
-135 68 -12 30 -13 70 -3 276 11 256 33 554 51 724 12 108 29 144 73 162 33
14 1073 12 1099 -1z m2502 -203 c12 -19 14 -30 6 -44 -12 -23 -64 -25 -1174
-43 -527 -8 -681 -8 -693 1 -22 19 -17 59 9 70 12 6 385 15 872 23 468 8 876
15 907 16 51 1 59 -2 73 -23z m-490 -455 c387 -17 414 -20 426 -42 12 -24 4
-55 -17 -63 -8 -3 -140 1 -292 10 -221 13 -381 15 -787 10 -280 -4 -564 -10
-630 -15 -130 -9 -155 -4 -155 33 0 41 23 48 173 57 319 19 961 24 1282 10z
m-244 -461 c21 -12 25 -50 7 -68 -9 -9 -155 -12 -595 -12 l-583 0 -12 25 c-9
21 -8 28 7 45 18 20 30 20 587 20 373 0 576 -4 589 -10z m493 -563 c12 -9 17
-23 14 -42 l-3 -30 -334 -3 c-261 -2 -336 1 -343 10 -13 22 -9 57 10 67 27 16
634 14 656 -2z"/>
<path d="M3300 5090 l-335 -5 -12 -108 c-20 -186 -43 -515 -50 -734 l-6 -211
54 -4 c30 -3 57 -2 60 1 4 3 12 105 18 226 14 265 49 659 62 692 19 50 44 53
504 53 l425 0 0 44 c0 32 -5 46 -17 50 -10 4 -96 6 -193 4 -96 -2 -326 -5
-510 -8z"/>
<path d="M3670 4759 c-200 -39 -310 -211 -254 -398 8 -28 28 -66 43 -83 l28
-32 -78 -39 c-134 -67 -309 -251 -309 -325 0 -27 4 -32 33 -36 17 -3 255 -17
527 -31 272 -14 510 -27 529 -30 l34 -4 -5 43 c-11 95 -184 308 -300 371 -29
15 -55 29 -57 31 -2 2 15 24 37 50 135 153 103 412 -58 472 -41 15 -122 20
-170 11z"/>
<path d="M6756 2778 c-8 -18 -40 -113 -72 -210 l-58 -178 -78 0 c-71 0 -79 -2
-93 -24 -13 -19 -14 -29 -5 -45 9 -18 20 -21 75 -21 49 0 65 -3 65 -14 0 -7
-25 -94 -56 -192 -78 -252 -97 -335 -98 -434 -1 -152 44 -210 162 -210 85 0
180 49 259 133 77 83 216 289 211 313 -5 26 -52 42 -73 24 -9 -7 -41 -50 -72
-94 -97 -140 -156 -206 -216 -247 -66 -43 -103 -49 -138 -20 -23 18 -24 26
-24 128 1 91 6 131 38 253 20 80 51 192 70 250 l33 105 147 -4 c124 -3 151 -1
172 13 30 19 32 46 7 69 -15 14 -42 17 -155 17 -75 0 -137 2 -137 4 0 3 25 76
55 163 75 215 77 220 58 238 -26 27 -62 19 -77 -17z"/>
<path d="M2772 2422 c-179 -64 -361 -300 -458 -592 -24 -75 -28 -101 -28 -215
-1 -128 0 -131 30 -185 98 -174 334 -157 599 43 136 102 276 262 341 390 24
46 24 50 9 73 -29 45 -56 32 -107 -53 -143 -239 -456 -485 -617 -487 -204 -1
-224 218 -55 582 54 117 113 200 197 278 52 50 75 64 127 78 111 31 169 0 157
-85 -4 -32 -1 -45 14 -60 23 -23 29 -23 53 -6 12 9 20 31 24 65 6 65 -24 132
-74 163 -50 30 -143 35 -212 11z"/>
<path d="M5079 2194 c-7 -9 -14 -40 -15 -69 -1 -34 -28 -137 -73 -283 -39
-126 -71 -237 -71 -246 0 -19 36 -35 62 -28 18 4 23 16 87 199 59 171 120 262
201 298 39 17 41 17 60 0 40 -36 17 -179 -61 -373 -35 -87 -40 -107 -30 -128
12 -27 51 -33 69 -11 20 24 99 232 121 317 37 148 19 250 -50 285 -48 25 -136
17 -188 -18 l-41 -27 0 38 c0 57 -40 83 -71 46z"/>
<path d="M4386 2178 c-7 -13 -37 -99 -66 -193 -28 -93 -70 -217 -92 -274 -44
-112 -43 -133 4 -139 31 -4 49 18 78 93 43 112 113 236 163 291 71 78 114 98
209 96 76 -2 78 -1 84 25 13 50 -18 70 -108 72 -56 1 -135 -26 -184 -64 -37
-28 -38 -28 -25 7 20 54 21 77 5 92 -22 23 -51 20 -68 -6z"/>
<path d="M5980 2175 c-69 -23 -131 -74 -173 -146 -51 -87 -70 -156 -65 -240 5
-86 39 -141 112 -177 130 -65 267 -2 437 201 52 61 59 86 33 111 -23 24 -41
20 -71 -16 -141 -165 -218 -222 -300 -222 -50 -1 -57 2 -89 36 -26 29 -34 46
-34 77 l0 38 49 7 c27 4 81 23 121 42 110 55 155 132 130 224 -18 65 -74 89
-150 65z m61 -91 c11 -13 10 -21 -6 -51 -25 -45 -72 -81 -130 -98 -25 -8 -45
-12 -45 -9 0 34 121 174 150 174 10 0 23 -7 31 -16z"/>
<path d="M3832 2141 c-11 -21 -22 -29 -32 -24 -8 3 -44 8 -80 10 -118 8 -241
-60 -323 -177 -71 -104 -73 -208 -4 -287 81 -92 178 -83 281 27 26 28 49 50
50 48 1 -2 8 -22 14 -44 15 -52 77 -110 127 -120 79 -14 181 58 264 186 47 72
48 80 22 104 -29 26 -52 16 -88 -39 -46 -71 -110 -133 -144 -140 -20 -5 -38
-1 -54 9 -72 47 -61 143 46 404 17 40 4 66 -35 70 -20 3 -30 -3 -44 -27z m-64
-110 c16 -9 -48 -139 -106 -216 -72 -95 -159 -140 -192 -100 -19 23 -24 98
-10 141 41 128 215 227 308 175z"/>
<path d="M7325 2111 c-112 -28 -158 -124 -135 -284 25 -177 29 -157 -35 -205
-66 -50 -108 -113 -135 -201 -24 -75 -25 -110 -6 -155 20 -47 51 -66 111 -66
126 0 195 117 195 331 l0 97 98 31 c53 17 144 40 202 51 57 12 108 26 112 33
13 21 9 43 -12 62 -19 17 -24 17 -142 -10 -67 -15 -157 -39 -199 -55 l-77 -28
-11 62 c-14 77 -14 166 -1 200 9 23 55 56 80 56 20 0 60 -49 60 -74 0 -55 70
-54 91 2 35 93 -79 182 -196 153z m-98 -635 c-6 -92 -24 -137 -62 -162 -24
-16 -27 -15 -45 1 -42 38 -18 140 48 208 57 59 66 52 59 -47z"/>
</g>
</svg>
