<?xml version="1.0" standalone="no"?>
<!DOCTYPE svg PUBLIC "-//W3C//DTD SVG 20010904//EN"
 "http://www.w3.org/TR/2001/REC-SVG-20010904/DTD/svg10.dtd">
<svg version="1.0" xmlns="http://www.w3.org/2000/svg"
 width="1000.000000pt" height="1000.000000pt" viewBox="0 0 1000.000000 1000.000000"
 preserveAspectRatio="xMidYMid meet">
<metadata>
Created by potrace 1.16, written by Peter Selinger 2001-2019
</metadata>
<g transform="translate(0.000000,1000.000000) scale(0.100000,-0.100000)"
fill="#ffffff" stroke="none">
<path d="M5050 9608 c0 -41 -18 -347 -24 -410 -5 -47 -4 -48 23 -48 28 0 29 2
34 68 4 37 9 123 13 192 l7 125 78 -159 c73 -149 97 -185 118 -172 4 3 51 73
102 155 52 82 95 148 96 147 1 -1 -2 -60 -7 -132 -5 -71 -10 -157 -10 -191 0
-60 1 -63 24 -63 23 0 25 5 30 63 6 64 26 378 26 410 0 13 -8 17 -32 17 -32 0
-37 -7 -137 -165 l-103 -165 -83 172 c-80 167 -94 186 -137 187 -14 1 -18 -7
-18 -31z"/>
<path d="M4477 9600 c-76 -10 -140 -20 -143 -22 -3 -3 8 -112 23 -242 26 -224
28 -236 48 -236 11 0 75 7 140 15 66 8 123 15 128 15 4 0 7 12 7 26 0 26 -1
27 -52 21 -29 -4 -83 -9 -119 -13 l-66 -6 -9 81 c-7 59 -7 82 2 85 6 2 48 8
93 11 77 7 81 9 81 31 0 21 -4 24 -37 23 -21 0 -64 -4 -95 -8 -65 -8 -61 -14
-74 100 l-6 56 116 13 c110 13 116 14 116 36 0 13 -3 25 -7 27 -5 2 -70 -4
-146 -13z"/>
<path d="M5955 9295 c-31 -130 -55 -238 -53 -240 2 -3 68 -20 145 -38 141 -34
141 -34 147 -13 7 28 3 30 -79 50 -38 9 -86 21 -106 27 l-37 9 20 80 c11 44
25 80 30 80 5 0 46 -9 90 -21 44 -11 81 -19 83 -17 1 2 6 13 9 25 7 20 2 23
-73 39 -44 9 -86 21 -92 25 -10 6 -9 24 5 83 10 42 19 76 21 76 2 0 51 -11
110 -25 58 -14 111 -23 116 -20 5 4 9 14 9 24 0 15 -23 24 -127 50 -71 18
-135 34 -144 37 -14 4 -26 -34 -74 -231z"/>
<path d="M3767 9466 c-92 -33 -129 -112 -91 -192 22 -45 54 -61 144 -69 106
-11 130 -25 130 -78 0 -65 -54 -104 -129 -93 -84 13 -86 12 -89 -11 -4 -30 30
-46 98 -46 68 0 133 31 160 76 24 39 26 106 5 147 -21 41 -57 57 -148 65 -90
9 -127 30 -127 75 0 20 10 37 32 55 30 25 37 27 94 22 60 -6 62 -5 67 18 4 21
-1 26 -32 35 -47 13 -68 12 -114 -4z"/>
<path d="M6683 9269 c-38 -24 -65 -86 -56 -131 4 -22 28 -52 75 -97 56 -53 68
-70 68 -96 0 -36 -29 -72 -64 -81 -36 -9 -110 28 -132 65 -19 33 -44 40 -62
18 -19 -22 32 -85 91 -113 87 -40 168 -25 207 38 48 78 39 112 -51 201 -60 59
-70 73 -67 100 7 74 98 87 161 22 37 -38 49 -42 66 -21 10 11 5 22 -21 52 -57
65 -151 84 -215 43z"/>
<path d="M7282 9047 c-23 -31 -20 -36 43 -73 36 -21 65 -42 65 -46 0 -5 -47
-88 -105 -184 -58 -97 -105 -179 -105 -183 0 -9 49 -36 53 -30 2 2 52 86 111
187 l109 182 31 -19 c97 -59 100 -60 113 -49 7 6 13 16 13 23 0 20 -317 206
-328 192z"/>
<path d="M2609 8975 c-158 -82 -180 -272 -47 -404 93 -94 238 -90 337 10 51
50 65 87 65 159 -1 105 -66 207 -156 244 -57 24 -144 20 -199 -9z m159 -40
c50 -21 79 -51 109 -109 47 -92 29 -178 -49 -232 -74 -52 -161 -41 -223 28
-107 117 -82 266 52 313 50 18 66 18 111 0z"/>
<path d="M7804 8463 c-77 -92 -147 -177 -156 -189 -17 -20 -16 -22 6 -43 l24
-22 62 75 c35 42 69 76 76 76 7 0 21 -11 31 -24 17 -21 18 -34 11 -141 -8
-114 -8 -119 13 -142 13 -12 26 -23 29 -23 4 0 11 59 15 131 6 110 9 130 22
125 90 -35 180 15 190 106 6 55 -25 103 -118 181 l-67 56 -138 -166z m217 28
c57 -56 62 -84 24 -129 -45 -53 -100 -48 -172 15 l-32 28 56 68 c30 37 60 67
66 67 5 0 32 -22 58 -49z"/>
<path d="M3765 8575 c-316 -72 -545 -270 -669 -575 -54 -132 -71 -231 -70
-400 0 -80 6 -172 13 -205 95 -453 390 -834 870 -1124 69 -42 159 -92 199
-111 81 -38 78 -29 59 -160 l-13 -85 -129 -2 c-495 -8 -1093 -62 -1308 -118
-198 -52 -241 -142 -267 -555 -5 -91 -17 -235 -25 -320 -23 -237 -43 -546 -56
-850 -12 -287 -6 -739 10 -822 30 -143 89 -178 336 -198 61 -5 206 -18 324
-30 411 -39 1307 -83 2036 -100 560 -14 1484 1 1615 25 157 29 191 47 229 123
42 85 101 581 135 1147 48 786 45 1181 -10 1347 -33 102 -143 185 -282 213
-244 50 -771 95 -1120 95 -91 0 -103 2 -100 17 2 13 49 25 233 60 736 139
1126 303 1439 603 176 169 294 350 360 550 47 142 59 214 59 355 2 415 -231
753 -638 929 -185 80 -376 116 -612 116 -203 0 -339 -18 -643 -86 -203 -45
-331 -64 -445 -64 -202 0 -319 22 -702 130 -300 85 -394 102 -593 106 -124 2
-193 -1 -235 -11z m297 -195 c137 -13 264 -41 509 -111 303 -86 394 -106 548
-124 192 -23 306 -12 634 61 392 86 653 107 877 70 369 -60 651 -276 757 -581
26 -74 27 -91 27 -235 0 -139 -3 -164 -27 -243 -57 -185 -162 -354 -316 -507
-196 -195 -467 -335 -851 -441 -137 -37 -205 -52 -550 -118 l-145 -27 -21 67
c-36 115 -75 151 -194 179 -70 17 -193 18 -550 3 -291 -12 -373 -24 -448 -62
l-37 -19 -105 60 c-247 142 -394 251 -550 408 -274 276 -401 563 -387 880 7
151 23 214 88 346 106 217 287 353 517 389 109 16 107 16 224 5z m837 -2175
c55 -28 66 -126 18 -160 -33 -23 -99 -20 -124 8 -47 51 -36 114 26 147 44 23
45 23 80 5z m-856 -1036 c42 -21 57 -51 57 -111 l0 -58 63 -1 c88 -1 109 -9
129 -49 17 -32 18 -81 17 -600 -1 -311 -4 -576 -8 -589 -3 -13 -18 -33 -33
-44 l-27 -20 -590 34 c-685 40 -632 28 -639 144 l-4 65 -50 0 c-68 0 -117 25
-135 68 -12 30 -13 70 -3 276 11 256 33 554 51 724 12 108 29 144 73 162 33
14 1073 12 1099 -1z m2502 -203 c12 -19 14 -30 6 -44 -12 -23 -64 -25 -1174
-43 -527 -8 -681 -8 -693 1 -22 19 -17 59 9 70 12 6 385 15 872 23 468 8 876
15 907 16 51 1 59 -2 73 -23z m-490 -455 c387 -17 414 -20 426 -42 12 -24 4
-55 -17 -63 -8 -3 -140 1 -292 10 -221 13 -381 15 -787 10 -280 -4 -564 -10
-630 -15 -130 -9 -155 -4 -155 33 0 41 23 48 173 57 319 19 961 24 1282 10z
m-244 -461 c21 -12 25 -50 7 -68 -9 -9 -155 -12 -595 -12 l-583 0 -12 25 c-9
21 -8 28 7 45 18 20 30 20 587 20 373 0 576 -4 589 -10z m493 -563 c12 -9 17
-23 14 -42 l-3 -30 -334 -3 c-261 -2 -336 1 -343 10 -13 22 -9 57 10 67 27 16
634 14 656 -2z"/>
<path d="M3300 5090 l-335 -5 -12 -108 c-20 -186 -43 -515 -50 -734 l-6 -211
54 -4 c30 -3 57 -2 60 1 4 3 12 105 18 226 14 265 49 659 62 692 19 50 44 53
504 53 l425 0 0 44 c0 32 -5 46 -17 50 -10 4 -96 6 -193 4 -96 -2 -326 -5
-510 -8z"/>
<path d="M3670 4759 c-200 -39 -310 -211 -254 -398 8 -28 28 -66 43 -83 l28
-32 -78 -39 c-134 -67 -309 -251 -309 -325 0 -27 4 -32 33 -36 17 -3 255 -17
527 -31 272 -14 510 -27 529 -30 l34 -4 -5 43 c-11 95 -184 308 -300 371 -29
15 -55 29 -57 31 -2 2 15 24 37 50 135 153 103 412 -58 472 -41 15 -122 20
-170 11z"/>
<path d="M1944 8485 c-27 -14 -82 -55 -122 -93 l-73 -67 161 -183 161 -183 77
69 c42 39 85 78 94 89 49 54 62 166 29 239 -59 130 -208 189 -327 129z m164
-49 c35 -18 85 -72 106 -113 22 -44 21 -118 -3 -157 -11 -17 -44 -52 -73 -77
l-54 -47 -115 131 c-63 72 -118 137 -123 145 -10 17 29 60 93 103 50 33 122
39 169 15z"/>
<path d="M8316 7961 c-98 -87 -178 -162 -177 -167 1 -5 36 -49 79 -98 42 -48
85 -98 94 -109 16 -21 17 -21 37 -3 20 18 20 19 -55 104 -41 47 -73 90 -71 96
2 5 29 32 59 59 l56 49 35 -39 c18 -21 47 -53 63 -71 28 -33 30 -33 46 -15 16
18 14 22 -43 88 l-61 70 59 52 c32 29 61 53 64 53 3 0 38 -38 78 -85 41 -47
77 -85 81 -85 15 0 32 29 24 42 -7 12 -187 219 -188 217 -1 0 -81 -71 -180
-158z"/>
<path d="M1409 7969 c-6 -12 -7 -24 -2 -29 4 -4 67 -53 138 -110 72 -57 134
-106 138 -110 4 -4 -98 -5 -228 -2 -233 5 -265 1 -265 -29 0 -13 373 -308 382
-303 4 3 12 13 18 23 8 16 -9 33 -122 122 -72 57 -138 110 -147 117 -13 11 26
12 221 10 214 -3 239 -1 255 14 9 10 15 19 12 21 -54 47 -375 297 -380 297 -5
0 -13 -9 -20 -21z"/>
<path d="M920 7280 c-6 -11 -8 -24 -5 -29 3 -5 58 -37 123 -72 145 -76 180
-102 198 -146 30 -71 -25 -159 -104 -170 -36 -5 -57 3 -196 76 l-155 82 -15
-28 -14 -28 146 -80 c123 -66 156 -79 204 -83 45 -3 64 0 97 19 56 31 94 91
99 156 9 111 -20 146 -209 248 -76 41 -143 75 -149 75 -5 0 -14 -9 -20 -20z"/>
<path d="M9091 7102 c-8 -6 -11 -17 -6 -31 5 -17 14 -21 46 -21 85 0 132 -100
74 -154 -50 -47 -109 -41 -315 29 -57 19 -112 33 -122 29 -15 -4 -8 -24 55
-150 39 -79 77 -144 83 -144 6 0 17 7 24 14 9 12 2 34 -39 113 -27 53 -49 98
-48 99 1 1 56 -15 122 -36 187 -61 263 -50 309 43 29 61 2 140 -65 189 -29 22
-97 33 -118 20z"/>
<path d="M580 6510 c-49 -49 -86 -158 -76 -222 20 -125 127 -208 265 -208 105
1 180 57 220 165 20 54 27 127 15 171 -4 15 -26 27 -88 47 -45 15 -85 27 -88
27 -4 0 -16 -30 -28 -66 -19 -55 -20 -68 -9 -75 21 -13 32 -6 43 28 15 44 17
45 69 27 52 -17 63 -36 52 -92 -28 -150 -157 -212 -295 -142 -115 59 -132 208
-34 306 30 30 33 36 22 54 -17 27 -22 26 -68 -20z"/>
<path d="M9240 6440 c-70 -26 -128 -66 -158 -110 -20 -29 -23 -45 -20 -91 7
-101 68 -152 180 -151 70 0 172 33 226 73 43 31 82 98 82 140 0 36 -40 109
-73 133 -41 30 -163 33 -237 6z m217 -56 c34 -21 48 -76 29 -116 -30 -63 -148
-119 -254 -122 -60 -1 -65 1 -93 32 -64 72 -18 155 111 199 99 34 160 36 207
7z"/>
<path d="M355 5768 c-7 -23 -43 -273 -39 -277 2 -2 110 -20 240 -41 159 -25
237 -33 239 -26 6 20 45 279 43 281 -2 2 -13 5 -24 9 -25 8 -27 4 -46 -128 -7
-50 -18 -90 -25 -93 -13 -5 -142 13 -150 21 -3 3 0 44 7 91 7 47 11 88 9 90
-2 2 -13 5 -24 7 -17 3 -21 -7 -34 -87 -7 -49 -15 -91 -16 -93 -3 -3 -147 19
-156 24 -5 3 7 96 26 202 5 29 4 32 -20 32 -14 0 -27 -6 -30 -12z"/>
<path d="M9552 5755 c2 -23 10 -31 35 -37 71 -18 100 -116 47 -157 -34 -27
-93 -27 -144 -1 -22 11 -90 56 -152 100 -61 44 -115 80 -120 80 -5 0 -11 -6
-14 -13 -5 -13 39 -303 47 -312 3 -2 15 -2 27 2 22 5 23 9 16 62 -4 31 -12 82
-19 113 -8 39 -8 55 -1 51 6 -4 52 -34 101 -68 119 -83 146 -95 200 -95 85 0
135 50 135 135 0 86 -49 150 -126 162 -34 6 -35 5 -32 -22z"/>
<path d="M558 5055 c-30 -17 -47 -44 -78 -129 -24 -63 -62 -100 -94 -90 -61
19 -79 77 -46 150 20 46 20 49 4 61 -55 40 -100 -129 -54 -204 27 -45 64 -66
115 -66 72 0 94 21 136 136 35 97 80 120 138 71 27 -22 31 -32 31 -75 0 -33
-8 -63 -22 -90 -22 -39 -23 -40 -4 -54 24 -18 31 -13 58 38 30 58 31 154 2
193 -48 65 -130 91 -186 59z"/>
<path d="M9614 5045 c-3 -8 10 -33 30 -58 20 -24 36 -47 36 -51 0 -3 -81 -6
-180 -6 l-180 0 0 55 c0 48 -2 55 -20 55 -19 0 -20 -7 -20 -134 0 -129 1 -134
20 -129 16 4 20 14 20 49 l0 44 148 0 c82 0 183 3 225 6 68 6 77 9 77 27 0 23
-116 157 -136 157 -8 0 -17 -7 -20 -15z"/>
<path d="M6756 2778 c-8 -18 -40 -113 -72 -210 l-58 -178 -78 0 c-71 0 -79 -2
-93 -24 -13 -19 -14 -29 -5 -45 9 -18 20 -21 75 -21 49 0 65 -3 65 -14 0 -7
-25 -94 -56 -192 -78 -252 -97 -335 -98 -434 -1 -152 44 -210 162 -210 85 0
180 49 259 133 77 83 216 289 211 313 -5 26 -52 42 -73 24 -9 -7 -41 -50 -72
-94 -97 -140 -156 -206 -216 -247 -66 -43 -103 -49 -138 -20 -23 18 -24 26
-24 128 1 91 6 131 38 253 20 80 51 192 70 250 l33 105 147 -4 c124 -3 151 -1
172 13 30 19 32 46 7 69 -15 14 -42 17 -155 17 -75 0 -137 2 -137 4 0 3 25 76
55 163 75 215 77 220 58 238 -26 27 -62 19 -77 -17z"/>
<path d="M2772 2422 c-179 -64 -361 -300 -458 -592 -24 -75 -28 -101 -28 -215
-1 -128 0 -131 30 -185 98 -174 334 -157 599 43 136 102 276 262 341 390 24
46 24 50 9 73 -29 45 -56 32 -107 -53 -143 -239 -456 -485 -617 -487 -204 -1
-224 218 -55 582 54 117 113 200 197 278 52 50 75 64 127 78 111 31 169 0 157
-85 -4 -32 -1 -45 14 -60 23 -23 29 -23 53 -6 12 9 20 31 24 65 6 65 -24 132
-74 163 -50 30 -143 35 -212 11z"/>
<path d="M5079 2194 c-7 -9 -14 -40 -15 -69 -1 -34 -28 -137 -73 -283 -39
-126 -71 -237 -71 -246 0 -19 36 -35 62 -28 18 4 23 16 87 199 59 171 120 262
201 298 39 17 41 17 60 0 40 -36 17 -179 -61 -373 -35 -87 -40 -107 -30 -128
12 -27 51 -33 69 -11 20 24 99 232 121 317 37 148 19 250 -50 285 -48 25 -136
17 -188 -18 l-41 -27 0 38 c0 57 -40 83 -71 46z"/>
<path d="M4386 2178 c-7 -13 -37 -99 -66 -193 -28 -93 -70 -217 -92 -274 -44
-112 -43 -133 4 -139 31 -4 49 18 78 93 43 112 113 236 163 291 71 78 114 98
209 96 76 -2 78 -1 84 25 13 50 -18 70 -108 72 -56 1 -135 -26 -184 -64 -37
-28 -38 -28 -25 7 20 54 21 77 5 92 -22 23 -51 20 -68 -6z"/>
<path d="M5980 2175 c-69 -23 -131 -74 -173 -146 -51 -87 -70 -156 -65 -240 5
-86 39 -141 112 -177 130 -65 267 -2 437 201 52 61 59 86 33 111 -23 24 -41
20 -71 -16 -141 -165 -218 -222 -300 -222 -50 -1 -57 2 -89 36 -26 29 -34 46
-34 77 l0 38 49 7 c27 4 81 23 121 42 110 55 155 132 130 224 -18 65 -74 89
-150 65z m61 -91 c11 -13 10 -21 -6 -51 -25 -45 -72 -81 -130 -98 -25 -8 -45
-12 -45 -9 0 34 121 174 150 174 10 0 23 -7 31 -16z"/>
<path d="M3832 2141 c-11 -21 -22 -29 -32 -24 -8 3 -44 8 -80 10 -118 8 -241
-60 -323 -177 -71 -104 -73 -208 -4 -287 81 -92 178 -83 281 27 26 28 49 50
50 48 1 -2 8 -22 14 -44 15 -52 77 -110 127 -120 79 -14 181 58 264 186 47 72
48 80 22 104 -29 26 -52 16 -88 -39 -46 -71 -110 -133 -144 -140 -20 -5 -38
-1 -54 9 -72 47 -61 143 46 404 17 40 4 66 -35 70 -20 3 -30 -3 -44 -27z m-64
-110 c16 -9 -48 -139 -106 -216 -72 -95 -159 -140 -192 -100 -19 23 -24 98
-10 141 41 128 215 227 308 175z"/>
<path d="M7325 2111 c-112 -28 -158 -124 -135 -284 25 -177 29 -157 -35 -205
-66 -50 -108 -113 -135 -201 -24 -75 -25 -110 -6 -155 20 -47 51 -66 111 -66
126 0 195 117 195 331 l0 97 98 31 c53 17 144 40 202 51 57 12 108 26 112 33
13 21 9 43 -12 62 -19 17 -24 17 -142 -10 -67 -15 -157 -39 -199 -55 l-77 -28
-11 62 c-14 77 -14 166 -1 200 9 23 55 56 80 56 20 0 60 -49 60 -74 0 -55 70
-54 91 2 35 93 -79 182 -196 153z m-98 -635 c-6 -92 -24 -137 -62 -162 -24
-16 -27 -15 -45 1 -42 38 -18 140 48 208 57 59 66 52 59 -47z"/>
</g>
</svg>
