<?xml version="1.0" standalone="no"?>
<!DOCTYPE svg PUBLIC "-//W3C//DTD SVG 20010904//EN"
 "http://www.w3.org/TR/2001/REC-SVG-20010904/DTD/svg10.dtd">
<svg version="1.0" xmlns="http://www.w3.org/2000/svg"
 width="500.000000pt" height="500.000000pt" viewBox="0 0 500.000000 500.000000"
 preserveAspectRatio="xMidYMid meet">
<metadata>
Created by potrace 1.16, written by Peter Selinger 2001-2019
</metadata>
<g transform="translate(0.000000,500.000000) scale(0.100000,-0.100000)"
fill="#ffffff" stroke="none">
<path d="M3727 4134 c-4 -4 -7 -43 -7 -86 l0 -78 -43 0 c-69 0 -77 -15 -77
-150 l0 -113 -97 6 c-54 4 -113 7 -130 7 -23 0 -33 5 -33 15 0 12 -17 15 -95
15 -70 0 -95 -3 -95 -13 0 -7 -9 -18 -20 -25 -17 -10 -20 -23 -20 -81 0 -37
-3 -109 -6 -158 l-7 -90 -43 -22 -44 -21 -14 23 c-8 12 -20 35 -27 50 -16 36
-2 47 59 47 39 0 43 2 40 23 -3 19 -10 22 -51 25 -27 2 -50 9 -53 16 -3 7 7
32 20 57 32 54 33 79 5 79 -29 0 -57 -17 -107 -62 -38 -35 -48 -39 -75 -34
-18 4 -74 9 -124 13 l-93 6 -5 31 c-4 17 -1 105 5 195 6 99 7 168 1 174 -5 5
-19 7 -32 5 -17 -2 -29 -17 -48 -65 -24 -58 -28 -62 -61 -65 -33 -3 -35 -5
-38 -41 -2 -28 2 -43 15 -53 16 -12 15 -13 -15 -14 l-33 0 3 -70 c1 -38 -2
-74 -7 -79 -6 -5 -73 -11 -150 -13 -119 -3 -146 -7 -181 -26 -80 -41 -81 -111
-4 -156 30 -18 56 -21 180 -24 80 -2 149 -8 155 -13 5 -5 8 -41 7 -79 l-3 -70
30 0 c17 0 31 -4 31 -10 0 -5 -7 -10 -16 -10 -12 0 -14 -9 -12 -42 3 -42 4
-43 41 -46 24 -2 37 -8 37 -18 0 -8 -87 -57 -220 -124 l-220 -110 -1 42 c0 24
-3 59 -7 79 -6 33 -9 36 -29 28 -13 -5 -23 -17 -23 -27 0 -11 -10 -32 -22 -48
-20 -24 -23 -41 -23 -112 0 -97 -5 -103 -80 -100 -46 3 -50 5 -53 30 -2 15 4
40 12 57 24 45 20 79 -14 118 -16 18 -30 42 -30 53 0 11 -9 24 -20 30 -17 9
-20 7 -26 -16 -4 -15 -4 -61 -1 -104 5 -63 3 -81 -9 -91 -8 -6 -22 -38 -31
-69 -15 -57 -16 -57 -89 -93 -41 -20 -74 -41 -74 -47 0 -15 4 -13 78 24 l68
34 -4 -30 c-4 -25 -14 -34 -68 -61 -35 -17 -64 -37 -64 -44 0 -12 65 -150 76
-162 2 -2 7 -2 10 1 3 3 -11 38 -30 77 -20 39 -36 74 -36 79 0 4 24 19 53 34
l53 26 25 -22 c19 -15 28 -34 33 -69 5 -43 -5 -161 -20 -227 -6 -24 -6 -24
-26 13 -31 62 -34 33 -3 -33 16 -33 30 -58 32 -56 3 2 30 -5 61 -16 46 -16 73
-19 142 -15 47 3 100 11 118 17 28 11 33 16 28 36 -4 13 -2 24 3 24 27 0 61
-22 78 -50 27 -48 84 -72 193 -83 52 -5 110 -9 128 -9 29 1 32 -2 32 -28 0
-19 9 -36 28 -50 21 -17 28 -33 32 -71 l6 -50 -81 -71 c-44 -40 -90 -80 -102
-91 -21 -19 -21 -19 -38 13 -16 31 -19 32 -65 28 -55 -6 -96 -32 -196 -128
-46 -44 -64 -69 -62 -83 3 -19 6 -19 40 12 l38 33 -6 -31 c-9 -42 12 -88 45
-100 22 -8 17 -10 -34 -10 -34 -1 -66 4 -72 10 -7 7 -12 4 -16 -11 -5 -21 -4
-22 91 -18 l97 3 3 -52 c3 -54 -14 -76 -20 -25 l-3 27 -90 1 -90 1 85 -6 c83
-6 85 -7 88 -33 l3 -27 -87 -3 c-59 -2 -89 -7 -92 -15 -3 -10 17 -13 77 -13
78 0 81 -1 81 -24 0 -22 -4 -24 -100 -32 -56 -5 -107 -6 -115 -1 -12 6 -15 31
-15 107 0 84 -3 100 -16 100 -8 0 -12 5 -9 10 4 6 11 8 16 4 6 -3 7 10 5 32
-5 38 -24 60 -39 45 -5 -5 -4 -18 3 -30 9 -17 8 -25 -5 -37 -13 -13 -15 -41
-13 -171 l3 -155 38 -15 c20 -8 48 -12 62 -9 22 6 25 12 25 50 l0 43 46 7 c26
3 73 6 105 6 l59 0 0 -36 c0 -29 -3 -35 -16 -30 -24 9 -184 -5 -184 -17 0 -6
30 -7 80 -3 79 7 80 7 92 -18 14 -32 26 -32 86 -2 45 22 52 23 154 15 62 -5
117 -5 130 0 13 5 47 33 77 61 l53 52 24 -23 c28 -26 30 -42 9 -59 -13 -11
-20 -9 -40 10 -33 31 -45 17 -14 -16 16 -17 31 -24 46 -21 13 2 28 -2 34 -9
15 -19 49 -18 78 2 19 14 22 23 19 66 l-3 49 103 91 c104 91 125 120 116 154
-4 16 94 68 651 346 432 216 655 333 655 343 0 8 -88 191 -195 405 l-195 390
230 0 230 0 0 488 c0 366 -3 491 -12 500 -7 7 -31 12 -55 12 l-42 0 -3 76 c-2
60 -7 79 -20 88 -13 8 -23 8 -35 0 -14 -9 -19 -28 -21 -88 l-3 -76 -219 0
-219 0 -3 83 c-3 79 -4 82 -28 85 -14 2 -29 0 -33 -4z m-1153 -249 c-4 -47 -7
-134 -8 -195 l-1 -110 -87 0 -87 0 55 133 c31 72 67 160 81 195 14 36 31 62
40 62 12 0 13 -14 7 -85z m1146 56 c0 -6 -4 -13 -10 -16 -16 -10 -12 -62 6
-79 18 -18 47 -20 75 -6 21 12 27 74 9 85 -33 20 9 25 216 25 l225 0 -15 -22
c-21 -30 -20 -61 3 -82 28 -25 72 -17 91 17 14 25 13 30 -2 58 l-18 30 48 -3
47 -3 3 -157 3 -158 -291 0 c-187 0 -290 4 -290 10 0 6 93 10 260 10 l261 0
-3 78 -3 77 -322 3 -323 2 0 -34 c0 -40 -11 -50 -46 -42 -23 6 -24 9 -24 99 0
59 4 97 12 105 14 14 88 16 88 3z m600 -211 l0 -60 -250 0 c-243 0 -250 1
-250 20 0 11 7 20 15 20 8 0 15 -6 15 -14 0 -23 35 -11 38 13 4 26 22 18 22
-10 0 -11 5 -17 10 -14 6 3 10 22 10 41 0 19 -4 34 -10 34 -5 0 -10 -6 -10
-12 -1 -8 -6 -6 -14 5 -20 26 -26 21 -26 -20 l-1 -38 -14 33 c-8 17 -18 32
-23 32 -5 0 -14 -15 -20 -32 l-12 -33 6 38 c3 26 2 37 -5 32 -6 -3 -11 -12
-11 -19 0 -20 -44 -13 -54 9 -9 19 -10 19 -13 -3 -6 -29 -23 -18 -23 14 l0 24
310 0 310 0 0 -60z m-812 -36 l52 -7 0 -54 c0 -49 -2 -54 -17 -48 -61 25 -119
24 -170 -4 -21 -11 -22 -9 -25 46 l-3 58 -102 3 -103 3 0 -66 0 -65 59 0 c32
0 72 -3 89 -6 l31 -6 -19 -39 c-25 -49 -26 -119 -1 -168 23 -43 35 -55 87 -81
l39 -19 -140 5 c-77 3 -146 8 -154 10 -12 4 -13 39 -7 216 4 116 9 215 12 220
6 9 294 11 372 2z m280 -12 c13 -5 18 -138 5 -145 -5 -2 -51 -2 -104 1 -113 5
-118 10 -111 95 l5 59 96 -3 c53 -2 102 -5 109 -7z m612 -382 l0 -310 -390 0
-390 0 0 115 0 115 85 0 c99 0 105 5 105 94 0 57 12 74 25 34 3 -13 8 -18 11
-12 3 6 -4 35 -16 63 -21 54 -25 102 -10 136 7 15 9 8 11 -30 l2 -50 4 44 c3
26 11 50 21 58 15 11 14 12 -10 13 -21 0 -28 5 -28 20 0 20 7 20 290 20 l290
0 0 -310z m-877 276 c70 -29 116 -118 96 -189 -41 -150 -242 -171 -309 -32
-65 134 75 279 213 221z m-1351 -18 c-20 -20 -14 -38 13 -38 21 0 46 9 75 28
2 2 -2 7 -10 12 -12 8 -10 10 7 10 16 0 21 -4 17 -15 -4 -8 -1 -15 5 -15 6 0
11 7 11 15 0 8 4 15 10 15 5 0 7 -7 4 -15 -4 -8 -1 -15 5 -15 6 0 11 7 11 15
0 8 4 15 10 15 5 0 7 -7 4 -15 -4 -8 -1 -15 5 -15 6 0 11 7 11 15 0 8 4 15 10
15 5 0 7 -7 4 -15 -4 -8 -1 -15 5 -15 6 0 11 7 11 15 0 8 4 15 10 15 5 0 7 -7
4 -15 -4 -8 -1 -15 5 -15 6 0 12 8 12 18 1 16 2 16 6 0 2 -10 9 -18 14 -18 5
0 10 8 10 18 1 16 2 16 6 0 2 -10 9 -18 14 -18 5 0 10 8 10 18 1 16 2 16 6 0
5 -21 23 -24 23 -5 0 8 4 7 11 -3 9 -12 12 -13 16 -1 5 11 7 11 15 0 8 -12 10
-12 15 0 5 11 7 11 15 0 8 -12 10 -12 15 0 5 11 7 11 15 0 8 -12 10 -12 15 0
5 11 7 11 15 0 8 -12 10 -12 15 0 5 11 7 11 14 0 8 -12 11 -11 19 1 6 10 10
11 10 3 0 -8 14 -13 35 -13 19 0 35 -4 35 -10 0 -5 19 -10 43 -10 23 0 60 -3
82 -7 l40 -8 -38 -5 c-21 -3 -38 -9 -38 -15 0 -5 17 -12 38 -15 35 -5 36 -6
13 -13 -14 -3 -51 -7 -82 -7 -32 0 -58 -4 -58 -10 0 -5 -16 -10 -35 -10 -21 0
-35 -5 -35 -12 0 -9 -4 -8 -11 2 -9 12 -12 13 -16 1 -5 -11 -7 -11 -14 0 -8
12 -10 12 -18 0 -7 -11 -9 -11 -14 0 -4 12 -7 11 -16 -1 -7 -10 -11 -11 -11
-2 0 19 -20 14 -21 -5 -1 -17 -2 -17 -6 0 -2 9 -9 17 -14 17 -5 0 -10 -8 -10
-17 -1 -17 -2 -17 -6 0 -5 21 -23 23 -23 2 0 -8 -9 -15 -20 -15 -11 0 -20 7
-20 15 0 8 -5 15 -11 15 -6 0 -9 -7 -5 -15 3 -8 1 -15 -4 -15 -6 0 -10 7 -10
15 0 8 -5 15 -11 15 -6 0 -9 -7 -5 -15 5 -13 -9 -15 -92 -14 -53 0 -91 3 -84
6 6 2 12 9 12 15 0 6 -6 8 -14 5 -8 -3 -17 1 -20 9 -7 18 -66 19 -66 1 0 -7 5
-18 12 -25 9 -9 3 -12 -28 -12 l-41 0 1 75 c1 60 -2 75 -14 76 -23 2 32 17 65
18 22 1 26 -2 17 -11z m1623 -175 c-4 -76 -10 -142 -15 -146 -4 -4 -70 -5
-147 -1 l-140 7 50 26 c67 35 101 94 94 166 -2 28 -8 58 -12 68 -6 15 1 17 85
17 l92 0 -7 -137z m-902 -23 l58 -49 -69 -35 -70 -35 -18 21 c-31 34 -116 77
-165 84 -39 5 -46 9 -42 25 5 16 15 19 77 20 39 0 89 4 111 8 22 5 45 9 50 10
6 0 36 -21 68 -49z m-323 17 c0 -8 -16 -31 -36 -51 l-37 -38 7 -75 c7 -89 20
-121 29 -74 6 28 10 31 41 31 20 0 51 7 69 16 33 16 36 16 65 -6 17 -13 36
-36 43 -51 14 -35 16 -35 38 -7 l18 22 5 -34 c4 -28 0 -39 -26 -66 -17 -18
-46 -51 -64 -73 -19 -23 -47 -45 -65 -50 -31 -9 -31 -9 -5 -10 32 -1 91 46
114 92 13 24 20 28 43 24 16 -3 38 -3 49 0 l21 5 -24 49 c-14 26 -25 53 -25
58 0 6 18 20 40 31 l40 20 70 -140 c38 -77 70 -144 70 -150 0 -5 -7 -10 -15
-10 -7 0 -19 -8 -24 -17 -9 -16 -13 -15 -41 15 -18 18 -41 32 -55 32 -18 0
-24 6 -27 27 -3 24 -9 29 -46 36 -59 12 -72 5 -72 -38 0 -29 -6 -39 -32 -55
-40 -24 -50 -25 -95 -3 -32 15 -39 15 -77 1 -32 -11 -46 -24 -65 -59 -17 -31
-39 -53 -72 -72 -27 -15 -49 -31 -49 -37 0 -12 -50 -13 -66 -2 -12 7 -77 132
-72 137 2 1 68 35 146 74 122 61 146 70 160 59 13 -11 15 -11 10 2 -4 8 -41
96 -82 195 -42 99 -76 186 -76 193 0 9 24 12 85 12 65 0 85 -3 85 -13z m539
-119 c17 -20 29 -22 242 -29 123 -4 232 -8 242 -8 13 -1 17 -10 17 -36 0 -28
-4 -35 -20 -35 -11 0 -28 -9 -37 -20 -12 -14 -30 -20 -59 -20 -31 0 -55 -9
-94 -36 -41 -28 -54 -33 -66 -23 -11 9 -21 8 -46 -4 -23 -11 -36 -12 -49 -4
-13 8 -24 6 -46 -8 -52 -34 -113 -89 -113 -102 0 -36 -26 0 -85 117 -36 71
-65 134 -65 140 0 7 140 87 158 90 2 0 12 -10 21 -22z m501 -146 c-1 -20 -29
-73 -30 -54 0 17 -60 -27 -60 -44 0 -7 -16 -21 -36 -30 -52 -25 -67 -74 -23
-74 23 0 24 -7 3 -55 -8 -21 -13 -43 -10 -50 3 -8 -2 -11 -15 -8 -19 5 -49
-12 -49 -28 0 -5 9 -9 20 -9 32 0 35 -27 11 -86 -13 -29 -20 -62 -17 -72 6
-17 1 -19 -51 -18 l-58 1 -10 -42 -10 -43 -97 193 c-85 171 -94 195 -82 211 7
11 11 22 9 27 -5 7 76 84 108 100 21 12 22 3 2 -18 -28 -27 -4 -33 30 -7 24
18 48 26 84 27 37 2 57 9 75 26 18 17 44 27 88 33 40 5 70 15 82 28 22 21 36
18 36 -8z m-1092 -80 c3 -18 -17 -31 -138 -92 -78 -39 -143 -70 -145 -68 -30
39 -29 41 118 115 78 40 147 71 152 69 6 -1 11 -12 13 -24z m1225 -62 l132 0
188 -376 c103 -207 187 -377 185 -379 -2 -2 -630 -319 -660 -333 -6 -3 -38 49
-38 62 0 3 64 39 143 78 l142 73 -52 3 c-29 2 -53 6 -53 9 0 3 18 21 40 40 79
68 33 84 -96 33 -79 -32 -134 -59 -171 -86 -22 -16 -23 -14 -123 185 -81 164
-98 205 -90 221 5 10 10 30 10 44 0 30 13 40 37 27 10 -5 27 -12 38 -16 20 -6
20 -7 1 -20 -18 -14 -18 -15 10 -25 68 -26 103 -23 74 6 -7 7 -1 9 20 6 34 -5
46 13 36 53 -8 30 -36 34 -36 5 0 -20 -35 -46 -44 -32 -15 25 -16 89 -2 117 9
17 16 45 16 63 0 17 4 32 9 32 5 0 6 -10 3 -22 -5 -22 -5 -22 18 -7 35 23 47
46 35 65 -14 23 -31 18 -27 -8 3 -14 0 -18 -8 -13 -15 9 -7 82 10 99 9 8 11 6
5 -11 -5 -19 -2 -23 15 -23 30 0 34 22 10 64 -24 39 -30 42 -48 24 -6 -6 -15
-9 -18 -5 -10 10 23 43 57 58 19 7 28 17 25 25 -3 8 1 14 9 14 11 0 12 -5 5
-26 -14 -36 -13 -44 8 -44 26 0 42 20 44 55 l1 30 4 -32 4 -33 132 0z m390
-396 c109 -218 197 -397 195 -399 -9 -8 -711 -356 -713 -353 -1 2 -7 12 -13
23 -10 20 10 31 329 190 186 94 339 173 339 177 0 5 -83 175 -185 378 -102
203 -185 372 -185 375 0 3 8 5 18 5 13 0 67 -100 215 -396z m-986 141 c69
-140 70 -140 50 -159 -17 -16 -19 -17 -14 -3 7 18 -1 21 -63 17 -68 -4 -86
-49 -20 -48 49 0 50 -1 39 -30 -7 -19 -12 -21 -28 -12 -11 5 -42 10 -70 10
-45 0 -51 3 -51 20 0 12 8 37 19 58 25 50 40 126 39 192 -2 46 16 110 27 98 1
-1 34 -66 72 -143z m-891 61 c26 -58 33 -65 64 -71 70 -14 70 -14 70 -135 0
-61 4 -110 9 -110 5 0 7 10 3 22 -3 11 -1 19 4 15 5 -3 8 21 6 56 l-4 62 24
-22 c31 -29 37 -29 66 5 l23 27 -6 -25 c-4 -14 -9 -42 -12 -62 -6 -45 -31 -51
-56 -15 -9 12 -16 16 -16 10 -1 -20 38 -55 57 -51 11 2 19 17 23 43 l6 40 2
-46 1 -47 93 34 c50 18 100 39 111 45 14 8 23 6 42 -12 l25 -23 -23 -18 c-13
-9 -74 -29 -135 -44 l-113 -26 -1 -66 0 -67 -27 53 c-34 69 -64 68 -75 -3 -4
-27 -4 -27 -6 8 0 20 -5 37 -11 37 -13 0 -13 -111 0 -146 10 -24 7 -31 -22
-61 l-33 -34 22 -18 c29 -24 20 -31 -38 -31 -70 0 -128 26 -180 81 -26 28 -55
49 -67 49 -28 0 -36 16 -33 69 1 31 8 49 22 59 19 13 25 46 13 76 -7 19 -44
22 -45 4 0 -7 -4 -5 -8 6 -4 12 -43 33 -106 58 -86 34 -102 38 -126 28 -35
-15 -49 -6 -49 30 0 23 5 31 25 36 14 3 32 1 40 -6 23 -19 218 -61 226 -48 4
5 16 7 28 3 21 -6 21 -4 21 114 l0 121 58 29 c31 17 62 30 68 31 6 0 24 -29
40 -64z m917 -238 c6 -21 7 -21 25 -4 19 16 21 16 40 -11 11 -15 68 -125 127
-243 l107 -214 -43 -38 c-48 -41 -59 -45 -59 -23 0 9 -9 15 -23 15 -41 0 -293
-162 -335 -215 -11 -14 -29 -25 -41 -25 -12 0 -21 -4 -21 -10 0 -5 -14 -10
-32 -10 -19 0 -41 -9 -56 -22 l-24 -23 6 110 c3 61 12 175 18 254 l12 143 38
25 c45 30 52 27 104 -54 42 -66 73 -83 109 -59 22 14 25 23 25 75 0 32 3 61 6
64 4 3 15 -5 26 -18 22 -28 48 -33 48 -10 0 30 -29 85 -45 85 -9 0 -19 -9 -23
-21 -15 -39 -34 5 -36 78 -1 53 3 72 17 85 27 28 22 55 -13 63 -16 4 -34 4
-40 0 -5 -3 -10 -2 -10 4 0 13 18 19 56 20 25 1 33 -4 37 -21z m-67 -80 c4 -7
7 -42 7 -78 -1 -39 4 -71 12 -80 15 -18 18 -116 4 -142 -19 -34 -60 -19 -95
35 -18 27 -41 59 -53 71 -19 20 -20 24 -6 36 11 9 15 33 15 91 l0 79 54 0 c32
0 58 -5 62 -12z m-608 -165 c24 -50 42 -103 42 -122 0 -32 -1 -33 -30 -27 -20
4 -30 2 -30 -7 0 -6 -5 -19 -10 -27 -8 -13 -16 -12 -55 10 -25 13 -45 28 -45
32 0 3 11 16 25 26 20 16 25 29 24 59 0 21 2 52 6 68 3 17 8 40 11 53 2 12 8
22 12 22 5 0 27 -39 50 -87z m1292 -100 c0 -4 -18 -24 -40 -44 -47 -43 -50
-56 -13 -65 24 -6 16 -12 -78 -60 -57 -29 -107 -53 -111 -53 -4 -1 -18 20 -31
46 l-24 47 30 25 c16 14 78 44 136 68 106 43 131 50 131 36z m-285 -193 c10
-22 16 -42 14 -44 -2 -2 -141 -72 -308 -156 l-303 -151 -24 22 c-13 12 -24 26
-24 31 0 18 43 50 61 45 11 -3 26 1 34 10 8 8 20 11 26 7 6 -3 24 10 40 30 33
39 180 141 270 186 54 28 57 28 62 10 7 -28 19 -25 74 19 26 21 51 37 54 35 3
-2 14 -21 24 -44z m43 -85 c7 -14 12 -30 12 -35 0 -6 -133 -76 -295 -157
l-295 -148 -27 27 c-15 15 -25 29 -22 32 6 6 603 305 610 305 3 1 11 -10 17
-24z m-988 -97 c-1 -37 -5 -46 -33 -63 -38 -24 -77 -96 -77 -144 0 -45 -9 -35
-18 20 -6 37 -11 43 -32 44 -14 0 -27 3 -30 6 -4 5 176 176 188 179 1 0 2 -19
2 -42z m1029 15 c11 -22 3 -27 -281 -169 -271 -136 -293 -145 -305 -128 -7 10
-13 20 -13 23 0 5 583 301 586 297 1 0 7 -11 13 -23z m-1269 -150 c37 -59 37
-71 3 -84 -16 -6 -49 -28 -75 -49 l-46 -40 5 40 c7 48 -17 90 -50 90 -19 0
-17 4 17 33 86 71 106 73 146 10z m633 -115 c43 -48 77 -93 77 -100 0 -13 -81
-93 -174 -170 -43 -36 -65 -48 -85 -46 -21 2 -27 -2 -29 -19 -5 -32 -17 -29
-45 12 -17 24 -22 44 -19 66 l5 31 29 -31 c26 -28 36 -32 71 -29 42 3 42 3 45
46 2 32 9 46 28 58 13 9 24 21 24 28 0 6 10 16 23 21 14 7 22 19 22 35 0 23
-4 25 -40 25 -29 0 -40 4 -40 15 0 8 8 14 18 14 9 -1 17 2 17 7 0 5 -9 9 -20
9 -18 0 -20 7 -20 77 0 90 -13 95 113 -49z m-481 -327 c21 -1 27 -6 30 -28 2
-17 -4 -35 -15 -46 -16 -16 -33 -18 -143 -15 l-124 3 0 50 0 50 112 -7 c62 -3
125 -7 140 -7z"/>
<path d="M3588 3619 c-2 -30 2 -55 9 -60 6 -6 51 -9 100 -7 l88 3 0 55 0 55
-97 3 -96 3 -4 -52z m140 34 l53 -6 -3 -41 c-4 -48 -14 -52 -115 -41 l-63 7 0
37 c0 21 3 41 7 44 8 9 52 9 121 0z"/>
<path d="M3420 3533 c-8 -3 -25 -15 -37 -26 -77 -70 -25 -197 81 -197 73 0
129 89 100 158 -22 52 -92 84 -144 65z"/>
<path d="M3670 2571 c-8 -17 -14 -18 -39 -8 -23 8 -33 8 -47 -4 -42 -34 -59
-144 -27 -170 12 -10 49 -14 135 -14 l120 0 -7 70 c-9 96 -10 99 -54 123 -48
27 -67 28 -81 3z m53 -2 c56 -29 67 -49 67 -122 0 -55 -3 -67 -13 -59 -7 6
-50 9 -110 6 -96 -4 -98 -4 -109 21 -14 31 3 96 33 126 15 15 24 17 39 9 29
-15 48 -12 55 10 7 23 9 24 38 9z"/>
<path d="M1330 3351 c0 -4 -31 -10 -68 -13 -108 -8 -112 -12 -112 -116 1 -58
5 -93 14 -105 13 -17 17 -14 48 38 l33 56 50 -4 c31 -3 60 1 77 9 29 15 37 7
39 -39 1 -20 2 -20 8 3 4 14 4 41 -1 60 -4 19 -8 48 -8 63 0 16 -6 35 -14 43
-16 15 -66 19 -66 5z"/>
<path d="M1825 3271 c-61 -27 -107 -151 -75 -201 8 -13 13 -13 41 3 17 9 37
17 45 17 9 0 13 4 10 9 -4 5 2 23 11 40 17 30 33 40 33 22 0 -4 11 -20 25 -35
13 -14 21 -26 17 -27 -4 0 13 -8 38 -18 30 -12 49 -14 58 -8 27 21 6 121 -37
169 -24 28 -36 32 -87 35 -32 1 -68 -1 -79 -6z"/>
<path d="M1210 3013 c0 -6 20 -32 45 -58 41 -41 50 -46 83 -43 35 3 38 1 64
-47 l27 -51 -32 -54 -32 -55 -5 88 c-3 49 -9 87 -15 87 -5 -1 -20 -3 -32 -6
-12 -3 -37 1 -54 10 -18 9 -33 15 -35 14 -1 -2 11 -34 27 -72 16 -37 29 -82
29 -99 l0 -32 -19 31 c-10 17 -42 47 -70 67 -42 31 -51 42 -51 67 0 24 7 35
35 51 19 12 35 27 35 35 0 30 -125 9 -161 -27 -22 -22 -27 -71 -5 -63 14 5 48
-63 61 -123 8 -40 -7 -95 -32 -120 -11 -11 -30 -53 -43 -94 l-23 -74 59 -112
c35 -68 71 -122 88 -135 29 -21 30 -21 115 -5 49 10 87 13 89 8 2 -5 25 0 53
11 l49 21 0 92 c0 111 3 109 -136 93 -52 -5 -101 -7 -109 -4 -10 3 -15 20 -15
47 0 26 -7 50 -17 61 -13 14 -14 23 -6 41 6 13 9 46 7 73 -3 36 -2 44 5 29 5
-11 10 -32 10 -47 1 -18 6 -28 16 -28 8 0 20 -9 27 -19 6 -10 18 -17 25 -14 8
3 24 1 36 -5 12 -6 53 -16 91 -23 57 -10 70 -9 77 2 21 33 4 325 -22 382 -14
32 -71 52 -100 36 -22 -11 -69 9 -111 49 -16 14 -28 21 -28 15z"/>
<path d="M1123 2064 c9 -60 17 -233 22 -512 3 -139 7 -257 10 -261 2 -5 24 -8
47 -7 l43 1 2 165 c2 167 0 184 -12 97 -3 -26 -10 -45 -15 -42 -19 12 -41 114
-50 235 -16 213 -33 351 -43 357 -6 4 -8 -8 -4 -33z"/>
<path d="M1297 1920 c3 -63 5 -229 4 -369 -1 -276 -2 -271 55 -271 39 0 40 3
43 140 2 93 1 103 -12 86 -14 -19 -15 -19 -25 0 -24 44 -40 148 -47 289 -4 83
-11 170 -15 195 -5 29 -6 3 -3 -70z"/>
<path d="M755 1033 c-49 -15 -68 -29 -59 -45 3 -4 13 -8 23 -8 17 0 16 -9 -10
-142 -16 -79 -31 -153 -34 -164 -3 -12 -14 -24 -25 -27 -23 -6 -28 -47 -5 -47
44 0 116 24 126 41 7 15 6 21 -6 25 -8 3 -22 4 -30 1 -16 -7 -17 -12 22 178
31 156 30 153 56 157 14 2 22 10 22 23 0 25 -18 27 -80 8z"/>
<path d="M920 903 c0 -16 -11 -64 -25 -108 -31 -99 -31 -107 -3 -103 16 2 25
14 34 44 21 74 63 134 92 134 19 0 10 -59 -18 -126 -18 -41 -19 -49 -6 -62 22
-22 33 -8 61 80 37 117 22 163 -49 157 -19 -2 -38 0 -42 4 -4 4 -16 7 -26 7
-13 0 -18 -8 -18 -27z"/>
<path d="M1825 918 c-23 -64 -65 -203 -65 -214 0 -8 8 -14 18 -14 11 0 28 23
50 70 35 76 68 105 117 105 24 0 31 5 33 24 4 23 2 23 -52 19 -40 -3 -57 -1
-60 9 -7 17 -35 17 -41 1z"/>
<path d="M2097 923 c-12 -21 -119 -377 -120 -401 -2 -20 3 -27 17 -27 15 0 24
19 49 100 16 55 32 102 34 104 2 3 9 -1 15 -7 31 -31 104 -2 139 55 12 21 23
39 24 41 2 2 19 -5 39 -14 29 -14 39 -15 49 -5 9 10 6 17 -16 37 -15 13 -37
24 -48 24 -12 0 -19 7 -19 20 0 33 -35 60 -79 60 -22 0 -43 5 -46 10 -7 12
-32 13 -38 3z"/>
<path d="M2755 918 c-23 -64 -65 -203 -65 -214 0 -8 8 -14 18 -14 11 0 28 23
50 70 35 76 68 105 117 105 24 0 31 5 33 24 4 23 2 23 -52 19 -40 -3 -57 -1
-60 9 -7 17 -35 17 -41 1z"/>
<path d="M4180 908 c0 -13 -11 -59 -25 -103 -30 -97 -31 -115 -6 -115 15 0 24
15 41 64 20 62 58 116 80 116 22 0 21 -30 -5 -105 -22 -63 -25 -79 -14 -86 8
-5 17 -9 20 -9 14 0 52 108 56 162 7 75 -5 92 -64 85 -24 -2 -43 -1 -43 4 0 5
-9 9 -20 9 -14 0 -20 -7 -20 -22z"/>
<path d="M1225 877 c-54 -54 -68 -105 -38 -145 27 -36 99 -42 146 -13 49 30
90 78 84 95 -9 23 -20 20 -68 -20 -51 -42 -84 -57 -110 -49 -23 8 -24 36 -5
74 16 29 66 69 66 51 0 -5 9 -10 20 -10 23 0 27 29 8 48 -24 24 -60 13 -103
-31z"/>
<path d="M1528 904 c-56 -30 -87 -142 -53 -191 31 -44 101 -37 149 16 13 14
32 21 55 21 41 1 71 19 71 44 0 15 -7 16 -45 10 -38 -5 -44 -4 -39 9 9 23 -24
83 -52 96 -33 14 -53 13 -86 -5z"/>
<path d="M2442 895 c-39 -33 -54 -72 -50 -130 2 -39 8 -52 30 -68 24 -18 32
-19 66 -9 21 6 49 23 62 37 14 15 35 25 51 25 42 0 79 20 79 43 0 17 -5 19
-45 13 l-45 -7 0 31 c0 22 -9 41 -29 61 -37 37 -79 38 -119 4z"/>
<path d="M3165 910 c-3 -6 -17 -7 -30 -4 -34 9 -113 -32 -136 -70 -53 -88 26
-177 104 -116 l26 20 6 -20 c7 -23 44 -35 80 -26 23 6 85 77 85 98 0 5 -7 11
-16 15 -11 4 -27 -6 -49 -32 -58 -70 -87 -18 -45 80 11 26 18 51 14 56 -7 12
-31 11 -39 -1z"/>
<path d="M3385 877 c-54 -54 -68 -105 -38 -145 27 -36 99 -42 146 -13 49 30
90 78 84 95 -9 23 -20 20 -68 -20 -51 -42 -84 -57 -110 -49 -23 8 -24 36 -5
74 16 29 66 69 66 51 0 -5 9 -10 20 -10 23 0 27 29 8 48 -24 24 -60 13 -103
-31z"/>
<path d="M3875 888 c-42 -40 -65 -113 -47 -152 28 -63 97 -70 151 -15 21 21
39 29 64 29 19 0 45 8 58 19 20 16 21 21 10 35 -10 11 -18 13 -31 6 -35 -19
-50 -12 -50 21 0 20 -10 40 -29 60 -40 40 -81 39 -126 -3z"/>
<path d="M3641 858 c-34 -81 -37 -129 -12 -152 15 -13 28 -16 48 -11 34 8 113
90 113 116 0 32 -31 21 -78 -28 -42 -44 -46 -46 -50 -26 -2 12 6 43 17 69 26
59 27 84 2 84 -13 0 -25 -16 -40 -52z"/>
</g>
</svg>
