<?xml version="1.0" standalone="no"?>
<!DOCTYPE svg PUBLIC "-//W3C//DTD SVG 20010904//EN"
 "http://www.w3.org/TR/2001/REC-SVG-20010904/DTD/svg10.dtd">
<svg version="1.0" xmlns="http://www.w3.org/2000/svg"
 width="500.000000pt" height="500.000000pt" viewBox="0 0 500.000000 500.000000"
 preserveAspectRatio="xMidYMid meet">

<g transform="translate(0.000000,500.000000) scale(0.100000,-0.100000)"
fill="#ffffff" stroke="none">
<path d="M2223 4265 c-53 -23 -118 -91 -152 -159 l-31 -63 -97 -7 c-53 -4
-109 -14 -124 -21 -35 -18 -79 -71 -79 -95 0 -23 -20 -27 -170 -36 -135 -8
-178 -22 -225 -76 -60 -71 -75 -116 -75 -224 0 -53 29 -569 65 -1147 50 -816
68 -1062 81 -1095 17 -46 58 -82 113 -101 51 -17 295 -13 1056 14 537 19 689
27 723 39 89 32 162 103 190 185 13 37 16 201 6 298 l-7 61 -51 -14 c-79 -21
-76 -23 -76 65 l0 80 -34 3 -34 3 29 74 c16 41 26 77 23 80 -2 3 -33 7 -67 9
-51 3 -70 -1 -106 -20 -102 -54 -123 -209 -40 -285 13 -12 48 -28 77 -35 l53
-13 -553 -133 c-304 -73 -560 -132 -570 -132 -22 0 -100 88 -165 188 -246 374
-395 1038 -420 1858 l-6 221 69 6 c116 11 120 10 143 -27 12 -19 38 -42 58
-51 49 -24 161 -17 615 34 376 42 389 45 423 110 12 25 21 29 76 35 34 3 86 6
115 6 53 0 54 0 54 -30 0 -69 119 -671 181 -915 29 -115 113 -395 148 -495
l29 -85 1 52 c1 28 -10 278 -24 555 -13 276 -27 557 -30 623 -7 137 -11 168
-32 210 -30 59 -89 127 -131 152 -41 24 -47 25 -160 19 -64 -4 -138 -9 -163
-12 -44 -5 -46 -4 -59 26 -7 17 -29 43 -48 58 -35 26 -40 27 -170 27 l-135 0
-13 38 c-19 55 -64 113 -105 136 -43 25 -127 28 -176 6z m185 -24 c34 -24 76
-89 87 -133 6 -23 3 -27 -22 -31 -40 -8 -403 -31 -408 -26 -2 2 7 27 21 54 29
59 108 137 155 153 52 17 131 9 167 -17z m395 -188 c62 -32 86 -127 47 -190
-39 -65 -32 -64 -518 -98 -255 -18 -461 -29 -480 -24 -120 27 -138 201 -27
262 23 13 876 77 920 70 17 -3 43 -12 58 -20z m-1237 -1523 c31 -558 57 -1016
58 -1017 1 -1 85 5 186 13 l185 15 27 -33 c32 -39 34 -48 11 -48 -10 -1 -124
-11 -253 -24 -129 -13 -237 -22 -239 -20 -6 5 -40 1846 -39 2044 1 80 3 132 4
115 2 -16 29 -487 60 -1045z m1731 -442 c-2 -7 -23 -66 -47 -130 -42 -117 -42
-117 -65 -102 -33 21 -58 90 -50 133 9 50 22 69 58 91 36 23 112 28 104 8z
m31 -200 l-3 -53 -39 -3 c-31 -3 -37 0 -33 11 3 8 11 33 18 56 10 33 17 41 36
41 23 0 24 -3 21 -52z m-28 -278 c0 -24 -4 -30 -23 -30 -12 0 -204 -18 -427
-40 -223 -22 -414 -40 -425 -39 -11 0 39 21 110 45 l130 45 295 23 c162 13
305 24 318 25 18 1 22 -4 22 -29z"/>
<path d="M2257 4192 c-37 -41 -11 -105 42 -105 41 0 64 23 64 64 0 54 -70 81
-106 41z m74 -2 c22 -12 26 -59 7 -78 -19 -19 -66 -15 -78 7 -14 27 -13 47 6
65 18 19 38 20 65 6z"/>
<path d="M2254 3545 c-12 -8 -81 -80 -154 -160 -72 -80 -135 -145 -140 -145
-4 0 -36 23 -70 50 -65 52 -103 62 -118 33 -14 -28 -2 -48 63 -104 83 -70 115
-85 146 -68 13 8 95 87 182 176 163 168 182 199 138 223 -25 13 -23 13 -47 -5z"/>
<path d="M2592 3375 c-188 -28 -346 -56 -350 -60 -4 -4 7 -5 23 -2 17 3 177
27 357 53 181 27 328 52 328 57 0 4 -3 7 -7 6 -5 -1 -162 -25 -351 -54z"/>
<path d="M2578 3275 c-274 -41 -335 -52 -296 -54 26 -1 631 88 636 94 10 10
-59 2 -340 -40z"/>
<path d="M2575 3174 c-77 -13 -171 -29 -210 -35 -38 -7 -65 -14 -59 -16 13 -4
455 65 463 72 9 9 -56 2 -194 -21z"/>
<path d="M2713 2945 c-189 -28 -346 -55 -350 -60 -5 -4 6 -5 22 -2 17 3 174
27 350 53 176 26 322 48 324 50 14 12 -36 6 -346 -41z"/>
<path d="M1983 2914 c-16 -7 -133 -304 -133 -338 0 -19 6 -27 25 -32 25 -6
337 30 356 41 20 13 4 45 -89 185 -79 118 -102 145 -122 147 -14 1 -30 0 -37
-3z"/>
<path d="M2700 2845 c-157 -23 -294 -45 -305 -48 l-20 -5 20 -1 c28 -1 626 87
633 93 10 10 -39 5 -328 -39z"/>
<path d="M2631 2734 c-176 -29 -245 -44 -203 -44 24 0 446 71 451 75 9 10 -47
3 -248 -31z"/>
<path d="M2828 2466 c-185 -29 -341 -56 -345 -60 -4 -5 6 -6 22 -3 17 4 174
27 350 53 176 26 324 51 330 56 12 11 26 13 -357 -46z"/>
<path d="M2070 2377 c-51 -27 -90 -90 -90 -147 0 -87 83 -170 170 -170 87 0
170 83 170 170 0 87 -83 170 -170 170 -20 0 -56 -10 -80 -23z"/>
<path d="M2728 2352 c-120 -20 -218 -39 -218 -44 0 -4 6 -6 13 -3 6 2 107 18
222 36 116 18 214 36 220 40 12 12 12 12 -237 -29z"/>
<path d="M2540 1966 l0 -176 28 0 c26 0 30 6 52 66 12 36 30 68 39 71 55 17
74 29 86 54 27 51 14 112 -28 139 -12 7 -57 16 -99 18 l-78 5 0 -177z m114
112 c-18 -59 -42 -112 -53 -116 -7 -2 -11 19 -11 67 l0 71 36 0 c32 0 35 -2
28 -22z m66 -42 c0 -20 -8 -40 -19 -50 -33 -30 -40 -14 -19 42 21 57 38 60 38
8z"/>
<path d="M2800 2102 c0 -32 5 -41 33 -57 l32 -20 -32 -3 -33 -3 0 -115 0 -114
125 0 c118 0 125 1 125 20 0 18 -7 20 -80 20 l-79 0 26 75 27 75 53 0 c46 0
53 3 53 20 0 18 -7 20 -59 20 -52 0 -63 4 -107 38 l-49 37 108 3 c99 2 107 4
107 22 0 19 -7 20 -125 20 l-125 0 0 -38z m100 -125 c0 -6 -52 -132 -56 -136
-2 -2 -4 28 -4 67 l0 72 30 0 c17 0 30 -1 30 -3z"/>
<path d="M929 1245 c-26 -7 -52 -15 -58 -19 -15 -10 -4 -26 18 -26 17 0 16 -9
-9 -132 -15 -73 -31 -150 -34 -170 -5 -29 -12 -38 -26 -38 -12 0 -20 -7 -20
-16 0 -14 7 -16 45 -10 50 6 85 21 85 36 0 6 -11 10 -25 10 -14 0 -25 6 -25
13 0 8 14 81 30 162 17 81 30 150 30 152 0 2 14 9 30 15 17 5 29 15 27 21 -5
16 -17 16 -68 2z"/>
<path d="M2207 1194 c-13 -13 -7 -24 14 -24 11 0 19 5 17 12 -5 14 -22 21 -31
12z"/>
<path d="M3020 1186 c0 -9 7 -16 16 -16 17 0 14 22 -4 28 -7 2 -12 -3 -12 -12z"/>
<path d="M1096 1138 c-2 -7 -18 -58 -35 -113 -19 -64 -27 -103 -21 -109 14
-14 25 1 40 49 17 56 48 109 71 123 43 27 51 -15 19 -105 -23 -67 -25 -83 -7
-83 16 0 59 116 60 164 0 19 -5 41 -12 50 -16 19 -62 21 -79 4 -9 -9 -12 -8
-12 4 0 21 -19 34 -24 16z"/>
<path d="M3517 1144 c-4 -4 -7 -19 -7 -33 0 -14 -11 -61 -25 -104 -29 -90 -30
-97 -11 -97 9 0 23 26 36 65 22 66 70 130 92 123 22 -8 20 -44 -5 -117 -16
-44 -21 -73 -15 -77 5 -4 14 -2 19 3 17 17 49 122 49 162 0 49 -19 65 -67 58
-26 -5 -39 -2 -47 9 -7 8 -15 12 -19 8z"/>
<path d="M1915 1128 c-23 -61 -65 -194 -65 -205 0 -31 22 -8 54 56 41 80 75
111 122 111 25 0 34 5 34 16 0 13 -8 15 -42 12 -24 -3 -51 -8 -61 -13 -15 -6
-18 -4 -15 10 4 21 -20 33 -27 13z"/>
<path d="M2379 1113 c-24 -64 -119 -386 -115 -391 13 -12 33 10 45 49 79 273
102 319 155 319 33 0 56 -38 29 -46 -38 -11 -89 -43 -107 -68 -16 -21 -18 -30
-8 -51 6 -14 20 -25 29 -25 29 0 81 37 105 75 25 38 42 43 76 19 20 -14 23
-14 28 1 7 18 -21 44 -48 45 -10 0 -24 14 -32 34 -15 37 -58 58 -91 45 -29
-11 -35 -11 -32 2 5 25 -24 19 -34 -8z m111 -112 c0 -11 -58 -61 -71 -61 -18
0 -9 19 22 44 32 27 49 33 49 17z"/>
<path d="M3845 1130 c-44 -18 -85 -83 -85 -136 0 -38 42 -74 85 -74 30 0 46 9
87 49 39 36 50 53 44 66 -6 16 -13 13 -52 -28 -55 -58 -90 -69 -116 -37 -25
30 -23 37 13 44 34 6 89 56 89 80 0 15 -26 46 -38 45 -4 0 -16 -4 -27 -9z m22
-53 c-14 -21 -57 -43 -57 -28 0 4 11 20 25 35 29 31 54 26 32 -7z"/>
<path d="M1661 1104 c-113 -95 -55 -232 72 -168 40 20 97 74 97 91 0 20 -16
15 -52 -16 -45 -38 -71 -51 -107 -51 -21 0 -32 6 -36 20 -14 44 61 138 88 111
18 -18 29 -13 25 12 -5 33 -48 34 -87 1z"/>
<path d="M2740 1108 c-22 -15 -42 -41 -54 -71 -18 -44 -19 -51 -5 -75 33 -59
110 -52 189 17 35 31 42 42 33 51 -9 10 -21 5 -55 -24 -45 -39 -72 -50 -109
-44 -33 4 -37 48 -9 88 29 41 57 55 76 39 19 -16 31 -3 18 19 -16 26 -46 25
-84 0z"/>
<path d="M3218 1110 c-33 -25 -58 -79 -58 -122 0 -40 34 -78 69 -78 29 0 77
25 90 47 6 11 23 17 50 18 43 1 79 25 67 44 -5 8 -13 8 -26 1 -10 -5 -28 -10
-39 -10 -17 0 -21 6 -21 33 -1 72 -77 111 -132 67z m61 -104 l22 -24 -27 -21
c-35 -27 -50 -27 -70 4 -20 30 -12 70 19 103 l22 24 6 -32 c4 -17 17 -42 28
-54z m36 53 c4 -11 4 -23 1 -26 -8 -9 -36 17 -36 33 0 22 28 16 35 -7z"/>
<path d="M2169 1074 c-41 -91 -35 -154 13 -154 43 0 141 101 120 122 -8 8 -26
-4 -62 -42 -40 -43 -52 -52 -62 -42 -10 10 -8 25 10 75 29 79 29 79 14 84 -7
3 -21 -14 -33 -43z"/>
<path d="M2985 1086 c-29 -68 -40 -126 -29 -144 27 -42 92 -15 145 60 39 54 7
52 -50 -3 -69 -70 -84 -57 -48 40 14 38 23 72 19 75 -12 13 -24 4 -37 -28z"/>
<path d="M1359 1089 c-18 -18 -21 -30 -17 -82 4 -57 3 -63 -23 -84 -53 -45
-63 -134 -17 -146 47 -13 88 46 88 125 0 32 15 42 93 58 40 8 57 16 57 27 0
13 -8 14 -47 8 -27 -4 -62 -13 -80 -20 l-32 -14 -7 45 c-4 29 -2 49 6 59 17
21 37 19 45 -5 3 -11 13 -20 21 -20 17 0 19 41 2 58 -19 19 -66 14 -89 -9z
m-20 -265 c-6 -8 -15 -14 -20 -14 -16 0 -10 55 9 80 l17 25 3 -38 c2 -21 -2
-45 -9 -53z"/>
<path d="M4050 1083 c-19 -24 -21 -36 -15 -81 6 -51 5 -55 -29 -92 -62 -69
-43 -157 27 -131 28 11 47 56 47 113 0 43 10 50 102 69 26 6 50 15 54 20 11
19 -29 21 -87 5 -32 -9 -63 -16 -69 -16 -5 0 -10 22 -10 49 0 58 23 76 51 40
17 -22 39 -19 39 6 0 23 -30 45 -60 45 -19 0 -36 -9 -50 -27z m-10 -247 c-5
-15 -16 -26 -23 -24 -21 8 -19 43 5 73 l23 30 3 -26 c2 -14 -2 -38 -8 -53z"/>
<path d="M2838 519 c-100 -105 -139 -278 -78 -339 27 -27 60 -25 104 5 20 13
36 23 36 22 0 -1 -9 -36 -20 -77 -24 -90 -24 -90 -5 -90 16 0 21 16 60 190 19
81 33 119 46 129 22 16 25 31 5 31 -12 0 -142 -56 -155 -67 -3 -2 0 -8 5 -13
7 -7 23 -5 47 5 42 17 43 16 21 -28 -26 -52 -65 -87 -96 -87 -34 0 -48 24 -48
83 0 79 101 247 149 247 26 0 44 -16 46 -41 3 -36 25 -36 25 0 0 40 -31 71
-72 71 -23 0 -40 -10 -70 -41z"/>
<path d="M2495 521 c-8 -16 -24 -32 -35 -36 -23 -7 -26 -23 -6 -31 10 -4 7
-23 -15 -90 -37 -110 -38 -167 -4 -190 22 -14 32 -15 63 -5 53 16 137 80 124
93 -8 8 -25 1 -59 -21 -88 -59 -126 -55 -121 11 3 42 5 44 65 73 70 34 77 40
69 54 -4 6 -26 1 -58 -14 -29 -13 -54 -23 -56 -21 -1 2 9 33 23 69 26 64 27
65 86 87 33 13 59 29 59 36 0 18 -9 18 -53 -1 -20 -8 -39 -15 -42 -15 -3 0 -5
7 -5 15 0 25 -18 17 -35 -14z"/>
<path d="M2075 525 c-44 -140 -102 -382 -95 -389 5 -5 12 -7 15 -4 3 3 26 81
51 174 50 188 62 207 123 202 44 -4 65 -39 56 -92 -6 -30 -12 -35 -43 -41 -75
-14 -124 -59 -109 -99 14 -37 108 -5 143 49 14 21 24 25 66 25 58 0 64 23 7
28 -35 3 -35 3 -35 52 1 35 -5 57 -20 77 -20 26 -27 28 -89 28 -38 1 -69 -4
-70 -10z m90 -210 c-32 -27 -59 -33 -53 -12 5 14 47 37 68 36 9 0 4 -9 -15
-24z"/>
</g>
</svg>
