<?xml version="1.0" standalone="no"?>
<!DOCTYPE svg PUBLIC "-//W3C//DTD SVG 20010904//EN"
 "http://www.w3.org/TR/2001/REC-SVG-20010904/DTD/svg10.dtd">
<svg version="1.0" xmlns="http://www.w3.org/2000/svg"
 width="1000.000000pt" height="1000.000000pt" viewBox="0 0 1000.000000 1000.000000"
 preserveAspectRatio="xMidYMid meet">
<metadata>
Created by potrace 1.16, written by Peter Selinger 2001-2019
</metadata>
<g transform="translate(0.000000,1000.000000) scale(0.100000,-0.100000)"
fill="#ffffff" stroke="none">
<path d="M5050 9608 c0 -41 -18 -347 -24 -410 -5 -47 -4 -48 23 -48 28 0 29 2
34 68 4 37 9 123 13 192 l7 125 78 -159 c73 -149 97 -185 118 -172 4 3 51 73
102 155 52 82 95 148 96 147 1 -1 -2 -60 -7 -132 -5 -71 -10 -157 -10 -191 0
-60 1 -63 24 -63 23 0 25 5 30 63 6 64 26 378 26 410 0 13 -8 17 -32 17 -32 0
-37 -7 -137 -165 l-103 -165 -83 172 c-80 167 -94 186 -137 187 -14 1 -18 -7
-18 -31z"/>
<path d="M4477 9600 c-76 -10 -140 -20 -143 -22 -3 -3 8 -112 23 -242 26 -224
28 -236 48 -236 11 0 75 7 140 15 66 8 123 15 128 15 4 0 7 12 7 26 0 26 -1
27 -52 21 -29 -4 -83 -9 -119 -13 l-66 -6 -9 81 c-7 59 -7 82 2 85 6 2 48 8
93 11 77 7 81 9 81 31 0 21 -4 24 -37 23 -21 0 -64 -4 -95 -8 -65 -8 -61 -14
-74 100 l-6 56 116 13 c110 13 116 14 116 36 0 13 -3 25 -7 27 -5 2 -70 -4
-146 -13z"/>
<path d="M5955 9295 c-31 -130 -55 -238 -53 -240 2 -3 68 -20 145 -38 141 -34
141 -34 147 -13 7 28 3 30 -79 50 -38 9 -86 21 -106 27 l-37 9 20 80 c11 44
25 80 30 80 5 0 46 -9 90 -21 44 -11 81 -19 83 -17 1 2 6 13 9 25 7 20 2 23
-73 39 -44 9 -86 21 -92 25 -10 6 -9 24 5 83 10 42 19 76 21 76 2 0 51 -11
110 -25 58 -14 111 -23 116 -20 5 4 9 14 9 24 0 15 -23 24 -127 50 -71 18
-135 34 -144 37 -14 4 -26 -34 -74 -231z"/>
<path d="M3767 9466 c-92 -33 -129 -112 -91 -192 22 -45 54 -61 144 -69 106
-11 130 -25 130 -78 0 -65 -54 -104 -129 -93 -84 13 -86 12 -89 -11 -4 -30 30
-46 98 -46 68 0 133 31 160 76 24 39 26 106 5 147 -21 41 -57 57 -148 65 -90
9 -127 30 -127 75 0 20 10 37 32 55 30 25 37 27 94 22 60 -6 62 -5 67 18 4 21
-1 26 -32 35 -47 13 -68 12 -114 -4z"/>
<path d="M6683 9269 c-38 -24 -65 -86 -56 -131 4 -22 28 -52 75 -97 56 -53 68
-70 68 -96 0 -36 -29 -72 -64 -81 -36 -9 -110 28 -132 65 -19 33 -44 40 -62
18 -19 -22 32 -85 91 -113 87 -40 168 -25 207 38 48 78 39 112 -51 201 -60 59
-70 73 -67 100 7 74 98 87 161 22 37 -38 49 -42 66 -21 10 11 5 22 -21 52 -57
65 -151 84 -215 43z"/>
<path d="M7282 9047 c-23 -31 -20 -36 43 -73 36 -21 65 -42 65 -46 0 -5 -47
-88 -105 -184 -58 -97 -105 -179 -105 -183 0 -9 49 -36 53 -30 2 2 52 86 111
187 l109 182 31 -19 c97 -59 100 -60 113 -49 7 6 13 16 13 23 0 20 -317 206
-328 192z"/>
<path d="M2609 8975 c-158 -82 -180 -272 -47 -404 93 -94 238 -90 337 10 51
50 65 87 65 159 -1 105 -66 207 -156 244 -57 24 -144 20 -199 -9z m159 -40
c50 -21 79 -51 109 -109 47 -92 29 -178 -49 -232 -74 -52 -161 -41 -223 28
-107 117 -82 266 52 313 50 18 66 18 111 0z"/>
<path d="M7804 8463 c-77 -92 -147 -177 -156 -189 -17 -20 -16 -22 6 -43 l24
-22 62 75 c35 42 69 76 76 76 7 0 21 -11 31 -24 17 -21 18 -34 11 -141 -8
-114 -8 -119 13 -142 13 -12 26 -23 29 -23 4 0 11 59 15 131 6 110 9 130 22
125 90 -35 180 15 190 106 6 55 -25 103 -118 181 l-67 56 -138 -166z m217 28
c57 -56 62 -84 24 -129 -45 -53 -100 -48 -172 15 l-32 28 56 68 c30 37 60 67
66 67 5 0 32 -22 58 -49z"/>
<path d="M4466 8535 c-157 -64 -270 -187 -347 -375 l-32 -77 -185 -12 c-207
-14 -255 -26 -327 -85 -43 -36 -105 -140 -105 -178 0 -10 -7 -18 -17 -18 -10
0 -142 -9 -295 -20 -185 -13 -288 -24 -312 -34 -104 -43 -217 -171 -276 -312
-28 -66 -34 -94 -38 -174 -4 -88 246 -4255 266 -4447 17 -157 93 -261 229
-314 119 -45 154 -45 1191 -11 532 18 1264 42 1627 53 606 19 666 22 733 42
223 64 388 232 438 443 14 61 15 98 5 324 -7 140 -14 274 -17 296 l-5 42 -112
-29 c-62 -16 -122 -29 -135 -29 l-23 0 7 160 7 160 -66 0 c-37 0 -67 2 -67 5
0 2 25 71 55 153 30 82 55 152 55 154 0 11 -129 33 -190 31 -162 -3 -284 -92
-330 -241 -24 -77 -25 -147 -5 -227 37 -142 127 -209 313 -232 62 -8 48 -12
-1078 -281 l-1140 -274 -42 37 c-143 122 -310 361 -453 647 -341 685 -556
1627 -640 2803 -22 313 -35 625 -35 858 0 188 2 207 17 207 28 0 295 20 331
24 29 4 34 1 54 -37 35 -69 65 -102 120 -133 104 -56 254 -48 1333 75 187 22
392 43 455 49 92 7 126 15 166 35 57 29 127 102 145 152 l12 32 161 12 c89 6
190 14 226 17 l66 6 18 -118 c47 -316 164 -928 257 -1344 110 -492 235 -950
369 -1353 79 -235 99 -288 100 -257 0 8 -27 566 -60 1239 -48 957 -58 1226
-49 1232 10 6 10 11 0 23 -8 10 -16 66 -21 148 -5 73 -13 147 -19 165 -51 167
-240 388 -363 425 -32 9 -102 8 -359 -8 l-319 -19 -16 40 c-35 88 -109 154
-203 182 -48 14 -76 14 -225 4 -94 -6 -194 -14 -222 -17 l-52 -6 -17 53 c-53
163 -167 307 -271 343 -76 26 -215 21 -288 -9z m278 -11 c77 -27 156 -108 210
-217 44 -88 66 -157 51 -157 -3 0 -203 -14 -442 -30 -239 -17 -437 -29 -440
-27 -8 8 36 108 76 177 102 171 254 268 422 269 45 1 95 -6 123 -15z m846
-402 c61 -30 120 -99 139 -162 6 -20 11 -66 11 -102 0 -110 -63 -204 -168
-250 -32 -15 -91 -23 -225 -34 -418 -32 -1497 -105 -1562 -106 -93 -1 -160 28
-220 94 -100 111 -98 278 4 385 79 82 76 81 609 119 262 19 655 47 872 63 217
16 415 27 440 24 25 -2 70 -17 100 -31z m-2469 -2877 c67 -1210 126 -2204 130
-2209 5 -6 155 2 375 18 202 15 370 24 374 19 66 -79 110 -144 98 -147 -23 -8
-1017 -100 -1021 -96 -2 3 -20 957 -41 2120 -20 1163 -39 2203 -43 2310 -3
107 -3 193 0 190 3 -3 60 -995 128 -2205z m3479 -1046 c0 -15 -172 -492 -181
-503 -12 -14 -74 30 -101 71 -14 21 -30 53 -36 72 -15 42 -15 133 -2 182 22
80 97 153 177 175 60 16 143 18 143 3z m56 -380 c-3 -34 -6 -84 -6 -110 l0
-49 -76 0 c-57 0 -75 3 -72 13 3 6 20 56 37 110 l33 97 45 0 46 0 -7 -61z
m-62 -590 c4 -28 5 -53 2 -56 -3 -3 -676 -71 -1776 -177 -43 -4 8 16 225 90
l280 95 615 49 c338 26 622 48 631 49 12 1 18 -12 23 -50z"/>
<path d="M4566 8419 c-111 -32 -124 -192 -19 -235 65 -28 128 -8 163 49 59 96
-35 218 -144 186z m102 -44 c39 -32 48 -72 28 -119 -29 -71 -121 -84 -171 -24
-82 97 46 225 143 143z"/>
<path d="M1944 8485 c-27 -14 -82 -55 -122 -93 l-73 -67 161 -183 161 -183 77
69 c42 39 85 78 94 89 49 54 62 166 29 239 -59 130 -208 189 -327 129z m164
-49 c35 -18 85 -72 106 -113 22 -44 21 -118 -3 -157 -11 -17 -44 -52 -73 -77
l-54 -47 -115 131 c-63 72 -118 137 -123 145 -10 17 29 60 93 103 50 33 122
39 169 15z"/>
<path d="M8316 7961 c-98 -87 -178 -162 -177 -167 1 -5 36 -49 79 -98 42 -48
85 -98 94 -109 16 -21 17 -21 37 -3 20 18 20 19 -55 104 -41 47 -73 90 -71 96
2 5 29 32 59 59 l56 49 35 -39 c18 -21 47 -53 63 -71 28 -33 30 -33 46 -15 16
18 14 22 -43 88 l-61 70 59 52 c32 29 61 53 64 53 3 0 38 -38 78 -85 41 -47
77 -85 81 -85 15 0 32 29 24 42 -7 12 -187 219 -188 217 -1 0 -81 -71 -180
-158z"/>
<path d="M1409 7969 c-6 -12 -7 -24 -2 -29 4 -4 67 -53 138 -110 72 -57 134
-106 138 -110 4 -4 -98 -5 -228 -2 -233 5 -265 1 -265 -29 0 -13 373 -308 382
-303 4 3 12 13 18 23 8 16 -9 33 -122 122 -72 57 -138 110 -147 117 -13 11 26
12 221 10 214 -3 239 -1 255 14 9 10 15 19 12 21 -54 47 -375 297 -380 297 -5
0 -13 -9 -20 -21z"/>
<path d="M920 7280 c-6 -11 -8 -24 -5 -29 3 -5 58 -37 123 -72 145 -76 180
-102 198 -146 30 -71 -25 -159 -104 -170 -36 -5 -57 3 -196 76 l-155 82 -15
-28 -14 -28 146 -80 c123 -66 156 -79 204 -83 45 -3 64 0 97 19 56 31 94 91
99 156 9 111 -20 146 -209 248 -76 41 -143 75 -149 75 -5 0 -14 -9 -20 -20z"/>
<path d="M4479 7068 c-76 -78 -484 -520 -497 -539 -7 -11 -27 -26 -43 -35 -30
-15 -32 -14 -82 24 -29 21 -77 60 -107 86 -61 53 -119 86 -149 86 -24 0 -71
-55 -71 -83 0 -12 8 -34 18 -49 21 -34 274 -246 309 -259 35 -13 80 -11 111 5
25 13 520 515 625 634 38 43 47 60 47 91 0 49 -32 81 -83 81 -30 0 -45 -8 -78
-42z"/>
<path d="M9091 7102 c-8 -6 -11 -17 -6 -31 5 -17 14 -21 46 -21 85 0 132 -100
74 -154 -50 -47 -109 -41 -315 29 -57 19 -112 33 -122 29 -15 -4 -8 -24 55
-150 39 -79 77 -144 83 -144 6 0 17 7 24 14 9 12 2 34 -39 113 -27 53 -49 98
-48 99 1 1 56 -15 122 -36 187 -61 263 -50 309 43 29 61 2 140 -65 189 -29 22
-97 33 -118 20z"/>
<path d="M5165 6745 c-374 -57 -682 -104 -685 -104 -2 -1 0 -5 5 -10 6 -6 268
29 705 95 382 57 698 104 703 104 4 0 7 5 7 10 0 6 -12 10 -27 9 -16 -1 -334
-48 -708 -104z"/>
<path d="M5170 6549 c-333 -49 -612 -92 -620 -96 -48 -22 98 -4 655 77 341 50
624 95 629 100 18 18 -47 10 -664 -81z"/>
<path d="M580 6510 c-49 -49 -86 -158 -76 -222 20 -125 127 -208 265 -208 105
1 180 57 220 165 20 54 27 127 15 171 -4 15 -26 27 -88 47 -45 15 -85 27 -88
27 -4 0 -16 -30 -28 -66 -19 -55 -20 -68 -9 -75 21 -13 32 -6 43 28 15 44 17
45 69 27 52 -17 63 -36 52 -92 -28 -150 -157 -212 -295 -142 -115 59 -132 208
-34 306 30 30 33 36 22 54 -17 27 -22 26 -68 -20z"/>
<path d="M9240 6440 c-70 -26 -128 -66 -158 -110 -20 -29 -23 -45 -20 -91 7
-101 68 -152 180 -151 70 0 172 33 226 73 43 31 82 98 82 140 0 36 -40 109
-73 133 -41 30 -163 33 -237 6z m217 -56 c34 -21 48 -76 29 -116 -30 -63 -148
-119 -254 -122 -60 -1 -65 1 -93 32 -64 72 -18 155 111 199 99 34 160 36 207
7z"/>
<path d="M5075 6333 c-253 -41 -461 -76 -464 -79 -2 -2 -1 -7 2 -10 6 -6 916
134 926 142 24 20 -75 9 -464 -53z"/>
<path d="M5397 5886 c-372 -57 -680 -106 -684 -109 -3 -4 -4 -9 -1 -12 3 -3
319 42 704 100 384 58 702 105 707 105 4 0 7 5 7 10 0 6 -12 10 -27 9 -16 0
-333 -47 -706 -103z"/>
<path d="M3995 5840 c-11 -4 -30 -18 -42 -31 -19 -21 -263 -621 -263 -647 0
-27 25 -62 54 -76 28 -13 54 -11 256 15 472 60 480 62 480 114 0 16 -71 133
-187 310 -166 252 -193 288 -229 305 -45 22 -42 22 -69 10z"/>
<path d="M355 5768 c-7 -23 -43 -273 -39 -277 2 -2 110 -20 240 -41 159 -25
237 -33 239 -26 6 20 45 279 43 281 -2 2 -13 5 -24 9 -25 8 -27 4 -46 -128 -7
-50 -18 -90 -25 -93 -13 -5 -142 13 -150 21 -3 3 0 44 7 91 7 47 11 88 9 90
-2 2 -13 5 -24 7 -17 3 -21 -7 -34 -87 -7 -49 -15 -91 -16 -93 -3 -3 -147 19
-156 24 -5 3 7 96 26 202 5 29 4 32 -20 32 -14 0 -27 -6 -30 -12z"/>
<path d="M5388 5687 c-340 -50 -618 -95 -618 -99 0 -4 10 -8 23 -8 51 0 1262
181 1271 190 18 18 -47 10 -676 -83z"/>
<path d="M9552 5755 c2 -23 10 -31 35 -37 71 -18 100 -116 47 -157 -34 -27
-93 -27 -144 -1 -22 11 -90 56 -152 100 -61 44 -115 80 -120 80 -5 0 -11 -6
-14 -13 -5 -13 39 -303 47 -312 3 -2 15 -2 27 2 22 5 23 9 16 62 -4 31 -12 82
-19 113 -8 39 -8 55 -1 51 6 -4 52 -34 101 -68 119 -83 146 -95 200 -95 85 0
135 50 135 135 0 86 -49 150 -126 162 -34 6 -35 5 -32 -22z"/>
<path d="M5275 5469 c-236 -39 -431 -72 -434 -75 -2 -2 -1 -7 2 -10 9 -9 927
138 927 148 0 15 -62 7 -495 -63z"/>
<path d="M558 5055 c-30 -17 -47 -44 -78 -129 -24 -63 -62 -100 -94 -90 -61
19 -79 77 -46 150 20 46 20 49 4 61 -55 40 -100 -129 -54 -204 27 -45 64 -66
115 -66 72 0 94 21 136 136 35 97 80 120 138 71 27 -22 31 -32 31 -75 0 -33
-8 -63 -22 -90 -22 -39 -23 -40 -4 -54 24 -18 31 -13 58 38 30 58 31 154 2
193 -48 65 -130 91 -186 59z"/>
<path d="M9614 5045 c-3 -8 10 -33 30 -58 20 -24 36 -47 36 -51 0 -3 -81 -6
-180 -6 l-180 0 0 55 c0 48 -2 55 -20 55 -19 0 -20 -7 -20 -134 0 -129 1 -134
20 -129 16 4 20 14 20 49 l0 44 148 0 c82 0 183 3 225 6 68 6 77 9 77 27 0 23
-116 157 -136 157 -8 0 -17 -7 -20 -15z"/>
<path d="M5637 4926 c-387 -58 -667 -105 -665 -111 2 -5 10 -9 18 -8 246 33
1378 207 1385 214 18 18 -79 5 -738 -95z"/>
<path d="M4199 4785 c-294 -94 -320 -503 -40 -634 47 -22 70 -26 146 -26 83 0
95 2 153 34 74 40 115 84 151 161 37 79 37 201 0 280 -37 79 -81 125 -155 161
-78 39 -180 48 -255 24z"/>
<path d="M5471 4704 c-250 -41 -457 -76 -459 -79 -3 -3 -3 -8 1 -11 9 -9 932
141 930 151 -1 5 -5 10 -10 11 -4 1 -212 -32 -462 -72z"/>
<path d="M5080 3931 l0 -352 56 3 57 3 47 129 c25 70 53 132 61 136 8 4 30 10
50 14 101 18 169 103 169 211 0 84 -32 135 -107 172 -53 25 -69 28 -195 31
l-138 4 0 -351z m195 132 c-48 -125 -55 -138 -79 -141 l-26 -3 0 140 0 141 79
0 79 0 -53 -137z"/>
<path d="M5610 4203 l1 -78 57 -40 57 -40 -57 -3 -58 -3 0 -229 0 -230 245 0
245 0 0 40 0 40 -155 0 c-86 0 -155 4 -155 9 0 5 22 71 49 148 l48 138 104 5
104 5 3 38 3 37 -118 0 -119 0 -92 71 c-51 38 -92 74 -92 79 0 6 90 11 208 12
l207 3 3 38 3 37 -245 0 -246 0 0 -77z m187 -255 c-3 -7 -26 -69 -53 -138 -26
-69 -51 -129 -56 -135 -4 -5 -8 57 -8 138 l0 147 61 0 c45 0 60 -3 56 -12z"/>
<path d="M1865 2485 c-126 -33 -145 -41 -145 -64 0 -30 22 -42 59 -31 31 9 33
8 28 -13 -2 -12 -33 -164 -68 -339 l-64 -316 -40 -9 c-32 -6 -41 -13 -43 -32
-7 -46 38 -48 173 -9 79 23 95 32 95 60 0 25 -21 31 -66 19 -21 -6 -39 -9 -41
-7 -6 5 124 662 133 674 1 2 22 8 45 13 67 15 83 34 53 63 -19 19 -10 20 -119
-9z"/>
<path d="M2176 2264 c-3 -9 -6 -30 -6 -47 0 -18 -23 -109 -52 -203 -28 -95
-48 -179 -45 -188 4 -11 15 -16 29 -14 18 2 28 17 45 68 52 149 76 201 114
243 43 49 89 73 108 54 28 -28 -2 -181 -59 -309 -21 -47 -13 -78 21 -78 21 0
42 40 85 163 52 151 52 248 -1 283 -37 24 -110 22 -145 -5 -29 -21 -30 -21
-30 -2 0 34 -12 51 -35 51 -13 0 -26 -7 -29 -16z"/>
<path d="M3841 2266 c-6 -7 -34 -85 -62 -172 -28 -88 -60 -181 -71 -207 -20
-45 -20 -49 -4 -65 26 -26 47 -5 87 90 49 116 103 195 158 230 40 26 53 29 97
25 55 -6 74 4 74 35 0 45 -103 50 -183 10 l-57 -29 7 40 c4 28 2 42 -8 48 -19
12 -25 11 -38 -5z"/>
<path d="M7036 2268 c-2 -7 -7 -33 -10 -58 -3 -25 -28 -119 -56 -209 -28 -89
-49 -169 -46 -177 3 -8 16 -14 30 -14 20 0 27 8 39 43 8 23 27 76 42 119 41
119 92 188 157 211 25 9 48 -19 48 -56 0 -42 -33 -161 -65 -234 -30 -67 -27
-103 8 -103 20 0 29 13 59 88 46 111 68 196 68 261 0 41 -5 56 -27 81 -23 26
-36 31 -75 32 -31 0 -59 -7 -82 -20 l-35 -21 -3 32 c-2 24 -8 33 -26 35 -12 2
-24 -3 -26 -10z"/>
<path d="M4772 2253 c-15 -28 -124 -367 -192 -596 -58 -194 -61 -210 -46 -225
32 -32 48 -3 114 209 34 112 78 255 98 317 47 151 101 212 188 212 41 0 76
-31 76 -67 0 -17 -6 -23 -22 -23 -38 0 -140 -55 -186 -99 -67 -66 -80 -124
-37 -166 29 -30 65 -32 123 -5 52 23 132 106 157 160 22 49 46 52 114 13 51
-28 81 -26 81 5 0 35 -86 92 -138 92 -15 0 -21 9 -26 38 -15 97 -115 148 -211
108 -33 -14 -34 -14 -37 12 -4 33 -42 43 -56 15z"/>
<path d="M7712 2260 c-82 -19 -149 -99 -178 -210 -21 -80 -8 -139 38 -182 84
-78 192 -54 309 68 77 82 95 110 79 129 -21 26 -44 16 -89 -38 -52 -63 -130
-123 -170 -132 -34 -7 -85 15 -101 44 -17 33 -13 71 9 71 30 0 103 29 143 56
71 50 87 140 31 184 -14 11 -28 20 -32 19 -3 -1 -21 -5 -39 -9z"/>
<path d="M3347 2219 c-160 -106 -199 -314 -69 -371 91 -41 205 -2 324 110 69
65 78 86 47 105 -14 8 -28 0 -75 -42 -113 -102 -210 -139 -273 -107 -28 15
-31 21 -31 62 0 60 28 111 91 168 55 50 84 58 94 26 4 -13 15 -20 31 -20 31 0
33 36 3 74 -29 37 -81 36 -142 -5z"/>
<path d="M5497 2219 c-160 -106 -199 -314 -69 -371 91 -41 205 -2 324 110 69
65 78 86 47 105 -14 8 -28 0 -75 -42 -113 -102 -210 -139 -273 -107 -28 15
-31 21 -31 62 0 60 28 111 91 168 55 50 84 58 94 26 4 -13 15 -20 31 -20 31 0
33 36 3 74 -29 37 -81 36 -142 -5z"/>
<path d="M6490 2243 c-127 -45 -211 -244 -152 -359 26 -50 67 -74 129 -74 58
0 125 37 167 93 25 33 28 34 95 33 59 0 75 4 110 27 44 29 50 46 25 72 -15 14
-19 14 -49 -5 -19 -12 -50 -20 -74 -20 l-41 0 6 39 c7 44 -8 98 -38 136 -39
49 -124 77 -178 58z m13 -106 c-6 -54 22 -115 68 -148 l32 -23 -47 -43 c-52
-47 -93 -56 -133 -28 -27 19 -46 84 -37 122 12 49 42 99 79 131 20 18 37 32
39 32 2 0 1 -19 -1 -43z"/>
<path d="M4372 2218 c-20 -25 -80 -184 -92 -244 -14 -71 -4 -103 42 -137 24
-18 32 -19 67 -9 21 7 63 34 92 60 66 59 140 158 132 177 -12 33 -47 13 -132
-75 -86 -90 -124 -111 -137 -75 -9 21 11 95 53 198 19 48 32 94 29 102 -7 18
-40 20 -54 3z"/>
<path d="M5974 2173 c-76 -171 -92 -271 -50 -320 54 -63 150 -21 257 114 63
80 70 106 28 111 -21 2 -34 -8 -74 -58 -52 -67 -117 -120 -147 -120 -33 0 -23
73 26 193 25 60 42 115 39 123 -3 8 -16 14 -30 14 -20 0 -29 -10 -49 -57z"/>
<path d="M2738 2195 c-57 -32 -74 -103 -54 -225 13 -83 13 -85 -8 -99 -78 -54
-130 -146 -130 -234 -1 -72 22 -97 89 -97 87 0 127 64 135 215 l5 99 90 28
c50 14 117 33 150 40 54 12 60 16 60 38 0 20 -6 26 -28 28 -32 4 -146 -21
-225 -48 -31 -11 -57 -18 -59 -16 -10 10 -23 126 -17 159 12 75 96 88 110 17
12 -56 74 -31 74 29 0 11 -11 32 -23 47 -20 23 -33 28 -83 31 -40 2 -68 -2
-86 -12z"/>
<path d="M8128 2192 c-16 -9 -35 -31 -43 -48 -18 -37 -20 -132 -4 -204 l11
-50 -52 -47 c-81 -72 -123 -177 -100 -247 14 -43 35 -56 89 -56 84 0 134 82
135 224 1 44 6 84 11 89 15 11 163 54 232 68 62 11 78 25 66 55 -10 27 -124 8
-304 -52 -14 -5 -18 6 -26 62 -15 103 7 163 59 164 20 0 48 -36 48 -62 0 -12
8 -18 23 -18 56 0 66 72 16 114 -24 21 -41 26 -82 26 -31 0 -63 -7 -79 -18z"/>
<path d="M5765 1122 c-92 -43 -219 -221 -278 -390 -71 -201 -22 -385 106 -399
62 -7 107 10 161 63 25 25 46 43 46 40 0 -4 -18 -79 -40 -168 -23 -89 -39
-167 -36 -175 8 -19 44 -16 54 5 7 13 120 465 147 589 3 13 20 30 38 39 17 9
35 22 39 27 8 13 -8 47 -22 47 -5 0 -78 -31 -162 -69 -112 -51 -153 -74 -153
-87 0 -36 28 -38 102 -5 39 17 74 31 78 31 15 0 -85 -170 -125 -212 -69 -72
-127 -76 -175 -14 -52 68 -41 183 30 335 79 167 185 291 249 291 51 0 79 -28
85 -86 5 -44 9 -49 31 -49 24 0 25 3 25 52 -1 110 -104 180 -200 135z"/>
<path d="M5006 1088 c-8 -13 -18 -36 -22 -51 -5 -20 -20 -35 -56 -53 -39 -20
-49 -29 -46 -47 2 -16 10 -22 29 -22 l26 1 -25 -66 c-45 -117 -91 -278 -98
-342 -16 -160 84 -217 241 -138 80 41 190 131 190 155 0 35 -37 28 -101 -19
-79 -59 -169 -106 -203 -106 -45 0 -61 27 -61 101 0 35 3 73 6 84 4 15 43 38
137 82 114 53 132 64 132 84 0 37 -27 34 -135 -17 -55 -26 -102 -45 -104 -43
-3 2 16 54 40 114 25 61 49 120 55 133 9 24 31 35 169 87 74 28 85 35 85 56 0
35 -24 35 -116 0 -44 -17 -82 -31 -84 -31 -2 0 -5 12 -7 27 -4 36 -32 41 -52
11z"/>
<path d="M4162 1088 c-6 -7 -20 -51 -32 -98 -12 -47 -48 -179 -80 -295 -82
-293 -108 -398 -103 -412 3 -7 16 -13 29 -13 23 0 26 5 49 100 2 8 35 130 74
270 38 140 75 274 81 298 9 36 17 45 60 67 66 33 138 34 168 3 41 -45 53 -121
32 -199 -10 -35 -13 -37 -71 -48 -59 -10 -148 -46 -179 -73 -53 -45 -68 -124
-28 -152 64 -45 192 17 283 137 l29 39 89 -4 c78 -3 91 -1 101 15 18 30 -17
47 -97 47 l-69 0 7 38 c21 112 -8 216 -74 259 -40 27 -117 31 -178 9 -36 -13
-40 -12 -51 5 -14 22 -25 24 -40 7z"/>
</g>
</svg>
