<?xml version="1.0" standalone="no"?>
<!DOCTYPE svg PUBLIC "-//W3C//DTD SVG 20010904//EN"
 "http://www.w3.org/TR/2001/REC-SVG-20010904/DTD/svg10.dtd">
<svg version="1.0" xmlns="http://www.w3.org/2000/svg"
 width="1000.000000pt" height="1000.000000pt" viewBox="0 0 1000.000000 1000.000000"
 preserveAspectRatio="xMidYMid meet">
<metadata>
Created by potrace 1.16, written by Peter Selinger 2001-2019
</metadata>
<g transform="translate(0.000000,1000.000000) scale(0.100000,-0.100000)"
fill="#ffffff" stroke="none">
<path d="M4466 8535 c-157 -64 -270 -187 -347 -375 l-32 -77 -185 -12 c-207
-14 -255 -26 -327 -85 -43 -36 -105 -140 -105 -178 0 -10 -7 -18 -17 -18 -10
0 -142 -9 -295 -20 -185 -13 -288 -24 -312 -34 -104 -43 -217 -171 -276 -312
-28 -66 -34 -94 -38 -174 -4 -88 246 -4255 266 -4447 17 -157 93 -261 229
-314 119 -45 154 -45 1191 -11 532 18 1264 42 1627 53 606 19 666 22 733 42
223 64 388 232 438 443 14 61 15 98 5 324 -7 140 -14 274 -17 296 l-5 41 -117
-28 c-281 -68 -2549 -611 -2573 -616 -22 -4 -37 7 -101 71 -150 149 -281 342
-413 608 -341 685 -556 1627 -640 2803 -22 313 -35 625 -35 858 0 188 2 207
17 207 28 0 295 20 331 24 29 4 34 1 54 -37 35 -69 65 -102 120 -133 104 -56
254 -48 1333 75 187 22 392 43 455 49 92 7 126 15 166 35 57 29 127 102 145
152 l12 32 161 12 c89 6 190 14 226 17 l66 6 18 -118 c47 -316 164 -928 257
-1344 110 -492 235 -950 369 -1353 79 -235 99 -288 100 -257 0 8 -27 566 -60
1239 -48 957 -58 1226 -49 1232 10 6 10 11 0 23 -8 10 -16 66 -21 148 -5 73
-13 147 -19 165 -51 167 -240 388 -363 425 -32 9 -102 8 -359 -8 l-319 -19
-16 40 c-35 88 -109 154 -203 182 -48 14 -76 14 -225 4 -94 -6 -194 -14 -222
-17 l-52 -6 -17 53 c-53 163 -167 307 -271 343 -76 26 -215 21 -288 -9z m278
-11 c77 -27 156 -108 210 -217 44 -88 66 -157 51 -157 -3 0 -203 -14 -442 -30
-239 -17 -437 -29 -440 -27 -8 8 36 108 76 177 102 171 254 268 422 269 45 1
95 -6 123 -15z m846 -402 c61 -30 120 -99 139 -162 6 -20 11 -66 11 -102 0
-110 -63 -204 -168 -250 -32 -15 -91 -23 -225 -34 -418 -32 -1497 -105 -1562
-106 -93 -1 -160 28 -220 94 -100 111 -98 278 4 385 79 82 76 81 609 119 262
19 655 47 872 63 217 16 415 27 440 24 25 -2 70 -17 100 -31z m-2469 -2877
c67 -1210 126 -2204 130 -2209 5 -6 155 2 375 18 202 15 370 24 374 19 66 -79
110 -144 98 -147 -23 -8 -1017 -100 -1021 -96 -2 3 -20 957 -41 2120 -20 1163
-39 2203 -43 2310 -3 107 -3 193 0 190 3 -3 60 -995 128 -2205z m3473 -2016
c4 -28 5 -53 2 -56 -3 -3 -676 -71 -1776 -177 -43 -4 8 16 225 90 l280 95 615
49 c338 26 622 48 631 49 12 1 18 -12 23 -50z"/>
<path d="M4566 8419 c-111 -32 -124 -192 -19 -235 65 -28 128 -8 163 49 59 96
-35 218 -144 186z m102 -44 c39 -32 48 -72 28 -119 -29 -71 -121 -84 -171 -24
-82 97 46 225 143 143z"/>
<path d="M4479 7068 c-76 -78 -484 -520 -497 -539 -7 -11 -27 -26 -43 -35 -30
-15 -32 -14 -82 24 -29 21 -77 60 -107 86 -61 53 -119 86 -149 86 -24 0 -71
-55 -71 -83 0 -12 8 -34 18 -49 21 -34 274 -246 309 -259 35 -13 80 -11 111 5
25 13 520 515 625 634 38 43 47 60 47 91 0 49 -32 81 -83 81 -30 0 -45 -8 -78
-42z"/>
<path d="M5165 6745 c-374 -57 -682 -104 -685 -104 -2 -1 0 -5 5 -10 6 -6 268
29 705 95 382 57 698 104 703 104 4 0 7 5 7 10 0 6 -12 10 -27 9 -16 -1 -334
-48 -708 -104z"/>
<path d="M5170 6549 c-333 -49 -612 -92 -620 -96 -48 -22 98 -4 655 77 341 50
624 95 629 100 18 18 -47 10 -664 -81z"/>
<path d="M5075 6333 c-253 -41 -461 -76 -464 -79 -2 -2 -1 -7 2 -10 6 -6 916
134 926 142 24 20 -75 9 -464 -53z"/>
<path d="M5397 5886 c-372 -57 -680 -106 -684 -109 -3 -4 -4 -9 -1 -12 3 -3
319 42 704 100 384 58 702 105 707 105 4 0 7 5 7 10 0 6 -12 10 -27 9 -16 0
-333 -47 -706 -103z"/>
<path d="M3995 5840 c-11 -4 -30 -18 -42 -31 -19 -21 -263 -621 -263 -647 0
-27 25 -62 54 -76 28 -13 54 -11 256 15 472 60 480 62 480 114 0 16 -71 133
-187 310 -166 252 -193 288 -229 305 -45 22 -42 22 -69 10z"/>
<path d="M5388 5687 c-340 -50 -618 -95 -618 -99 0 -4 10 -8 23 -8 51 0 1262
181 1271 190 18 18 -47 10 -676 -83z"/>
<path d="M5275 5469 c-236 -39 -431 -72 -434 -75 -2 -2 -1 -7 2 -10 9 -9 927
138 927 148 0 15 -62 7 -495 -63z"/>
<path d="M5637 4926 c-387 -58 -667 -105 -665 -111 2 -5 10 -9 18 -8 246 33
1378 207 1385 214 18 18 -79 5 -738 -95z"/>
<path d="M4199 4785 c-294 -94 -320 -503 -40 -634 47 -22 70 -26 146 -26 83 0
95 2 153 34 74 40 115 84 151 161 37 79 37 201 0 280 -37 79 -81 125 -155 161
-78 39 -180 48 -255 24z"/>
<path d="M5471 4704 c-250 -41 -457 -76 -459 -79 -3 -3 -3 -8 1 -11 9 -9 932
141 930 151 -1 5 -5 10 -10 11 -4 1 -212 -32 -462 -72z"/>
<path d="M1540 2160 c-111 -31 -137 -49 -119 -83 9 -16 18 -18 50 -13 21 3 39
3 39 -1 0 -5 -25 -127 -55 -273 -30 -146 -63 -308 -72 -360 l-18 -95 -39 -6
c-51 -8 -73 -43 -42 -68 10 -9 31 -9 77 -2 166 27 243 71 194 111 -13 10 -24
11 -56 1 -23 -7 -43 -10 -47 -7 -5 6 106 583 131 681 13 48 14 50 68 65 50 15
54 18 54 45 0 26 -4 30 -30 32 -16 1 -77 -11 -135 -27z"/>
<path d="M1915 1939 c-4 -6 -9 -32 -11 -56 -1 -24 -28 -130 -60 -234 -53 -178
-56 -191 -40 -207 28 -29 48 -2 92 119 50 141 72 184 120 232 57 56 107 63
116 15 8 -41 -18 -162 -56 -255 -39 -99 -42 -113 -24 -131 28 -28 46 -13 83
76 50 120 75 215 75 289 0 55 -4 67 -29 95 -27 30 -35 33 -84 32 -34 0 -64 -6
-80 -17 -35 -22 -35 -22 -45 16 -9 33 -43 49 -57 26z"/>
<path d="M7193 1938 c-6 -7 -13 -38 -16 -68 -3 -30 -31 -135 -62 -233 -58
-185 -60 -207 -15 -207 26 0 35 16 65 112 14 48 42 119 61 157 69 139 184 189
184 81 0 -44 -39 -185 -75 -271 -28 -65 -22 -99 16 -99 23 0 62 79 104 211 51
164 42 255 -29 284 -49 21 -75 19 -129 -9 l-47 -23 0 26 c0 43 -35 67 -57 39z"/>
<path d="M3715 1930 c-15 -24 -147 -428 -148 -455 -2 -26 2 -30 26 -33 25 -3
30 1 45 40 40 102 104 221 144 263 57 63 90 78 168 79 63 1 65 2 68 28 4 37
-33 52 -112 45 -45 -4 -70 -13 -103 -36 -47 -33 -48 -33 -33 18 7 24 6 39 -1
48 -13 15 -45 17 -54 3z"/>
<path d="M4743 1933 c-23 -9 -290 -870 -279 -898 9 -23 36 -30 53 -13 8 9 62
167 119 353 88 288 108 343 136 375 42 48 97 80 137 80 39 0 81 -38 81 -73 0
-20 -6 -26 -32 -31 -86 -16 -210 -102 -244 -167 -33 -64 -7 -128 58 -144 66
-17 198 83 255 190 25 48 30 54 53 48 32 -7 80 -31 102 -50 30 -26 76 4 62 41
-9 23 -75 64 -126 77 -44 12 -47 16 -53 51 -8 44 -44 92 -86 113 -36 19 -116
19 -149 0 -34 -20 -42 -18 -35 5 11 34 -17 58 -52 43z"/>
<path d="M7882 1904 c-60 -30 -89 -64 -129 -149 -34 -74 -39 -172 -9 -220 45
-76 145 -104 230 -66 132 58 279 248 201 259 -14 2 -39 -18 -85 -69 -101 -114
-185 -154 -251 -119 -43 23 -66 110 -29 110 34 0 130 38 166 65 48 37 67 79
61 134 -9 82 -63 101 -155 55z"/>
<path d="M3236 1905 c-115 -40 -204 -157 -213 -280 -5 -70 15 -111 69 -146 49
-30 153 -24 232 15 67 33 206 159 206 187 0 10 -9 23 -20 29 -18 10 -29 3 -87
-49 -111 -102 -208 -144 -278 -121 -49 16 -61 54 -40 126 13 45 28 69 73 114
69 68 96 78 118 44 19 -28 52 -32 61 -7 10 25 -28 86 -58 94 -14 3 -43 1 -63
-6z"/>
<path d="M5584 1910 c-75 -16 -171 -110 -205 -200 -39 -102 -18 -190 52 -229
57 -32 151 -26 233 14 62 31 206 157 206 180 0 15 -27 45 -40 45 -4 0 -36 -27
-71 -60 -104 -97 -210 -143 -277 -119 -58 20 -67 72 -28 154 26 56 96 128 138
144 24 9 30 7 44 -14 18 -27 51 -33 60 -11 3 7 -1 29 -9 48 -17 40 -55 58
-103 48z"/>
<path d="M6575 1894 c-126 -65 -201 -261 -143 -374 29 -57 78 -90 133 -90 58
0 138 43 185 99 40 48 40 48 94 43 112 -9 217 62 160 109 -14 11 -22 10 -55
-9 -22 -13 -55 -22 -78 -22 l-40 0 0 54 c1 66 -6 91 -38 134 -48 65 -151 91
-218 56z m37 -103 c-6 -57 14 -105 59 -145 21 -20 39 -40 39 -44 0 -11 -60
-67 -87 -81 -94 -48 -167 50 -128 170 16 48 89 139 111 139 5 0 8 -18 6 -39z"/>
<path d="M4293 1878 c-29 -36 -96 -238 -101 -300 -4 -64 -3 -68 26 -97 36 -37
75 -40 131 -12 40 21 176 160 200 204 18 33 8 57 -24 57 -19 0 -37 -16 -76
-66 -61 -76 -134 -136 -164 -132 -33 5 -22 83 31 215 25 62 43 120 40 128 -7
18 -50 20 -63 3z"/>
<path d="M6062 1878 c-20 -25 -84 -192 -97 -257 -17 -77 -12 -106 23 -143 35
-38 83 -37 143 0 51 33 132 117 174 180 26 39 27 44 12 59 -25 25 -58 8 -107
-57 -25 -33 -65 -76 -89 -95 -107 -85 -119 -8 -31 200 23 53 39 103 36 111 -7
17 -50 18 -64 2z"/>
<path d="M2534 1861 c-36 -16 -72 -69 -80 -117 -4 -26 -1 -86 6 -136 l13 -90
-55 -49 c-78 -68 -114 -153 -109 -257 2 -39 44 -72 92 -72 99 0 148 77 158
244 l6 99 55 19 c30 11 102 30 159 42 110 23 137 40 112 70 -8 9 -28 16 -45
16 -40 0 -178 -33 -245 -59 -34 -12 -53 -16 -57 -9 -4 6 -9 52 -12 103 -4 86
-3 93 19 113 12 12 33 22 45 22 25 0 54 -34 54 -62 0 -22 38 -34 56 -16 7 7
16 27 20 44 5 26 1 38 -24 64 -26 30 -36 34 -88 37 -32 1 -68 -1 -80 -6z m-48
-509 c-10 -95 -40 -142 -81 -126 -41 16 -24 109 29 168 48 51 60 41 52 -42z"/>
<path d="M8394 1861 c-36 -16 -72 -69 -80 -117 -4 -26 -1 -86 6 -136 l13 -90
-55 -49 c-78 -68 -114 -153 -109 -257 2 -39 44 -72 92 -72 99 0 148 77 158
244 l6 99 55 19 c30 11 102 30 159 42 110 23 137 40 112 70 -8 9 -28 16 -45
16 -40 0 -178 -33 -245 -59 -34 -12 -53 -16 -57 -9 -4 6 -9 52 -12 103 -4 86
-3 93 19 113 12 12 33 22 45 22 25 0 54 -34 54 -62 0 -22 38 -34 56 -16 7 7
16 27 20 44 5 26 1 38 -24 64 -26 30 -36 34 -88 37 -32 1 -68 -1 -80 -6z m-48
-509 c-10 -95 -40 -142 -81 -126 -41 16 -24 109 29 168 48 51 60 41 52 -42z"/>
</g>
</svg>
