<?xml version="1.0" standalone="no"?>
<!DOCTYPE svg PUBLIC "-//W3C//DTD SVG 20010904//EN"
 "http://www.w3.org/TR/2001/REC-SVG-20010904/DTD/svg10.dtd">
<svg version="1.0" xmlns="http://www.w3.org/2000/svg"
 width="1000.000000pt" height="1000.000000pt" viewBox="0 0 1000.000000 1000.000000"
 preserveAspectRatio="xMidYMid meet">
<metadata>
Created by potrace 1.16, written by Peter Selinger 2001-2019
</metadata>
<g transform="translate(0.000000,1000.000000) scale(0.100000,-0.100000)"
fill="#ffffff" stroke="none">
<path d="M5050 9608 c0 -41 -18 -347 -24 -410 -5 -47 -4 -48 23 -48 28 0 29 2
34 68 4 37 9 123 13 192 l7 125 78 -159 c73 -149 97 -185 118 -172 4 3 51 73
102 155 52 82 95 148 96 147 1 -1 -2 -60 -7 -132 -5 -71 -10 -157 -10 -191 0
-60 1 -63 24 -63 23 0 25 5 30 63 6 64 26 378 26 410 0 13 -8 17 -32 17 -32 0
-37 -7 -137 -165 l-103 -165 -83 172 c-80 167 -94 186 -137 187 -14 1 -18 -7
-18 -31z"/>
<path d="M4477 9600 c-76 -10 -140 -20 -143 -22 -3 -3 8 -112 23 -242 26 -224
28 -236 48 -236 11 0 75 7 140 15 66 8 123 15 128 15 4 0 7 12 7 26 0 26 -1
27 -52 21 -29 -4 -83 -9 -119 -13 l-66 -6 -9 81 c-7 59 -7 82 2 85 6 2 48 8
93 11 77 7 81 9 81 31 0 21 -4 24 -37 23 -21 0 -64 -4 -95 -8 -65 -8 -61 -14
-74 100 l-6 56 116 13 c110 13 116 14 116 36 0 13 -3 25 -7 27 -5 2 -70 -4
-146 -13z"/>
<path d="M5955 9295 c-31 -130 -55 -238 -53 -240 2 -3 68 -20 145 -38 141 -34
141 -34 147 -13 7 28 3 30 -79 50 -38 9 -86 21 -106 27 l-37 9 20 80 c11 44
25 80 30 80 5 0 46 -9 90 -21 44 -11 81 -19 83 -17 1 2 6 13 9 25 7 20 2 23
-73 39 -44 9 -86 21 -92 25 -10 6 -9 24 5 83 10 42 19 76 21 76 2 0 51 -11
110 -25 58 -14 111 -23 116 -20 5 4 9 14 9 24 0 15 -23 24 -127 50 -71 18
-135 34 -144 37 -14 4 -26 -34 -74 -231z"/>
<path d="M3767 9466 c-92 -33 -129 -112 -91 -192 22 -45 54 -61 144 -69 106
-11 130 -25 130 -78 0 -65 -54 -104 -129 -93 -84 13 -86 12 -89 -11 -4 -30 30
-46 98 -46 68 0 133 31 160 76 24 39 26 106 5 147 -21 41 -57 57 -148 65 -90
9 -127 30 -127 75 0 20 10 37 32 55 30 25 37 27 94 22 60 -6 62 -5 67 18 4 21
-1 26 -32 35 -47 13 -68 12 -114 -4z"/>
<path d="M6683 9269 c-38 -24 -65 -86 -56 -131 4 -22 28 -52 75 -97 56 -53 68
-70 68 -96 0 -36 -29 -72 -64 -81 -36 -9 -110 28 -132 65 -19 33 -44 40 -62
18 -19 -22 32 -85 91 -113 87 -40 168 -25 207 38 48 78 39 112 -51 201 -60 59
-70 73 -67 100 7 74 98 87 161 22 37 -38 49 -42 66 -21 10 11 5 22 -21 52 -57
65 -151 84 -215 43z"/>
<path d="M7282 9047 c-23 -31 -20 -36 43 -73 36 -21 65 -42 65 -46 0 -5 -47
-88 -105 -184 -58 -97 -105 -179 -105 -183 0 -9 49 -36 53 -30 2 2 52 86 111
187 l109 182 31 -19 c97 -59 100 -60 113 -49 7 6 13 16 13 23 0 20 -317 206
-328 192z"/>
<path d="M2609 8975 c-158 -82 -180 -272 -47 -404 93 -94 238 -90 337 10 51
50 65 87 65 159 -1 105 -66 207 -156 244 -57 24 -144 20 -199 -9z m159 -40
c50 -21 79 -51 109 -109 47 -92 29 -178 -49 -232 -74 -52 -161 -41 -223 28
-107 117 -82 266 52 313 50 18 66 18 111 0z"/>
<path d="M7804 8463 c-77 -92 -147 -177 -156 -189 -17 -20 -16 -22 6 -43 l24
-22 62 75 c35 42 69 76 76 76 7 0 21 -11 31 -24 17 -21 18 -34 11 -141 -8
-114 -8 -119 13 -142 13 -12 26 -23 29 -23 4 0 11 59 15 131 6 110 9 130 22
125 90 -35 180 15 190 106 6 55 -25 103 -118 181 l-67 56 -138 -166z m217 28
c57 -56 62 -84 24 -129 -45 -53 -100 -48 -172 15 l-32 28 56 68 c30 37 60 67
66 67 5 0 32 -22 58 -49z"/>
<path d="M4466 8535 c-157 -64 -270 -187 -347 -375 l-32 -77 -185 -12 c-207
-14 -255 -26 -327 -85 -43 -36 -105 -140 -105 -178 0 -10 -7 -18 -17 -18 -10
0 -142 -9 -295 -20 -185 -13 -288 -24 -312 -34 -104 -43 -217 -171 -276 -312
-28 -66 -34 -94 -38 -174 -4 -88 246 -4255 266 -4447 17 -157 93 -261 229
-314 119 -45 154 -45 1191 -11 532 18 1264 42 1627 53 606 19 666 22 733 42
223 64 388 232 438 443 14 61 15 98 5 324 -7 140 -14 274 -17 296 l-5 41 -117
-28 c-281 -68 -2549 -611 -2573 -616 -22 -4 -37 7 -101 71 -150 149 -281 342
-413 608 -341 685 -556 1627 -640 2803 -22 313 -35 625 -35 858 0 188 2 207
17 207 28 0 295 20 331 24 29 4 34 1 54 -37 35 -69 65 -102 120 -133 104 -56
254 -48 1333 75 187 22 392 43 455 49 92 7 126 15 166 35 57 29 127 102 145
152 l12 32 161 12 c89 6 190 14 226 17 l66 6 18 -118 c47 -316 164 -928 257
-1344 110 -492 235 -950 369 -1353 79 -235 99 -288 100 -257 0 8 -27 566 -60
1239 -48 957 -58 1226 -49 1232 10 6 10 11 0 23 -8 10 -16 66 -21 148 -5 73
-13 147 -19 165 -51 167 -240 388 -363 425 -32 9 -102 8 -359 -8 l-319 -19
-16 40 c-35 88 -109 154 -203 182 -48 14 -76 14 -225 4 -94 -6 -194 -14 -222
-17 l-52 -6 -17 53 c-53 163 -167 307 -271 343 -76 26 -215 21 -288 -9z m278
-11 c77 -27 156 -108 210 -217 44 -88 66 -157 51 -157 -3 0 -203 -14 -442 -30
-239 -17 -437 -29 -440 -27 -8 8 36 108 76 177 102 171 254 268 422 269 45 1
95 -6 123 -15z m846 -402 c61 -30 120 -99 139 -162 6 -20 11 -66 11 -102 0
-110 -63 -204 -168 -250 -32 -15 -91 -23 -225 -34 -418 -32 -1497 -105 -1562
-106 -93 -1 -160 28 -220 94 -100 111 -98 278 4 385 79 82 76 81 609 119 262
19 655 47 872 63 217 16 415 27 440 24 25 -2 70 -17 100 -31z m-2469 -2877
c67 -1210 126 -2204 130 -2209 5 -6 155 2 375 18 202 15 370 24 374 19 66 -79
110 -144 98 -147 -23 -8 -1017 -100 -1021 -96 -2 3 -20 957 -41 2120 -20 1163
-39 2203 -43 2310 -3 107 -3 193 0 190 3 -3 60 -995 128 -2205z m3473 -2016
c4 -28 5 -53 2 -56 -3 -3 -676 -71 -1776 -177 -43 -4 8 16 225 90 l280 95 615
49 c338 26 622 48 631 49 12 1 18 -12 23 -50z"/>
<path d="M4566 8419 c-111 -32 -124 -192 -19 -235 65 -28 128 -8 163 49 59 96
-35 218 -144 186z m102 -44 c39 -32 48 -72 28 -119 -29 -71 -121 -84 -171 -24
-82 97 46 225 143 143z"/>
<path d="M1944 8485 c-27 -14 -82 -55 -122 -93 l-73 -67 161 -183 161 -183 77
69 c42 39 85 78 94 89 49 54 62 166 29 239 -59 130 -208 189 -327 129z m164
-49 c35 -18 85 -72 106 -113 22 -44 21 -118 -3 -157 -11 -17 -44 -52 -73 -77
l-54 -47 -115 131 c-63 72 -118 137 -123 145 -10 17 29 60 93 103 50 33 122
39 169 15z"/>
<path d="M8316 7961 c-98 -87 -178 -162 -177 -167 1 -5 36 -49 79 -98 42 -48
85 -98 94 -109 16 -21 17 -21 37 -3 20 18 20 19 -55 104 -41 47 -73 90 -71 96
2 5 29 32 59 59 l56 49 35 -39 c18 -21 47 -53 63 -71 28 -33 30 -33 46 -15 16
18 14 22 -43 88 l-61 70 59 52 c32 29 61 53 64 53 3 0 38 -38 78 -85 41 -47
77 -85 81 -85 15 0 32 29 24 42 -7 12 -187 219 -188 217 -1 0 -81 -71 -180
-158z"/>
<path d="M1409 7969 c-6 -12 -7 -24 -2 -29 4 -4 67 -53 138 -110 72 -57 134
-106 138 -110 4 -4 -98 -5 -228 -2 -233 5 -265 1 -265 -29 0 -13 373 -308 382
-303 4 3 12 13 18 23 8 16 -9 33 -122 122 -72 57 -138 110 -147 117 -13 11 26
12 221 10 214 -3 239 -1 255 14 9 10 15 19 12 21 -54 47 -375 297 -380 297 -5
0 -13 -9 -20 -21z"/>
<path d="M920 7280 c-6 -11 -8 -24 -5 -29 3 -5 58 -37 123 -72 145 -76 180
-102 198 -146 30 -71 -25 -159 -104 -170 -36 -5 -57 3 -196 76 l-155 82 -15
-28 -14 -28 146 -80 c123 -66 156 -79 204 -83 45 -3 64 0 97 19 56 31 94 91
99 156 9 111 -20 146 -209 248 -76 41 -143 75 -149 75 -5 0 -14 -9 -20 -20z"/>
<path d="M4479 7068 c-76 -78 -484 -520 -497 -539 -7 -11 -27 -26 -43 -35 -30
-15 -32 -14 -82 24 -29 21 -77 60 -107 86 -61 53 -119 86 -149 86 -24 0 -71
-55 -71 -83 0 -12 8 -34 18 -49 21 -34 274 -246 309 -259 35 -13 80 -11 111 5
25 13 520 515 625 634 38 43 47 60 47 91 0 49 -32 81 -83 81 -30 0 -45 -8 -78
-42z"/>
<path d="M9091 7102 c-8 -6 -11 -17 -6 -31 5 -17 14 -21 46 -21 85 0 132 -100
74 -154 -50 -47 -109 -41 -315 29 -57 19 -112 33 -122 29 -15 -4 -8 -24 55
-150 39 -79 77 -144 83 -144 6 0 17 7 24 14 9 12 2 34 -39 113 -27 53 -49 98
-48 99 1 1 56 -15 122 -36 187 -61 263 -50 309 43 29 61 2 140 -65 189 -29 22
-97 33 -118 20z"/>
<path d="M5165 6745 c-374 -57 -682 -104 -685 -104 -2 -1 0 -5 5 -10 6 -6 268
29 705 95 382 57 698 104 703 104 4 0 7 5 7 10 0 6 -12 10 -27 9 -16 -1 -334
-48 -708 -104z"/>
<path d="M5170 6549 c-333 -49 -612 -92 -620 -96 -48 -22 98 -4 655 77 341 50
624 95 629 100 18 18 -47 10 -664 -81z"/>
<path d="M580 6510 c-49 -49 -86 -158 -76 -222 20 -125 127 -208 265 -208 105
1 180 57 220 165 20 54 27 127 15 171 -4 15 -26 27 -88 47 -45 15 -85 27 -88
27 -4 0 -16 -30 -28 -66 -19 -55 -20 -68 -9 -75 21 -13 32 -6 43 28 15 44 17
45 69 27 52 -17 63 -36 52 -92 -28 -150 -157 -212 -295 -142 -115 59 -132 208
-34 306 30 30 33 36 22 54 -17 27 -22 26 -68 -20z"/>
<path d="M9240 6440 c-70 -26 -128 -66 -158 -110 -20 -29 -23 -45 -20 -91 7
-101 68 -152 180 -151 70 0 172 33 226 73 43 31 82 98 82 140 0 36 -40 109
-73 133 -41 30 -163 33 -237 6z m217 -56 c34 -21 48 -76 29 -116 -30 -63 -148
-119 -254 -122 -60 -1 -65 1 -93 32 -64 72 -18 155 111 199 99 34 160 36 207
7z"/>
<path d="M5075 6333 c-253 -41 -461 -76 -464 -79 -2 -2 -1 -7 2 -10 6 -6 916
134 926 142 24 20 -75 9 -464 -53z"/>
<path d="M5397 5886 c-372 -57 -680 -106 -684 -109 -3 -4 -4 -9 -1 -12 3 -3
319 42 704 100 384 58 702 105 707 105 4 0 7 5 7 10 0 6 -12 10 -27 9 -16 0
-333 -47 -706 -103z"/>
<path d="M3995 5840 c-11 -4 -30 -18 -42 -31 -19 -21 -263 -621 -263 -647 0
-27 25 -62 54 -76 28 -13 54 -11 256 15 472 60 480 62 480 114 0 16 -71 133
-187 310 -166 252 -193 288 -229 305 -45 22 -42 22 -69 10z"/>
<path d="M355 5768 c-7 -23 -43 -273 -39 -277 2 -2 110 -20 240 -41 159 -25
237 -33 239 -26 6 20 45 279 43 281 -2 2 -13 5 -24 9 -25 8 -27 4 -46 -128 -7
-50 -18 -90 -25 -93 -13 -5 -142 13 -150 21 -3 3 0 44 7 91 7 47 11 88 9 90
-2 2 -13 5 -24 7 -17 3 -21 -7 -34 -87 -7 -49 -15 -91 -16 -93 -3 -3 -147 19
-156 24 -5 3 7 96 26 202 5 29 4 32 -20 32 -14 0 -27 -6 -30 -12z"/>
<path d="M5388 5687 c-340 -50 -618 -95 -618 -99 0 -4 10 -8 23 -8 51 0 1262
181 1271 190 18 18 -47 10 -676 -83z"/>
<path d="M9552 5755 c2 -23 10 -31 35 -37 71 -18 100 -116 47 -157 -34 -27
-93 -27 -144 -1 -22 11 -90 56 -152 100 -61 44 -115 80 -120 80 -5 0 -11 -6
-14 -13 -5 -13 39 -303 47 -312 3 -2 15 -2 27 2 22 5 23 9 16 62 -4 31 -12 82
-19 113 -8 39 -8 55 -1 51 6 -4 52 -34 101 -68 119 -83 146 -95 200 -95 85 0
135 50 135 135 0 86 -49 150 -126 162 -34 6 -35 5 -32 -22z"/>
<path d="M5275 5469 c-236 -39 -431 -72 -434 -75 -2 -2 -1 -7 2 -10 9 -9 927
138 927 148 0 15 -62 7 -495 -63z"/>
<path d="M558 5055 c-30 -17 -47 -44 -78 -129 -24 -63 -62 -100 -94 -90 -61
19 -79 77 -46 150 20 46 20 49 4 61 -55 40 -100 -129 -54 -204 27 -45 64 -66
115 -66 72 0 94 21 136 136 35 97 80 120 138 71 27 -22 31 -32 31 -75 0 -33
-8 -63 -22 -90 -22 -39 -23 -40 -4 -54 24 -18 31 -13 58 38 30 58 31 154 2
193 -48 65 -130 91 -186 59z"/>
<path d="M9614 5045 c-3 -8 10 -33 30 -58 20 -24 36 -47 36 -51 0 -3 -81 -6
-180 -6 l-180 0 0 55 c0 48 -2 55 -20 55 -19 0 -20 -7 -20 -134 0 -129 1 -134
20 -129 16 4 20 14 20 49 l0 44 148 0 c82 0 183 3 225 6 68 6 77 9 77 27 0 23
-116 157 -136 157 -8 0 -17 -7 -20 -15z"/>
<path d="M5637 4926 c-387 -58 -667 -105 -665 -111 2 -5 10 -9 18 -8 246 33
1378 207 1385 214 18 18 -79 5 -738 -95z"/>
<path d="M4199 4785 c-294 -94 -320 -503 -40 -634 47 -22 70 -26 146 -26 83 0
95 2 153 34 74 40 115 84 151 161 37 79 37 201 0 280 -37 79 -81 125 -155 161
-78 39 -180 48 -255 24z"/>
<path d="M5471 4704 c-250 -41 -457 -76 -459 -79 -3 -3 -3 -8 1 -11 9 -9 932
141 930 151 -1 5 -5 10 -10 11 -4 1 -212 -32 -462 -72z"/>
<path d="M1540 2160 c-111 -31 -137 -49 -119 -83 9 -16 18 -18 50 -13 21 3 39
3 39 -1 0 -5 -25 -127 -55 -273 -30 -146 -63 -308 -72 -360 l-18 -95 -39 -6
c-51 -8 -73 -43 -42 -68 10 -9 31 -9 77 -2 166 27 243 71 194 111 -13 10 -24
11 -56 1 -23 -7 -43 -10 -47 -7 -5 6 106 583 131 681 13 48 14 50 68 65 50 15
54 18 54 45 0 26 -4 30 -30 32 -16 1 -77 -11 -135 -27z"/>
<path d="M1915 1939 c-4 -6 -9 -32 -11 -56 -1 -24 -28 -130 -60 -234 -53 -178
-56 -191 -40 -207 28 -29 48 -2 92 119 50 141 72 184 120 232 57 56 107 63
116 15 8 -41 -18 -162 -56 -255 -39 -99 -42 -113 -24 -131 28 -28 46 -13 83
76 50 120 75 215 75 289 0 55 -4 67 -29 95 -27 30 -35 33 -84 32 -34 0 -64 -6
-80 -17 -35 -22 -35 -22 -45 16 -9 33 -43 49 -57 26z"/>
<path d="M7193 1938 c-6 -7 -13 -38 -16 -68 -3 -30 -31 -135 -62 -233 -58
-185 -60 -207 -15 -207 26 0 35 16 65 112 14 48 42 119 61 157 69 139 184 189
184 81 0 -44 -39 -185 -75 -271 -28 -65 -22 -99 16 -99 23 0 62 79 104 211 51
164 42 255 -29 284 -49 21 -75 19 -129 -9 l-47 -23 0 26 c0 43 -35 67 -57 39z"/>
<path d="M3715 1930 c-15 -24 -147 -428 -148 -455 -2 -26 2 -30 26 -33 25 -3
30 1 45 40 40 102 104 221 144 263 57 63 90 78 168 79 63 1 65 2 68 28 4 37
-33 52 -112 45 -45 -4 -70 -13 -103 -36 -47 -33 -48 -33 -33 18 7 24 6 39 -1
48 -13 15 -45 17 -54 3z"/>
<path d="M4743 1933 c-23 -9 -290 -870 -279 -898 9 -23 36 -30 53 -13 8 9 62
167 119 353 88 288 108 343 136 375 42 48 97 80 137 80 39 0 81 -38 81 -73 0
-20 -6 -26 -32 -31 -86 -16 -210 -102 -244 -167 -33 -64 -7 -128 58 -144 66
-17 198 83 255 190 25 48 30 54 53 48 32 -7 80 -31 102 -50 30 -26 76 4 62 41
-9 23 -75 64 -126 77 -44 12 -47 16 -53 51 -8 44 -44 92 -86 113 -36 19 -116
19 -149 0 -34 -20 -42 -18 -35 5 11 34 -17 58 -52 43z"/>
<path d="M7882 1904 c-60 -30 -89 -64 -129 -149 -34 -74 -39 -172 -9 -220 45
-76 145 -104 230 -66 132 58 279 248 201 259 -14 2 -39 -18 -85 -69 -101 -114
-185 -154 -251 -119 -43 23 -66 110 -29 110 34 0 130 38 166 65 48 37 67 79
61 134 -9 82 -63 101 -155 55z"/>
<path d="M3236 1905 c-115 -40 -204 -157 -213 -280 -5 -70 15 -111 69 -146 49
-30 153 -24 232 15 67 33 206 159 206 187 0 10 -9 23 -20 29 -18 10 -29 3 -87
-49 -111 -102 -208 -144 -278 -121 -49 16 -61 54 -40 126 13 45 28 69 73 114
69 68 96 78 118 44 19 -28 52 -32 61 -7 10 25 -28 86 -58 94 -14 3 -43 1 -63
-6z"/>
<path d="M5584 1910 c-75 -16 -171 -110 -205 -200 -39 -102 -18 -190 52 -229
57 -32 151 -26 233 14 62 31 206 157 206 180 0 15 -27 45 -40 45 -4 0 -36 -27
-71 -60 -104 -97 -210 -143 -277 -119 -58 20 -67 72 -28 154 26 56 96 128 138
144 24 9 30 7 44 -14 18 -27 51 -33 60 -11 3 7 -1 29 -9 48 -17 40 -55 58
-103 48z"/>
<path d="M6575 1894 c-126 -65 -201 -261 -143 -374 29 -57 78 -90 133 -90 58
0 138 43 185 99 40 48 40 48 94 43 112 -9 217 62 160 109 -14 11 -22 10 -55
-9 -22 -13 -55 -22 -78 -22 l-40 0 0 54 c1 66 -6 91 -38 134 -48 65 -151 91
-218 56z m37 -103 c-6 -57 14 -105 59 -145 21 -20 39 -40 39 -44 0 -11 -60
-67 -87 -81 -94 -48 -167 50 -128 170 16 48 89 139 111 139 5 0 8 -18 6 -39z"/>
<path d="M4293 1878 c-29 -36 -96 -238 -101 -300 -4 -64 -3 -68 26 -97 36 -37
75 -40 131 -12 40 21 176 160 200 204 18 33 8 57 -24 57 -19 0 -37 -16 -76
-66 -61 -76 -134 -136 -164 -132 -33 5 -22 83 31 215 25 62 43 120 40 128 -7
18 -50 20 -63 3z"/>
<path d="M6062 1878 c-20 -25 -84 -192 -97 -257 -17 -77 -12 -106 23 -143 35
-38 83 -37 143 0 51 33 132 117 174 180 26 39 27 44 12 59 -25 25 -58 8 -107
-57 -25 -33 -65 -76 -89 -95 -107 -85 -119 -8 -31 200 23 53 39 103 36 111 -7
17 -50 18 -64 2z"/>
<path d="M2534 1861 c-36 -16 -72 -69 -80 -117 -4 -26 -1 -86 6 -136 l13 -90
-55 -49 c-78 -68 -114 -153 -109 -257 2 -39 44 -72 92 -72 99 0 148 77 158
244 l6 99 55 19 c30 11 102 30 159 42 110 23 137 40 112 70 -8 9 -28 16 -45
16 -40 0 -178 -33 -245 -59 -34 -12 -53 -16 -57 -9 -4 6 -9 52 -12 103 -4 86
-3 93 19 113 12 12 33 22 45 22 25 0 54 -34 54 -62 0 -22 38 -34 56 -16 7 7
16 27 20 44 5 26 1 38 -24 64 -26 30 -36 34 -88 37 -32 1 -68 -1 -80 -6z m-48
-509 c-10 -95 -40 -142 -81 -126 -41 16 -24 109 29 168 48 51 60 41 52 -42z"/>
<path d="M8394 1861 c-36 -16 -72 -69 -80 -117 -4 -26 -1 -86 6 -136 l13 -90
-55 -49 c-78 -68 -114 -153 -109 -257 2 -39 44 -72 92 -72 99 0 148 77 158
244 l6 99 55 19 c30 11 102 30 159 42 110 23 137 40 112 70 -8 9 -28 16 -45
16 -40 0 -178 -33 -245 -59 -34 -12 -53 -16 -57 -9 -4 6 -9 52 -12 103 -4 86
-3 93 19 113 12 12 33 22 45 22 25 0 54 -34 54 -62 0 -22 38 -34 56 -16 7 7
16 27 20 44 5 26 1 38 -24 64 -26 30 -36 34 -88 37 -32 1 -68 -1 -80 -6z m-48
-509 c-10 -95 -40 -142 -81 -126 -41 16 -24 109 29 168 48 51 60 41 52 -42z"/>
</g>
</svg>
