<?xml version="1.0" standalone="no"?>
<!DOCTYPE svg PUBLIC "-//W3C//DTD SVG 20010904//EN"
 "http://www.w3.org/TR/2001/REC-SVG-20010904/DTD/svg10.dtd">
<svg version="1.0" xmlns="http://www.w3.org/2000/svg"
 width="500.000000pt" height="500.000000pt" viewBox="0 0 500.000000 500.000000"
 preserveAspectRatio="xMidYMid meet">

<g transform="translate(0.000000,500.000000) scale(0.100000,-0.100000)"
fill="#ffffff" stroke="none">
<path d="M2273 3745 c-167 -45 -304 -175 -364 -345 -19 -54 -23 -86 -24 -183
0 -138 -4 -145 -79 -126 -120 30 -264 -9 -350 -94 -148 -148 -147 -378 2 -526
89 -88 170 -111 400 -111 l142 0 0 321 c0 226 4 334 12 363 18 60 83 120 145
135 l51 12 4 102 c4 108 14 138 69 208 93 118 292 131 407 26 69 -65 94 -124
100 -239 l5 -98 33 -6 c58 -11 119 -57 145 -110 24 -48 24 -54 27 -383 l3
-334 142 5 c118 5 153 10 208 30 184 68 299 231 299 423 0 315 -306 531 -604
426 -48 -17 -57 -17 -75 -4 -12 8 -21 25 -21 40 0 45 -31 146 -63 208 -62 117
-201 226 -331 261 -65 18 -216 17 -283 -1z m-643 -1095 l0 -40 -40 0 -40 0 0
40 0 40 40 0 40 0 0 -40z m290 0 l0 -40 -105 0 -105 0 0 40 0 40 105 0 105 0
0 -40z m1360 0 l0 -40 -100 0 -100 0 0 40 0 40 100 0 100 0 0 -40z m170 0 l0
-40 -40 0 -40 0 0 40 0 40 40 0 40 0 0 -40z"/>
<path d="M2439 3507 c-101 -37 -139 -97 -147 -229 l-5 -88 208 0 207 0 -4 98
c-3 88 -6 103 -31 140 -46 70 -152 107 -228 79z"/>
<path d="M2142 3084 c-51 -35 -52 -46 -52 -434 0 -396 1 -405 60 -435 45 -23
660 -22 700 1 60 36 60 37 60 434 0 390 -1 399 -54 434 -22 14 -66 16 -358 16
-286 0 -337 -2 -356 -16z m432 -79 c87 -41 116 -166 58 -244 -10 -14 -35 -35
-55 -46 -34 -18 -37 -24 -37 -62 l0 -43 40 0 40 0 0 -40 0 -40 -40 0 -40 0 0
-40 0 -40 40 0 40 0 0 -45 0 -45 -40 0 -40 0 0 -40 0 -40 -40 0 -40 0 0 209 0
209 -29 12 c-62 25 -108 106 -96 169 9 50 47 105 86 124 43 21 111 22 153 2z"/>
<path d="M2445 2915 c-53 -52 -18 -135 57 -135 70 0 103 86 53 135 -15 16 -36
25 -55 25 -19 0 -40 -9 -55 -25z"/>
<path d="M1660 1932 c-59 -29 -70 -65 -70 -230 0 -160 9 -195 59 -225 27 -16
94 -17 854 -17 l825 0 31 26 c45 37 54 80 49 240 -3 117 -6 143 -23 168 -39
58 -14 56 -887 56 -744 0 -806 -1 -838 -18z m201 -72 c13 -8 19 -21 19 -45 0
-40 1 -40 42 -19 29 15 32 15 50 -4 25 -24 17 -54 -18 -73 l-26 -13 33 -27
c30 -25 32 -29 21 -53 -13 -30 -41 -34 -77 -10 -25 16 -25 16 -25 -19 0 -40
-19 -60 -52 -55 -19 2 -23 10 -26 45 l-3 42 -35 -17 c-65 -30 -102 27 -45 69
l31 23 -30 19 c-33 21 -38 47 -14 71 19 19 22 19 54 1 36 -21 40 -19 40 18 0
50 22 67 61 47z m330 0 c13 -8 19 -21 19 -45 0 -40 1 -40 42 -19 29 15 32 15
50 -4 25 -24 18 -51 -18 -73 l-26 -16 31 -22 c66 -47 13 -109 -54 -65 -25 16
-25 16 -25 -19 0 -40 -19 -60 -52 -55 -19 2 -23 10 -26 45 l-3 42 -35 -17
c-65 -31 -102 27 -44 68 l32 23 -31 19 c-34 22 -40 48 -15 72 19 19 22 19 54
1 36 -21 40 -19 40 18 0 50 22 67 61 47z m330 0 c13 -8 19 -21 19 -45 0 -40 1
-40 42 -19 29 15 32 15 50 -4 25 -24 18 -51 -18 -73 l-26 -16 31 -22 c66 -47
13 -109 -54 -65 -25 16 -25 16 -25 -18 0 -39 -15 -58 -46 -58 -24 0 -34 17
-34 61 l0 29 -36 -17 c-65 -32 -102 25 -44 67 l32 23 -31 19 c-34 22 -40 48
-15 72 19 19 22 19 54 1 36 -21 40 -19 40 18 0 50 22 67 61 47z m330 0 c13 -8
19 -21 19 -45 0 -40 1 -40 42 -19 29 15 32 15 50 -4 25 -24 18 -51 -18 -73
l-26 -16 31 -22 c66 -47 13 -109 -54 -65 -25 16 -25 16 -25 -18 0 -39 -15 -58
-46 -58 -24 0 -34 17 -34 61 l0 29 -36 -17 c-65 -32 -100 21 -44 67 l32 26
-26 13 c-28 16 -40 40 -30 64 9 24 32 28 64 12 39 -20 40 -20 40 18 0 50 22
67 61 47z m337 -2 c7 -7 12 -27 12 -45 0 -38 1 -38 42 -17 29 15 32 15 50 -4
25 -24 18 -51 -18 -73 l-26 -16 31 -22 c17 -12 31 -30 31 -40 0 -39 -48 -54
-85 -25 -19 14 -20 13 -25 -22 -6 -43 -31 -64 -57 -48 -10 6 -20 28 -23 48 -5
35 -6 36 -25 22 -37 -29 -85 -14 -85 25 0 10 14 28 31 40 l31 22 -26 16 c-36
22 -43 49 -18 73 18 19 21 19 50 4 41 -21 42 -21 42 17 0 36 15 57 40 57 9 0
21 -5 28 -12z"/>
<path d="M3844 1145 c-4 -9 -14 -41 -24 -73 -16 -52 -20 -57 -49 -60 -36 -4
-38 -25 -3 -30 12 -2 22 -4 22 -5 0 -1 -11 -38 -25 -82 -29 -93 -32 -166 -9
-189 19 -20 26 -20 68 -2 54 23 139 127 119 147 -8 8 -23 -6 -52 -45 -107
-145 -152 -92 -91 107 l20 66 55 3 c68 4 77 22 13 26 -54 3 -56 8 -33 72 8 23
15 51 15 61 0 23 -18 25 -26 4z"/>
<path d="M890 1008 c-7 -24 -32 -115 -56 -203 -32 -116 -41 -162 -33 -170 15
-13 13 -16 69 185 43 155 47 165 78 183 20 12 42 17 56 13 50 -12 62 -136 13
-136 -37 -1 -106 -38 -118 -64 -35 -75 72 -74 131 1 17 22 32 29 73 33 62 6
69 24 11 28 l-41 3 4 43 c10 84 -42 137 -116 116 -24 -6 -37 -6 -39 0 -8 22
-22 8 -32 -32z m120 -173 c0 -6 -62 -45 -72 -45 -17 0 -6 28 15 38 23 11 57
15 57 7z"/>
<path d="M1991 1003 c-17 -20 -42 -65 -57 -100 -16 -36 -35 -65 -45 -68 -20
-7 -26 -31 -9 -37 7 -2 7 -15 0 -38 -15 -53 -13 -100 5 -100 9 0 15 9 16 23 0
12 8 47 17 77 16 50 21 56 57 66 22 7 52 13 66 13 l26 1 -28 -107 c-26 -101
-26 -135 0 -119 6 4 11 16 11 28 0 11 7 43 14 71 8 29 20 71 26 93 9 37 14 43
46 48 41 8 41 33 0 28 -26 -3 -26 -2 -26 62 0 73 -14 96 -60 96 -21 0 -37 -10
-59 -37z m87 -53 c1 -30 -1 -60 -5 -66 -5 -7 -34 -15 -66 -19 l-59 -7 31 60
c35 69 57 94 80 90 12 -2 17 -17 19 -58z"/>
<path d="M1260 985 c0 -9 5 -15 11 -13 6 2 11 8 11 13 0 5 -5 11 -11 13 -6 2
-11 -4 -11 -13z"/>
<path d="M2810 985 c0 -9 5 -15 11 -13 6 2 11 8 11 13 0 5 -5 11 -11 13 -6 2
-11 -4 -11 -13z"/>
<path d="M1410 928 c0 -13 -11 -59 -24 -102 -14 -44 -23 -84 -20 -88 8 -13 34
11 34 31 0 28 48 115 70 129 44 27 51 -7 19 -99 -14 -40 -18 -64 -11 -71 12
-12 18 -4 42 68 28 81 27 121 -5 136 -19 8 -31 8 -50 0 -21 -10 -25 -9 -25 3
0 8 -7 15 -15 15 -9 0 -15 -9 -15 -22z"/>
<path d="M2481 927 c-12 -32 -111 -353 -111 -361 0 -3 6 -6 14 -6 10 0 26 36
47 106 28 89 35 103 43 85 20 -46 103 -10 143 63 10 18 12 18 43 2 18 -9 35
-14 38 -11 11 10 -10 37 -37 46 -17 6 -34 22 -41 40 -14 32 -45 45 -85 35 -18
-5 -25 -2 -25 9 0 23 -19 18 -29 -8z m107 -39 c19 -19 15 -24 -33 -42 -25 -10
-54 -29 -65 -43 -22 -28 -26 -19 -9 24 23 61 77 91 107 61z m-33 -98 c-31 -32
-63 -42 -47 -14 10 18 64 55 71 48 2 -2 -8 -18 -24 -34z"/>
<path d="M2942 852 c-36 -111 -36 -112 -19 -112 6 0 23 25 36 55 28 65 71 105
112 105 20 0 29 5 29 16 0 13 -8 15 -37 12 -21 -3 -45 -8 -55 -12 -11 -5 -16
-3 -15 10 1 9 -3 19 -8 21 -6 2 -25 -41 -43 -95z"/>
<path d="M3520 933 c0 -9 -12 -55 -26 -101 -17 -58 -22 -88 -15 -95 7 -7 14
-1 22 19 43 104 60 134 79 144 18 10 24 9 31 -1 9 -16 5 -42 -19 -112 -11 -33
-13 -50 -5 -58 19 -19 70 131 59 176 -7 29 -44 42 -74 26 -16 -8 -21 -7 -26 4
-7 20 -26 19 -26 -2z"/>
<path d="M3344 929 c-3 -6 -17 -8 -30 -5 -31 8 -95 -24 -117 -58 -50 -75 17
-152 84 -97 23 18 23 18 34 -3 17 -35 62 -33 101 5 19 18 34 41 34 51 0 26 -9
22 -44 -18 -55 -63 -89 -11 -51 79 8 20 15 41 15 47 0 13 -17 13 -26 -1z m-29
-39 c15 -25 -62 -117 -89 -107 -26 10 -18 47 18 83 34 34 59 43 71 24z"/>
<path d="M4041 924 c-27 -20 -51 -71 -51 -113 0 -34 39 -71 75 -71 29 0 96 49
114 83 24 45 4 42 -48 -6 -53 -50 -61 -53 -92 -37 -24 13 -25 50 -1 50 9 0 32
9 50 20 28 17 33 25 30 53 -2 26 -8 33 -28 35 -14 1 -36 -5 -49 -14z m49 -29
c0 -8 -9 -19 -19 -25 -33 -17 -43 -12 -25 15 18 27 44 34 44 10z"/>
<path d="M1225 888 c-31 -77 -35 -106 -15 -130 16 -20 20 -20 49 -9 46 20 114
111 82 111 -4 0 -30 -21 -57 -47 -48 -47 -49 -48 -52 -22 -2 14 6 48 17 76 18
47 19 63 0 63 -4 0 -15 -19 -24 -42z"/>
<path d="M2775 888 c-31 -77 -35 -106 -15 -130 16 -20 20 -20 49 -9 46 20 114
111 82 111 -4 0 -30 -21 -57 -47 -48 -47 -49 -48 -52 -22 -2 14 6 48 17 76 18
47 19 63 0 63 -4 0 -15 -19 -24 -42z"/>
<path d="M2229 899 c-19 -19 -21 -29 -16 -78 5 -49 4 -58 -13 -69 -28 -17 -52
-69 -48 -105 3 -29 6 -32 38 -32 42 0 60 28 60 93 0 47 8 53 103 74 29 6 46
15 44 21 -5 15 -54 11 -106 -7 -37 -12 -40 -12 -45 8 -10 37 -6 63 10 77 14
11 18 10 33 -10 14 -19 19 -20 29 -9 9 11 8 19 -4 36 -19 28 -58 28 -85 1z
m-19 -245 c-29 -34 -40 17 -12 56 l17 25 3 -33 c2 -18 -2 -40 -8 -48z"/>
</g>
</svg>
