<?xml version="1.0" standalone="no"?>
<!DOCTYPE svg PUBLIC "-//W3C//DTD SVG 20010904//EN"
 "http://www.w3.org/TR/2001/REC-SVG-20010904/DTD/svg10.dtd">
<svg version="1.0" xmlns="http://www.w3.org/2000/svg"
 width="500.000000pt" height="500.000000pt" viewBox="0 0 500.000000 500.000000"
 preserveAspectRatio="xMidYMid meet">

<g transform="translate(0.000000,500.000000) scale(0.100000,-0.100000)"
fill="#ffffff" stroke="none">
<path d="M2435 3840 c-169 -34 -329 -154 -404 -303 -52 -104 -61 -160 -61
-369 l0 -187 -30 -23 c-17 -12 -41 -44 -55 -72 l-25 -50 0 -321 0 -321 26 -52
c28 -56 81 -96 142 -108 32 -6 32 -7 32 -65 l0 -59 480 0 479 0 3 56 3 57 43
12 c57 17 107 57 135 108 22 41 22 49 22 372 l0 330 -28 48 c-15 26 -39 54
-52 63 -25 16 -25 17 -25 188 0 193 -13 274 -60 373 -110 236 -376 373 -625
323z m164 -180 c128 -21 243 -108 298 -225 27 -58 28 -66 31 -247 l3 -188
-390 0 -391 0 0 165 c0 141 3 175 21 227 48 143 163 244 307 268 26 4 49 8 52
9 3 0 34 -4 69 -9z m46 -870 c62 -60 69 -132 20 -204 -24 -35 -25 -45 -25
-174 0 -153 -7 -178 -58 -204 -40 -19 -87 -10 -114 23 -15 18 -18 43 -18 168
0 145 0 146 -30 190 -53 78 -35 173 42 222 26 16 45 19 91 16 49 -3 62 -8 92
-37z m353 -807 l-3 -48 -452 -3 -453 -2 0 50 0 50 456 0 455 0 -3 -47z"/>
<path d="M1437 1702 c-14 -15 -17 -42 -17 -150 0 -176 -4 -172 164 -172 110 0
126 2 150 21 26 20 26 22 26 150 0 174 5 169 -173 169 -117 0 -136 -2 -150
-18z m282 -16 c8 -9 11 -56 9 -142 l-3 -129 -130 -3 c-113 -2 -131 0 -142 15
-9 11 -13 53 -13 123 0 151 -1 150 149 150 89 0 121 -3 130 -14z"/>
<path d="M1580 1615 c0 -24 -1 -25 -23 -10 -32 21 -42 7 -15 -22 l21 -23 -31
0 c-18 0 -32 -4 -32 -10 0 -5 14 -10 32 -10 l31 0 -21 -23 c-12 -13 -22 -26
-22 -30 0 -13 23 -7 42 10 17 15 18 15 18 -10 0 -17 5 -27 15 -27 10 0 15 10
15 27 0 25 1 25 18 10 10 -10 22 -17 25 -17 13 0 7 23 -10 42 -15 17 -15 18
10 18 15 0 27 5 27 10 0 6 -12 10 -27 10 -25 0 -26 0 -8 20 22 24 12 39 -15
22 -18 -11 -20 -9 -20 13 0 16 -6 25 -15 25 -9 0 -15 -9 -15 -25z"/>
<path d="M1896 1704 c-24 -24 -28 -53 -24 -174 4 -150 5 -150 173 -150 172 0
170 -2 170 168 0 177 5 172 -171 172 -107 0 -136 -3 -148 -16z m278 -20 c13
-12 16 -39 16 -133 0 -78 -4 -121 -12 -129 -17 -17 -249 -17 -266 0 -8 8 -12
53 -12 135 0 106 2 123 18 132 9 6 67 11 129 11 88 0 115 -3 127 -16z"/>
<path d="M2040 1608 l0 -31 -23 21 c-13 12 -26 22 -30 22 -13 0 -7 -23 10 -42
15 -17 14 -18 -15 -18 -18 0 -32 -4 -32 -10 0 -5 14 -10 30 -10 34 0 37 -6 13
-32 -21 -24 -9 -36 15 -15 25 23 32 21 32 -8 0 -14 5 -25 10 -25 6 0 10 12 10
27 0 25 1 25 18 10 10 -10 22 -17 25 -17 13 0 7 23 -10 42 -15 17 -14 18 16
18 19 0 30 4 26 10 -3 6 -18 10 -32 10 -25 0 -26 0 -8 20 24 26 11 39 -15 15
-20 -18 -20 -17 -20 13 0 18 -4 32 -10 32 -5 0 -10 -14 -10 -32z"/>
<path d="M2346 1698 c-13 -18 -16 -51 -16 -150 0 -170 -2 -168 170 -168 172 0
170 -2 170 168 0 178 6 172 -170 172 -132 0 -140 -1 -154 -22z m288 -20 c18
-26 23 -199 6 -242 l-10 -26 -129 0 c-119 0 -131 2 -141 19 -5 11 -10 66 -10
123 0 148 0 148 150 148 111 0 120 -1 134 -22z"/>
<path d="M2490 1615 c0 -28 -12 -32 -30 -10 -7 8 -16 15 -21 15 -14 0 -10 -22
8 -42 15 -17 15 -18 -10 -18 -14 0 -29 -4 -32 -10 -4 -6 7 -10 24 -10 34 0 39
-11 16 -30 -8 -7 -15 -16 -15 -21 0 -14 22 -10 42 8 17 15 18 15 18 -10 0 -15
5 -27 10 -27 6 0 10 11 10 25 0 25 1 25 25 9 31 -20 45 -11 22 14 -23 25 -21
32 8 32 14 0 25 5 25 10 0 6 -12 10 -27 10 -25 0 -26 0 -8 20 22 24 12 39 -15
22 -27 -17 -30 -15 -30 13 0 14 -4 25 -10 25 -5 0 -10 -11 -10 -25z"/>
<path d="M2804 1699 c-17 -18 -19 -37 -19 -151 0 -170 -2 -168 170 -168 168 0
169 0 173 150 6 190 6 190 -172 190 -122 0 -134 -2 -152 -21z m277 -9 c17 -10
19 -22 19 -133 0 -82 -4 -127 -12 -135 -17 -17 -249 -17 -266 0 -8 8 -12 51
-12 129 0 152 -3 149 141 149 61 0 119 -5 130 -10z"/>
<path d="M2940 1613 c0 -25 -1 -25 -19 -9 -30 27 -47 9 -20 -20 l22 -24 -31 0
c-18 0 -32 -4 -32 -10 0 -5 14 -10 31 -10 l30 0 -21 -27 c-25 -32 -10 -45 21
-17 18 17 19 16 19 -9 0 -17 5 -27 15 -27 10 0 15 10 15 27 0 25 1 25 18 10
10 -10 22 -17 25 -17 13 0 7 23 -10 42 -15 17 -14 18 16 18 19 0 30 4 26 10
-3 6 -18 10 -32 10 -25 0 -26 0 -8 20 22 24 12 39 -15 22 -18 -11 -20 -9 -20
13 0 16 -6 25 -15 25 -10 0 -15 -10 -15 -27z"/>
<path d="M3260 1700 c-18 -18 -20 -33 -20 -149 0 -128 0 -130 26 -150 24 -19
40 -21 150 -21 168 0 164 -4 164 173 0 174 7 167 -168 167 -119 0 -134 -2
-152 -20z m284 -22 c20 -29 23 -225 3 -251 -11 -15 -29 -17 -142 -15 l-130 3
-3 129 c-2 86 1 133 9 142 9 11 41 14 130 14 110 0 119 -1 133 -22z"/>
<path d="M3400 1615 c0 -28 -12 -32 -30 -10 -7 8 -16 15 -21 15 -14 0 -10 -22
8 -42 15 -17 15 -18 -10 -18 -14 0 -29 -4 -32 -10 -4 -6 7 -10 24 -10 34 0 39
-11 16 -30 -8 -7 -15 -16 -15 -21 0 -14 22 -10 42 8 17 15 18 15 18 -10 0 -15
5 -27 10 -27 6 0 10 12 10 27 0 26 0 26 20 8 14 -13 24 -15 31 -8 7 7 5 14 -6
23 -22 18 -18 30 10 30 14 0 25 5 25 10 0 6 -11 10 -25 10 -25 0 -25 1 -9 25
15 22 15 25 1 25 -9 0 -19 -4 -22 -10 -11 -18 -25 -10 -25 15 0 14 -4 25 -10
25 -5 0 -10 -11 -10 -25z"/>
<path d="M2407 1103 c-3 -5 -12 -34 -21 -65 -16 -54 -18 -58 -47 -58 -35 0
-36 -23 -2 -28 20 -3 20 -3 -3 -80 -50 -160 -20 -229 73 -172 29 18 102 105
103 123 1 23 -33 0 -65 -43 -40 -55 -68 -75 -92 -66 -19 8 -14 78 13 174 l17
62 54 0 c40 0 53 4 53 15 0 11 -12 15 -45 15 -25 0 -45 4 -45 8 0 5 9 34 19
65 16 46 17 57 6 57 -8 0 -16 -3 -18 -7z"/>
<path d="M3871 1087 c-5 -13 -15 -42 -22 -65 -11 -37 -16 -42 -41 -42 -18 0
-28 -5 -28 -15 0 -9 9 -15 21 -15 17 0 20 -4 15 -22 -43 -151 -48 -185 -35
-214 17 -35 36 -40 82 -20 50 20 133 136 98 136 -5 0 -26 -22 -46 -49 -41 -53
-76 -78 -95 -66 -16 10 -9 101 14 178 l17 57 55 0 c41 0 54 4 54 15 0 11 -12
15 -45 15 -51 0 -54 8 -30 67 8 19 15 42 15 49 0 22 -20 16 -29 -9z"/>
<path d="M3030 1054 c-11 -25 -20 -47 -20 -49 0 -3 -9 -29 -20 -58 l-20 -54
-43 4 c-61 5 -107 -41 -107 -109 0 -52 30 -73 75 -53 l33 13 -5 -39 c-4 -26
-2 -39 6 -39 6 0 13 6 15 13 2 6 11 45 21 85 9 41 37 127 61 193 24 65 44 123
44 129 0 26 -23 6 -40 -36z m-91 -183 c19 -12 0 -59 -40 -97 -26 -25 -31 -26
-45 -13 -21 22 -9 63 28 94 33 28 37 29 57 16z"/>
<path d="M1879 998 c-6 -13 -21 -31 -33 -40 -16 -14 -18 -20 -8 -26 9 -6 7
-24 -11 -78 -45 -131 -43 -187 7 -200 44 -11 179 67 162 95 -6 9 -17 5 -42
-14 -19 -14 -50 -33 -70 -41 -50 -21 -70 -3 -60 51 7 33 13 39 72 67 61 29 81
48 49 48 -9 0 -33 -9 -55 -20 -22 -11 -41 -20 -44 -20 -3 0 1 17 9 39 28 79
41 96 94 115 50 18 69 32 58 43 -5 5 -30 -2 -79 -22 -13 -5 -18 -2 -18 9 0 23
-17 20 -31 -6z"/>
<path d="M837 831 c-26 -97 -48 -184 -47 -193 0 -33 19 -18 31 25 61 230 81
293 96 305 10 7 34 12 53 10 41 -4 63 -38 54 -86 -5 -25 -13 -32 -48 -41 -56
-14 -96 -46 -96 -77 0 -51 62 -43 119 16 34 35 44 40 86 40 57 0 58 23 2 28
l-37 3 0 48 c0 34 -6 56 -21 75 -18 23 -26 26 -82 24 l-62 -1 -48 -176z m148
-21 c-9 -14 -66 -43 -72 -36 -8 8 8 27 31 36 29 12 48 12 41 0z"/>
<path d="M1220 955 c0 -9 5 -15 11 -13 6 2 11 8 11 13 0 5 -5 11 -11 13 -6 2
-11 -4 -11 -13z"/>
<path d="M3130 955 c0 -9 5 -15 11 -13 6 2 11 8 11 13 0 5 -5 11 -11 13 -6 2
-11 -4 -11 -13z"/>
<path d="M1367 913 c-4 -3 -7 -16 -7 -28 0 -12 -9 -48 -20 -80 -11 -32 -20
-65 -20 -72 0 -31 22 -5 45 52 28 67 56 101 79 92 18 -7 14 -46 -10 -106 -16
-39 -18 -61 -4 -61 25 0 64 138 49 177 -9 23 -13 25 -49 20 -22 -3 -40 -1 -40
4 0 11 -14 12 -23 2z"/>
<path d="M3570 903 c0 -10 -11 -53 -24 -95 -13 -42 -21 -80 -18 -83 13 -12 20
-2 40 53 23 61 53 102 77 102 21 0 19 -40 -5 -102 -13 -34 -16 -56 -10 -62 13
-13 18 -7 40 57 35 99 21 146 -40 134 -16 -4 -32 -2 -35 3 -10 16 -25 11 -25
-7z"/>
<path d="M4080 907 c-59 -30 -88 -119 -51 -156 40 -40 114 -19 155 44 29 44 6
47 -35 5 -33 -34 -46 -41 -72 -38 -24 2 -33 8 -35 26 -2 15 2 22 13 22 26 0
73 28 80 48 13 42 -17 68 -55 49z m30 -24 c0 -14 -15 -30 -37 -42 -29 -15 -29
-4 -1 26 21 23 38 30 38 16z"/>
<path d="M3400 901 c0 -5 -9 -7 -20 -4 -54 14 -130 -45 -130 -101 0 -35 25
-66 52 -66 9 0 26 8 39 19 23 18 23 18 42 -5 10 -13 26 -24 35 -24 21 1 55 27
76 62 24 37 4 43 -28 8 -14 -17 -35 -30 -46 -30 -16 0 -20 7 -20 38 1 20 7 48
15 62 19 33 19 50 0 50 -8 0 -15 -4 -15 -9z m-20 -36 c0 -18 -43 -86 -60 -95
-45 -24 -56 32 -14 74 23 22 74 37 74 21z"/>
<path d="M1179 831 c-25 -76 -18 -101 25 -101 28 0 114 86 100 100 -7 7 -23
-3 -49 -30 -49 -50 -69 -53 -60 -7 4 17 14 44 21 59 18 35 18 48 0 48 -9 0
-23 -26 -37 -69z"/>
<path d="M2555 850 c-32 -64 -33 -107 -1 -121 18 -9 30 -7 55 5 29 15 33 15
47 1 10 -10 24 -13 38 -9 23 7 86 63 86 76 0 17 -26 7 -57 -24 -26 -25 -36
-29 -45 -20 -10 10 -9 22 5 60 28 72 30 82 19 82 -6 0 -22 -21 -37 -47 -33
-57 -74 -103 -92 -103 -19 0 -16 45 7 90 22 43 25 60 10 60 -5 0 -21 -22 -35
-50z"/>
<path d="M3091 845 c-31 -84 -26 -115 19 -115 35 0 119 85 101 103 -8 8 -21
-1 -47 -31 -60 -71 -83 -48 -44 43 24 56 24 55 6 55 -8 0 -23 -24 -35 -55z"/>
<path d="M2105 874 c-13 -14 -16 -30 -13 -71 4 -47 2 -55 -24 -80 -32 -31 -46
-86 -28 -108 34 -41 90 10 90 81 l0 43 52 16 c28 8 58 15 65 15 7 0 13 7 13
15 0 13 -7 15 -37 9 -21 -4 -48 -11 -61 -15 -38 -14 -42 -11 -42 30 0 51 22
71 44 39 13 -18 18 -20 28 -10 9 9 10 17 2 30 -15 24 -67 27 -89 6z m-9 -220
c-8 -20 -36 -17 -36 4 0 10 8 29 18 42 l17 25 3 -28 c2 -16 1 -35 -2 -43z"/>
</g>
</svg>
