<?xml version="1.0" standalone="no"?>
<!DOCTYPE svg PUBLIC "-//W3C//DTD SVG 20010904//EN"
 "http://www.w3.org/TR/2001/REC-SVG-20010904/DTD/svg10.dtd">
<svg version="1.0" xmlns="http://www.w3.org/2000/svg"
 width="1000.000000pt" height="1000.000000pt" viewBox="0 0 1000.000000 1000.000000"
 preserveAspectRatio="xMidYMid meet">
<metadata>
Created by potrace 1.16, written by Peter Selinger 2001-2019
</metadata>
<g transform="translate(0.000000,1000.000000) scale(0.100000,-0.100000)"
fill="#ffffff" stroke="none">
<path d="M2925 8987 c-122 -73 -471 -280 -778 -462 l-557 -330 0 -51 0 -51
368 -218 c202 -120 368 -218 368 -219 1 0 8 -107 17 -236 14 -227 14 -235 -4
-248 -70 -49 -61 -204 12 -239 25 -12 26 -16 31 -123 5 -100 8 -114 33 -151
37 -53 137 -152 230 -229 l75 -63 1 -146 c1 -80 1 -169 -1 -197 -2 -60 -27
-41 245 -190 l180 -99 -47 -3 c-27 -2 -48 -5 -48 -6 0 -2 -13 -47 -30 -100
l-29 -97 46 -64 47 -65 63 0 63 0 45 62 c25 34 45 67 45 73 0 5 -13 51 -28
100 l-28 90 -44 5 -45 5 135 74 c74 41 169 93 210 116 l75 41 3 185 2 186 89
71 c102 83 242 226 265 271 10 19 19 71 23 136 6 97 8 107 28 115 71 27 85
187 20 238 l-25 20 15 218 c8 121 15 226 15 236 0 10 47 44 130 93 l130 76 0
332 0 332 -22 14 c-13 8 -57 32 -98 54 -41 22 -77 43 -80 47 -12 18 -889 530
-906 529 -10 0 -118 -60 -239 -132z m352 -2435 c76 3 90 2 81 -10 -23 -27 -56
-36 -158 -43 l-105 -7 117 3 c125 3 136 -3 64 -36 -78 -35 -212 -17 -255 35
-13 15 -11 16 30 12 24 -3 35 -3 24 0 -39 10 -94 37 -98 48 -3 8 23 9 102 3
58 -5 147 -7 198 -5z"/>
<path d="M4340 8145 c0 -157 3 -285 6 -285 3 0 95 53 205 118 l199 117 -2 50
-3 49 -199 118 c-109 65 -200 118 -202 118 -2 0 -4 -128 -4 -285z"/>
<path d="M4900 5380 l0 -2380 1800 0 1800 0 0 2380 0 2380 -1800 0 -1800 0 0
-2380z m3490 -5 l0 -2265 -1685 0 -1685 0 0 2265 0 2265 1685 0 1685 0 0
-2265z"/>
<path d="M5492 7304 c-22 -15 -22 -18 -22 -263 0 -227 2 -249 18 -264 16 -15
49 -17 259 -17 220 0 241 2 256 18 15 16 17 50 17 265 0 243 0 246 -22 261
-19 13 -61 16 -253 16 -192 0 -234 -3 -253 -16z"/>
<path d="M6822 7114 c-59 -24 -69 -88 -23 -135 18 -17 40 -29 56 -29 37 0 85
50 85 88 0 36 -32 78 -64 84 -13 3 -38 -1 -54 -8z"/>
<path d="M7315 7122 c-37 -8 -65 -43 -65 -81 1 -53 39 -91 90 -91 29 0 80 53
80 82 0 55 -54 101 -105 90z"/>
<path d="M7760 7100 c-45 -45 -33 -111 24 -138 56 -28 116 12 116 76 0 27 -7
45 -23 60 -30 29 -89 30 -117 2z"/>
<path d="M5520 6507 c-31 -16 -39 -61 -14 -88 17 -18 48 -19 1171 -19 l1153 0
0 -90 c0 -77 3 -93 20 -110 11 -11 29 -20 40 -20 11 0 29 9 40 20 18 18 20 33
20 144 0 107 -3 127 -19 147 l-19 24 -1184 2 c-938 2 -1188 0 -1208 -10z"/>
<path d="M5520 6107 c-31 -16 -39 -61 -14 -88 17 -18 48 -19 1171 -19 l1153 0
0 -88 c0 -102 14 -132 60 -132 50 0 60 28 60 166 0 105 -3 125 -19 145 l-19
24 -1184 2 c-938 2 -1188 0 -1208 -10z"/>
<path d="M5506 5654 c-20 -19 -21 -58 -2 -77 17 -16 674 -27 1698 -27 l628 0
0 -83 c0 -96 14 -127 60 -127 50 0 60 28 60 165 0 93 -4 126 -16 143 l-15 22
-1199 0 c-1076 0 -1200 -2 -1214 -16z"/>
<path d="M5506 5214 c-20 -19 -21 -58 -2 -77 17 -16 674 -27 1698 -27 l628 0
0 -83 c0 -96 14 -127 60 -127 50 0 60 28 60 165 0 93 -4 126 -16 143 l-15 22
-1199 0 c-1076 0 -1200 -2 -1214 -16z"/>
<path d="M7315 4812 c-107 -55 -533 -308 -547 -324 -16 -18 -18 -51 -18 -358
0 -308 1 -338 18 -352 40 -35 559 -328 581 -328 22 0 487 263 559 317 l32 24
0 342 c0 188 -4 347 -8 353 -4 6 -77 51 -162 101 -85 50 -209 121 -275 160
-147 85 -144 84 -180 65z m280 -259 l235 -136 0 -281 0 -281 -232 -135 c-128
-74 -237 -136 -244 -138 -6 -2 -118 59 -248 134 l-236 138 0 282 0 282 233
136 c127 75 238 136 245 136 7 0 118 -61 247 -137z"/>
<path d="M5673 4191 c-163 -160 -193 -193 -193 -218 0 -37 16 -53 54 -53 26 0
51 20 157 126 l126 126 6 -108 c4 -59 7 -157 7 -219 0 -122 5 -135 55 -135 26
0 45 15 125 101 88 96 94 100 102 78 11 -28 26 -39 56 -39 17 0 59 35 143 117
123 120 137 144 103 177 -32 32 -56 25 -128 -40 -51 -45 -62 -51 -64 -35 -5
31 -38 54 -66 47 -13 -3 -64 -49 -114 -101 l-89 -95 -6 91 c-4 51 -7 147 -7
215 0 132 -8 154 -53 154 -15 -1 -86 -64 -214 -189z"/>
<path d="M2583 5953 l-33 -17 0 -1488 0 -1488 -160 -80 c-88 -44 -162 -80
-165 -80 -3 0 -6 672 -7 1494 l-3 1494 -37 -15 -38 -15 0 -1503 c0 -1327 -2
-1504 -15 -1509 -13 -5 -15 164 -15 1484 0 832 -4 1490 -9 1490 -4 0 -20 -9
-34 -20 -14 -11 -38 -20 -54 -20 -218 0 -404 -776 -552 -2300 -17 -168 -37
-393 -45 -500 -9 -107 -18 -219 -21 -247 l-5 -53 1745 0 1745 0 0 44 c0 94
-63 795 -106 1171 -114 1012 -244 1605 -399 1815 -36 49 -74 70 -125 70 -15 0
-35 9 -45 20 -47 52 -45 116 -45 -1471 0 -991 -3 -1488 -10 -1484 -7 4 -10
518 -10 1510 l0 1503 -27 10 c-16 5 -36 13 -45 17 -17 7 -18 -68 -18 -1489 0
-823 -3 -1496 -6 -1496 -4 0 -76 36 -160 81 l-154 80 0 1489 0 1488 -40 16
c-22 9 -43 16 -45 16 -3 0 -5 -666 -5 -1480 0 -980 -3 -1480 -10 -1480 -7 0
-10 468 -10 1383 l-1 1382 -22 -30 c-39 -53 -209 -259 -246 -298 -32 -33 -36
-45 -36 -89 l0 -50 -165 -49 c-91 -27 -169 -49 -174 -49 -5 0 -6 43 -2 100 l6
100 -73 88 c-41 48 -113 136 -160 195 l-87 109 0 -1396 c0 -924 -3 -1396 -10
-1396 -7 0 -10 500 -10 1480 0 1178 -3 1480 -12 1479 -7 0 -28 -8 -45 -16z
m751 -962 c-5 -5 -95 -33 -200 -63 l-192 -55 6 86 c2 47 6 88 8 90 2 2 85 27
186 56 l183 52 9 -79 c5 -46 5 -83 0 -87z m20 -183 c3 -13 6 -50 6 -84 l0 -60
-217 -62 c-119 -34 -219 -60 -221 -58 -2 2 0 42 4 88 l6 85 192 55 c105 31
198 56 207 57 9 1 19 -9 23 -21z m28 -368 c0 -38 1 -75 2 -82 1 -8 -90 -38
-234 -80 -129 -37 -238 -68 -242 -68 -9 0 -8 102 1 145 6 29 9 30 221 91 118
35 223 63 233 63 14 1 17 -9 19 -69z m25 -416 c-1 -1 -117 -34 -257 -74 -140
-40 -260 -74 -266 -77 -13 -5 -6 157 7 172 5 5 121 41 257 80 l247 71 7 -85
c5 -46 7 -85 5 -87z m18 -235 c4 -44 6 -82 4 -84 -7 -7 -571 -166 -575 -162
-3 2 -1 42 2 88 l7 84 266 77 c146 42 271 77 277 77 8 1 15 -29 19 -80z m15
-261 c-1 -18 -32 -45 -139 -120 -76 -54 -145 -100 -154 -104 -10 -3 -46 16
-97 55 l-82 60 38 10 c22 6 122 35 224 65 102 30 191 54 198 55 6 1 12 -9 12
-21z"/>
<path d="M4156 2268 c-8 -24 -32 -93 -51 -155 l-36 -112 -61 -3 c-45 -2 -64
-8 -72 -20 -19 -30 4 -53 58 -56 25 -2 46 -5 46 -8 0 -3 -22 -78 -50 -167 -71
-230 -82 -333 -43 -409 18 -37 42 -48 105 -48 71 1 128 28 191 93 57 59 167
216 167 239 0 19 -20 38 -42 38 -18 0 -25 -9 -128 -147 -99 -134 -184 -178
-218 -113 -24 45 1 192 70 418 l31 102 123 0 124 0 6 25 c12 46 -8 55 -123 55
-80 0 -103 3 -100 13 33 80 89 268 84 280 -4 11 -18 17 -36 17 -25 0 -31 -6
-45 -42z"/>
<path d="M6923 2258 c-6 -7 -48 -116 -93 -241 -68 -186 -87 -226 -99 -221 -47
21 -111 27 -150 16 -166 -50 -254 -300 -140 -397 41 -34 106 -34 164 -1 l41
24 -13 -71 c-16 -92 -11 -109 30 -105 35 3 36 7 61 143 21 111 68 274 108 374
17 42 61 163 100 269 54 152 66 197 57 208 -14 17 -53 18 -66 2z m-240 -529
c12 -7 24 -13 25 -15 10 -8 -79 -155 -119 -196 -57 -60 -91 -64 -115 -15 -20
42 -8 95 36 156 52 71 119 98 173 70z"/>
<path d="M2070 2048 c-5 -13 -21 -68 -34 -123 -14 -55 -56 -210 -94 -345 -93
-330 -109 -397 -95 -418 13 -21 53 -22 64 -2 4 8 30 98 57 200 27 102 74 274
103 382 l54 197 58 26 c67 31 124 34 160 11 50 -34 70 -133 44 -220 l-12 -39
-83 -18 c-141 -31 -226 -92 -239 -174 -8 -47 11 -82 54 -96 68 -22 164 22 254
118 32 35 59 68 59 73 0 5 51 11 113 12 108 3 112 4 115 26 6 38 -14 50 -96
57 l-77 7 0 101 c0 90 -3 108 -26 152 -34 67 -83 95 -164 94 -33 0 -78 -6
-100 -14 -34 -12 -41 -12 -48 0 -13 24 -56 18 -67 -7z"/>
<path d="M5254 1852 c-13 -9 -144 -398 -147 -437 -2 -27 1 -30 30 -33 28 -3
35 1 44 25 104 252 189 347 298 329 40 -6 54 0 64 27 4 11 -1 25 -13 37 -29
29 -110 27 -177 -4 l-52 -25 10 25 c16 44 -21 81 -57 56z"/>
<path d="M4839 1826 c-11 -23 -12 -23 -57 -10 -146 44 -322 -108 -322 -279 0
-68 27 -128 67 -146 34 -16 109 -14 143 4 50 26 34 2 -30 -45 -192 -139 -304
-347 -241 -447 23 -37 71 -54 115 -42 75 21 160 154 216 339 17 58 35 114 40
126 8 21 77 65 227 145 88 47 99 59 83 90 -17 30 -45 23 -166 -40 l-113 -60
40 112 c65 180 80 237 68 258 -14 28 -57 24 -70 -5z m-59 -94 c22 -18 23 -19
6 -68 -36 -108 -124 -204 -187 -204 -76 0 -64 156 18 231 62 58 123 73 163 41z
m-120 -485 c0 -11 -45 -137 -64 -181 -26 -59 -79 -116 -107 -116 -16 0 -19 7
-19 40 0 22 7 57 15 76 20 49 175 208 175 181z"/>
<path d="M6058 1820 c-11 -17 -20 -18 -68 -14 -143 15 -299 -119 -300 -256 0
-79 65 -150 136 -150 34 0 92 35 128 77 l24 27 6 -31 c10 -44 56 -84 104 -90
57 -8 120 31 178 109 58 80 58 128 0 128 -7 0 -31 -27 -54 -60 -24 -33 -56
-67 -73 -76 -27 -14 -33 -14 -54 0 -13 8 -26 28 -29 43 -8 34 16 128 49 202
14 29 25 61 25 70 0 40 -51 55 -72 21z m-54 -98 c9 -15 -60 -137 -106 -184
-68 -70 -118 -62 -118 19 1 74 104 173 181 173 21 0 40 -3 43 -8z"/>
<path d="M2869 1800 c-91 -60 -153 -204 -129 -299 23 -93 88 -140 172 -127 57
9 87 27 139 83 l45 48 70 0 c54 0 77 5 105 23 45 27 55 56 28 83 -20 20 -20
20 -53 0 -18 -12 -50 -21 -70 -21 l-36 0 0 49 c0 61 -13 97 -48 134 -63 67
-149 77 -223 27z m75 -186 c10 -16 30 -38 44 -50 21 -17 23 -24 13 -41 -15
-30 -73 -63 -109 -63 -43 0 -72 39 -72 97 0 55 18 99 61 148 l34 39 5 -50 c3
-28 14 -63 24 -80z"/>
<path d="M7155 1816 c-38 -16 -97 -82 -126 -138 -34 -66 -38 -164 -9 -223 25
-52 77 -85 133 -85 49 0 132 46 172 94 34 42 36 43 85 38 90 -8 182 45 165 96
-8 28 -39 33 -72 11 -15 -10 -44 -19 -64 -19 l-36 0 0 54 c0 134 -130 224
-248 172z m30 -87 c-4 -6 -4 -31 0 -55 5 -35 17 -56 51 -91 l44 -46 -41 -39
c-32 -31 -47 -38 -80 -38 -34 0 -42 5 -59 33 -37 59 -20 138 45 216 25 29 54
44 40 20z"/>
<path d="M3522 1790 c-89 -21 -123 -122 -91 -270 l11 -52 -56 -51 c-67 -64
-99 -129 -100 -210 -1 -53 2 -61 28 -84 25 -21 37 -24 78 -21 90 9 130 73 136
220 l4 97 54 20 c29 11 97 29 150 40 54 11 101 25 105 32 4 7 4 22 -1 33 -7
18 -15 21 -66 19 -33 -1 -98 -13 -145 -27 -48 -14 -93 -27 -100 -28 -10 -2
-17 16 -23 63 -11 81 -4 114 29 135 24 16 27 15 45 -1 11 -10 20 -26 20 -36 0
-10 9 -23 20 -29 44 -24 83 36 61 93 -17 44 -95 73 -159 57z"/>
<path d="M7782 1790 c-89 -21 -123 -122 -91 -270 l11 -52 -56 -51 c-67 -64
-99 -129 -100 -210 -1 -53 2 -61 28 -84 25 -21 37 -24 78 -21 90 9 130 73 136
220 l4 97 54 20 c29 11 97 29 150 40 54 11 101 25 105 32 4 7 4 22 -1 33 -7
18 -15 21 -66 19 -33 -1 -98 -13 -145 -27 -48 -14 -93 -27 -100 -28 -10 -2
-17 16 -23 63 -11 81 -4 114 29 135 24 16 27 15 45 -1 11 -10 20 -26 20 -36 0
-10 9 -23 20 -29 44 -24 83 36 61 93 -17 44 -95 73 -159 57z"/>
</g>
</svg>
