<?xml version="1.0" standalone="no"?>
<!DOCTYPE svg PUBLIC "-//W3C//DTD SVG 20010904//EN"
 "http://www.w3.org/TR/2001/REC-SVG-20010904/DTD/svg10.dtd">
<svg version="1.0" xmlns="http://www.w3.org/2000/svg"
 width="1000.000000pt" height="1000.000000pt" viewBox="0 0 1000.000000 1000.000000"
 preserveAspectRatio="xMidYMid meet">
<metadata>
Created by potrace 1.16, written by Peter Selinger 2001-2019
</metadata>
<g transform="translate(0.000000,1000.000000) scale(0.100000,-0.100000)"
fill="#ffffff" stroke="none">
<path d="M5050 9608 c0 -41 -18 -347 -24 -410 -5 -47 -4 -48 23 -48 28 0 29 2
34 68 4 37 9 123 13 192 l7 125 78 -159 c73 -149 97 -185 118 -172 4 3 51 73
102 155 52 82 95 148 96 147 1 -1 -2 -60 -7 -132 -5 -71 -10 -157 -10 -191 0
-60 1 -63 24 -63 23 0 25 5 30 63 6 64 26 378 26 410 0 13 -8 17 -32 17 -32 0
-37 -7 -137 -165 l-103 -165 -83 172 c-80 167 -94 186 -137 187 -14 1 -18 -7
-18 -31z"/>
<path d="M4477 9600 c-76 -10 -140 -20 -143 -22 -3 -3 8 -112 23 -242 26 -224
28 -236 48 -236 11 0 75 7 140 15 66 8 123 15 128 15 4 0 7 12 7 26 0 26 -1
27 -52 21 -29 -4 -83 -9 -119 -13 l-66 -6 -9 81 c-7 59 -7 82 2 85 6 2 48 8
93 11 77 7 81 9 81 31 0 21 -4 24 -37 23 -21 0 -64 -4 -95 -8 -65 -8 -61 -14
-74 100 l-6 56 116 13 c110 13 116 14 116 36 0 13 -3 25 -7 27 -5 2 -70 -4
-146 -13z"/>
<path d="M5955 9295 c-31 -130 -55 -238 -53 -240 2 -3 68 -20 145 -38 141 -34
141 -34 147 -13 7 28 3 30 -79 50 -38 9 -86 21 -106 27 l-37 9 20 80 c11 44
25 80 30 80 5 0 46 -9 90 -21 44 -11 81 -19 83 -17 1 2 6 13 9 25 7 20 2 23
-73 39 -44 9 -86 21 -92 25 -10 6 -9 24 5 83 10 42 19 76 21 76 2 0 51 -11
110 -25 58 -14 111 -23 116 -20 5 4 9 14 9 24 0 15 -23 24 -127 50 -71 18
-135 34 -144 37 -14 4 -26 -34 -74 -231z"/>
<path d="M3767 9466 c-92 -33 -129 -112 -91 -192 22 -45 54 -61 144 -69 106
-11 130 -25 130 -78 0 -65 -54 -104 -129 -93 -84 13 -86 12 -89 -11 -4 -30 30
-46 98 -46 68 0 133 31 160 76 24 39 26 106 5 147 -21 41 -57 57 -148 65 -90
9 -127 30 -127 75 0 20 10 37 32 55 30 25 37 27 94 22 60 -6 62 -5 67 18 4 21
-1 26 -32 35 -47 13 -68 12 -114 -4z"/>
<path d="M6683 9269 c-38 -24 -65 -86 -56 -131 4 -22 28 -52 75 -97 56 -53 68
-70 68 -96 0 -36 -29 -72 -64 -81 -36 -9 -110 28 -132 65 -19 33 -44 40 -62
18 -19 -22 32 -85 91 -113 87 -40 168 -25 207 38 48 78 39 112 -51 201 -60 59
-70 73 -67 100 7 74 98 87 161 22 37 -38 49 -42 66 -21 10 11 5 22 -21 52 -57
65 -151 84 -215 43z"/>
<path d="M7282 9047 c-23 -31 -20 -36 43 -73 36 -21 65 -42 65 -46 0 -5 -47
-88 -105 -184 -58 -97 -105 -179 -105 -183 0 -9 49 -36 53 -30 2 2 52 86 111
187 l109 182 31 -19 c97 -59 100 -60 113 -49 7 6 13 16 13 23 0 20 -317 206
-328 192z"/>
<path d="M2609 8975 c-158 -82 -180 -272 -47 -404 93 -94 238 -90 337 10 51
50 65 87 65 159 -1 105 -66 207 -156 244 -57 24 -144 20 -199 -9z m159 -40
c50 -21 79 -51 109 -109 47 -92 29 -178 -49 -232 -74 -52 -161 -41 -223 28
-107 117 -82 266 52 313 50 18 66 18 111 0z"/>
<path d="M7804 8463 c-77 -92 -147 -177 -156 -189 -17 -20 -16 -22 6 -43 l24
-22 62 75 c35 42 69 76 76 76 7 0 21 -11 31 -24 17 -21 18 -34 11 -141 -8
-114 -8 -119 13 -142 13 -12 26 -23 29 -23 4 0 11 59 15 131 6 110 9 130 22
125 90 -35 180 15 190 106 6 55 -25 103 -118 181 l-67 56 -138 -166z m217 28
c57 -56 62 -84 24 -129 -45 -53 -100 -48 -172 15 l-32 28 56 68 c30 37 60 67
66 67 5 0 32 -22 58 -49z"/>
<path d="M1944 8485 c-27 -14 -82 -55 -122 -93 l-73 -67 161 -183 161 -183 77
69 c42 39 85 78 94 89 49 54 62 166 29 239 -59 130 -208 189 -327 129z m164
-49 c35 -18 85 -72 106 -113 22 -44 21 -118 -3 -157 -11 -17 -44 -52 -73 -77
l-54 -47 -115 131 c-63 72 -118 137 -123 145 -10 17 29 60 93 103 50 33 122
39 169 15z"/>
<path d="M8316 7961 c-98 -87 -178 -162 -177 -167 1 -5 36 -49 79 -98 42 -48
85 -98 94 -109 16 -21 17 -21 37 -3 20 18 20 19 -55 104 -41 47 -73 90 -71 96
2 5 29 32 59 59 l56 49 35 -39 c18 -21 47 -53 63 -71 28 -33 30 -33 46 -15 16
18 14 22 -43 88 l-61 70 59 52 c32 29 61 53 64 53 3 0 38 -38 78 -85 41 -47
77 -85 81 -85 15 0 32 29 24 42 -7 12 -187 219 -188 217 -1 0 -81 -71 -180
-158z"/>
<path d="M1409 7969 c-6 -12 -7 -24 -2 -29 4 -4 67 -53 138 -110 72 -57 134
-106 138 -110 4 -4 -98 -5 -228 -2 -233 5 -265 1 -265 -29 0 -13 373 -308 382
-303 4 3 12 13 18 23 8 16 -9 33 -122 122 -72 57 -138 110 -147 117 -13 11 26
12 221 10 214 -3 239 -1 255 14 9 10 15 19 12 21 -54 47 -375 297 -380 297 -5
0 -13 -9 -20 -21z"/>
<path d="M5802 7759 c-57 -29 -92 -88 -92 -157 0 -43 -3 -52 -17 -52 -203 0
-2905 -69 -2910 -73 -1 -2 -32 -959 -68 -2128 -35 -1168 -68 -2215 -71 -2325
l-7 -201 174 -6 c96 -3 660 -37 1254 -76 594 -39 1323 -87 1619 -106 297 -20
541 -37 541 -38 1 -1 -23 -78 -54 -172 l-57 -170 -59 -3 c-98 -4 -107 -8 -103
-45 3 -32 3 -32 66 -35 44 -2 62 -7 62 -17 0 -7 -22 -85 -50 -172 -94 -300
-111 -430 -71 -520 28 -60 58 -76 134 -71 75 5 140 35 205 94 51 45 222 282
222 306 0 21 -21 38 -46 38 -17 0 -41 -27 -102 -112 -93 -132 -158 -200 -220
-230 -41 -19 -48 -20 -71 -7 -34 19 -51 54 -51 107 0 62 34 223 82 387 22 77
43 151 47 164 7 23 8 23 144 22 147 -2 177 5 177 42 0 42 -16 47 -153 47 -99
0 -128 3 -125 13 3 6 29 83 58 170 l53 157 41 0 c22 0 136 -7 251 -15 116 -8
227 -15 248 -15 l37 0 0 153 c0 150 1 154 23 164 50 24 117 96 149 161 l33 67
5 855 c6 1022 4 1075 -33 1152 -33 67 -119 151 -184 180 -26 12 -78 23 -115
26 l-68 5 0 1125 0 1125 -322 -7 c-178 -3 -389 -9 -470 -12 l-148 -7 0 42 c0
83 45 131 123 131 54 0 91 -27 103 -77 12 -51 36 -67 53 -35 12 23 -10 87 -44
122 -26 28 -83 50 -126 50 -13 0 -43 -10 -67 -21z m-2753 -551 c0 -79 -8 -432
-17 -786 -10 -369 -13 -643 -8 -645 5 -2 4 -12 -2 -22 -17 -31 -46 -1386 -30
-1396 8 -5 9 -11 1 -21 -6 -7 -13 -60 -16 -116 -5 -86 -4 -102 7 -93 10 8 16
8 25 -3 10 -12 8 -17 -7 -25 -11 -6 -22 -8 -24 -6 -5 5 -11 -211 -25 -792 -3
-161 -10 -293 -15 -293 -12 0 -12 2 23 1428 28 1112 30 1305 19 1312 -12 7
-12 10 1 15 13 5 16 29 18 143 1 75 8 387 16 692 8 305 15 599 15 653 0 58 4
97 10 97 6 0 10 -54 9 -142z m3175 -35 c10 -82 99 -1393 95 -1397 -7 -6 -1480
-38 -1486 -32 -11 11 -59 1378 -48 1381 5 2 195 15 420 29 226 15 431 30 458
33 l47 6 0 -189 c0 -177 2 -191 23 -228 30 -52 65 -77 120 -83 60 -7 110 11
146 52 44 50 51 90 51 287 0 202 -10 184 107 187 l61 1 6 -47z m-234 -153 c0
-154 -3 -197 -16 -221 -16 -32 -74 -63 -102 -55 -9 2 -30 7 -45 10 -21 5 -33
18 -47 49 -17 36 -20 66 -20 214 l0 172 53 5 c47 6 95 10 155 14 l22 2 0 -190z
m-1410 -4159 c0 -5 -9 -15 -21 -22 -18 -12 129 -14 998 -11 1105 2 1259 4
1286 16 16 8 17 -2 17 -126 l0 -134 -277 18 c-152 10 -281 22 -286 27 -5 5
-36 6 -70 4 -34 -3 -314 12 -622 31 -308 20 -942 61 -1410 91 -467 30 -863 56
-880 58 -16 2 250 5 593 5 503 2 622 4 622 15 0 7 5 18 12 25 14 14 38 16 38
3z"/>
<path d="M920 7280 c-6 -11 -8 -24 -5 -29 3 -5 58 -37 123 -72 145 -76 180
-102 198 -146 30 -71 -25 -159 -104 -170 -36 -5 -57 3 -196 76 l-155 82 -15
-28 -14 -28 146 -80 c123 -66 156 -79 204 -83 45 -3 64 0 97 19 56 31 94 91
99 156 9 111 -20 146 -209 248 -76 41 -143 75 -149 75 -5 0 -14 -9 -20 -20z"/>
<path d="M9091 7102 c-8 -6 -11 -17 -6 -31 5 -17 14 -21 46 -21 85 0 132 -100
74 -154 -50 -47 -109 -41 -315 29 -57 19 -112 33 -122 29 -15 -4 -8 -24 55
-150 39 -79 77 -144 83 -144 6 0 17 7 24 14 9 12 2 34 -39 113 -27 53 -49 98
-48 99 1 1 56 -15 122 -36 187 -61 263 -50 309 43 29 61 2 140 -65 189 -29 22
-97 33 -118 20z"/>
<path d="M580 6510 c-49 -49 -86 -158 -76 -222 20 -125 127 -208 265 -208 105
1 180 57 220 165 20 54 27 127 15 171 -4 15 -26 27 -88 47 -45 15 -85 27 -88
27 -4 0 -16 -30 -28 -66 -19 -55 -20 -68 -9 -75 21 -13 32 -6 43 28 15 44 17
45 69 27 52 -17 63 -36 52 -92 -28 -150 -157 -212 -295 -142 -115 59 -132 208
-34 306 30 30 33 36 22 54 -17 27 -22 26 -68 -20z"/>
<path d="M9240 6440 c-70 -26 -128 -66 -158 -110 -20 -29 -23 -45 -20 -91 7
-101 68 -152 180 -151 70 0 172 33 226 73 43 31 82 98 82 140 0 36 -40 109
-73 133 -41 30 -163 33 -237 6z m217 -56 c34 -21 48 -76 29 -116 -30 -63 -148
-119 -254 -122 -60 -1 -65 1 -93 32 -64 72 -18 155 111 199 99 34 160 36 207
7z"/>
<path d="M355 5768 c-7 -23 -43 -273 -39 -277 2 -2 110 -20 240 -41 159 -25
237 -33 239 -26 6 20 45 279 43 281 -2 2 -13 5 -24 9 -25 8 -27 4 -46 -128 -7
-50 -18 -90 -25 -93 -13 -5 -142 13 -150 21 -3 3 0 44 7 91 7 47 11 88 9 90
-2 2 -13 5 -24 7 -17 3 -21 -7 -34 -87 -7 -49 -15 -91 -16 -93 -3 -3 -147 19
-156 24 -5 3 7 96 26 202 5 29 4 32 -20 32 -14 0 -27 -6 -30 -12z"/>
<path d="M9552 5755 c2 -23 10 -31 35 -37 71 -18 100 -116 47 -157 -34 -27
-93 -27 -144 -1 -22 11 -90 56 -152 100 -61 44 -115 80 -120 80 -5 0 -11 -6
-14 -13 -5 -13 39 -303 47 -312 3 -2 15 -2 27 2 22 5 23 9 16 62 -4 31 -12 82
-19 113 -8 39 -8 55 -1 51 6 -4 52 -34 101 -68 119 -83 146 -95 200 -95 85 0
135 50 135 135 0 86 -49 150 -126 162 -34 6 -35 5 -32 -22z"/>
<path d="M558 5055 c-30 -17 -47 -44 -78 -129 -24 -63 -62 -100 -94 -90 -61
19 -79 77 -46 150 20 46 20 49 4 61 -55 40 -100 -129 -54 -204 27 -45 64 -66
115 -66 72 0 94 21 136 136 35 97 80 120 138 71 27 -22 31 -32 31 -75 0 -33
-8 -63 -22 -90 -22 -39 -23 -40 -4 -54 24 -18 31 -13 58 38 30 58 31 154 2
193 -48 65 -130 91 -186 59z"/>
<path d="M9614 5045 c-3 -8 10 -33 30 -58 20 -24 36 -47 36 -51 0 -3 -81 -6
-180 -6 l-180 0 0 55 c0 48 -2 55 -20 55 -19 0 -20 -7 -20 -134 0 -129 1 -134
20 -129 16 4 20 14 20 49 l0 44 148 0 c82 0 183 3 225 6 68 6 77 9 77 27 0 23
-116 157 -136 157 -8 0 -17 -7 -20 -15z"/>
<path d="M2240 2450 c-19 -19 -20 -24 -7 -43 14 -21 22 -22 191 -25 148 -2
176 -5 176 -17 0 -29 -110 -492 -200 -838 -95 -370 -97 -387 -44 -387 16 0 28
8 34 22 21 49 216 834 270 1083 12 55 24 108 26 118 5 15 22 17 169 17 135 0
166 3 179 16 18 18 20 32 6 54 -8 13 -65 15 -394 18 -380 3 -386 2 -406 -18z"/>
<path d="M3182 2067 c-13 -15 -171 -479 -179 -524 -4 -28 -2 -33 21 -39 35 -8
50 6 77 74 40 103 110 230 151 277 58 65 107 88 189 87 71 -2 94 10 87 45 -5
26 -46 43 -110 43 -45 0 -70 -7 -123 -35 -73 -38 -69 -41 -49 31 10 38 -40 70
-64 41z"/>
<path d="M4604 2058 c-5 -7 -9 -46 -11 -88 -3 -98 -23 -187 -84 -367 l-49
-148 21 -17 c12 -10 25 -18 29 -18 23 0 44 44 90 193 29 89 61 181 72 205 24
49 80 102 108 102 42 0 37 -69 -21 -286 -34 -131 -35 -150 -9 -164 37 -20 54
2 83 107 36 128 106 271 161 328 47 49 53 52 82 31 17 -13 19 -26 17 -113 -1
-115 -32 -245 -88 -380 -48 -113 -50 -126 -30 -147 28 -28 48 -15 82 54 76
153 122 339 123 494 0 111 -22 165 -76 191 -57 27 -99 13 -161 -50 l-53 -54
-15 29 c-33 64 -103 77 -163 30 l-27 -22 -8 38 c-4 21 -12 43 -18 51 -14 16
-45 17 -55 1z"/>
<path d="M4172 2030 c-15 -27 -20 -29 -47 -23 -16 5 -55 8 -85 7 -154 -1 -320
-160 -320 -306 0 -93 63 -168 149 -175 39 -4 53 0 94 27 26 18 60 48 74 67
l27 35 18 -51 c21 -56 63 -95 115 -106 66 -14 166 57 241 170 42 64 41 99 -5
103 -25 2 -34 -2 -44 -20 -26 -49 -90 -125 -114 -136 -63 -29 -111 -5 -121 59
-8 47 19 156 61 246 41 89 42 97 13 117 -31 22 -36 20 -56 -14z m-83 -101 l31
-11 -37 -71 c-68 -129 -160 -227 -213 -227 -59 0 -68 123 -16 199 34 48 86 90
135 107 45 16 60 17 100 3z"/>
<path d="M6812 2045 c-90 -39 -167 -146 -192 -267 -30 -148 56 -261 197 -259
81 1 156 45 254 150 81 86 100 121 82 150 -17 27 -41 24 -70 -11 -126 -146
-198 -201 -268 -202 -55 -1 -95 27 -113 79 -15 47 -6 60 50 69 172 28 285 190
197 284 -24 26 -86 29 -137 7z"/>
<path d="M5561 2006 c-17 -20 -90 -203 -106 -267 -30 -113 -13 -184 51 -214
43 -20 52 -19 112 11 33 16 80 56 130 109 93 99 122 147 106 173 -23 35 -53
20 -123 -63 -103 -123 -187 -176 -205 -130 -10 27 13 117 64 243 40 97 48 127
39 138 -15 18 -53 18 -68 0z"/>
<path d="M7400 1993 c-69 -26 -109 -95 -110 -189 0 -53 13 -150 26 -195 3 -10
-16 -31 -55 -62 -48 -37 -66 -60 -97 -122 -31 -63 -38 -87 -38 -140 -1 -56 2
-68 25 -90 27 -27 82 -41 123 -31 39 10 87 56 110 106 15 34 21 74 26 164 l5
119 65 23 c36 12 112 32 170 44 58 12 115 26 128 31 27 11 29 40 3 63 -17 16
-26 16 -78 6 -92 -18 -214 -52 -260 -71 -49 -21 -47 -24 -63 88 -9 62 -9 86 2
116 28 82 107 87 128 7 9 -34 15 -40 38 -40 38 0 52 17 52 65 0 49 -18 77 -64
99 -33 15 -105 20 -136 9z m-72 -576 c-6 -96 -26 -144 -65 -153 -53 -14 -70
55 -32 132 18 38 79 104 96 104 3 0 3 -37 1 -83z"/>
</g>
</svg>
