<?xml version="1.0" standalone="no"?>
<!DOCTYPE svg PUBLIC "-//W3C//DTD SVG 20010904//EN"
 "http://www.w3.org/TR/2001/REC-SVG-20010904/DTD/svg10.dtd">
<svg version="1.0" xmlns="http://www.w3.org/2000/svg"
 width="1000.000000pt" height="1000.000000pt" viewBox="0 0 1000.000000 1000.000000"
 preserveAspectRatio="xMidYMid meet">
<metadata>
Created by potrace 1.16, written by Peter Selinger 2001-2019
</metadata>
<g transform="translate(0.000000,1000.000000) scale(0.100000,-0.100000)"
fill="#ffffff" stroke="none">
<path d="M5802 7759 c-57 -29 -92 -88 -92 -157 0 -43 -3 -52 -17 -52 -203 0
-2905 -69 -2910 -73 -1 -2 -32 -959 -68 -2128 -35 -1168 -68 -2215 -71 -2325
l-7 -201 174 -6 c96 -3 660 -37 1254 -76 594 -39 1323 -87 1619 -106 297 -20
541 -37 541 -38 1 -1 -23 -78 -54 -172 l-57 -170 -59 -3 c-98 -4 -107 -8 -103
-45 3 -32 3 -32 66 -35 44 -2 62 -7 62 -17 0 -7 -22 -85 -50 -172 -94 -300
-111 -430 -71 -520 28 -60 58 -76 134 -71 75 5 140 35 205 94 51 45 222 282
222 306 0 21 -21 38 -46 38 -17 0 -41 -27 -102 -112 -93 -132 -158 -200 -220
-230 -41 -19 -48 -20 -71 -7 -34 19 -51 54 -51 107 0 62 34 223 82 387 22 77
43 151 47 164 7 23 8 23 144 22 147 -2 177 5 177 42 0 42 -16 47 -153 47 -99
0 -128 3 -125 13 3 6 29 83 58 170 l53 157 41 0 c22 0 136 -7 251 -15 116 -8
227 -15 248 -15 l37 0 0 153 c0 150 1 154 23 164 50 24 117 96 149 161 l33 67
5 855 c6 1022 4 1075 -33 1152 -33 67 -119 151 -184 180 -26 12 -78 23 -115
26 l-68 5 0 1125 0 1125 -322 -7 c-178 -3 -389 -9 -470 -12 l-148 -7 0 42 c0
83 45 131 123 131 54 0 91 -27 103 -77 12 -51 36 -67 53 -35 12 23 -10 87 -44
122 -26 28 -83 50 -126 50 -13 0 -43 -10 -67 -21z m-2753 -551 c0 -79 -8 -432
-17 -786 -10 -369 -13 -643 -8 -645 5 -2 4 -12 -2 -22 -17 -31 -46 -1386 -30
-1396 8 -5 9 -11 1 -21 -6 -7 -13 -60 -16 -116 -5 -86 -4 -102 7 -93 10 8 16
8 25 -3 10 -12 8 -17 -7 -25 -11 -6 -22 -8 -24 -6 -5 5 -11 -211 -25 -792 -3
-161 -10 -293 -15 -293 -12 0 -12 2 23 1428 28 1112 30 1305 19 1312 -12 7
-12 10 1 15 13 5 16 29 18 143 1 75 8 387 16 692 8 305 15 599 15 653 0 58 4
97 10 97 6 0 10 -54 9 -142z m3175 -35 c10 -82 99 -1393 95 -1397 -7 -6 -1480
-38 -1486 -32 -11 11 -59 1378 -48 1381 5 2 195 15 420 29 226 15 431 30 458
33 l47 6 0 -189 c0 -177 2 -191 23 -228 30 -52 65 -77 120 -83 60 -7 110 11
146 52 44 50 51 90 51 287 0 202 -10 184 107 187 l61 1 6 -47z m-234 -153 c0
-154 -3 -197 -16 -221 -16 -32 -74 -63 -102 -55 -9 2 -30 7 -45 10 -21 5 -33
18 -47 49 -17 36 -20 66 -20 214 l0 172 53 5 c47 6 95 10 155 14 l22 2 0 -190z
m-1410 -4159 c0 -5 -9 -15 -21 -22 -18 -12 129 -14 998 -11 1105 2 1259 4
1286 16 16 8 17 -2 17 -126 l0 -134 -277 18 c-152 10 -281 22 -286 27 -5 5
-36 6 -70 4 -34 -3 -314 12 -622 31 -308 20 -942 61 -1410 91 -467 30 -863 56
-880 58 -16 2 250 5 593 5 503 2 622 4 622 15 0 7 5 18 12 25 14 14 38 16 38
3z"/>
<path d="M2240 2450 c-19 -19 -20 -24 -7 -43 14 -21 22 -22 191 -25 148 -2
176 -5 176 -17 0 -29 -110 -492 -200 -838 -95 -370 -97 -387 -44 -387 16 0 28
8 34 22 21 49 216 834 270 1083 12 55 24 108 26 118 5 15 22 17 169 17 135 0
166 3 179 16 18 18 20 32 6 54 -8 13 -65 15 -394 18 -380 3 -386 2 -406 -18z"/>
<path d="M3182 2067 c-13 -15 -171 -479 -179 -524 -4 -28 -2 -33 21 -39 35 -8
50 6 77 74 40 103 110 230 151 277 58 65 107 88 189 87 71 -2 94 10 87 45 -5
26 -46 43 -110 43 -45 0 -70 -7 -123 -35 -73 -38 -69 -41 -49 31 10 38 -40 70
-64 41z"/>
<path d="M4604 2058 c-5 -7 -9 -46 -11 -88 -3 -98 -23 -187 -84 -367 l-49
-148 21 -17 c12 -10 25 -18 29 -18 23 0 44 44 90 193 29 89 61 181 72 205 24
49 80 102 108 102 42 0 37 -69 -21 -286 -34 -131 -35 -150 -9 -164 37 -20 54
2 83 107 36 128 106 271 161 328 47 49 53 52 82 31 17 -13 19 -26 17 -113 -1
-115 -32 -245 -88 -380 -48 -113 -50 -126 -30 -147 28 -28 48 -15 82 54 76
153 122 339 123 494 0 111 -22 165 -76 191 -57 27 -99 13 -161 -50 l-53 -54
-15 29 c-33 64 -103 77 -163 30 l-27 -22 -8 38 c-4 21 -12 43 -18 51 -14 16
-45 17 -55 1z"/>
<path d="M4172 2030 c-15 -27 -20 -29 -47 -23 -16 5 -55 8 -85 7 -154 -1 -320
-160 -320 -306 0 -93 63 -168 149 -175 39 -4 53 0 94 27 26 18 60 48 74 67
l27 35 18 -51 c21 -56 63 -95 115 -106 66 -14 166 57 241 170 42 64 41 99 -5
103 -25 2 -34 -2 -44 -20 -26 -49 -90 -125 -114 -136 -63 -29 -111 -5 -121 59
-8 47 19 156 61 246 41 89 42 97 13 117 -31 22 -36 20 -56 -14z m-83 -101 l31
-11 -37 -71 c-68 -129 -160 -227 -213 -227 -59 0 -68 123 -16 199 34 48 86 90
135 107 45 16 60 17 100 3z"/>
<path d="M6812 2045 c-90 -39 -167 -146 -192 -267 -30 -148 56 -261 197 -259
81 1 156 45 254 150 81 86 100 121 82 150 -17 27 -41 24 -70 -11 -126 -146
-198 -201 -268 -202 -55 -1 -95 27 -113 79 -15 47 -6 60 50 69 172 28 285 190
197 284 -24 26 -86 29 -137 7z"/>
<path d="M5561 2006 c-17 -20 -90 -203 -106 -267 -30 -113 -13 -184 51 -214
43 -20 52 -19 112 11 33 16 80 56 130 109 93 99 122 147 106 173 -23 35 -53
20 -123 -63 -103 -123 -187 -176 -205 -130 -10 27 13 117 64 243 40 97 48 127
39 138 -15 18 -53 18 -68 0z"/>
<path d="M7400 1993 c-69 -26 -109 -95 -110 -189 0 -53 13 -150 26 -195 3 -10
-16 -31 -55 -62 -48 -37 -66 -60 -97 -122 -31 -63 -38 -87 -38 -140 -1 -56 2
-68 25 -90 27 -27 82 -41 123 -31 39 10 87 56 110 106 15 34 21 74 26 164 l5
119 65 23 c36 12 112 32 170 44 58 12 115 26 128 31 27 11 29 40 3 63 -17 16
-26 16 -78 6 -92 -18 -214 -52 -260 -71 -49 -21 -47 -24 -63 88 -9 62 -9 86 2
116 28 82 107 87 128 7 9 -34 15 -40 38 -40 38 0 52 17 52 65 0 49 -18 77 -64
99 -33 15 -105 20 -136 9z m-72 -576 c-6 -96 -26 -144 -65 -153 -53 -14 -70
55 -32 132 18 38 79 104 96 104 3 0 3 -37 1 -83z"/>
</g>
</svg>
