<?xml version="1.0" standalone="no"?>
<!DOCTYPE svg PUBLIC "-//W3C//DTD SVG 20010904//EN"
 "http://www.w3.org/TR/2001/REC-SVG-20010904/DTD/svg10.dtd">
<svg version="1.0" xmlns="http://www.w3.org/2000/svg"
 width="500.000000pt" height="500.000000pt" viewBox="0 0 500.000000 500.000000"
 preserveAspectRatio="xMidYMid meet">

<g transform="translate(0.000000,500.000000) scale(0.100000,-0.100000)"
fill="#ffffff" stroke="none">
<path d="M2887 3870 c-15 -12 -29 -36 -33 -55 -5 -29 -11 -35 -38 -39 -17 -3
-186 -8 -376 -11 -335 -5 -1043 -25 -1047 -29 -3 -3 -74 -2318 -71 -2321 2 -1
165 -12 363 -24 711 -44 1419 -92 1423 -96 2 -2 -8 -40 -23 -84 -24 -72 -29
-81 -51 -81 -14 0 -34 -5 -45 -11 -16 -8 -18 -13 -8 -25 6 -8 22 -14 35 -14
13 0 24 -3 24 -6 0 -4 -14 -50 -31 -103 -66 -205 -43 -300 65 -270 47 13 87
48 141 124 49 69 54 85 26 85 -11 0 -34 -23 -60 -59 -50 -72 -95 -111 -126
-111 -53 0 -52 64 7 267 l21 72 76 3 c63 3 76 6 79 21 3 15 -5 17 -62 17 -36
0 -67 4 -70 9 -10 15 51 166 67 165 7 -1 73 -5 145 -9 l132 -7 0 76 c0 75 1
77 34 107 67 58 67 58 64 600 l-3 486 -28 36 c-33 43 -93 77 -137 77 l-30 0 0
563 0 563 -235 -4 -235 -5 0 25 c0 59 83 79 108 26 7 -16 17 -28 23 -28 18 0
9 41 -16 65 -30 31 -73 32 -108 5z m-1360 -232 c-3 -7 -5 -2 -5 12 0 14 2 19
5 13 2 -7 2 -19 0 -25z m1598 2 c-3 -5 -11 -10 -16 -10 -6 0 -7 5 -4 10 3 6
11 10 16 10 6 0 7 -4 4 -10z m92 -22 c-3 -8 -6 -5 -6 6 -1 11 2 17 5 13 3 -3
4 -12 1 -19z m-103 -75 c15 -160 46 -646 42 -650 -4 -4 -527 -22 -672 -23
l-70 0 -13 341 c-7 188 -10 343 -8 346 5 4 365 33 425 33 l32 0 0 -79 c0 -102
13 -139 56 -157 37 -15 58 -11 92 19 20 19 22 29 22 122 0 56 3 105 7 108 3 4
23 7 44 7 l37 0 6 -67z m-114 -29 c0 -105 -17 -143 -62 -144 -10 0 -27 9 -38
20 -17 17 -20 33 -20 115 l0 95 60 0 60 0 0 -86z m-1483 -201 c-1 -49 -3 -9
-3 87 0 96 2 136 3 88 2 -49 2 -127 0 -175z m1660 235 c-3 -8 -6 -5 -6 6 -1
11 2 17 5 13 3 -3 4 -12 1 -19z m-7 -28 c0 -5 -4 -12 -10 -15 -5 -3 -10 -4
-10 -1 0 2 -3 12 -6 20 -5 12 -2 15 10 10 9 -3 16 -10 16 -14z m-1293 -16 c-3
-3 -12 -4 -19 -1 -8 3 -5 6 6 6 11 1 17 -2 13 -5z m273 -75 c0 -5 -4 -9 -10
-9 -5 0 -10 7 -10 16 0 8 5 12 10 9 6 -3 10 -10 10 -16z m-365 1 c3 -5 1 -10
-4 -10 -6 0 -11 5 -11 10 0 6 2 10 4 10 3 0 8 -4 11 -10z m125 -20 c0 -5 -2
-10 -4 -10 -3 0 -8 5 -11 10 -3 6 -1 10 4 10 6 0 11 -4 11 -10z m1420 -10 c0
-5 -4 -10 -10 -10 -5 0 -10 5 -10 10 0 6 5 10 10 10 6 0 10 -4 10 -10z m-1438
-25 c0 -5 -5 -11 -11 -13 -6 -2 -11 4 -11 13 0 9 5 15 11 13 6 -2 11 -8 11
-13z m1339 -68 c-13 -13 -15 11 -4 40 7 16 8 15 11 -6 2 -13 -1 -28 -7 -34z
m-1346 -55 c-3 -3 -11 0 -18 7 -9 10 -8 11 6 5 10 -3 15 -9 12 -12z m-376
-254 c-1 -95 -4 -163 -7 -150 -8 25 -4 322 4 322 2 0 4 -78 3 -172z m551 141
c0 -11 -4 -18 -10 -14 -5 3 -7 12 -3 20 7 21 13 19 13 -6z m-580 -3 c0 -3 -4
-8 -10 -11 -5 -3 -10 -1 -10 4 0 6 5 11 10 11 6 0 10 -2 10 -4z m677 -68 c-3
-8 -6 -5 -6 6 -1 11 2 17 5 13 3 -3 4 -12 1 -19z m-397 -8 c0 -5 -2 -10 -4
-10 -3 0 -8 5 -11 10 -3 6 -1 10 4 10 6 0 11 -4 11 -10z m-130 -36 c0 -8 -7
-14 -15 -14 -17 0 -18 2 -9 24 7 18 24 12 24 -10z m70 -14 c0 -5 -4 -10 -9
-10 -6 0 -13 5 -16 10 -3 6 1 10 9 10 9 0 16 -4 16 -10z m8 -122 c-3 -7 -13
-15 -24 -17 -16 -3 -17 -1 -5 13 16 19 34 21 29 4z m-106 -70 c-7 -7 -12 -8
-12 -2 0 14 12 26 19 19 2 -3 -1 -11 -7 -17z m388 12 c0 -5 -5 -10 -11 -10 -5
0 -7 5 -4 10 3 6 8 10 11 10 2 0 4 -4 4 -10z m820 -27 c0 -13 -3 -13 -15 -3
-8 7 -12 16 -9 21 8 13 24 1 24 -18z m-555 -23 c-3 -5 -11 -10 -16 -10 -6 0
-7 5 -4 10 3 6 11 10 16 10 6 0 7 -4 4 -10z m-758 -272 c-1 -51 -3 -12 -3 87
0 99 2 141 3 93 2 -48 2 -129 0 -180z m1573 245 c0 -5 -5 -15 -10 -23 -7 -12
-12 -12 -22 -2 -10 10 -10 15 2 22 18 12 30 13 30 3z m-9 -146 c-8 -8 -11 -7
-11 4 0 20 13 34 18 19 3 -7 -1 -17 -7 -23z m-551 -32 c-7 -9 -15 -13 -18 -10
-3 2 1 11 8 20 7 9 15 13 18 10 3 -2 -1 -11 -8 -20z m-4 -62 c-7 -7 -26 7 -26
19 0 6 6 6 15 -2 9 -7 13 -15 11 -17z m584 -28 c-13 -16 -40 -21 -40 -7 0 10
42 32 49 26 2 -2 -2 -10 -9 -19z m160 -105 c0 -5 -5 -10 -11 -10 -5 0 -7 5 -4
10 3 6 8 10 11 10 2 0 4 -4 4 -10z m-1759 -161 c0 -85 5 -149 11 -156 7 -9 7
-13 0 -13 -6 0 -13 -8 -15 -17 -3 -10 -5 63 -6 161 0 99 1 177 4 174 3 -2 5
-69 6 -149z m849 141 c0 -5 -4 -10 -9 -10 -6 0 -13 5 -16 10 -3 6 1 10 9 10 9
0 16 -4 16 -10z m170 -110 c0 -5 -2 -10 -4 -10 -3 0 -8 5 -11 10 -3 6 -1 10 4
10 6 0 11 -4 11 -10z m121 -57 c13 -15 11 -16 -11 -10 -14 4 -31 7 -38 7 -7 0
-10 5 -7 10 10 16 41 12 56 -7z m67 -45 c14 -14 16 -28 2 -28 -5 0 -14 9 -20
20 -12 22 -1 27 18 8z m179 -15 c-9 -9 -20 -13 -24 -9 -4 4 -1 11 7 16 25 16
35 11 17 -7z m-1193 -78 c-7 -16 -44 -21 -44 -6 0 8 16 16 42 20 4 0 5 -6 2
-14z m111 -45 c3 -5 1 -10 -4 -10 -6 0 -11 5 -11 10 0 6 2 10 4 10 3 0 8 -4
11 -10z m357 -12 c-7 -7 -12 -8 -12 -2 0 6 3 14 7 17 3 4 9 5 12 2 2 -3 -1
-11 -7 -17z m-675 -290 c-1 -51 -3 -12 -3 87 0 99 2 141 3 93 2 -48 2 -129 0
-180z m1433 252 c0 -5 -5 -10 -11 -10 -5 0 -7 5 -4 10 3 6 8 10 11 10 2 0 4
-4 4 -10z m-1395 -20 c3 -5 1 -10 -4 -10 -6 0 -11 5 -11 10 0 6 2 10 4 10 3 0
8 -4 11 -10z m1305 -70 c0 -5 -5 -10 -11 -10 -5 0 -7 5 -4 10 3 6 8 10 11 10
2 0 4 -4 4 -10z m170 -30 c0 -5 -2 -10 -4 -10 -3 0 -8 5 -11 10 -3 6 -1 10 4
10 6 0 11 -4 11 -10z m-819 -87 c-8 -15 -10 -15 -11 -2 0 17 10 32 18 25 2 -3
-1 -13 -7 -23z m349 17 c0 -5 -4 -10 -9 -10 -6 0 -13 5 -16 10 -3 6 1 10 9 10
9 0 16 -4 16 -10z m98 -65 c-10 -22 -13 -23 -20 -10 -11 18 -2 35 17 35 12 0
12 -5 3 -25z m102 -39 c0 -3 -4 -8 -10 -11 -5 -3 -10 -1 -10 4 0 6 5 11 10 11
6 0 10 -2 10 -4z m252 -68 c-7 -7 -12 -8 -12 -2 0 14 12 26 19 19 2 -3 -1 -11
-7 -17z m-1468 -23 c3 -8 1 -15 -3 -15 -5 0 -11 7 -15 15 -3 8 -1 15 3 15 5 0
11 -7 15 -15z m-37 -52 c-3 -10 -5 -2 -5 17 0 19 2 27 5 18 2 -10 2 -26 0 -35z
m47 -59 c9 -22 -3 -32 -14 -14 -12 19 -12 30 -1 30 5 0 12 -7 15 -16z m221
-10 c-23 -17 -32 -10 -15 11 7 8 17 12 23 8 6 -4 3 -11 -8 -19z m509 11 c-4
-8 -10 -15 -15 -15 -4 0 -6 7 -3 15 4 8 10 15 15 15 4 0 6 -7 3 -15z m42 -41
c-6 -15 42 -16 561 -9 313 4 571 9 576 12 4 2 7 -28 7 -67 l0 -71 -47 5 c-61
7 -210 18 -288 21 -33 2 -361 23 -730 47 l-670 43 281 3 c235 2 284 5 294 17
16 20 24 19 16 -1z m239 6 c3 -5 1 -10 -4 -10 -6 0 -11 5 -11 10 0 6 2 10 4
10 3 0 8 -4 11 -10z"/>
<path d="M2748 3353 c23 -2 59 -2 80 0 20 2 1 4 -43 4 -44 0 -61 -2 -37 -4z"/>
<path d="M2578 3343 c23 -2 61 -2 85 0 23 2 4 4 -43 4 -47 0 -66 -2 -42 -4z"/>
<path d="M2773 3303 c26 -2 67 -2 90 0 23 2 2 3 -48 3 -49 0 -68 -1 -42 -3z"/>
<path d="M2578 3293 c29 -2 74 -2 100 0 26 2 2 3 -53 3 -55 0 -76 -1 -47 -3z"/>
<path d="M2552 3250 c15 -4 76 -10 135 -13 100 -5 102 -5 28 3 -154 17 -191
19 -163 10z"/>
<path d="M2801 3226 c2 -2 38 -6 79 -8 42 -3 64 -2 50 2 -25 8 -137 13 -129 6z"/>
<path d="M1117 1224 c-3 -3 -3 -12 0 -20 4 -11 27 -14 95 -14 l90 0 -6 -37
c-4 -21 -36 -156 -73 -301 -48 -194 -62 -267 -54 -275 7 -7 14 -7 20 -1 10 9
118 428 141 547 l14 67 88 0 c81 0 88 2 88 20 0 19 -7 20 -198 20 -109 0 -201
-3 -205 -6z"/>
<path d="M2811 1101 c-8 -5 -10 -14 -7 -20 9 -13 33 -15 40 -2 9 14 -18 31
-33 22z"/>
<path d="M2028 1070 c-18 -16 -27 -30 -20 -30 18 0 72 38 72 51 0 17 -19 9
-52 -21z"/>
<path d="M1586 1028 c-89 -270 -91 -278 -65 -278 5 0 27 38 49 85 48 101 86
135 148 135 35 0 42 3 42 20 0 14 -7 20 -22 22 -42 2 -73 -3 -95 -18 -29 -18
-29 -18 -28 13 0 28 -22 44 -29 21z"/>
<path d="M2085 1018 c-4 -10 -22 -14 -59 -14 -43 1 -59 -4 -90 -28 -74 -56
-96 -128 -55 -180 27 -35 76 -35 117 -1 36 30 38 30 45 6 7 -29 50 -53 81 -45
32 8 106 87 106 114 0 32 -23 23 -63 -25 -43 -51 -60 -55 -83 -20 -16 24 -15
29 5 88 13 34 23 73 24 86 2 26 -20 41 -28 19z m-37 -56 c9 -6 2 -24 -27 -69
-59 -92 -111 -110 -111 -39 0 68 90 138 138 108z"/>
<path d="M2296 973 c-3 -32 -20 -100 -37 -151 -22 -67 -28 -97 -21 -104 20
-20 38 8 66 102 29 92 56 140 82 140 20 0 18 -51 -6 -139 -14 -50 -18 -77 -11
-84 15 -15 38 8 45 48 11 55 74 173 98 181 23 7 38 -9 38 -42 0 -43 -23 -141
-47 -198 -40 -96 -9 -124 33 -30 51 117 68 268 35 308 -20 23 -65 19 -98 -8
-29 -24 -30 -25 -46 -5 -18 20 -52 25 -62 9 -10 -16 -22 -12 -28 10 -3 11 -12
20 -20 20 -10 0 -16 -17 -21 -57z"/>
<path d="M3379 1003 c-39 -33 -68 -95 -69 -146 0 -29 7 -46 29 -68 34 -34 74
-38 127 -13 37 18 114 99 114 120 0 31 -25 25 -57 -14 -38 -46 -91 -82 -120
-82 -23 0 -53 30 -53 53 0 11 14 20 42 27 48 13 98 59 98 90 0 63 -55 80 -111
33z m71 -26 c0 -16 -37 -51 -62 -60 -27 -9 -22 13 9 45 28 30 53 37 53 15z"/>
<path d="M2756 945 c-37 -92 -43 -141 -21 -165 34 -37 71 -26 136 40 32 33 59
67 59 75 0 33 -25 23 -80 -35 -33 -34 -65 -60 -72 -57 -19 6 -12 58 17 129 14
33 22 64 19 69 -14 23 -34 3 -58 -56z"/>
<path d="M3678 980 c-31 -24 -39 -59 -27 -128 8 -53 8 -54 -30 -90 -50 -48
-72 -112 -50 -151 21 -38 62 -40 98 -4 21 22 30 42 35 86 4 31 5 61 1 66 -8
15 24 29 112 50 51 12 78 23 78 32 0 21 -43 21 -120 0 -52 -15 -72 -17 -77 -8
-14 22 -9 104 7 117 19 16 45 6 52 -21 8 -28 37 -20 41 13 6 52 -72 77 -120
38z m-29 -336 c-39 -47 -56 32 -16 82 l22 29 3 -48 c2 -27 -2 -55 -9 -63z"/>
</g>
</svg>
