<?xml version="1.0" standalone="no"?>
<!DOCTYPE svg PUBLIC "-//W3C//DTD SVG 20010904//EN"
 "http://www.w3.org/TR/2001/REC-SVG-20010904/DTD/svg10.dtd">
<svg version="1.0" xmlns="http://www.w3.org/2000/svg"
 width="564.000000pt" height="188.000000pt" viewBox="0 0 564.000000 188.000000"
 preserveAspectRatio="xMidYMid meet">

<g transform="translate(0.000000,188.000000) scale(0.100000,-0.100000)"
fill="#000000" stroke="none">
<path d="M240 1801 c0 -6 12 -11 26 -11 28 0 65 -16 76 -34 4 -6 8 -151 8
-323 0 -311 0 -312 -22 -327 -12 -9 -37 -16 -55 -16 -18 0 -33 -4 -33 -10 0
-6 65 -10 175 -10 110 0 175 4 175 10 0 6 -17 10 -38 10 -72 0 -77 10 -80 174
l-3 146 44 0 45 0 136 -170 136 -170 110 0 c67 0 110 4 110 10 0 6 -9 10 -20
10 -32 0 -92 28 -124 58 -16 15 -74 83 -129 152 -97 121 -99 124 -76 133 79
30 103 44 129 74 39 44 54 101 40 152 -15 55 -43 86 -108 118 -57 28 -58 28
-289 31 -164 3 -233 1 -233 -7z m410 -53 c55 -29 81 -64 87 -120 12 -102 -79
-178 -213 -178 l-54 0 0 154 0 155 28 4 c68 10 110 6 152 -15z"/>
<path d="M910 1756 l0 -56 40 0 c31 0 43 5 56 24 13 22 14 29 2 53 -11 23 -20
29 -56 31 l-42 3 0 -55z m71 34 c21 -12 25 -50 7 -68 -7 -7 -22 -12 -35 -12
-21 0 -23 5 -23 45 0 48 11 56 51 35z"/>
<path d="M1403 1796 c-12 -21 -4 -94 11 -99 9 -4 11 11 9 50 -3 62 -7 72 -20
49z"/>
<path d="M2150 1790 c0 -13 -5 -18 -15 -14 -21 9 -45 -14 -45 -42 0 -28 23
-43 56 -36 22 4 24 9 24 58 0 30 -4 54 -10 54 -5 0 -10 -9 -10 -20z m-2 -53
c3 -22 -1 -27 -18 -27 -26 0 -37 25 -20 45 18 22 34 13 38 -18z"/>
<path d="M2360 1790 c-43 -43 -11 -120 49 -120 41 0 81 35 81 70 0 58 -88 92
-130 50z"/>
<path d="M1889 1788 c-3 -38 4 -84 14 -90 18 -11 20 -2 5 21 -9 16 -10 25 -2
39 9 13 8 20 -2 30 -11 10 -14 10 -15 0z"/>
<path d="M3207 1749 c-21 -55 -74 -119 -122 -149 -46 -28 -44 -40 5 -40 l40 0
0 -192 c0 -106 5 -210 11 -230 12 -45 49 -68 110 -68 36 0 48 6 88 46 48 49
44 72 -7 34 -16 -12 -40 -20 -53 -18 -42 6 -49 38 -49 241 l0 187 65 0 c58 0
65 2 65 20 0 18 -7 20 -65 20 l-64 0 -3 98 -3 97 -18 -46z"/>
<path d="M1041 1766 c-32 -39 23 -97 58 -61 15 15 14 16 -10 10 -16 -4 -30 -2
-33 4 -5 7 4 11 24 11 27 0 31 3 28 23 -4 27 -48 36 -67 13z m47 -14 c2 -7 -6
-12 -17 -12 -21 0 -27 11 -14 24 9 9 26 2 31 -12z"/>
<path d="M1130 1724 c0 -29 5 -56 10 -59 6 -3 10 3 10 15 0 13 5 20 13 17 21
-8 47 13 47 37 0 30 -17 44 -52 44 -27 0 -28 -2 -28 -54z m60 31 c16 -20 5
-45 -20 -45 -14 0 -20 7 -20 23 0 38 18 48 40 22z"/>
<path d="M1237 1774 c-15 -15 -6 -24 13 -12 14 9 22 10 31 1 8 -8 2 -13 -20
-21 -52 -18 -35 -56 20 -45 23 4 25 8 20 41 -5 30 -11 38 -31 40 -14 2 -29 0
-33 -4z m48 -54 c-3 -5 -15 -10 -26 -10 -11 0 -17 5 -14 10 3 6 15 10 26 10
11 0 17 -4 14 -10z"/>
<path d="M1331 1738 c1 -40 1 -41 9 -15 5 16 17 35 27 43 17 12 16 13 -9 14
-26 0 -28 -3 -27 -42z"/>
<path d="M1457 1774 c-15 -15 -6 -24 13 -12 10 7 22 9 26 6 10 -11 -6 -28 -26
-28 -24 0 -34 -27 -14 -38 9 -5 27 -7 40 -4 22 4 25 9 22 41 -3 30 -7 36 -28
39 -14 2 -29 0 -33 -4z m43 -54 c0 -5 -9 -10 -20 -10 -11 0 -20 5 -20 10 0 6
9 10 20 10 11 0 20 -4 20 -10z"/>
<path d="M1551 1735 c2 -34 3 -35 6 -10 8 54 43 56 44 2 l0 -32 12 35 c15 44
31 45 35 3 4 -40 22 -44 22 -5 0 42 -11 50 -67 49 l-53 -1 1 -41z"/>
<path d="M1703 1773 c-7 -2 -13 -18 -13 -33 0 -36 30 -56 60 -40 29 15 25 20
-10 14 -19 -4 -30 -2 -30 5 0 6 14 11 30 11 31 0 39 17 18 38 -12 12 -33 14
-55 5z m45 -21 c2 -7 -6 -12 -17 -12 -21 0 -27 11 -14 24 9 9 26 2 31 -12z"/>
<path d="M1791 1738 c1 -28 3 -34 6 -16 5 31 30 56 43 42 4 -5 11 -22 13 -39
3 -22 4 -19 3 10 -1 37 -3 40 -33 43 -33 3 -33 3 -32 -40z"/>
<path d="M1942 1768 c-34 -34 6 -90 48 -68 25 13 28 65 4 74 -24 9 -39 7 -52
-6z m48 -13 c16 -20 6 -45 -19 -45 -23 0 -32 18 -19 43 11 21 22 22 38 2z"/>
<path d="M2203 1773 c-7 -2 -13 -18 -13 -33 0 -36 30 -56 60 -40 28 15 25 20
-9 14 -16 -4 -32 -1 -35 5 -5 7 5 11 28 11 37 0 47 15 24 38 -12 12 -33 14
-55 5z m45 -21 c2 -7 -6 -12 -17 -12 -21 0 -27 11 -14 24 9 9 26 2 31 -12z"/>
<path d="M1275 1591 c-114 -28 -184 -125 -185 -255 0 -89 15 -136 59 -187 46
-54 100 -79 176 -79 99 0 175 49 212 137 28 68 11 84 -26 24 -31 -51 -72 -74
-135 -74 -63 0 -103 20 -149 74 -31 36 -57 104 -57 149 0 6 77 10 190 10 l190
0 0 30 c0 98 -99 182 -210 179 -19 -1 -48 -4 -65 -8z m93 -51 c29 -18 62 -71
62 -100 0 -6 -47 -10 -129 -10 -129 0 -129 0 -123 23 14 58 73 107 127 107 17
0 45 -9 63 -20z"/>
<path d="M1816 1586 c-61 -23 -89 -47 -118 -106 -45 -86 -33 -168 34 -234 l39
-39 -34 -36 c-64 -67 -71 -100 -30 -143 l26 -27 -36 -40 c-74 -82 -85 -134
-36 -175 58 -49 96 -60 209 -60 92 0 111 3 155 24 138 68 196 207 117 283 -40
39 -67 45 -217 53 -166 9 -192 23 -146 84 18 23 25 24 93 21 89 -3 144 16 187
65 52 58 62 145 26 227 -6 15 -1 17 43 17 55 0 67 9 57 40 -6 18 -15 20 -81
20 -49 0 -86 6 -106 16 -44 23 -134 28 -182 10z m123 -41 c45 -38 64 -99 59
-190 -3 -72 -6 -79 -36 -106 -22 -19 -43 -29 -65 -29 -73 0 -116 70 -117 188
0 83 16 124 58 146 39 22 67 19 101 -9z m79 -565 c45 -4 89 -13 97 -20 8 -7
15 -27 15 -45 0 -25 -9 -41 -39 -68 -47 -43 -81 -50 -198 -45 -138 6 -202 49
-173 118 7 17 21 41 31 54 18 23 24 24 101 19 46 -2 120 -8 166 -13z"/>
<path d="M2385 1590 c-11 -5 -46 -19 -77 -31 -58 -20 -80 -46 -33 -37 14 3 33
-1 42 -8 16 -11 18 -34 21 -191 3 -194 -4 -225 -48 -231 -14 -2 -29 -8 -35
-13 -5 -5 45 -9 128 -9 85 0 137 4 137 10 0 6 -11 10 -24 10 -54 0 -56 11 -56
271 0 221 -1 239 -17 238 -10 0 -27 -4 -38 -9z"/>
<path d="M2716 1590 c-64 -20 -114 -99 -101 -160 11 -49 43 -79 139 -126 50
-26 103 -58 119 -72 35 -33 36 -74 2 -107 -62 -63 -205 -3 -230 98 -14 54 -25
25 -25 -63 0 -88 5 -101 27 -79 8 8 22 8 49 0 63 -18 160 -14 202 8 65 33 87
65 87 126 0 46 -4 58 -30 86 -16 17 -75 53 -130 79 -55 26 -107 56 -116 66
-30 35 -32 60 -6 90 21 24 32 28 76 28 63 0 97 -23 129 -85 12 -24 27 -45 32
-47 6 -2 10 30 10 82 0 47 -2 86 -5 86 -3 0 -14 -5 -24 -12 -15 -9 -31 -9 -71
0 -59 14 -92 14 -134 2z"/>
<path d="M3525 1590 c-11 -5 -46 -19 -77 -31 -59 -21 -80 -46 -32 -36 18 3 33
-2 45 -14 17 -17 19 -36 19 -197 0 -199 -6 -222 -61 -222 -16 0 -29 -4 -29
-10 0 -6 53 -10 140 -10 87 0 140 4 140 10 0 6 -11 10 -25 10 -14 0 -34 9 -45
20 -18 18 -20 33 -20 180 l0 159 31 36 c34 38 54 43 85 20 38 -29 104 -10 104
31 0 22 -46 64 -70 64 -38 0 -86 -27 -118 -66 l-32 -39 0 53 c0 55 -9 62 -55
42z"/>
<path d="M4015 1591 c-120 -30 -204 -133 -205 -250 0 -76 17 -125 64 -178 141
-160 404 -106 463 96 56 193 -125 380 -322 332z m105 -121 c0 -53 27 -80 80
-80 l40 0 0 -97 c0 -133 -1 -133 -147 -133 -156 0 -153 -3 -153 177 0 171 2
173 107 173 l73 0 0 -40z m75 -21 l50 -51 -45 5 c-26 3 -50 13 -57 23 -14 19
-18 74 -5 74 4 0 30 -23 57 -51z"/>
<path d="M3990 1460 c0 -5 18 -10 40 -10 22 0 40 5 40 10 0 6 -18 10 -40 10
-22 0 -40 -4 -40 -10z"/>
<path d="M4008 1403 c12 -2 32 -2 45 0 12 2 2 4 -23 4 -25 0 -35 -2 -22 -4z"/>
<path d="M3990 1330 c0 -6 42 -10 105 -10 63 0 105 4 105 10 0 6 -42 10 -105
10 -63 0 -105 -4 -105 -10z"/>
<path d="M3990 1280 c0 -6 42 -10 105 -10 63 0 105 4 105 10 0 6 -42 10 -105
10 -63 0 -105 -4 -105 -10z"/>
<path d="M3990 1220 c0 -6 42 -10 105 -10 63 0 105 4 105 10 0 6 -42 10 -105
10 -63 0 -105 -4 -105 -10z"/>
<path d="M4673 1299 c10 -6 38 -38 62 -72 36 -49 45 -69 45 -103 0 -25 -5 -44
-12 -47 -7 -3 7 -5 32 -5 25 0 39 2 33 5 -8 3 -13 23 -13 51 1 38 8 57 40 102
22 29 50 60 62 67 21 11 19 12 -27 12 -35 1 -46 -2 -35 -9 13 -8 13 -13 -3
-42 -23 -43 -46 -73 -50 -67 -2 2 -19 24 -36 49 -30 41 -31 45 -15 57 15 11 9
13 -42 13 -46 -1 -55 -3 -41 -11z"/>
<path d="M394 940 c-61 -10 -119 -20 -130 -22 -10 -2 46 -10 126 -17 114 -11
255 -12 664 -5 l519 9 15 23 14 22 -528 0 c-291 0 -538 2 -549 4 -11 3 -70 -4
-131 -14z"/>
<path d="M2215 914 l0 -27 370 7 c204 3 856 9 1450 13 961 7 1033 9 650 14
-236 4 -889 10 -1450 13 l-1020 8 0 -28z"/>
<path d="M910 820 c0 -5 17 -10 38 -10 21 0 47 -6 58 -14 18 -14 19 -31 22
-330 l3 -316 -25 -25 c-17 -17 -36 -25 -61 -25 -19 0 -35 -4 -35 -10 0 -6 112
-10 318 -10 l317 0 33 91 c33 90 35 127 3 79 -33 -50 -87 -103 -118 -117 -22
-8 -76 -13 -161 -13 -106 0 -132 3 -143 16 -9 11 -14 61 -17 165 l-4 149 120
0 c68 0 132 -5 145 -11 26 -12 47 -47 47 -79 0 -11 7 -20 15 -20 13 0 15 22
15 140 0 118 -2 140 -15 140 -10 0 -15 -10 -15 -27 0 -16 -9 -42 -19 -60 -17
-27 -27 -32 -73 -38 -29 -3 -89 -5 -133 -3 l-80 3 -3 148 -3 147 151 0 c192 0
202 -4 234 -102 19 -59 37 53 20 120 l-6 22 -314 0 c-203 0 -314 -4 -314 -10z"/>
<path d="M3218 807 c-32 -11 -58 -25 -58 -30 0 -5 8 -7 19 -4 37 9 51 -10 51
-75 0 -54 -2 -59 -17 -52 -10 4 -43 10 -74 12 -96 6 -168 -46 -204 -147 -29
-83 -10 -166 51 -223 58 -54 124 -62 197 -24 l47 23 0 -23 c0 -29 10 -30 80
-3 66 25 84 39 49 39 -48 0 -49 7 -49 277 0 288 8 268 -92 230z m-18 -202 c24
-24 25 -32 28 -155 l4 -129 -31 -15 c-95 -50 -190 31 -191 161 0 60 12 98 43
132 45 48 103 50 147 6z"/>
<path d="M3581 815 c-50 -16 -61 -28 -61 -68 0 -33 35 -53 75 -43 26 7 45 38
60 99 8 32 -4 34 -74 12z"/>
<path d="M4437 812 c-25 -27 -21 -59 9 -78 34 -23 75 -9 88 28 19 54 -58 93
-97 50z"/>
<path d="M4193 792 c-18 -48 -50 -90 -94 -122 -42 -30 -41 -40 3 -40 l28 0 0
-160 c0 -173 9 -212 51 -225 36 -12 86 4 113 36 38 45 35 68 -4 29 -11 -11
-28 -20 -38 -20 -38 0 -42 19 -42 182 l0 158 50 0 c38 0 50 4 50 15 0 11 -12
15 -50 15 l-49 0 -3 83 c-3 77 -4 80 -15 49z"/>
<path d="M2291 761 c-28 -62 -69 -112 -117 -141 -45 -28 -43 -40 5 -40 l39 0
4 -221 3 -221 33 -29 c57 -51 147 -31 192 43 25 42 18 47 -20 14 -32 -26 -56
-32 -76 -18 -29 19 -34 56 -34 241 l0 191 65 0 c58 0 65 2 65 20 0 18 -7 20
-65 20 l-64 0 -3 97 -3 96 -24 -52z"/>
<path d="M2595 655 c-50 -18 -85 -57 -85 -95 0 -23 5 -31 25 -36 34 -8 53 10
57 54 6 78 116 80 139 2 7 -21 9 -45 6 -52 -2 -8 -43 -28 -91 -46 -102 -39
-156 -84 -156 -130 0 -103 96 -144 193 -82 55 34 57 35 57 16 0 -22 29 -46 55
-46 14 0 40 14 60 31 39 34 47 56 14 39 -43 -23 -47 -10 -51 144 -3 135 -4
146 -26 169 -23 25 -89 47 -134 47 -13 -1 -41 -7 -63 -15z m145 -244 c0 -63
-2 -71 -27 -90 -56 -45 -117 -35 -138 22 -14 41 10 76 74 109 84 44 91 41 91
-41z"/>
<path d="M1768 640 c-50 -27 -78 -75 -78 -138 0 -71 28 -100 161 -168 60 -31
118 -67 129 -81 60 -77 -22 -162 -128 -133 -52 13 -114 72 -128 120 -5 18 -15
35 -22 38 -9 3 -12 -22 -12 -97 0 -80 3 -101 14 -101 8 0 16 5 18 12 3 9 18 9
63 0 91 -19 153 -15 212 12 107 50 131 166 51 243 -18 17 -80 54 -138 81 -106
50 -132 69 -144 109 -16 52 48 99 121 89 61 -8 88 -30 119 -92 14 -30 30 -54
35 -54 5 0 9 41 9 90 0 90 -8 108 -37 79 -8 -8 -22 -8 -49 0 -62 17 -154 13
-196 -9z"/>
<path d="M3503 638 c-29 -11 -53 -25 -53 -30 0 -5 8 -7 18 -4 40 13 47 -6 50
-151 4 -157 -4 -193 -43 -193 -14 0 -25 -4 -25 -10 0 -6 42 -10 105 -10 63 0
105 4 105 10 0 6 -11 10 -24 10 -38 0 -46 43 -46 231 0 192 5 184 -87 147z"/>
<path d="M3765 627 c-28 -28 -35 -43 -35 -74 0 -53 21 -78 93 -114 94 -47 127
-75 127 -108 0 -39 -28 -61 -78 -61 -49 0 -95 34 -114 85 -6 19 -16 35 -20 35
-4 0 -8 -34 -8 -75 0 -73 5 -86 26 -65 6 6 22 6 44 0 115 -33 220 20 220 110
0 54 -29 84 -123 129 -46 21 -87 45 -93 52 -24 31 -24 50 1 75 45 45 121 22
151 -46 10 -22 21 -40 26 -40 4 0 8 28 8 63 l0 62 -95 3 -96 3 -34 -34z"/>
<path d="M4403 638 c-29 -11 -53 -25 -53 -30 0 -5 8 -7 18 -4 41 13 47 -6 50
-164 4 -158 -1 -180 -39 -180 -11 0 -19 -4 -19 -10 0 -6 40 -10 100 -10 60 0
100 4 100 10 0 6 -8 10 -18 10 -39 0 -42 18 -42 212 l0 188 -22 -1 c-13 -1
-47 -10 -75 -21z"/>
<path d="M4735 644 c-75 -39 -115 -106 -115 -194 0 -213 245 -289 336 -104 15
30 23 58 19 62 -4 4 -10 0 -13 -8 -3 -8 -22 -32 -42 -52 -33 -33 -44 -38 -83
-38 -83 0 -139 73 -139 180 0 92 42 144 112 142 39 -1 60 -18 60 -48 0 -29 25
-54 54 -54 58 0 55 67 -4 108 -40 27 -138 31 -185 6z"/>
<path d="M5119 637 c-66 -45 -77 -107 -19 -115 27 -4 40 12 40 50 0 36 25 58
66 58 47 0 74 -29 74 -79 0 -37 -3 -40 -37 -52 -62 -20 -146 -65 -172 -92 -36
-40 -32 -103 10 -141 27 -24 38 -28 76 -23 24 2 60 16 81 30 l38 25 17 -29
c19 -33 49 -38 87 -13 46 31 70 76 29 54 -44 -24 -49 -10 -49 134 0 80 -5 145
-11 160 -26 57 -164 77 -230 33z m161 -237 c0 -73 -2 -80 -20 -80 -18 0 -20 7
-20 80 0 73 2 80 20 80 18 0 20 -7 20 -80z m-80 -25 c0 -48 -2 -55 -20 -55
-18 0 -20 7 -20 55 0 48 2 55 20 55 18 0 20 -7 20 -55z m-80 -20 c0 -28 -4
-35 -20 -35 -16 0 -20 7 -20 35 0 28 4 35 20 35 16 0 20 -7 20 -35z"/>
<path d="M2534 140 c1 -54 1 -55 31 -55 30 0 30 1 31 55 l1 55 -6 -50 c-5 -41
-9 -50 -26 -50 -17 0 -21 9 -26 50 l-6 50 1 -55z"/>
<path d="M3150 171 c0 -11 -6 -18 -16 -17 -9 0 -21 -7 -28 -17 -14 -22 2 -51
33 -55 19 -3 21 1 21 52 0 31 -2 56 -5 56 -3 0 -5 -8 -5 -19z m-2 -57 c-4 -24
-24 -29 -32 -8 -8 20 13 49 27 35 5 -5 7 -17 5 -27z"/>
<path d="M3460 171 c0 -11 -6 -18 -16 -17 -9 0 -21 -7 -28 -17 -14 -22 2 -51
33 -55 19 -3 21 1 21 52 0 31 -2 56 -5 56 -3 0 -5 -8 -5 -19z m-2 -57 c-4 -23
-26 -30 -34 -10 -8 20 15 51 29 37 5 -5 7 -17 5 -27z"/>
<path d="M3652 178 c-20 -20 -14 -35 18 -47 33 -11 39 -28 14 -38 -11 -4 -22
1 -31 13 -14 19 -15 19 -11 -1 5 -31 62 -28 66 3 3 18 -3 25 -27 33 -17 6 -31
15 -31 19 0 12 29 20 35 10 4 -6 11 -10 17 -10 7 0 6 6 -2 15 -15 18 -32 19
-48 3z"/>
<path d="M3977 172 c-20 -22 -22 -52 -4 -76 17 -24 61 -18 65 9 2 18 2 18 -8
3 -14 -23 -37 -23 -49 0 -21 39 15 86 45 61 9 -7 14 -8 14 -1 0 9 -22 22 -39
22 -4 0 -15 -8 -24 -18z"/>
<path d="M4520 176 c0 -8 -10 -16 -22 -18 -19 -2 -23 -9 -23 -38 0 -31 3 -35
28 -38 27 -3 27 -2 27 52 0 31 -2 56 -5 56 -3 0 -5 -6 -5 -14z m-6 -69 c-3 -9
-10 -17 -15 -17 -14 0 -22 27 -15 47 6 15 8 15 22 2 8 -9 12 -23 8 -32z"/>
<path d="M4712 174 c-43 -30 -13 -100 40 -92 33 4 39 48 6 47 -18 -1 -19 -2
-5 -6 26 -7 15 -28 -14 -28 -20 0 -25 6 -27 31 -4 36 21 65 40 46 17 -17 33
-15 18 3 -16 19 -30 19 -58 -1z"/>
<path d="M5333 135 c0 -33 2 -45 4 -27 2 18 2 45 0 60 -2 15 -4 0 -4 -33z"/>
<path d="M3320 171 c0 -5 -9 -11 -21 -14 -16 -4 -20 -12 -17 -39 2 -28 7 -34
31 -36 26 -3 27 -2 27 47 0 28 -4 51 -10 51 -5 0 -10 -4 -10 -9z m4 -64 c-3
-9 -10 -17 -15 -17 -14 0 -22 27 -15 47 6 15 8 15 22 2 8 -9 12 -23 8 -32z"/>
<path d="M4210 130 c0 -27 5 -50 10 -50 6 0 10 23 10 50 0 28 -4 50 -10 50 -5
0 -10 -22 -10 -50z"/>
<path d="M4988 168 c-6 -17 2 -88 11 -88 7 0 6 89 -2 96 -2 3 -7 -1 -9 -8z"/>
<path d="M2641 116 c2 -40 2 -40 8 -8 3 18 11 33 16 33 6 0 13 -15 17 -33 6
-31 6 -31 5 7 -2 34 -5 40 -24 41 -21 1 -23 -3 -22 -40z"/>
<path d="M2723 120 c0 -25 2 -35 4 -22 2 12 2 32 0 45 -2 12 -4 2 -4 -23z"/>
<path d="M2761 154 c-2 -17 20 -74 28 -74 9 0 32 72 26 78 -2 2 -7 -7 -11 -22
-8 -33 -17 -33 -31 2 -6 15 -11 22 -12 16z"/>
<path d="M2852 151 c-20 -12 -11 -65 12 -69 10 -2 22 0 27 5 6 6 3 9 -8 9 -27
-1 -32 18 -5 22 25 4 30 27 6 36 -19 7 -16 7 -32 -3z m33 -11 c3 -5 -1 -10 -9
-10 -9 0 -16 5 -16 10 0 6 4 10 9 10 6 0 13 -4 16 -10z"/>
<path d="M2932 117 c1 -37 2 -38 5 -9 3 21 10 32 20 32 19 0 9 13 -12 16 -11
2 -15 -8 -13 -39z"/>
<path d="M2990 146 c-9 -12 -7 -17 9 -28 28 -17 27 -31 -1 -23 -18 6 -20 4
-12 -5 7 -6 20 -10 30 -8 27 5 30 35 5 43 -12 3 -21 10 -21 15 0 5 7 7 15 4 8
-4 15 -1 15 5 0 16 -25 14 -40 -3z"/>
<path d="M3060 120 c0 -22 5 -40 10 -40 6 0 10 18 10 40 0 22 -4 40 -10 40 -5
0 -10 -18 -10 -40z"/>
<path d="M3199 143 c-13 -16 -12 -17 3 -5 9 8 22 10 29 6 8 -4 3 -12 -15 -21
-33 -17 -29 -38 8 -39 25 -1 27 2 24 35 -3 41 -27 52 -49 24z m41 -33 c0 -13
-28 -25 -38 -16 -3 4 0 11 8 16 20 13 30 12 30 0z"/>
<path d="M3512 151 c-20 -12 -11 -65 12 -69 10 -2 23 1 29 7 9 9 5 11 -12 9
-13 -2 -26 3 -28 10 -3 7 5 12 21 12 29 0 36 24 10 34 -19 7 -16 7 -32 -3z
m33 -11 c3 -5 -3 -10 -15 -10 -12 0 -18 5 -15 10 3 6 10 10 15 10 5 0 12 -4
15 -10z"/>
<path d="M3753 153 c-7 -2 -13 -9 -13 -15 0 -6 6 -5 15 2 9 7 18 10 21 7 9 -9
-5 -27 -22 -27 -8 0 -14 -9 -14 -20 0 -16 7 -20 31 -20 29 0 30 2 27 37 -3 37
-17 48 -45 36z m27 -48 c0 -8 -7 -15 -15 -15 -26 0 -18 20 13 29 1 1 2 -6 2
-14z"/>
<path d="M3831 116 c2 -40 2 -40 8 -8 3 18 11 33 16 33 6 0 13 -15 17 -33 6
-31 6 -31 5 7 -2 34 -5 40 -24 41 -21 1 -23 -3 -22 -40z"/>
<path d="M4083 153 c-7 -2 -13 -9 -13 -15 0 -6 6 -5 15 2 12 10 19 10 27 2 8
-8 4 -13 -16 -18 -39 -9 -36 -44 5 -44 29 0 30 2 27 37 -3 37 -17 48 -45 36z
m32 -54 c-8 -12 -35 -12 -35 0 0 11 22 20 33 14 4 -2 5 -9 2 -14z"/>
<path d="M4162 116 c1 -37 2 -38 5 -8 2 17 8 32 14 32 5 0 9 4 9 8 0 5 -7 9
-15 9 -11 0 -15 -11 -13 -41z"/>
<path d="M4265 146 c-20 -15 -17 -44 7 -59 12 -8 21 -7 32 2 36 30 -1 85 -39
57z m39 -39 c-3 -9 -12 -17 -19 -17 -19 0 -27 30 -14 47 10 12 14 12 26 0 8
-7 11 -21 7 -30z"/>
<path d="M4353 153 c-20 -7 -15 -31 7 -38 11 -3 20 -11 20 -16 0 -6 -9 -7 -21
-4 -15 5 -19 4 -15 -4 10 -16 43 -13 50 4 4 10 -3 20 -19 27 -26 12 -25 31 2
21 11 -4 14 -3 9 5 -8 13 -13 14 -33 5z"/>
<path d="M4566 144 c-19 -19 -20 -36 -4 -52 14 -14 48 -16 48 -3 0 5 -7 8 -16
7 -9 0 -19 5 -21 12 -3 7 5 12 21 12 31 0 34 15 7 30 -15 7 -23 6 -35 -6z m29
-4 c3 -5 -1 -10 -10 -10 -9 0 -13 5 -10 10 3 6 8 10 10 10 2 0 7 -4 10 -10z"/>
<path d="M4813 125 c2 -36 5 -40 30 -43 26 -3 27 -2 26 40 l-1 43 -10 -38
c-12 -45 -30 -44 -40 4 -6 34 -6 34 -5 -6z"/>
<path d="M4907 154 c-13 -14 -7 -26 7 -15 8 7 17 8 20 3 3 -5 -6 -14 -20 -21
-33 -15 -26 -35 13 -39 30 -3 30 -2 24 35 -6 36 -27 53 -44 37z m33 -49 c0 -8
-7 -15 -15 -15 -26 0 -18 20 13 29 1 1 2 -6 2 -14z"/>
<path d="M5042 151 c-20 -12 -11 -65 12 -69 10 -2 22 0 27 5 6 6 3 9 -8 9 -27
-1 -32 18 -5 22 25 4 30 27 6 36 -19 7 -16 7 -32 -3z m33 -11 c3 -5 -3 -10
-15 -10 -12 0 -18 5 -15 10 3 6 10 10 15 10 5 0 12 -4 15 -10z"/>
<path d="M5122 116 c1 -37 2 -38 5 -8 3 19 10 32 19 32 9 0 14 -11 15 -32 l1
-33 7 29 c9 41 31 46 31 7 0 -17 5 -31 10 -31 13 0 13 40 0 60 -6 9 -25 15
-50 16 l-40 0 2 -40z"/>
<path d="M5255 151 c-3 -6 0 -8 8 -5 27 10 27 -13 1 -25 -32 -14 -26 -35 10
-39 26 -3 27 -2 24 35 -3 38 -28 57 -43 34z m35 -40 c0 -12 -20 -25 -27 -18
-7 7 6 27 18 27 5 0 9 -4 9 -9z"/>
<path d="M5383 153 c-7 -2 -13 -9 -13 -15 0 -6 6 -5 15 2 12 10 19 10 27 2 8
-8 4 -13 -16 -18 -39 -9 -36 -44 5 -44 29 0 30 2 27 37 -3 37 -17 48 -45 36z
m32 -54 c-8 -12 -35 -12 -35 0 0 11 22 20 33 14 4 -2 5 -9 2 -14z"/>
</g>
</svg>
