<svg width="1363" height="926" xmlns="http://www.w3.org/2000/svg" preserveAspectRatio="xMidYMid meet" version="1.0">

 <g>
  <title>Layer 1</title>
  <g id="svg_1" fill="#FFFFFF" transform="translate(0 2048) scale(0.1 -0.1)">
   <path id="svg_2" d="m976.52499,18249.2709c0,-75 -15,-68 163,-84c121,-12 199,-34 259,-74c42,-29 93,-114 108,-181c24,-106 29,-365 29,-1588l1,-1258l315,0l315,0l2,343l3,342l370,3c465,3 547,-10 677,-106c125,-92 205,-222 279,-449l42,-133l315,0l314,0l-7,28c-20,80 -95,226 -162,313c-140,185 -337,288 -683,357l-145,28l78,13c189,31 444,117 589,200c226,130 429,334 532,536c194,383 190,794 -11,1135c-48,82 -168,216 -248,277c-241,186 -531,291 -940,344c-61,8 -237,10 -540,8c-696,-6 -1178,-5 -1427,4l-228,7l0,-65zm1980,-86c164,-19 359,-87 478,-168c57,-39 160,-140 199,-196c44,-63 103,-194 133,-295c70,-233 79,-656 19,-872c-52,-188 -74,-242 -139,-338c-78,-114 -213,-227 -338,-282c-214,-93 -388,-118 -829,-118l-314,0l3,948c3,868 5,954 22,1034c31,148 103,237 219,274c105,33 319,38 547,13z"/>
   <path id="svg_3" d="m4816.52499,18247.2709l0,-69l48,-12c98,-26 177,-102 288,-280c33,-53 196,-347 361,-652c165,-305 478,-885 697,-1287l396,-733l0,-75l0,-75l320,0l320,0l0,178l0,177l31,60c17,33 229,454 471,935c557,1107 639,1265 704,1371c141,227 261,340 417,393c15,5 18,15 15,68l-3,63l-190,-5c-235,-6 -532,-5 -862,4l-253,7l0,-64c0,-73 4,-77 93,-77c111,0 245,-30 340,-74c196,-93 223,-300 85,-654c-54,-141 -966,-1964 -979,-1960c-6,2 -95,165 -198,363c-103,198 -221,425 -263,505c-42,80 -157,300 -256,490c-98,190 -241,463 -316,608c-159,303 -177,350 -178,447c-2,172 111,250 396,273l81,7l3,68l3,68l-178,-7c-242,-10 -1097,-11 -1260,-1l-133,8l0,-68z"/>
   <path id="svg_4" d="m9196.52499,18250.2709c0,-77 -15,-69 163,-85c240,-23 321,-83 369,-274l23,-92l3,-1367l3,-1368l315,0l314,0l2,378l3,377l295,0c250,0 305,-3 360,-18c101,-27 169,-66 241,-137c118,-116 162,-239 194,-537l7,-63l84,0l84,0l-6,118c-3,64 -8,123 -10,131c-2,8 -9,208 -14,445c-10,403 -1,981 16,1074l6,32l-81,0c-94,0 -82,20 -106,-180c-24,-201 -59,-329 -126,-460c-66,-128 -119,-178 -232,-220c-97,-35 -163,-41 -442,-38l-270,3l0,910c0,841 1,916 18,994c29,135 74,199 168,240c91,41 169,46 664,46c401,0 483,-2 560,-17c290,-55 430,-163 516,-399c35,-95 90,-358 112,-531c9,-65 18,-122 22,-128c3,-5 36,-10 73,-10l67,0l0,437c0,350 4,474 19,616c10,98 16,180 14,182c-1,2 -286,-1 -633,-6c-603,-9 -1899,-6 -2507,7l-288,6l0,-66z"/>
   <path id="svg_5" d="m10138.52499,14803.2709c-38,-28 -53,-49 -36,-49c11,0 94,55 94,62c0,19 -21,14 -58,-13z"/>
   <path id="svg_6" d="m1345.52499,14717.2709c-4,-43 4,-380 10,-386c4,-4 15,-5 24,-1c14,5 17,20 17,80l0,74l35,0c31,0 38,-6 78,-67c50,-78 70,-98 92,-89c13,5 6,21 -36,82l-52,77l27,20c74,54 72,163 -4,202c-30,16 -189,22 -191,8zm176,-48c36,-35 34,-88 -4,-126c-24,-24 -38,-29 -75,-29l-46,0l0,74c0,41 -3,81 -6,90c-5,13 3,16 50,16c47,0 61,-4 81,-25z"/>
   <path id="svg_7" d="m1918.52499,14527.2709l3,-198l124,0c91,0 125,3 129,13c3,9 -22,12 -102,12l-106,0l0,80l0,79l92,3c62,2 93,7 96,16c3,9 -20,12 -92,12l-96,0l0,75l0,74l103,3c146,4 126,22 -28,26l-125,3l2,-198z"/>
   <path id="svg_8" d="m2581.52499,14705.2709c-48,-22 -69,-44 -90,-94c-36,-86 -6,-208 62,-253c60,-40 156,-38 212,4c23,17 26,27 29,96l3,76l-66,0c-51,0 -65,-3 -65,-15c0,-11 11,-15 40,-15l40,0l0,-65l0,-64l-41,-12c-112,-34 -198,71 -174,213c11,61 68,118 119,118c43,0 74,-14 98,-43c14,-18 19,-19 32,-8c37,31 -35,81 -116,81c-24,0 -61,-9 -83,-19z"/>
   <path id="svg_9" d="m3116.52499,14535.2709c0,-153 3,-191 15,-201c30,-25 35,0 35,196l0,194l-25,0l-25,0l0,-189z"/>
   <path id="svg_10" d="m3538.52499,14709.2709c-46,-20 -68,-72 -48,-119c11,-27 28,-40 92,-70c87,-41 104,-57 104,-96c0,-66 -95,-88 -149,-36c-30,29 -61,30 -61,3c0,-22 31,-44 79,-57c94,-25 181,25 181,104c0,38 -45,83 -108,106c-100,37 -129,87 -76,129c36,28 76,26 112,-4c32,-26 47,-31 56,-16c19,30 -46,71 -111,71c-21,-1 -53,-7 -71,-15z"/>
   <path id="svg_11" d="m4006.52499,14709.2709c0,-11 16,-15 68,-17l67,-3l5,-180c4,-135 8,-180 18,-179c6,1 17,2 23,3c7,1 9,59 7,181l-3,179l64,3c40,2 66,8 69,16c3,9 -33,12 -157,12c-134,0 -161,-2 -161,-15z"/>
   <path id="svg_12" d="m4626.52499,14536.2709c0,-154 3,-192 15,-202c25,-21 35,-1 35,76l0,74l38,0c35,0 39,-4 85,-74c49,-75 72,-95 90,-77c7,7 5,16 -5,28c-8,10 -31,44 -51,75l-36,57l29,18c35,20 62,81 54,122c-4,16 -19,42 -36,58c-27,26 -36,28 -124,31l-94,4l0,-190zm173,144c30,-23 40,-69 23,-110c-17,-41 -51,-59 -105,-54l-36,3l-3,88l-3,87l53,0c29,0 61,-7 71,-14z"/>
   <path id="svg_13" d="m5268.52499,14708.2709c-72,-37 -109,-116 -99,-213c12,-117 109,-190 215,-162c86,24 135,94 135,196c0,116 -59,186 -161,192c-39,3 -67,-2 -90,-13zm134,-31c92,-60 83,-263 -13,-308c-121,-58 -217,113 -147,261c28,60 106,83 160,47z"/>
   <path id="svg_14" d="m6186.52499,14717.2709c0,-3 10,-20 23,-37c13,-17 44,-65 70,-107c46,-74 47,-78 47,-157c0,-82 6,-97 34,-86c13,5 16,23 16,90l0,85l60,95c75,117 78,124 52,124c-14,0 -35,-25 -73,-85c-30,-47 -56,-85 -60,-85c-3,0 -31,38 -63,85c-45,69 -61,85 -81,85c-14,0 -25,-3 -25,-7z"/>
   <path id="svg_15" d="m7198.52499,14527.2709l3,-198l124,0c89,0 125,3 128,12c3,9 -23,13 -99,15l-103,3l-3,78l-3,77l96,0c77,0 95,3 95,15c0,11 -19,15 -92,17l-93,3l-3,72l-3,72l102,3c71,2 104,7 107,16c3,9 -27,12 -127,12l-131,0l2,-197z"/>
   <path id="svg_16" d="m7820.52499,14714.2709c-31,-12 -64,-59 -64,-89c0,-43 28,-71 106,-107c42,-19 80,-44 90,-58c24,-38 11,-74 -32,-92c-45,-19 -87,-10 -113,22c-22,28 -51,32 -51,6c0,-43 76,-77 148,-66c82,12 125,74 97,141c-11,27 -30,41 -102,75c-85,42 -88,44 -91,80c-2,28 2,40 20,52c34,24 85,20 114,-9c30,-30 54,-32 54,-5c0,45 -111,76 -176,50z"/>
   <path id="svg_17" d="m8286.52499,14709.2709c0,-12 14,-15 65,-15l65,0l0,-174c0,-178 6,-205 41,-191c11,4 13,39 11,185l-3,179l67,3c43,2 69,8 72,16c3,9 -33,12 -157,12c-136,0 -161,-2 -161,-15z"/>
   <path id="svg_18" d="m8968.52499,14692.2709c-5,-18 -37,-104 -72,-191c-57,-146 -66,-189 -33,-169c6,4 20,30 31,57l20,50l86,3l86,3l24,-56c24,-54 49,-77 65,-59c5,5 -26,95 -68,199c-70,176 -78,190 -103,193c-23,3 -28,-2 -36,-30zm75,-130c17,-42 28,-79 25,-82c-3,-3 -34,-6 -69,-6c-44,0 -63,4 -63,13c0,11 7,32 50,141c14,36 19,30 57,-66z"/>
   <path id="svg_19" d="m9488.52499,14527.2709l3,-198l67,-3c91,-4 144,12 189,57c73,73 78,203 12,282c-39,46 -79,59 -183,59l-90,0l2,-197zm202,146c58,-45 78,-140 49,-224c-24,-68 -66,-95 -144,-95l-59,0l0,170l0,170l64,0c49,0 69,-5 90,-21z"/>
   <path id="svg_20" d="m10116.52499,14541.2709c0,-193 7,-225 43,-211c11,4 16,13 13,21c-3,8 -6,95 -6,194l0,179l-25,0l-25,0l0,-183z"/>
   <path id="svg_21" d="m10538.52499,14709.2709c-46,-20 -68,-72 -48,-119c11,-27 28,-40 92,-70c87,-41 104,-57 104,-96c0,-66 -95,-88 -149,-36c-30,29 -61,30 -61,3c0,-22 31,-44 79,-57c94,-25 181,25 181,104c0,38 -45,83 -108,106c-100,37 -129,87 -76,129c36,28 76,26 112,-4c32,-26 47,-31 56,-16c19,30 -46,71 -111,71c-21,-1 -53,-7 -71,-15z"/>
   <path id="svg_22" d="m11008.52499,14712.2709c3,-8 29,-14 71,-16l67,-3l0,-179c0,-98 4,-181 9,-184c5,-4 16,-3 25,0c14,5 16,31 16,185l0,178l62,3c38,2 63,8 66,16c3,9 -33,12 -158,12c-125,0 -161,-3 -158,-12z"/>
   <path id="svg_23" d="m11626.52499,14541.2709c0,-193 7,-225 43,-211c11,4 16,13 13,21c-3,8 -6,95 -6,194l0,179l-25,0l-25,0l0,-183z"/>
   <path id="svg_24" d="m12088.52499,14703.2709c-63,-32 -96,-93 -96,-178c0,-104 47,-170 135,-191c57,-14 116,-1 156,35c34,30 20,32 -38,5c-57,-26 -89,-25 -130,3c-47,31 -69,80 -69,150c0,74 20,121 62,147c50,30 103,26 139,-10c30,-30 63,-31 57,-2c-11,55 -140,80 -216,41z"/>
   <path id="svg_25" d="m12726.52499,14702.2709c-48,-114 -139,-362 -134,-369c11,-19 39,10 55,58l16,48l89,3l89,3l20,-52c21,-55 47,-81 64,-64c6,6 -18,79 -66,203c-69,173 -79,192 -100,192c-15,0 -27,-8 -33,-22zm68,-138c17,-41 28,-78 25,-82c-7,-12 -133,-10 -133,2c0,25 63,171 70,163c5,-4 22,-42 38,-83z"/>
   <path id="svg_26" d="m1530.52499,13936.2709c-6,-4 -14,-29 -18,-57c-9,-60 -43,-138 -78,-180c-14,-17 -47,-41 -72,-54c-51,-25 -208,-61 -271,-61c-22,0 -57,-3 -77,-6l-38,-7l0,-63l0,-64l173,7c226,10 1105,10 1370,0l207,-7l0,64l0,65l-57,5c-205,20 -334,56 -391,109c-36,33 -69,105 -85,183l-14,69l-319,2c-175,2 -324,0 -330,-5z"/>
   <path id="svg_27" d="m3806.52499,13926.2709c0,-48 76,-219 137,-308c120,-176 317,-274 555,-274c282,0 471,98 665,348c64,81 65,83 47,103c-10,11 -33,29 -51,40l-34,21l-21,-29c-48,-61 -165,-176 -198,-193c-47,-24 -139,-40 -187,-33c-114,18 -189,103 -253,288l-17,50l-321,3c-308,2 -322,1 -322,-16z"/>
   <path id="svg_28" d="m6602.52499,13932.2709c-3,-7 -10,-38 -17,-68c-13,-61 -46,-131 -81,-171c-47,-55 -158,-91 -337,-109c-57,-5 -107,-10 -113,-10c-5,0 -8,-28 -6,-62l3,-63l220,5c333,8 1093,6 1328,-3l207,-7l0,64l0,65l-57,5c-229,22 -356,62 -406,128c-37,48 -66,117 -75,179l-7,54l-328,3c-257,2 -328,0 -331,-10z"/>
   <path id="svg_29" d="m9743.52499,13937.2709c-3,-5 -8,-28 -12,-53c-11,-69 -44,-148 -76,-184c-54,-62 -181,-101 -401,-122l-58,-5l0,-65l0,-65l413,8c534,10 2463,10 2856,0l304,-8l-6,38c-3,21 -11,115 -17,208c-6,94 -13,189 -16,213l-5,42l-180,0l-179,0l-23,-27c-143,-174 -271,-247 -502,-289c-211,-38 -1020,-45 -1176,-10c-153,34 -234,117 -255,261c-4,28 -12,53 -18,57c-15,10 -644,10 -649,1z"/>
   <path id="svg_30" d="m6628.52499,13002.2709c2,-86 7,-123 16,-126c9,-3 12,26 12,122c0,106 -2,126 -15,126c-13,0 -15,-18 -13,-122z"/>
   <path id="svg_31" d="m7216.52499,13079.2709c0,-45 0,-45 -35,-45c-50,0 -85,-36 -85,-88c0,-25 7,-45 18,-55c22,-20 63,-22 81,-4c11,10 14,10 18,0c3,-7 11,-13 19,-13c11,0 14,24 14,125c0,104 -2,125 -15,125c-11,0 -15,-12 -15,-45zm0,-109c0,-44 -22,-86 -45,-86c-56,0 -60,115 -5,132c35,11 50,-3 50,-46z"/>
   <path id="svg_32" d="m8529.52499,13082.2709c2,-41 1,-43 -28,-46c-45,-4 -72,-21 -85,-53c-13,-29 -7,-74 12,-96c13,-17 70,-17 87,0c11,10 14,10 18,0c3,-7 9,-13 14,-13c5,0 9,56 9,125c0,102 -3,125 -14,125c-11,0 -14,-11 -13,-42zm1,-117c-1,-41 -25,-81 -50,-81c-18,0 -44,40 -44,68c0,12 11,34 24,47c20,20 30,23 48,16c19,-7 23,-16 22,-50z"/>
   <path id="svg_33" d="m1430.52499,13092.2709c3,-13 6,-67 6,-120l0,-98l64,0c76,0 110,21 127,81c16,50 -1,109 -38,138c-20,17 -40,21 -96,21c-67,0 -69,-1 -63,-22zm142,-20c37,-38 36,-127 -1,-164c-20,-20 -33,-25 -68,-22l-42,3l-3,99c-2,73 1,102 10,108c21,14 80,0 104,-24z"/>
   <path id="svg_34" d="m1836.52499,13099.2709c0,-9 5,-15 11,-13c6,2 11,8 11,13c0,5 -5,11 -11,13c-6,2 -11,-4 -11,-13z"/>
   <path id="svg_35" d="m3376.52499,13098.2709c0,-9 5,-14 12,-12c18,6 21,28 4,28c-9,0 -16,-7 -16,-16z"/>
   <path id="svg_36" d="m3679.52499,13095.2709c-33,-27 -28,-35 7,-14c17,9 30,21 30,25c0,13 -13,9 -37,-11z"/>
   <path id="svg_37" d="m4609.52499,13104.2709c-53,-22 -80,-119 -49,-179c25,-47 102,-66 161,-39c22,10 25,17 25,60l0,48l-41,0c-23,0 -38,-4 -34,-10c3,-5 12,-7 19,-4c19,7 38,-21 34,-53c-6,-57 -94,-57 -128,0c-24,38 -25,75 -6,122c21,49 88,64 129,27c9,-8 20,-12 25,-8c4,4 -4,16 -17,27c-25,20 -80,24 -118,9z"/>
   <path id="svg_38" d="m8081.52499,13042.2709c-15,-40 -36,-94 -46,-120c-22,-56 -4,-69 21,-15c12,25 22,33 49,35c53,5 75,-5 88,-38c6,-16 18,-30 27,-30c14,0 13,7 -5,53c-12,28 -33,82 -48,120c-34,89 -50,88 -86,-5zm67,-26c10,-26 18,-50 18,-54c0,-5 -20,-8 -45,-8c-25,0 -45,2 -45,5c0,16 43,115 48,110c3,-3 14,-27 24,-53z"/>
   <path id="svg_39" d="m9213.52499,13108.2709c-8,-8 1,-24 14,-24c5,0 9,7 9,15c0,15 -12,20 -23,9z"/>
   <path id="svg_40" d="m9806.52499,13099.2709c0,-9 5,-15 11,-13c6,2 11,8 11,13c0,5 -5,11 -11,13c-6,2 -11,-4 -11,-13z"/>
   <path id="svg_41" d="m11623.52499,13108.2709c-8,-8 1,-24 14,-24c5,0 9,7 9,15c0,15 -12,20 -23,9z"/>
   <path id="svg_42" d="m11920.52499,13090.2709c-16,-14 -24,-25 -19,-25c15,-1 61,37 54,44c-4,3 -20,-5 -35,-19z"/>
   <path id="svg_43" d="m10356.52499,13055.2709c0,-11 -6,-22 -12,-25c-10,-5 -10,-7 0,-12c7,-4 12,-27 12,-63c0,-31 5,-62 12,-69c14,-14 64,-16 73,-3c3,6 -7,9 -22,8c-28,-2 -28,-1 -31,65c-3,66 -3,67 25,71l28,4l-27,2c-21,1 -28,6 -28,21c0,11 -7,20 -15,20c-8,0 -15,-9 -15,-19z"/>
   <path id="svg_44" d="m1836.52499,12955.2709c0,-66 3,-81 15,-81c13,0 15,13 13,77c-2,50 -7,78 -15,81c-10,3 -13,-17 -13,-77z"/>
   <path id="svg_45" d="m2070.52499,13012.2709c3,-13 6,-49 6,-80c0,-66 20,-80 21,-15c0,23 4,51 8,62c9,23 -7,55 -28,55c-9,0 -11,-7 -7,-22z"/>
   <path id="svg_46" d="m2126.52499,13024.2709c-12,-8 -11,-10 6,-10c11,0 25,-5 32,-12c15,-15 26,-4 19,17c-7,17 -34,20 -57,5z"/>
   <path id="svg_47" d="m2393.52499,13022.2709c-22,-18 -39,-66 -31,-92c11,-38 35,-56 74,-56c32,0 94,29 63,30c-6,0 -15,-4 -18,-10c-18,-29 -85,5 -85,43c0,14 10,17 55,17c51,0 55,2 55,23c0,48 -72,76 -113,45zm82,-27c14,-25 5,-31 -41,-31c-38,0 -43,5 -32,34c9,23 61,21 73,-3z"/>
   <path id="svg_48" d="m2728.52499,13011.2709c-29,-30 -30,-89 -2,-117c24,-24 78,-26 106,-4c19,15 19,16 -1,9c-47,-17 -57,-17 -75,0c-23,21 -27,84 -8,103c14,14 68,16 68,2c0,-5 7,-10 15,-10c21,0 19,17 -4,30c-33,17 -76,12 -99,-13z"/>
   <path id="svg_49" d="m3058.52499,13011.2709c-29,-30 -30,-89 -2,-117c24,-24 78,-26 106,-4c19,15 19,16 -1,9c-47,-17 -57,-17 -75,0c-23,21 -27,84 -8,103c14,14 68,16 68,2c0,-5 7,-10 15,-10c21,0 19,17 -4,30c-33,17 -76,12 -99,-13z"/>
   <path id="svg_50" d="m3376.52499,12954.2709c0,-64 3,-80 15,-80c12,0 15,16 15,80c0,64 -3,80 -15,80c-12,0 -15,-16 -15,-80z"/>
   <path id="svg_51" d="m3632.52499,13013.2709c-33,-26 -37,-88 -6,-119c29,-29 84,-27 115,5c73,72 -28,178 -109,114zm98,-42c7,-28 6,-41 -8,-61c-32,-49 -86,-20 -86,45c0,74 76,87 94,16z"/>
   <path id="svg_52" d="m3966.52499,12954.2709c0,-64 3,-80 15,-80c11,0 15,12 15,51c0,65 13,89 49,89c35,0 41,-14 41,-86c0,-38 4,-54 13,-54c16,0 11,127 -5,148c-14,16 -49,15 -75,-3c-19,-13 -22,-13 -27,0c-3,8 -10,15 -16,15c-6,0 -10,-32 -10,-80z"/>
   <path id="svg_53" d="m4971.52499,13009.2709c-33,-32 -34,-83 -2,-113c28,-27 88,-30 108,-5c13,15 12,15 -8,5c-31,-17 -50,-15 -73,8c-37,37 -26,50 40,50c53,0 60,2 60,20c0,56 -82,79 -125,35zm89,-11c11,-29 6,-34 -32,-34c-46,0 -55,6 -41,31c12,24 64,26 73,3z"/>
   <path id="svg_54" d="m5296.52499,12954.2709c0,-64 3,-80 15,-80c11,0 15,12 15,51c0,65 13,89 49,89c35,0 41,-14 41,-86c0,-38 4,-54 13,-54c16,0 11,127 -5,148c-14,16 -49,15 -75,-3c-19,-13 -22,-13 -27,0c-3,8 -10,15 -16,15c-6,0 -10,-32 -10,-80z"/>
   <path id="svg_55" d="m5673.52499,13022.2709c-22,-18 -39,-66 -31,-92c11,-38 35,-56 74,-56c32,0 94,29 63,30c-6,0 -15,-4 -18,-10c-18,-29 -85,5 -85,43c0,14 10,17 55,17c51,0 55,2 55,23c0,48 -72,76 -113,45zm82,-27c14,-25 5,-31 -41,-31c-38,0 -43,5 -32,34c9,23 61,21 73,-3z"/>
   <path id="svg_56" d="m5988.52499,12957.2709c4,-96 24,-110 30,-21c6,74 1,98 -19,98c-11,0 -13,-16 -11,-77z"/>
   <path id="svg_57" d="m6041.52499,13024.2709c-3,-5 3,-10 14,-10c11,0 23,-5 26,-10c4,-6 11,-8 16,-4c14,8 -9,34 -32,34c-10,0 -21,-4 -24,-10z"/>
   <path id="svg_58" d="m6300.52499,13020.2709c-10,-8 -16,-18 -12,-22c4,-4 14,-1 22,5c23,20 70,10 74,-15c3,-18 -4,-22 -36,-28c-46,-7 -65,-25 -60,-58c3,-26 44,-36 77,-19c13,7 22,8 26,1c16,-26 25,-4 25,60c0,58 -3,71 -19,80c-28,14 -74,12 -97,-4zm86,-83c0,-20 -28,-53 -45,-53c-7,0 -19,7 -26,16c-11,14 -10,19 10,35c29,24 61,25 61,2z"/>
   <path id="svg_59" d="m7472.52499,13013.2709c-33,-26 -37,-88 -6,-119c24,-24 91,-27 110,-6c10,13 7,13 -18,4c-25,-10 -35,-9 -56,5c-14,10 -26,26 -26,37c0,18 7,20 61,20l61,0l-6,28c-14,54 -72,69 -120,31zm84,-14c18,-22 3,-35 -41,-35c-25,0 -39,5 -39,13c0,34 57,50 80,22z"/>
   <path id="svg_60" d="m8768.52499,12957.2709c2,-50 7,-78 16,-81c8,-2 12,11 12,48c0,63 13,90 44,90c27,0 36,-21 36,-92c0,-27 5,-48 10,-48c6,0 10,19 10,43c0,57 19,92 50,92c24,0 25,-3 28,-67c2,-52 6,-68 17,-68c22,0 21,123 -1,144c-20,21 -48,20 -69,0c-15,-15 -17,-15 -34,0c-21,19 -52,21 -70,4c-11,-10 -14,-10 -18,0c-3,6 -11,12 -19,12c-12,0 -14,-15 -12,-77z"/>
   <path id="svg_61" d="m9210.52499,13012.2709c3,-13 6,-49 6,-80c0,-32 5,-58 10,-58c6,0 10,33 10,80c0,67 -3,80 -16,80c-12,0 -15,-6 -10,-22z"/>
   <path id="svg_62" d="m9448.52499,12957.2709c2,-50 7,-78 16,-81c8,-2 12,11 12,45c0,61 22,95 58,91c26,-3 27,-6 30,-70c2,-52 6,-68 17,-68c12,0 15,14 15,61c0,33 -5,69 -10,80c-13,23 -62,26 -80,4c-7,-8 -16,-15 -21,-15c-5,0 -9,7 -9,15c0,8 -7,15 -15,15c-13,0 -15,-13 -13,-77z"/>
   <path id="svg_63" d="m9806.52499,12955.2709c0,-66 3,-81 15,-81c13,0 15,13 13,77c-2,50 -7,78 -15,81c-10,3 -13,-17 -13,-77z"/>
   <path id="svg_64" d="m10052.52499,13021.2709c-27,-20 -15,-50 29,-73c43,-22 50,-40 23,-58c-13,-8 -23,-8 -39,2c-22,14 -35,10 -24,-7c3,-6 23,-11 44,-11c71,0 82,52 19,83c-26,13 -38,25 -38,39c0,18 4,20 40,14c39,-6 55,6 24,18c-26,10 -59,7 -78,-7z"/>
   <path id="svg_65" d="m10646.52499,12954.2709c0,-64 3,-80 15,-80c11,0 15,12 15,51c0,28 5,59 10,70c12,21 46,26 53,7c2,-7 8,-10 12,-6c13,12 -3,38 -23,38c-11,0 -25,-7 -33,-16c-11,-14 -13,-14 -21,0c-19,34 -28,13 -28,-64z"/>
   <path id="svg_66" d="m10956.52499,13019.2709c-16,-20 -5,-32 14,-16c23,19 71,10 71,-13c0,-14 -12,-23 -47,-33c-50,-14 -69,-42 -48,-68c15,-18 61,-19 79,-2c11,10 14,10 18,0c3,-7 11,-13 19,-13c21,0 20,123 -2,144c-20,21 -88,21 -104,1zm90,-79c0,-8 -9,-24 -19,-37c-16,-20 -23,-22 -38,-13c-27,17 -28,43 -1,53c34,14 58,13 58,-3z"/>
   <path id="svg_67" d="m11301.52499,13009.2709c-51,-50 -17,-135 55,-135c22,0 43,6 50,16c12,13 10,14 -13,3c-55,-25 -102,28 -81,90c11,29 55,41 80,20c8,-6 18,-9 22,-5c11,12 -29,36 -60,36c-17,0 -39,-10 -53,-25z"/>
   <path id="svg_68" d="m11620.52499,13012.2709c3,-13 6,-49 6,-80c0,-32 5,-58 10,-58c6,0 10,33 10,80c0,67 -3,80 -16,80c-12,0 -15,-6 -10,-22z"/>
   <path id="svg_69" d="m11888.52499,13027.2709c-16,-6 -42,-56 -42,-81c0,-11 9,-31 21,-46c16,-20 29,-26 60,-26c52,0 79,27 79,80c0,51 -27,80 -72,79c-18,0 -39,-3 -46,-6zm76,-25c17,-17 15,-84 -4,-102c-43,-43 -99,22 -75,87c8,21 17,27 39,27c15,0 33,-5 40,-12z"/>
   <path id="svg_70" d="m12208.52499,12957.2709c2,-50 7,-78 16,-81c8,-2 12,11 12,45c0,61 22,95 58,91c26,-3 27,-6 30,-70c2,-52 6,-68 17,-68c12,0 15,14 15,61c0,33 -5,69 -10,80c-13,23 -62,26 -80,4c-7,-8 -16,-15 -21,-15c-5,0 -9,7 -9,15c0,8 -7,15 -15,15c-13,0 -15,-13 -13,-77z"/>
  </g>
 </g>
</svg>